<svg width="23" height="22" viewBox="0 0 23 22" fill="none" xmlns="http://www.w3.org/2000/svg">
<path d="M20.614 18.3345L3.82018 1.5407C3.4451 1.16563 2.98541 0.905902 2.54219 0.818682C2.09898 0.731463 1.70859 0.82386 1.4569 1.07555C1.20521 1.32725 1.11281 1.71764 1.20003 2.16085C1.28725 2.60406 1.54698 3.06376 1.92205 3.43883L18.7158 20.2326C19.0909 20.6077 19.5506 20.8674 19.9938 20.9547C20.437 21.0419 20.8274 20.9495 21.0791 20.6978C21.3308 20.4461 21.4232 20.0557 21.336 19.6125C21.2487 19.1693 20.989 18.7096 20.614 18.3345Z" fill="black"/>
<path d="M1.20124 19.6118C1.11372 20.0547 1.20573 20.4447 1.45703 20.696C1.70833 20.9473 2.09833 21.0393 2.54124 20.9518C2.98416 20.8642 3.4437 20.6044 3.81877 20.2293L20.6125 3.43546C20.9876 3.06042 21.2475 2.60088 21.335 2.15795C21.4225 1.71502 21.3305 1.32503 21.0792 1.07373C20.8279 0.822433 20.4379 0.730413 19.995 0.817953C19.5521 0.905494 19.0925 1.16537 18.7175 1.54042L1.92372 18.3342C1.54865 18.7093 1.28877 19.1689 1.20124 19.6118Z" fill="black"/>
</svg>
