<svg width="40" height="50" viewBox="0 0 40 50" fill="none" xmlns="http://www.w3.org/2000/svg">
<g clip-path="url(#clip0_334_108)">
<path d="M6.85117 5.58041H4.8791V0.347466H6.85117V5.58041ZM33.846 39.2627V37.318H39.2481V39.2627H33.846Z" fill="white" stroke="white" stroke-width="0.52"/>
<path d="M4.61902 0.0874023V5.67211H7.10902L7.11622 2.5521H37.0159V37.0546L33.8537 37.0599V39.5226H39.508V0.0874023H4.61902Z" fill="#E7E7E7"/>
<path d="M4.61902 0.0874023V5.67211H7.10902L7.11622 2.5521H37.0159V37.0546L33.8537 37.0599V39.5226H39.508V0.0874023H4.61902Z" fill="#E7E7E7"/>
<path d="M4.61902 0.0874023V5.67211H7.10902L7.11622 2.5521H37.0159V37.0546L33.8537 37.0599V39.5226H39.508V0.0874023H4.61902Z" stroke="#E7E7E7" stroke-width="0.52"/>
<path d="M32.4164 4.76331H2.5116H0.0195312V7.22801V41.7338V44.1985H2.5116H17.464L17.2005 46.6632C17.2005 47.5177 17.6474 48.3105 18.3826 48.7599C18.7821 49.0047 19.2374 49.1279 19.6926 49.1279C20.073 49.1279 20.4552 49.0417 20.8065 48.8675L22.4481 48.1865L24.0889 48.8675C24.4411 49.0417 24.8224 49.1279 25.2037 49.1279C25.6598 49.1279 26.1142 49.0047 26.5137 48.7599C27.2489 48.3105 27.6958 47.5177 27.6958 46.6632L27.4323 44.1985H32.4164H34.9085V41.7338V7.22801V4.76331H32.4164ZM25.2037 46.6632L22.4481 45.4309L19.6926 46.6632L19.9561 43.7442C20.7394 44.0202 21.5701 44.1985 22.4481 44.1985C23.3262 44.1985 24.1569 44.0202 24.9402 43.7442L25.2037 46.6632ZM22.4481 41.7338C19.6953 41.7338 17.464 39.5271 17.464 36.8044C17.464 34.0818 19.6953 31.875 22.4481 31.875C25.201 31.875 27.4323 34.0818 27.4323 36.8044C27.4323 39.5271 25.201 41.7338 22.4481 41.7338ZM32.4164 41.7338H27.9797C29.175 40.4226 29.9243 38.7048 29.9243 36.8044C29.9243 32.727 26.5709 29.4103 22.4481 29.4103C18.3254 29.4103 14.9719 32.727 14.9719 36.8044C14.9719 38.7048 15.7212 40.4226 16.9166 41.7338H2.5116V7.22801H32.4164V41.7338Z" fill="white"/>
<path d="M2.5116 44.0685H0.149531V41.7338V7.22801V4.89331H2.5116H32.4164H34.7785V7.22801V41.7338V44.0685H32.4164H27.4323H27.2876L27.303 44.2124L27.5658 46.6701C27.5634 47.4762 27.1409 48.2241 26.4459 48.649L26.4458 48.649C26.0672 48.881 25.6364 48.998 25.2037 48.998C24.8421 48.998 24.4805 48.9161 24.1465 48.751L24.1467 48.7507L24.1388 48.7475L22.498 48.0664L22.4482 48.0457L22.3983 48.0664L20.7567 48.7474L20.7566 48.7472L20.7488 48.751C20.4158 48.9161 20.0534 48.998 19.6926 48.998C19.2607 48.998 18.829 48.881 18.4505 48.649L18.4504 48.649C17.7554 48.2241 17.3329 47.4762 17.3305 46.6701L17.5933 44.2124L17.6086 44.0685H17.464H2.5116ZM25.1507 46.7819L25.3531 46.8725L25.3332 46.6516L25.0697 43.7325L25.0547 43.566L24.897 43.6216C24.1243 43.8939 23.3084 44.0685 22.4481 44.0685C21.5879 44.0685 20.772 43.8939 19.9993 43.6216L19.8416 43.566L19.8266 43.7325L19.5631 46.6516L19.5431 46.8725L19.7456 46.7819L22.4481 45.5733L25.1507 46.7819ZM32.4164 41.8638H32.5464V41.7338V7.22801V7.09801H32.4164H2.5116H2.3816V7.22801V41.7338V41.8638H2.5116H16.9166H17.2111L17.0127 41.6463C15.8371 40.3568 15.1019 38.6695 15.1019 36.8044C15.1019 32.8001 18.3959 29.5403 22.4481 29.5403C26.5004 29.5403 29.7943 32.8001 29.7943 36.8044C29.7943 38.6695 29.0591 40.3568 27.8836 41.6463L27.6852 41.8638H27.9797H32.4164ZM17.334 36.8044C17.334 39.6002 19.6248 41.8638 22.4481 41.8638C25.2714 41.8638 27.5623 39.6002 27.5623 36.8044C27.5623 34.0087 25.2714 31.745 22.4481 31.745C19.6248 31.745 17.334 34.0087 17.334 36.8044Z" stroke="white" stroke-width="0.26"/>
<path d="M10.1185 13.3957H24.8109V15.6004H10.1185V13.3957Z" fill="white" stroke="white" stroke-width="0.26"/>
<path d="M5.13403 18.3251H29.7947V20.5298H5.13403V18.3251Z" fill="white" stroke="white" stroke-width="0.26"/>
<path d="M5.13403 23.2545H22.3185V25.4592H5.13403V23.2545Z" fill="white" stroke="white" stroke-width="0.26"/>
</g>
<defs>
<clipPath id="clip0_334_108">
<rect width="39.527" height="49.1673" fill="white"/>
</clipPath>
</defs>
</svg>
