<svg width="40" height="50" viewBox="0 0 40 50" fill="none" xmlns="http://www.w3.org/2000/svg">
<g clip-path="url(#clip0_405_195)">
<path d="M6.85117 5.58041H4.8791V0.347466H6.85117V5.58041ZM33.846 39.2627V37.318H39.2481V39.2627H33.846Z" fill="#636363" stroke="#636363" stroke-width="0.52"/>
<path d="M4.61902 0.0874023V5.67211H7.10902L7.11622 2.5521H37.0159V37.0546L33.8537 37.0599V39.5226H39.508V0.0874023H4.61902Z" fill="#474C4D"/>
<path d="M4.61902 0.0874023V5.67211H7.10902L7.11622 2.5521H37.0159V37.0546L33.8537 37.0599V39.5226H39.508V0.0874023H4.61902Z" fill="#474C4D"/>
<path d="M4.61902 0.0874023V5.67211H7.10902L7.11622 2.5521H37.0159V37.0546L33.8537 37.0599V39.5226H39.508V0.0874023H4.61902Z" stroke="#474C4D" stroke-width="0.52"/>
<path d="M32.4164 4.76318H2.5116H0.0195312V7.22789V41.7337V44.1984H2.5116H17.464L17.2005 46.6631C17.2005 47.5176 17.6474 48.3103 18.3826 48.7598C18.7821 49.0046 19.2374 49.1278 19.6926 49.1278C20.073 49.1278 20.4552 49.0416 20.8065 48.8674L22.4481 48.1863L24.0889 48.8674C24.4411 49.0416 24.8224 49.1278 25.2037 49.1278C25.6598 49.1278 26.1142 49.0046 26.5137 48.7598C27.2489 48.3103 27.6958 47.5176 27.6958 46.6631L27.4323 44.1984H32.4164H34.9085V41.7337V7.22789V4.76318H32.4164ZM25.2037 46.6631L22.4481 45.4308L19.6926 46.6631L19.9561 43.7441C20.7394 44.0201 21.5701 44.1984 22.4481 44.1984C23.3262 44.1984 24.1569 44.0201 24.9402 43.7441L25.2037 46.6631ZM22.4481 41.7337C19.6953 41.7337 17.464 39.5269 17.464 36.8043C17.464 34.0817 19.6953 31.8749 22.4481 31.8749C25.201 31.8749 27.4323 34.0817 27.4323 36.8043C27.4323 39.5269 25.201 41.7337 22.4481 41.7337ZM32.4164 41.7337H27.9797C29.175 40.4225 29.9243 38.7046 29.9243 36.8043C29.9243 32.7269 26.5709 29.4102 22.4481 29.4102C18.3254 29.4102 14.9719 32.7269 14.9719 36.8043C14.9719 38.7046 15.7212 40.4225 16.9166 41.7337H2.5116V7.22789H32.4164V41.7337Z" fill="#636363"/>
<path d="M2.5116 44.0684H0.149531V41.7337V7.22789V4.89318H2.5116H32.4164H34.7785V7.22789V41.7337V44.0684H32.4164H27.4323H27.2876L27.303 44.2122L27.5658 46.67C27.5634 47.4761 27.1409 48.224 26.4459 48.6488L26.4458 48.6489C26.0672 48.8809 25.6364 48.9978 25.2037 48.9978C24.8421 48.9978 24.4805 48.916 24.1465 48.7509L24.1467 48.7506L24.1388 48.7473L22.498 48.0663L22.4482 48.0456L22.3983 48.0663L20.7567 48.7473L20.7566 48.7471L20.7488 48.7509C20.4158 48.916 20.0534 48.9978 19.6926 48.9978C19.2607 48.9978 18.829 48.8809 18.4505 48.6489L18.4504 48.6488C17.7554 48.224 17.3329 47.4761 17.3305 46.67L17.5933 44.2122L17.6086 44.0684H17.464H2.5116ZM25.1507 46.7818L25.3531 46.8724L25.3332 46.6514L25.0697 43.7324L25.0547 43.5659L24.897 43.6215C24.1243 43.8938 23.3084 44.0684 22.4481 44.0684C21.5879 44.0684 20.772 43.8938 19.9993 43.6215L19.8416 43.5659L19.8266 43.7324L19.5631 46.6514L19.5431 46.8724L19.7456 46.7818L22.4481 45.5732L25.1507 46.7818ZM32.4164 41.8637H32.5464V41.7337V7.22789V7.09789H32.4164H2.5116H2.3816V7.22789V41.7337V41.8637H2.5116H16.9166H17.2111L17.0127 41.6461C15.8371 40.3567 15.1019 38.6694 15.1019 36.8043C15.1019 32.8 18.3959 29.5402 22.4481 29.5402C26.5004 29.5402 29.7943 32.8 29.7943 36.8043C29.7943 38.6694 29.0591 40.3567 27.8836 41.6461L27.6852 41.8637H27.9797H32.4164ZM17.334 36.8043C17.334 39.6001 19.6248 41.8637 22.4481 41.8637C25.2714 41.8637 27.5623 39.6001 27.5623 36.8043C27.5623 34.0085 25.2714 31.7449 22.4481 31.7449C19.6248 31.7449 17.334 34.0085 17.334 36.8043Z" stroke="#636363" stroke-width="0.26"/>
<path d="M10.1185 13.3956H24.8109V15.6003H10.1185V13.3956Z" fill="#636363" stroke="#636363" stroke-width="0.26"/>
<path d="M5.13403 18.3251H29.7947V20.5298H5.13403V18.3251Z" fill="#636363" stroke="#636363" stroke-width="0.26"/>
<path d="M5.13403 23.2543H22.3185V25.459H5.13403V23.2543Z" fill="#636363" stroke="#636363" stroke-width="0.26"/>
</g>
<defs>
<clipPath id="clip0_405_195">
<rect width="39.527" height="49.1673" fill="white"/>
</clipPath>
</defs>
</svg>
