<svg width="44" height="44" viewBox="0 0 44 44" fill="none" xmlns="http://www.w3.org/2000/svg">
<g clip-path="url(#clip0_334_96)">
<path d="M25.4663 35.8818L25.4659 35.882C25.2497 35.9495 25.0647 36.0911 24.9446 36.2818C24.8244 36.4725 24.7773 36.6995 24.8119 36.9218C24.8465 37.1441 24.9605 37.3464 25.1329 37.4925C25.3046 37.6381 25.5231 37.7184 25.749 37.7193C25.8542 37.7226 25.9591 37.7078 26.0591 37.6754C26.0595 37.6753 26.0598 37.6752 26.0601 37.6751L35.0856 34.8839L35.0856 34.884L35.0898 34.8825C35.3223 34.8017 35.5144 34.6348 35.6251 34.4164C35.7358 34.198 35.7562 33.9455 35.6818 33.7125C35.6075 33.4794 35.4444 33.2845 35.2275 33.1684C35.0108 33.0523 34.757 33.0239 34.5195 33.0889L34.5195 33.0888L34.5156 33.09L25.4663 35.8818Z" fill="#E7E7E7" stroke="#E7E7E7" stroke-width="0.254798"/>
<path d="M25.4664 32.2009L25.4664 32.2009L25.4659 32.201C25.2497 32.2685 25.0647 32.4102 24.9446 32.6008C24.8244 32.7916 24.7773 33.0186 24.8119 33.2408C24.8465 33.4631 24.9605 33.6655 25.1329 33.8116C25.3046 33.9572 25.5231 34.0374 25.749 34.0383C25.8542 34.0417 25.9591 34.0268 26.0591 33.9945L31.8364 32.2112L31.8364 32.2112L31.8373 32.2109C32.0776 32.1347 32.2779 31.9673 32.3937 31.745C32.5094 31.5225 32.5309 31.2636 32.4532 31.0254C32.3755 30.7873 32.2053 30.5899 31.9805 30.4762C31.756 30.3626 31.4951 30.3415 31.255 30.4175C31.2549 30.4176 31.2547 30.4176 31.2545 30.4177L25.4664 32.2009Z" fill="#E7E7E7" stroke="#E7E7E7" stroke-width="0.254798"/>
<path d="M7.21568 10.831L7.32606 10.6013C7.28483 10.5811 7.24208 10.5642 7.19819 10.5506L7.17983 10.545H7.16062H7.12781L7.10852 10.7983C7.14568 10.804 7.18177 10.815 7.21568 10.831Z" fill="white" stroke="white" stroke-width="0.254798"/>
<path d="M15.3235 13.7304L15.1583 13.5382L15.1035 13.5761L15.0858 13.5884L15.0731 13.6058C15.0135 13.6874 14.9667 13.7777 14.9346 13.8735L14.9346 13.8735L14.9345 13.8738C14.9129 13.9387 14.9014 14.0066 14.9006 14.075L15.1545 14.0914C15.1703 13.9566 15.2294 13.83 15.3235 13.7304Z" fill="white" stroke="white" stroke-width="0.254798"/>
<mask id="path-5-outside-1_334_96" maskUnits="userSpaceOnUse" x="-0.333252" y="-0.396851" width="44" height="44" fill="black">
<rect fill="white" x="-0.333252" y="-0.396851" width="44" height="44"/>
<path d="M43.2871 9.7735C43.2923 9.74346 43.2923 9.71278 43.2871 9.68274C43.2903 9.65257 43.2903 9.62216 43.2871 9.59199C43.2768 9.56258 43.2641 9.53402 43.2493 9.50657C43.2101 9.42094 43.1529 9.3445 43.0814 9.28235L42.9623 9.23964C42.9145 9.20239 42.8616 9.17185 42.8053 9.14889H42.762L28.6526 3.27649L22.4426 0.665938H22.3938C22.3486 0.64685 22.3014 0.632534 22.2531 0.62323C22.1392 0.596456 22.0205 0.596456 21.9066 0.62323C21.8582 0.632534 21.8111 0.64685 21.7658 0.665938H21.7333L1.15945 9.10084C1.1098 9.1204 1.06257 9.14548 1.01868 9.17558C0.987821 9.19617 0.960418 9.22139 0.937464 9.25032C0.914389 9.26235 0.895523 9.28095 0.883323 9.30371C0.79638 9.39407 0.733181 9.50404 0.699241 9.62402C0.677517 9.69317 0.666564 9.76517 0.666756 9.83756V35.863C0.666008 36.0335 0.720857 36.1997 0.823213 36.3372C0.925569 36.4747 1.07001 36.576 1.23524 36.6264L21.5167 42.8725L22.2856 42.9632L32.7999 39.7281L42.6916 36.6744C42.8522 36.6202 42.9912 36.517 43.0885 36.3798C43.1859 36.2426 43.2364 36.0784 43.233 35.911V9.87493C43.2544 9.84296 43.2725 9.80898 43.2871 9.7735ZM21.1811 41.0948L2.28559 35.2757V10.9159L6.22711 12.1331V22.9384C6.22726 23.1043 6.27933 23.2662 6.37623 23.4018C6.47313 23.5375 6.61013 23.6404 6.76853 23.6964L6.89306 23.7391H6.95803H7.01217C7.05893 23.7447 7.10618 23.7447 7.15294 23.7391H7.21249C7.23018 23.7442 7.24895 23.7442 7.26664 23.7391C7.29347 23.7442 7.32102 23.7442 7.34785 23.7391L7.47237 23.7018C7.50168 23.6898 7.52904 23.6736 7.55359 23.6537C7.58584 23.6372 7.61511 23.6156 7.64022 23.5897L7.68353 23.5523L11.376 20.3492L15.1659 26.1789L15.2146 26.2589C15.2747 26.353 15.3537 26.4337 15.4469 26.4962C15.5401 26.5587 15.6453 26.6015 15.7561 26.622H15.9943C16.0174 26.6274 16.0415 26.6274 16.0647 26.622C16.0824 26.6267 16.1011 26.6267 16.1188 26.622H16.1838C16.2279 26.606 16.2698 26.5845 16.3083 26.5579C16.3516 26.5305 16.3916 26.4982 16.4274 26.4618L16.5574 26.323C16.5838 26.2951 16.6074 26.2647 16.6277 26.2322C16.6603 26.1902 16.6859 26.1434 16.7035 26.0934C16.7254 26.0456 16.7418 25.9954 16.7523 25.944C16.7576 25.8907 16.7576 25.8371 16.7523 25.7838V15.379L21.1811 16.7403V41.0948ZM15.6748 13.5105L15.6207 13.5479L15.3338 13.7614C15.2224 13.879 15.1522 14.0287 15.1334 14.1885C15.1307 14.2205 15.1307 14.2526 15.1334 14.2846V23.0558L12.3181 18.7102C12.3204 18.6961 12.3204 18.6817 12.3181 18.6675C12.2983 18.633 12.2747 18.6008 12.2477 18.5714C12.2125 18.5347 12.1745 18.5008 12.134 18.47C12.0971 18.4382 12.055 18.413 12.0095 18.3953L11.9337 18.3579C11.903 18.3425 11.8701 18.3317 11.8362 18.3259L11.6846 18.3152C11.6146 18.3045 11.5434 18.3045 11.4735 18.3152H11.3598C11.2926 18.3317 11.2287 18.3587 11.1703 18.3953L11.062 18.47L10.997 18.5287L7.84054 21.2834V12.3413C7.8912 12.3346 7.94051 12.3202 7.98672 12.2986L16.958 8.62037L22.8674 10.8946L15.6748 13.5105ZM22.0636 15.3309L18.3061 14.1671L25.2333 11.658L25.3633 11.5886C25.4066 11.5612 25.4466 11.5289 25.4824 11.4925C25.5584 11.4236 25.6192 11.34 25.6611 11.2469C25.6803 11.206 25.6949 11.163 25.7044 11.1188C25.7074 11.1065 25.7074 11.0937 25.7044 11.0814C25.71 11.0353 25.71 10.9887 25.7044 10.9426C25.7051 10.8593 25.6923 10.7764 25.6665 10.6971C25.6665 10.6971 25.6665 10.649 25.6394 10.6277C25.6236 10.5893 25.6055 10.5519 25.5853 10.5156L25.5149 10.4195C25.483 10.38 25.4466 10.3442 25.4066 10.3127H25.3687C25.3273 10.2763 25.2796 10.2473 25.2279 10.2273L17.3749 7.0455H17.337C17.233 6.99665 17.1192 6.97129 17.004 6.97129C16.8888 6.97129 16.7751 6.99665 16.6711 7.0455L7.38575 10.8412C7.42382 10.8612 7.46005 10.8844 7.49403 10.9106C7.45104 10.8804 7.40355 10.857 7.35326 10.8412C7.33266 10.8253 7.30855 10.8143 7.28288 10.8092L3.85571 9.74147L22.0798 2.2675L28.0354 4.73925L40.1199 9.7735L22.0636 15.3309ZM41.6683 35.3184L32.3451 38.1959L22.8053 41.1375V16.783L41.6683 10.964V35.3184Z"/>
</mask>
<path d="M43.2871 9.7735C43.2923 9.74346 43.2923 9.71278 43.2871 9.68274C43.2903 9.65257 43.2903 9.62216 43.2871 9.59199C43.2768 9.56258 43.2641 9.53402 43.2493 9.50657C43.2101 9.42094 43.1529 9.3445 43.0814 9.28235L42.9623 9.23964C42.9145 9.20239 42.8616 9.17185 42.8053 9.14889H42.762L28.6526 3.27649L22.4426 0.665938H22.3938C22.3486 0.64685 22.3014 0.632534 22.2531 0.62323C22.1392 0.596456 22.0205 0.596456 21.9066 0.62323C21.8582 0.632534 21.8111 0.64685 21.7658 0.665938H21.7333L1.15945 9.10084C1.1098 9.1204 1.06257 9.14548 1.01868 9.17558C0.987821 9.19617 0.960418 9.22139 0.937464 9.25032C0.914389 9.26235 0.895523 9.28095 0.883323 9.30371C0.79638 9.39407 0.733181 9.50404 0.699241 9.62402C0.677517 9.69317 0.666564 9.76517 0.666756 9.83756V35.863C0.666008 36.0335 0.720857 36.1997 0.823213 36.3372C0.925569 36.4747 1.07001 36.576 1.23524 36.6264L21.5167 42.8725L22.2856 42.9632L32.7999 39.7281L42.6916 36.6744C42.8522 36.6202 42.9912 36.517 43.0885 36.3798C43.1859 36.2426 43.2364 36.0784 43.233 35.911V9.87493C43.2544 9.84296 43.2725 9.80898 43.2871 9.7735ZM21.1811 41.0948L2.28559 35.2757V10.9159L6.22711 12.1331V22.9384C6.22726 23.1043 6.27933 23.2662 6.37623 23.4018C6.47313 23.5375 6.61013 23.6404 6.76853 23.6964L6.89306 23.7391H6.95803H7.01217C7.05893 23.7447 7.10618 23.7447 7.15294 23.7391H7.21249C7.23018 23.7442 7.24895 23.7442 7.26664 23.7391C7.29347 23.7442 7.32102 23.7442 7.34785 23.7391L7.47237 23.7018C7.50168 23.6898 7.52904 23.6736 7.55359 23.6537C7.58584 23.6372 7.61511 23.6156 7.64022 23.5897L7.68353 23.5523L11.376 20.3492L15.1659 26.1789L15.2146 26.2589C15.2747 26.353 15.3537 26.4337 15.4469 26.4962C15.5401 26.5587 15.6453 26.6015 15.7561 26.622H15.9943C16.0174 26.6274 16.0415 26.6274 16.0647 26.622C16.0824 26.6267 16.1011 26.6267 16.1188 26.622H16.1838C16.2279 26.606 16.2698 26.5845 16.3083 26.5579C16.3516 26.5305 16.3916 26.4982 16.4274 26.4618L16.5574 26.323C16.5838 26.2951 16.6074 26.2647 16.6277 26.2322C16.6603 26.1902 16.6859 26.1434 16.7035 26.0934C16.7254 26.0456 16.7418 25.9954 16.7523 25.944C16.7576 25.8907 16.7576 25.8371 16.7523 25.7838V15.379L21.1811 16.7403V41.0948ZM15.6748 13.5105L15.6207 13.5479L15.3338 13.7614C15.2224 13.879 15.1522 14.0287 15.1334 14.1885C15.1307 14.2205 15.1307 14.2526 15.1334 14.2846V23.0558L12.3181 18.7102C12.3204 18.6961 12.3204 18.6817 12.3181 18.6675C12.2983 18.633 12.2747 18.6008 12.2477 18.5714C12.2125 18.5347 12.1745 18.5008 12.134 18.47C12.0971 18.4382 12.055 18.413 12.0095 18.3953L11.9337 18.3579C11.903 18.3425 11.8701 18.3317 11.8362 18.3259L11.6846 18.3152C11.6146 18.3045 11.5434 18.3045 11.4735 18.3152H11.3598C11.2926 18.3317 11.2287 18.3587 11.1703 18.3953L11.062 18.47L10.997 18.5287L7.84054 21.2834V12.3413C7.8912 12.3346 7.94051 12.3202 7.98672 12.2986L16.958 8.62037L22.8674 10.8946L15.6748 13.5105ZM22.0636 15.3309L18.3061 14.1671L25.2333 11.658L25.3633 11.5886C25.4066 11.5612 25.4466 11.5289 25.4824 11.4925C25.5584 11.4236 25.6192 11.34 25.6611 11.2469C25.6803 11.206 25.6949 11.163 25.7044 11.1188C25.7074 11.1065 25.7074 11.0937 25.7044 11.0814C25.71 11.0353 25.71 10.9887 25.7044 10.9426C25.7051 10.8593 25.6923 10.7764 25.6665 10.6971C25.6665 10.6971 25.6665 10.649 25.6394 10.6277C25.6236 10.5893 25.6055 10.5519 25.5853 10.5156L25.5149 10.4195C25.483 10.38 25.4466 10.3442 25.4066 10.3127H25.3687C25.3273 10.2763 25.2796 10.2473 25.2279 10.2273L17.3749 7.0455H17.337C17.233 6.99665 17.1192 6.97129 17.004 6.97129C16.8888 6.97129 16.7751 6.99665 16.6711 7.0455L7.38575 10.8412C7.42382 10.8612 7.46005 10.8844 7.49403 10.9106C7.45104 10.8804 7.40355 10.857 7.35326 10.8412C7.33266 10.8253 7.30855 10.8143 7.28288 10.8092L3.85571 9.74147L22.0798 2.2675L28.0354 4.73925L40.1199 9.7735L22.0636 15.3309ZM41.6683 35.3184L32.3451 38.1959L22.8053 41.1375V16.783L41.6683 10.964V35.3184Z" fill="white"/>
<path d="M43.2871 9.7735C43.2923 9.74346 43.2923 9.71278 43.2871 9.68274C43.2903 9.65257 43.2903 9.62216 43.2871 9.59199C43.2768 9.56258 43.2641 9.53402 43.2493 9.50657C43.2101 9.42094 43.1529 9.3445 43.0814 9.28235L42.9623 9.23964C42.9145 9.20239 42.8616 9.17185 42.8053 9.14889H42.762L28.6526 3.27649L22.4426 0.665938H22.3938C22.3486 0.64685 22.3014 0.632534 22.2531 0.62323C22.1392 0.596456 22.0205 0.596456 21.9066 0.62323C21.8582 0.632534 21.8111 0.64685 21.7658 0.665938H21.7333L1.15945 9.10084C1.1098 9.1204 1.06257 9.14548 1.01868 9.17558C0.987821 9.19617 0.960418 9.22139 0.937464 9.25032C0.914389 9.26235 0.895523 9.28095 0.883323 9.30371C0.79638 9.39407 0.733181 9.50404 0.699241 9.62402C0.677517 9.69317 0.666564 9.76517 0.666756 9.83756V35.863C0.666008 36.0335 0.720857 36.1997 0.823213 36.3372C0.925569 36.4747 1.07001 36.576 1.23524 36.6264L21.5167 42.8725L22.2856 42.9632L32.7999 39.7281L42.6916 36.6744C42.8522 36.6202 42.9912 36.517 43.0885 36.3798C43.1859 36.2426 43.2364 36.0784 43.233 35.911V9.87493C43.2544 9.84296 43.2725 9.80898 43.2871 9.7735ZM21.1811 41.0948L2.28559 35.2757V10.9159L6.22711 12.1331V22.9384C6.22726 23.1043 6.27933 23.2662 6.37623 23.4018C6.47313 23.5375 6.61013 23.6404 6.76853 23.6964L6.89306 23.7391H6.95803H7.01217C7.05893 23.7447 7.10618 23.7447 7.15294 23.7391H7.21249C7.23018 23.7442 7.24895 23.7442 7.26664 23.7391C7.29347 23.7442 7.32102 23.7442 7.34785 23.7391L7.47237 23.7018C7.50168 23.6898 7.52904 23.6736 7.55359 23.6537C7.58584 23.6372 7.61511 23.6156 7.64022 23.5897L7.68353 23.5523L11.376 20.3492L15.1659 26.1789L15.2146 26.2589C15.2747 26.353 15.3537 26.4337 15.4469 26.4962C15.5401 26.5587 15.6453 26.6015 15.7561 26.622H15.9943C16.0174 26.6274 16.0415 26.6274 16.0647 26.622C16.0824 26.6267 16.1011 26.6267 16.1188 26.622H16.1838C16.2279 26.606 16.2698 26.5845 16.3083 26.5579C16.3516 26.5305 16.3916 26.4982 16.4274 26.4618L16.5574 26.323C16.5838 26.2951 16.6074 26.2647 16.6277 26.2322C16.6603 26.1902 16.6859 26.1434 16.7035 26.0934C16.7254 26.0456 16.7418 25.9954 16.7523 25.944C16.7576 25.8907 16.7576 25.8371 16.7523 25.7838V15.379L21.1811 16.7403V41.0948ZM15.6748 13.5105L15.6207 13.5479L15.3338 13.7614C15.2224 13.879 15.1522 14.0287 15.1334 14.1885C15.1307 14.2205 15.1307 14.2526 15.1334 14.2846V23.0558L12.3181 18.7102C12.3204 18.6961 12.3204 18.6817 12.3181 18.6675C12.2983 18.633 12.2747 18.6008 12.2477 18.5714C12.2125 18.5347 12.1745 18.5008 12.134 18.47C12.0971 18.4382 12.055 18.413 12.0095 18.3953L11.9337 18.3579C11.903 18.3425 11.8701 18.3317 11.8362 18.3259L11.6846 18.3152C11.6146 18.3045 11.5434 18.3045 11.4735 18.3152H11.3598C11.2926 18.3317 11.2287 18.3587 11.1703 18.3953L11.062 18.47L10.997 18.5287L7.84054 21.2834V12.3413C7.8912 12.3346 7.94051 12.3202 7.98672 12.2986L16.958 8.62037L22.8674 10.8946L15.6748 13.5105ZM22.0636 15.3309L18.3061 14.1671L25.2333 11.658L25.3633 11.5886C25.4066 11.5612 25.4466 11.5289 25.4824 11.4925C25.5584 11.4236 25.6192 11.34 25.6611 11.2469C25.6803 11.206 25.6949 11.163 25.7044 11.1188C25.7074 11.1065 25.7074 11.0937 25.7044 11.0814C25.71 11.0353 25.71 10.9887 25.7044 10.9426C25.7051 10.8593 25.6923 10.7764 25.6665 10.6971C25.6665 10.6971 25.6665 10.649 25.6394 10.6277C25.6236 10.5893 25.6055 10.5519 25.5853 10.5156L25.5149 10.4195C25.483 10.38 25.4466 10.3442 25.4066 10.3127H25.3687C25.3273 10.2763 25.2796 10.2473 25.2279 10.2273L17.3749 7.0455H17.337C17.233 6.99665 17.1192 6.97129 17.004 6.97129C16.8888 6.97129 16.7751 6.99665 16.6711 7.0455L7.38575 10.8412C7.42382 10.8612 7.46005 10.8844 7.49403 10.9106C7.45104 10.8804 7.40355 10.857 7.35326 10.8412C7.33266 10.8253 7.30855 10.8143 7.28288 10.8092L3.85571 9.74147L22.0798 2.2675L28.0354 4.73925L40.1199 9.7735L22.0636 15.3309ZM41.6683 35.3184L32.3451 38.1959L22.8053 41.1375V16.783L41.6683 10.964V35.3184Z" stroke="white" stroke-width="0.50185" mask="url(#path-5-outside-1_334_96)"/>
<path d="M7.22098 10.8333L7.32429 10.6005C7.26816 10.574 7.20847 10.5558 7.1471 10.5464L7.10283 10.7973C7.14333 10.8054 7.18291 10.8175 7.22098 10.8333Z" fill="white" stroke="white" stroke-width="0.254798"/>
<path d="M15.3231 13.7304L15.1528 13.542L15.1034 13.5799L15.0908 13.5896L15.081 13.6021C14.9992 13.706 14.9409 13.8262 14.9101 13.9545C14.8793 14.0828 14.8767 14.2162 14.9026 14.3456L15.155 14.3206V14.1742H15.1554L15.1545 14.1636C15.1524 14.1389 15.1524 14.114 15.1543 14.0893C15.1705 13.9552 15.2295 13.8295 15.3231 13.7304Z" fill="white" stroke="white" stroke-width="0.254798"/>
</g>
<defs>
<clipPath id="clip0_334_96">
<rect width="43.901" height="43.6631" fill="white"/>
</clipPath>
</defs>
</svg>
