<svg width="38" height="36" viewBox="0 0 38 36" fill="none" xmlns="http://www.w3.org/2000/svg">
<path fill-rule="evenodd" clip-rule="evenodd" d="M21.2128 2.28052L21.1759 20.7884L2.54787 20.745C1.61416 20.7428 0.855804 21.4858 0.853603 22.4044L0.817706 34.2511C0.815505 35.1697 1.57029 35.9162 2.504 35.9184L35.7985 35.996C36.7323 35.9982 37.4906 35.2553 37.4928 34.3367L37.5695 2.31868C37.5717 1.40008 36.8169 0.653594 35.8832 0.651416L22.907 0.621146C21.9735 0.618969 21.215 1.36193 21.2128 2.28052Z" fill="#E7E7E7"/>
<path d="M0 1.54532C0 0.691863 0.691862 0 1.54532 0H13.9078C14.7613 0 15.4532 0.691862 15.4532 1.54532V13.9078C15.4532 14.7613 14.7613 15.4532 13.9078 15.4532H1.54532C0.691863 15.4532 0 14.7613 0 13.9078V1.54532Z" fill="white"/>
</svg>
