<svg width="38" height="36" viewBox="0 0 38 36" fill="none" xmlns="http://www.w3.org/2000/svg">
<path fill-rule="evenodd" clip-rule="evenodd" d="M21.2127 2.28065L21.1758 20.7886L2.54778 20.7451C1.61407 20.7429 0.855712 21.4859 0.853511 22.4045L0.817615 34.2512C0.815414 35.1698 1.5702 35.9163 2.50391 35.9185L35.7985 35.9962C36.7322 35.9983 37.4905 35.2554 37.4927 34.3368L37.5694 2.3188C37.5716 1.4002 36.8169 0.653716 35.8831 0.651538L22.9069 0.621268C21.9735 0.619091 21.2149 1.36205 21.2127 2.28065Z" fill="#2F2F2F" fill-opacity="0.75"/>
<path d="M0 1.54532C0 0.691863 0.691862 0 1.54532 0H13.9078C14.7613 0 15.4532 0.691862 15.4532 1.54532V13.9078C15.4532 14.7613 14.7613 15.4532 13.9078 15.4532H1.54532C0.691863 15.4532 0 14.7613 0 13.9078V1.54532Z" fill="#0A1012" fill-opacity="0.75"/>
</svg>
