<svg width="43" height="34" viewBox="0 0 43 34" fill="none" xmlns="http://www.w3.org/2000/svg">
<path d="M10.4219 6.0625V6.57031C10.4219 7.4349 10.3021 8.21094 10.0625 8.89844C9.82812 9.58594 9.49219 10.1719 9.05469 10.6562C8.6224 11.1406 8.10677 11.513 7.50781 11.7734C6.91406 12.0286 6.25521 12.1562 5.53125 12.1562C4.80729 12.1562 4.14583 12.0286 3.54688 11.7734C2.94792 11.513 2.42708 11.1406 1.98438 10.6562C1.54688 10.1719 1.20833 9.58594 0.96875 8.89844C0.729167 8.21094 0.609375 7.4349 0.609375 6.57031V6.0625C0.609375 5.19792 0.729167 4.42188 0.96875 3.73438C1.20833 3.04167 1.54427 2.45312 1.97656 1.96875C2.41406 1.48438 2.93229 1.11458 3.53125 0.859375C4.13021 0.598958 4.79167 0.46875 5.51562 0.46875C6.23958 0.46875 6.90104 0.598958 7.5 0.859375C8.09896 1.11458 8.61458 1.48438 9.04688 1.96875C9.48438 2.45312 9.82292 3.04167 10.0625 3.73438C10.3021 4.42188 10.4219 5.19792 10.4219 6.0625ZM7.85156 6.57031V6.04688C7.85156 5.46875 7.79948 4.95833 7.69531 4.51562C7.59115 4.06771 7.4401 3.69271 7.24219 3.39062C7.04427 3.08854 6.79948 2.86198 6.50781 2.71094C6.21615 2.55469 5.88542 2.47656 5.51562 2.47656C5.13021 2.47656 4.79427 2.55469 4.50781 2.71094C4.22135 2.86198 3.97917 3.08854 3.78125 3.39062C3.58854 3.69271 3.4401 4.06771 3.33594 4.51562C3.23698 4.95833 3.1875 5.46875 3.1875 6.04688V6.57031C3.1875 7.14323 3.23698 7.65365 3.33594 8.10156C3.4401 8.54427 3.59115 8.91927 3.78906 9.22656C3.98698 9.53385 4.22917 9.76562 4.51562 9.92188C4.80729 10.0781 5.14583 10.1562 5.53125 10.1562C5.90104 10.1562 6.22917 10.0781 6.51562 9.92188C6.80729 9.76562 7.05208 9.53385 7.25 9.22656C7.44792 8.91927 7.59635 8.54427 7.69531 8.10156C7.79948 7.65365 7.85156 7.14323 7.85156 6.57031ZM16.6875 0.625V12H14.1484V0.625H16.6875ZM20.1484 0.625V2.60156H10.7578V0.625H20.1484ZM9.98438 29.0312V31H1.89062V29.0312H9.98438ZM2.6875 29.0312V33.7891H0.320312L0.164062 29.0312H2.6875ZM11.7578 29.0312L11.5156 33.7969H9.21094V29.0312H11.7578ZM8.74219 19.625V21.6016H3.14844V19.625H8.74219ZM10.5 19.625V31H7.96875V19.625H10.5ZM2.91406 19.625H5.45312L5.13281 24.2734C5.08073 25.0547 4.99219 25.7396 4.86719 26.3281C4.7474 26.9115 4.60417 27.4219 4.4375 27.8594C4.27083 28.2969 4.08594 28.6745 3.88281 28.9922C3.6849 29.3099 3.47396 29.5885 3.25 29.8281C3.03125 30.0625 2.8125 30.2734 2.59375 30.4609C2.375 30.6432 2.16146 30.8229 1.95312 31H0.445312V29.0312H0.984375C1.14062 28.9115 1.29948 28.7474 1.46094 28.5391C1.6276 28.3307 1.78646 28.0495 1.9375 27.6953C2.08854 27.3411 2.22135 26.8854 2.33594 26.3281C2.45052 25.7708 2.53385 25.0859 2.58594 24.2734L2.91406 19.625ZM20.4766 24.2031V26.1719H14.5859V24.2031H20.4766ZM15.3906 19.625V31H12.8438V19.625H15.3906ZM22.2344 19.625V31H19.6953V19.625H22.2344ZM31.8594 29.0312V31H25.8047V29.0312H31.8594ZM26.6719 19.625V31H24.125V19.625H26.6719ZM31.0781 24.2031V26.1094H25.8047V24.2031H31.0781ZM31.8672 19.625V21.6016H25.8047V19.625H31.8672ZM35.5312 27.0625L39.8672 19.625H42.4062V31H39.8672V23.5703L35.5312 31H32.9922V19.625H35.5312V27.0625ZM38.8203 16.6016H40.5234C40.5234 17.0599 40.4089 17.4661 40.1797 17.8203C39.9505 18.1745 39.625 18.4505 39.2031 18.6484C38.7865 18.8464 38.2917 18.9453 37.7188 18.9453C36.8594 18.9453 36.1771 18.7292 35.6719 18.2969C35.1667 17.8594 34.9141 17.2943 34.9141 16.6016H36.6094C36.6094 16.8672 36.6927 17.1042 36.8594 17.3125C37.0312 17.5156 37.3177 17.6172 37.7188 17.6172C38.125 17.6172 38.4089 17.5156 38.5703 17.3125C38.737 17.1042 38.8203 16.8672 38.8203 16.6016Z" fill="#2F2F2F" fill-opacity="0.75"/>
<path d="M30.8516 0.617188V12H28.4062V3.39844L25.7656 4.20312V2.3125L30.6094 0.617188H30.8516ZM36.6094 6.875L34.6719 6.41406L35.3359 0.625H41.8516V2.55469H37.3359L37.0625 4.95312C37.2031 4.86979 37.4245 4.77865 37.7266 4.67969C38.0286 4.57552 38.3672 4.52344 38.7422 4.52344C39.2995 4.52344 39.7943 4.60938 40.2266 4.78125C40.6589 4.95312 41.0234 5.20312 41.3203 5.53125C41.6224 5.85417 41.849 6.2526 42 6.72656C42.1562 7.20052 42.2344 7.73958 42.2344 8.34375C42.2344 8.84375 42.1562 9.32292 42 9.78125C41.8438 10.2344 41.6042 10.6406 41.2812 11C40.9635 11.3542 40.5599 11.6354 40.0703 11.8438C39.5807 12.0521 39.0052 12.1562 38.3438 12.1562C37.8438 12.1562 37.3594 12.0807 36.8906 11.9297C36.4219 11.7786 36 11.5599 35.625 11.2734C35.2552 10.9818 34.9609 10.6276 34.7422 10.2109C34.5286 9.79427 34.4193 9.32552 34.4141 8.80469H36.8516C36.8776 9.10677 36.9531 9.36719 37.0781 9.58594C37.2031 9.79948 37.3724 9.96615 37.5859 10.0859C37.7995 10.2005 38.0469 10.2578 38.3281 10.2578C38.599 10.2578 38.8281 10.2057 39.0156 10.1016C39.2031 9.99219 39.3516 9.84375 39.4609 9.65625C39.5755 9.46875 39.6589 9.25 39.7109 9C39.763 8.75 39.7891 8.48177 39.7891 8.19531C39.7891 7.89844 39.7552 7.63281 39.6875 7.39844C39.6198 7.15885 39.5156 6.95573 39.375 6.78906C39.2344 6.61719 39.0547 6.48698 38.8359 6.39844C38.6224 6.30469 38.3646 6.25781 38.0625 6.25781C37.6667 6.25781 37.3568 6.32292 37.1328 6.45312C36.9089 6.58333 36.7344 6.72396 36.6094 6.875Z" fill="#0A1012" fill-opacity="0.75"/>
</svg>
