<svg width="12" height="16" viewBox="0 0 12 16" fill="none" xmlns="http://www.w3.org/2000/svg">
<path d="M11.8081 13.1067C11.7693 13.2776 11.687 13.4937 11.5612 13.7548C11.4354 14.0159 11.3197 14.2177 11.2141 14.3602C11.0093 14.6467 10.5469 14.8947 9.82687 15.1043C9.15835 15.2922 8.53278 15.3201 7.95018 15.188C7.7792 15.1492 7.61548 15.1004 7.45902 15.0416C7.30257 14.9828 7.12948 14.9019 6.93976 14.799C6.75005 14.696 6.61006 14.616 6.5198 14.5589C6.42955 14.5018 6.26854 14.397 6.03678 14.2446C5.80502 14.0921 5.6628 14 5.61011 13.968C5.03979 13.6056 4.54529 13.2171 4.12662 12.8026C3.42951 12.1184 2.74679 11.2461 2.07845 10.1857C1.41011 9.12519 0.917724 8.13293 0.601301 7.20888C0.407934 6.65232 0.270812 6.03861 0.189934 5.36773C0.183863 5.30643 0.16206 5.13835 0.124525 4.8635C0.0869904 4.58865 0.0619401 4.3982 0.0493742 4.29214C0.0368083 4.18609 0.0250107 4.02527 0.0139808 3.8097C0.0029509 3.59413 0.0046676 3.40309 0.0191307 3.23658C0.033594 3.07007 0.0602165 2.90132 0.0989985 2.73034C0.231145 2.14774 0.52621 1.59543 0.984194 1.07341C1.4839 0.514255 1.90714 0.204091 2.25394 0.142924C2.42806 0.109174 2.66003 0.0918776 2.94987 0.0910325C3.2397 0.0901884 3.47011 0.109157 3.64109 0.147939C3.72975 0.168048 3.79408 0.192629 3.8341 0.221681C3.93947 0.285532 4.05271 0.564236 4.1738 1.05779C4.21617 1.19391 4.27238 1.38644 4.34243 1.63537C4.41247 1.88431 4.47769 2.11051 4.53808 2.31397C4.59846 2.51743 4.65819 2.70909 4.71728 2.88896C4.73053 2.91859 4.76798 3.01032 4.82964 3.16413C4.8913 3.31795 4.93388 3.44579 4.95738 3.54767C4.98089 3.64955 4.98258 3.74482 4.96247 3.83347C4.93375 3.96012 4.8076 4.09797 4.58402 4.24702C4.36045 4.39606 4.12464 4.52568 3.87659 4.63588C3.62853 4.74607 3.39416 4.86936 3.17346 5.00574C2.95276 5.14212 2.82948 5.2673 2.80363 5.38129C2.7907 5.43828 2.79037 5.51311 2.80265 5.60579C2.81492 5.69846 2.82711 5.76947 2.83922 5.81883C2.85133 5.86818 2.87842 5.95423 2.92049 6.07697C2.96257 6.1997 2.98534 6.26812 2.9888 6.28223C3.2733 7.25896 3.65546 8.12801 4.1353 8.88938C4.61513 9.65074 5.23425 10.3705 5.99266 11.0485C6.00389 11.0577 6.05579 11.1078 6.14837 11.1987C6.24094 11.2896 6.30688 11.3512 6.34618 11.3834C6.38548 11.4156 6.44428 11.4572 6.52259 11.5083C6.6009 11.5593 6.66855 11.5913 6.72555 11.6043C6.83953 11.6301 7.00565 11.5729 7.2239 11.4327C7.44215 11.2924 7.6545 11.1341 7.86093 10.9579C8.06737 10.7817 8.28604 10.6249 8.51696 10.4875C8.74787 10.3501 8.92666 10.2958 9.05331 10.3245C9.14197 10.3446 9.22718 10.3872 9.30895 10.4524C9.39072 10.5175 9.48768 10.6111 9.59984 10.7331C9.712 10.8551 9.77859 10.9284 9.79961 10.9532C9.93638 11.0841 10.0835 11.2207 10.241 11.3629C10.3985 11.5052 10.5744 11.6616 10.7688 11.8322C10.9631 12.0028 11.1126 12.1366 11.2171 12.2335C11.6101 12.5557 11.8127 12.7781 11.8248 12.9007C11.8338 12.9493 11.8282 13.018 11.8081 13.1067Z" fill="black"/>
</svg>
