<svg width="16" height="16" viewBox="0 0 16 16" fill="none" xmlns="http://www.w3.org/2000/svg">
<path d="M7.60888 0.00925298C3.34886 0.210451 -0.0128861 3.72954 3.71346e-05 7.95991C0.00397198 9.24837 0.317564 10.4645 0.870757 11.5391L0.0214088 15.6286C-0.0245364 15.8498 0.176604 16.0435 0.398151 15.9915L4.43805 15.0421C5.47596 15.5549 6.64175 15.8511 7.87556 15.8698C12.2297 15.9357 15.8603 12.5064 15.996 8.18904C16.1415 3.56114 12.2908 -0.21192 7.60888 0.00925298ZM12.4293 12.3289C11.2462 13.5025 9.67317 14.1488 8.00001 14.1488C7.02031 14.1488 6.08235 13.9307 5.21209 13.5007L4.64949 13.2227L2.17261 13.8048L2.69398 11.2944L2.41681 10.756C1.96503 9.87837 1.73596 8.92936 1.73596 7.93534C1.73596 6.27567 2.38753 4.71537 3.57064 3.54178C4.74319 2.37871 6.34189 1.72189 8.00012 1.72189C9.67328 1.72192 11.2463 2.36822 12.4294 3.54174C13.6125 4.71529 14.2641 6.27559 14.2641 7.93523C14.2641 9.58009 13.6019 11.1659 12.4293 12.3289Z" fill="#111111"/>
<path d="M11.8823 9.6563L10.3327 9.21495C10.129 9.15694 9.90964 9.21426 9.76119 9.3643L9.38225 9.74725C9.22246 9.90873 8.98001 9.96062 8.76853 9.87575C8.03549 9.58149 6.49349 8.22155 6.0997 7.54131C5.98609 7.34508 6.00488 7.09977 6.14437 6.92072L6.47521 6.49617C6.60483 6.32983 6.63218 6.10644 6.54646 5.91416L5.89451 4.45155C5.73835 4.10123 5.28704 3.99926 4.99219 4.2466C4.55971 4.60943 4.04656 5.16079 3.98418 5.77162C3.8742 6.84855 4.33982 8.20613 6.10059 9.83622C8.13475 11.7194 9.7637 11.9682 10.8243 11.7134C11.4259 11.5689 11.9066 10.9895 12.21 10.515C12.4169 10.1916 12.2535 9.76202 11.8823 9.6563Z" fill="#111111"/>
</svg>
