<svg width="18" height="40" viewBox="0 0 18 40" fill="none" xmlns="http://www.w3.org/2000/svg">
<path d="M3.47547 1.24863L3.4659 1.23597L3.45482 1.22463C2.83611 0.591764 1.83046 0.59178 1.2117 1.22472C0.600192 1.85022 0.596113 2.85945 1.19955 3.49007L13.4696 19.9998L1.19946 36.5101C0.596126 37.1407 0.600193 38.1499 1.21175 38.7754C1.52038 39.0912 1.9267 39.25 2.33331 39.25C2.73991 39.25 3.14621 39.0911 3.45494 38.7753L3.46602 38.764L3.47558 38.7513L16.7996 21.1267C17.0888 20.8249 17.25 20.4203 17.25 19.9996C17.25 19.5791 17.0888 19.1743 16.7996 18.8725L3.47547 1.24863Z" fill="#121212" stroke="#121212" stroke-width="0.5"/>
</svg>
