<svg width="18" height="40" viewBox="0 0 18 40" fill="none" xmlns="http://www.w3.org/2000/svg">
<path d="M14.5245 1.24863L14.5341 1.23597L14.5452 1.22463C15.1639 0.591764 16.1695 0.59178 16.7883 1.22472C17.3998 1.85022 17.4039 2.85945 16.8005 3.49007L4.53042 19.9998L16.8005 36.5101C17.4039 37.1407 17.3998 38.1499 16.7883 38.7754C16.4796 39.0912 16.0733 39.25 15.6667 39.25C15.2601 39.25 14.8538 39.0911 14.5451 38.7753L14.534 38.764L14.5244 38.7513L1.20036 21.1267C0.911201 20.8249 0.75 20.4203 0.75 19.9996C0.75 19.5791 0.911192 19.1743 1.20037 18.8725L14.5245 1.24863Z" fill="#121212" stroke="#121212" stroke-width="0.5"/>
</svg>
