<svg width="18" height="40" viewBox="0 0 18 40" fill="none" xmlns="http://www.w3.org/2000/svg">
<path d="M14.5341 1.23597L14.5245 1.24863L1.20037 18.8725C0.911192 19.1743 0.75 19.5791 0.75 19.9996C0.75 20.4203 0.911201 20.8249 1.20037 21.1267L14.5244 38.7513L14.534 38.764L14.5451 38.7753C14.8538 39.0911 15.2601 39.25 15.6667 39.25C16.0733 39.25 16.4796 39.0911 16.7883 38.7754M14.5341 1.23597L16.6095 38.6006M14.5341 1.23597L14.5452 1.22463C15.1639 0.591764 16.1695 0.59178 16.7883 1.22472C17.3998 1.85022 17.4039 2.85945 16.8005 3.49007L4.53042 19.9998M14.5341 1.23597L4.53042 19.9998M16.7883 38.7754L16.6095 38.6006M16.7883 38.7754C16.7882 38.7754 16.7882 38.7754 16.7882 38.7754L16.6095 38.6006M16.7883 38.7754C17.3998 38.1499 17.4039 37.1407 16.8005 36.5101M16.6095 38.6006C17.1302 38.0681 17.1302 37.2047 16.6095 36.6722M16.8005 36.5101L16.8102 36.5231L16.6095 36.6722M16.8005 36.5101L4.53042 19.9998M16.8005 36.5101C16.7965 36.5058 16.7924 36.5016 16.7883 36.4974L16.6095 36.6722M16.6095 36.6722L4.53042 19.9998" fill="#E0E0E0" stroke="#E0E0E0" stroke-width="0.5"/>
</svg>
