<svg width="18" height="40" viewBox="0 0 18 40" fill="none" xmlns="http://www.w3.org/2000/svg">
<path d="M3.4659 1.23597L3.47547 1.24863L16.7996 18.8725C17.0888 19.1743 17.25 19.5791 17.25 19.9996C17.25 20.4203 17.0888 20.8249 16.7996 21.1267L3.47558 38.7513L3.46602 38.764L3.45494 38.7753C3.14621 39.0911 2.73991 39.25 2.33331 39.25C1.9267 39.25 1.52038 39.0911 1.21175 38.7754M3.4659 1.23597L1.39054 38.6006M3.4659 1.23597L3.45482 1.22463C2.83611 0.591764 1.83046 0.59178 1.2117 1.22472C0.600192 1.85022 0.596113 2.85945 1.19955 3.49007L13.4696 19.9998M3.4659 1.23597L13.4696 19.9998M1.21175 38.7754L1.39054 38.6006M1.21175 38.7754C1.21176 38.7754 1.21177 38.7754 1.21179 38.7754L1.39054 38.6006M1.21175 38.7754C0.600191 38.1499 0.596125 37.1407 1.19946 36.5101M1.39054 38.6006C0.869833 38.0681 0.869833 37.2047 1.39046 36.6722M1.19946 36.5101L1.18981 36.5231L1.39046 36.6722M1.19946 36.5101L13.4696 19.9998M1.19946 36.5101C1.20351 36.5058 1.20759 36.5016 1.2117 36.4974L1.39046 36.6722M1.39046 36.6722L13.4696 19.9998" fill="#E0E0E0" stroke="#E0E0E0" stroke-width="0.5"/>
</svg>
