<svg width="19" height="14" viewBox="0 0 19 14" fill="none" xmlns="http://www.w3.org/2000/svg">
<path d="M11.1943 0.304211C11.1943 0.304211 11.0749 0.378214 11.0051 0.510601C10.9353 0.642988 10.8923 0.787846 10.8786 0.936879C10.8648 1.08591 10.8806 1.23619 10.9251 1.37911C10.9695 1.52203 11.0417 1.65478 11.1375 1.76976L15.3271 6.06472L1.62992 6.06472C1.32814 6.06472 1.03872 6.1846 0.825335 6.39799C0.611946 6.61138 0.492065 6.69852 0.492065 7.0003C0.492065 7.30208 0.611946 7.38921 0.825335 7.6026C1.03872 7.81599 1.32814 7.93587 1.62992 7.93587L15.3271 7.93587L11.1375 12.2308C11.0419 12.3459 10.9698 12.4787 10.9255 12.6216C10.8812 12.7644 10.8654 12.9147 10.8792 13.0637C10.8929 13.2126 10.9358 13.3575 11.0056 13.4898C11.0308 13.5379 11.0736 13.5827 11.127 13.636C11.1803 13.6894 11.2888 13.7425 11.3783 13.7746C11.5141 13.8232 11.6832 13.8212 11.8322 13.8075C11.9811 13.7937 12.1259 13.7508 12.2583 13.6811C12.3907 13.6114 12.5081 13.5163 12.6037 13.4012L18.2337 7.72853L18.3361 7.55785L18.4158 7.40993C18.5175 7.14631 18.5175 6.85428 18.4158 6.59067L18.3361 6.44274L18.2337 6.27206L12.6037 0.599377C12.5082 0.484159 12.3909 0.388916 12.2585 0.319106C12.1261 0.249296 11.9812 0.206288 11.8322 0.192548C11.6832 0.178807 11.5211 0.176711 11.3782 0.221138C11.2353 0.265565 11.1943 0.304211 11.1943 0.304211Z" fill="black"/>
</svg>
