<svg width="18" height="12" viewBox="0 0 18 12" fill="none" xmlns="http://www.w3.org/2000/svg">
<path d="M10.4585 0.227491C10.3532 0.309894 10.2661 0.411096 10.2023 0.5253C10.1385 0.639503 10.0992 0.764464 10.0866 0.893028C10.0741 1.02159 10.0885 1.15123 10.1291 1.27452C10.1697 1.39781 10.2357 1.51233 10.3233 1.61151L14.0987 5.01867L1.04007 5.01867C0.764229 5.01867 0.499682 5.12209 0.304631 5.30617C0.109579 5.49025 -3.00881e-07 5.73992 -2.88368e-07 6.00025C-2.75856e-07 6.26058 0.109579 6.51025 0.304631 6.69433C0.499682 6.87841 0.764229 6.98183 1.04007 6.98183L14.0987 6.98183L10.3233 10.389C10.2359 10.4882 10.17 10.6028 10.1295 10.726C10.089 10.8493 10.0746 10.9789 10.0872 11.1074C10.0997 11.2359 10.139 11.3609 10.2027 11.4751C10.2664 11.5893 10.3533 11.6905 10.4585 11.773C10.5637 11.8555 10.685 11.9176 10.8156 11.9559C10.9462 11.9941 11.0836 12.0077 11.2197 11.9958C11.3559 11.984 11.4883 11.947 11.6093 11.8868C11.7303 11.8267 11.8376 11.7447 11.925 11.6454L17.1254 6.62846L17.219 6.48122L17.2918 6.35362C17.3848 6.12621 17.3848 5.87429 17.2918 5.64688L17.219 5.51928L17.1254 5.37204L11.925 0.355096C11.8377 0.255703 11.7304 0.173544 11.6094 0.113323C11.4884 0.0531011 11.356 0.0159993 11.2198 0.00414613C11.0836 -0.00770804 10.9462 0.00591902 10.8156 0.0442443C10.6849 0.0825697 10.5636 0.144841 10.4585 0.227491Z" fill="black"/>
</svg>
