<svg width="23" height="22" viewBox="0 0 23 22" fill="none" xmlns="http://www.w3.org/2000/svg">
<path d="M20.6138 18.3343L3.81998 1.54053C3.4449 1.16546 2.98521 0.905734 2.54199 0.818514C2.09878 0.731295 1.70839 0.823692 1.4567 1.07538C1.20501 1.32708 1.11261 1.71747 1.19983 2.16068C1.28705 2.60389 1.54678 3.06359 1.92185 3.43866L18.7156 20.2324C19.0907 20.6075 19.5504 20.8672 19.9936 20.9545C20.4368 21.0417 20.8272 20.9493 21.0789 20.6976C21.3306 20.4459 21.423 20.0555 21.3358 19.6123C21.2485 19.1691 20.9888 18.7094 20.6138 18.3343Z" fill="white"/>
<path d="M1.20101 19.6119C1.11349 20.0548 1.2055 20.4448 1.4568 20.6961C1.7081 20.9474 2.0981 21.0394 2.54101 20.9519C2.98393 20.8643 3.44347 20.6045 3.81854 20.2294L20.6123 3.4356C20.9874 3.06056 21.2473 2.60102 21.3348 2.15809C21.4223 1.71516 21.3303 1.32517 21.079 1.07387C20.8277 0.822571 20.4377 0.730551 19.9948 0.818091C19.5519 0.905632 19.0923 1.16551 18.7173 1.54056L1.92349 18.3343C1.54842 18.7094 1.28854 19.169 1.20101 19.6119Z" fill="white"/>
</svg>
