<svg width="315" height="315" viewBox="0 0 315 315" fill="none" xmlns="http://www.w3.org/2000/svg">
<path d="M293 100.701H315L293 73.02V73H292.982L249 17.659H66L22.016 73H22V73.021L0 100.701H22V267.341H0V297.341H315V267.341H293V100.701ZM117.5 223.833V266.042H52V103H263V266.042H197.5V223.833H117.5V223.833Z" fill="#303030"/>
<path d="M97.5 123.833H67.5V153.833H97.5V123.833Z" fill="#303030"/>
<path d="M147.5 123.833H117.5V153.833H147.5V123.833Z" fill="#303030"/>
<path d="M197.5 123.833H167.5V153.833H197.5V123.833Z" fill="#303030"/>
<path d="M247.5 123.833H217.5V153.833H247.5V123.833Z" fill="#303030"/>
<path d="M97.5 173.833H67.5V203.833H97.5V173.833Z" fill="#303030"/>
<path d="M147.5 173.833H117.5V203.833H147.5V173.833Z" fill="#303030"/>
<path d="M197.5 173.833H167.5V203.833H197.5V173.833Z" fill="#303030"/>
<path d="M247.5 173.833H217.5V203.833H247.5V173.833Z" fill="#303030"/>
<path d="M97.5 223.833H67.5V253.833H97.5V223.833Z" fill="#303030"/>
<path d="M247.5 223.833H217.5V253.833H247.5V223.833Z" fill="#303030"/>
</svg>
