<svg width="111" height="35" viewBox="0 0 111 35" fill="none" xmlns="http://www.w3.org/2000/svg">
<rect width="6.59148" height="24.7631" transform="matrix(-0.517739 0.855539 -0.517739 -0.855539 110.292 29.3596)" fill="white"/>
<rect width="6.59148" height="24.7631" transform="matrix(-0.517739 -0.855539 0.517739 -0.855539 88.0609 34.9988)" fill="#E9CA8E"/>
<path fill-rule="evenodd" clip-rule="evenodd" d="M71.6282 28.0964L74.7534 22.9322L66.9549 10.0456H61.4681V6.08318L61.4681 6.08323V11.3073L71.6282 28.0964Z" fill="#E9CA8E"/>
<rect x="61.4681" y="10.0457" width="5.48748" height="24.952" fill="white"/>
<path fill-rule="evenodd" clip-rule="evenodd" d="M71.6282 28.0977L68.5031 22.9334L76.3015 10.0468H81.7884V6.08454L81.7885 6.08459V11.3084L71.6282 28.0977Z" fill="#E9CA8E"/>
<rect width="5.48748" height="24.952" transform="matrix(-1 0 0 1 81.7885 10.0469)" fill="white"/>
<path fill-rule="evenodd" clip-rule="evenodd" d="M51.6652 20.8885L56.2299 16.3237V25.5387H56.23L56.23 35.0001H51.6652L51.6652 20.8885Z" fill="white"/>
<path d="M41.9421 35L41.9421 30.4352L56.2299 30.4352L56.2299 35L41.9421 35Z" fill="white"/>
<path d="M41.9423 14.6125L41.9423 10.0469L56.2301 10.0469L56.2301 14.6125L41.9423 14.6125Z" fill="white"/>
<path d="M46.507 35L41.9422 35L41.9422 10.0468L46.507 10.0468L46.507 35Z" fill="white"/>
<path fill-rule="evenodd" clip-rule="evenodd" d="M56.23 16.3237L47.6157 24.938L50.8435 28.1658L56.23 22.7793V16.3237Z" fill="#E9CA8E"/>
<path fill-rule="evenodd" clip-rule="evenodd" d="M31.7105 16.4977L36.704 11.5042L36.704 34.9989H31.7104L31.7105 16.4977Z" fill="white"/>
<path fill-rule="evenodd" clip-rule="evenodd" d="M36.7041 11.5041V19.2723L28.9084 27.068L25.0243 23.1839L36.7041 11.5041Z" fill="#E9CA8E"/>
<path fill-rule="evenodd" clip-rule="evenodd" d="M25.0242 11.6798L25.0242 11.6797L25.0242 11.6798L25.0242 11.6798ZM31.2111 13.261L36.7039 7.76813V0L31.2111 5.49287L31.2111 13.261Z" fill="white"/>
<rect width="6.59148" height="24.7631" transform="matrix(0.517739 -0.855539 0.517739 0.855539 0.567505 13.813)" fill="white"/>
<rect width="6.59148" height="24.7631" transform="matrix(0.517739 0.855539 -0.517739 0.855539 22.799 8.17383)" fill="#E9CA8E"/>
</svg>
