<svg width="251" height="80" viewBox="0 0 251 80" fill="none" xmlns="http://www.w3.org/2000/svg">
<rect width="15.0638" height="56.5924" transform="matrix(-0.517821 0.855489 -0.517821 -0.855489 250.8 67.1103)" fill="#EFEFEF"/>
<rect width="15.0638" height="56.5924" transform="matrix(-0.517821 -0.855489 0.517821 -0.855489 199.985 79.9973)" fill="#6DDE7B"/>
<path fill-rule="evenodd" clip-rule="evenodd" d="M162.424 64.2244L169.568 52.423L151.743 22.9742H139.201V13.9195L139.201 13.9197V25.8572L162.424 64.2244Z" fill="#B9B9B9"/>
<rect x="139.201" y="22.9742" width="12.5428" height="57.0208" fill="#EFEFEF"/>
<path fill-rule="evenodd" clip-rule="evenodd" d="M162.425 64.2266L155.281 52.4252L173.106 22.9765H185.648V13.9217L185.648 13.922V25.8595L162.425 64.2266Z" fill="#6DDE7B"/>
<rect width="12.5428" height="57.0208" transform="matrix(-1 0 0 1 185.648 22.9766)" fill="#EFEFEF"/>
<path fill-rule="evenodd" clip-rule="evenodd" d="M116.795 47.7518L127.228 37.3204V58.3784H127.229L127.229 79.9998H116.795L116.795 47.7518Z" fill="#EFEFEF"/>
<path d="M94.5706 79.9999L94.5706 69.5683L127.228 69.5683L127.228 79.9999L94.5706 79.9999Z" fill="#EFEFEF"/>
<path d="M94.5708 33.41L94.5708 22.9765L127.229 22.9765L127.229 33.41L94.5708 33.41Z" fill="#EFEFEF"/>
<path d="M105.004 80.0001L94.5706 80.0001L94.5705 22.9766L105.004 22.9766L105.004 80.0001Z" fill="#EFEFEF"/>
<path fill-rule="evenodd" clip-rule="evenodd" d="M127.228 37.3204L107.539 57.0057L114.917 64.3819L127.228 52.0728V37.3204Z" fill="#6DDE7B"/>
<path fill-rule="evenodd" clip-rule="evenodd" d="M71.1838 37.7178L82.5977 26.3065L82.5976 79.997H71.1838L71.1838 37.7178Z" fill="#EFEFEF"/>
<path fill-rule="evenodd" clip-rule="evenodd" d="M82.598 44.0583V26.3064L55.9011 52.9975L64.779 61.8734L82.598 44.0583Z" fill="#6DDE7B"/>
<path fill-rule="evenodd" clip-rule="evenodd" d="M55.9011 26.7082L55.9011 26.7078L55.9009 26.708L55.9011 26.7082ZM70.0424 30.3214L82.5977 17.7688V0.0169937L70.0424 12.5696L70.0424 30.3214ZM82.6147 0L82.6146 0.00011651L82.6148 0.00011651L82.6147 0Z" fill="#EFEFEF"/>
<rect width="15.0638" height="56.5924" transform="matrix(0.517821 -0.855489 0.517821 0.855489 0 31.5831)" fill="#EFEFEF"/>
<rect width="15.0638" height="56.5924" transform="matrix(0.517821 0.855489 -0.517821 0.855489 50.8147 18.6961)" fill="#6DDE7B"/>
</svg>
