<svg width="14" height="18" viewBox="0 0 14 18" fill="none" xmlns="http://www.w3.org/2000/svg">
<path d="M13.4926 10.53C13.3982 10.4161 13.2822 10.3219 13.1513 10.2529C13.0204 10.1839 12.8772 10.1414 12.7299 10.1278C12.5825 10.1142 12.4339 10.1298 12.2926 10.1737C12.1513 10.2177 12.0201 10.289 11.9064 10.3837L8.0014 14.4675V1.125C8.0014 0.826631 7.88287 0.540483 7.6719 0.329505C7.46092 0.118527 7.17477 0 6.8764 0C6.57803 0 6.29189 0.118527 6.08091 0.329505C5.86993 0.540483 5.7514 0.826631 5.7514 1.125V14.4675L1.8464 10.3837C1.73265 10.2892 1.60138 10.218 1.4601 10.1742C1.31882 10.1303 1.17029 10.1148 1.02299 10.1284C0.875694 10.1419 0.732514 10.1844 0.601627 10.2533C0.470739 10.3222 0.354707 10.4162 0.260155 10.53C0.165604 10.6438 0.0943842 10.775 0.050563 10.9163C0.0067417 11.0576 -0.00882329 11.2061 0.00475727 11.3534C0.0183378 11.5007 0.0607978 11.6439 0.129713 11.7748C0.198628 11.9057 0.292648 12.0217 0.406405 12.1162L6.1564 17.7412L6.32515 17.8425L6.4714 17.9212C6.73204 18.0218 7.02077 18.0218 7.2814 17.9212L7.42765 17.8425L7.5964 17.7412L13.3464 12.1162C13.4603 12.0218 13.5545 11.9058 13.6235 11.7749C13.6925 11.644 13.735 11.5008 13.7486 11.3535C13.7622 11.2061 13.7466 11.0575 13.7027 10.9162C13.6587 10.7749 13.5874 10.6437 13.4926 10.53Z" fill="white"/>
</svg>
