<svg width="204" height="150" viewBox="0 0 204 150" fill="none" xmlns="http://www.w3.org/2000/svg">
<g clip-path="url(#clip0_4_2)">
<rect width="204" height="150" fill="white"/>
<path d="M173.85 3.33859H157.651H157.524L161.653 18.3196V18.3206L165.237 31.737L173.85 3.33859Z" fill="#515151"/>
<path d="M16.7805 66.9937H4.79684L31.8143 129.432L38.8266 110.526L16.7805 66.9937Z" fill="#515151"/>
<path d="M73.2421 27.1956L92.5358 26.4807L81.6732 58.2106L73.2421 27.1956Z" fill="#515151"/>
<path d="M151.49 63.6224C145.875 65.2374 140.911 67.923 136.602 71.6794C135.227 72.8585 133.938 74.1091 132.736 75.4311L120.898 109.859L120.923 110.745L120.824 111.029C121.014 113.219 121.37 115.405 121.892 117.587C122.758 121.21 124.179 124.384 126.153 127.107C128.211 129.807 130.636 132.014 133.429 133.728C136.282 135.328 139.441 136.356 142.904 136.812C143.548 136.874 144.197 136.913 144.852 136.928L150.366 108.471C149.987 108.471 150.099 107.653 149.987 107.184C149.304 104.326 149.863 102.529 151.66 101.791L159.327 62.7936C156.855 62.9291 154.242 62.8307 151.49 63.6224Z" fill="#0DC01F"/>
<path d="M126.364 69.8317C122.615 73.7175 119.346 77.9491 116.557 82.5269C115.004 85.0749 113.645 87.6874 112.478 90.3643L118.272 109.449L120.698 102.821L120.746 104.511C120.826 103.23 120.963 101.947 121.156 100.663C121.987 94.906 123.712 89.5693 126.332 84.6529C128.09 81.2669 130.223 78.193 132.736 75.4312L137.885 60.4564C133.66 63.1797 129.821 66.3047 126.364 69.8317Z" fill="#002864"/>
<path d="M107.264 111.774C106.964 116.797 107.377 121.664 108.503 126.375C108.941 128.208 109.498 129.941 110.174 131.573L118.272 109.449L112.479 90.3643C111.55 92.4966 110.743 94.6698 110.059 96.884C108.495 101.787 107.563 106.75 107.264 111.774Z" fill="#002864"/>
<path d="M119.569 113.722L118.272 109.449L110.174 131.573C110.721 132.892 111.543 134.475 112.244 135.664L119.569 113.722Z" fill="#002864"/>
<path d="M166.708 128.95C163.116 132.016 158.842 134.261 153.887 135.686C150.783 136.579 147.771 136.992 144.852 136.928L142.695 148.051C146.443 147.652 150.477 146.831 154.798 145.59C158.845 144.425 162.616 142.664 166.111 140.303C169.712 138.009 172.966 135.379 175.875 132.412C178.763 129.355 181.308 126.154 183.509 122.811C185.772 119.352 187.58 116.025 188.935 112.828C190.35 109.517 191.343 106.472 191.915 103.694C192.464 100.825 192.512 98.4393 192.057 96.5371C191.624 94.7253 190.741 93.4303 189.408 92.6521C188.156 91.8501 186.334 91.7935 183.939 92.4822L151.661 101.791C151.506 101.836 151.8 101.733 151.661 101.791L150.366 108.471C151.202 110.785 152.539 111.678 154.377 111.149L179.524 103.917C180.597 103.609 181.231 103.862 181.426 104.677C181.642 105.583 181.248 107.439 180.241 110.245C179.318 113.028 177.714 116.103 175.43 119.471C173.207 122.724 170.3 125.884 166.708 128.95Z" fill="#002864"/>
<path d="M175.913 69.4347C177.22 69.7363 179.733 69.7208 180.889 69.3884C181.662 69.166 182.367 68.8761 183.001 68.5187L172.907 67.9146L171.147 50.3135C168.22 50.1722 165.002 50.4212 161.492 51.0606L159.327 62.7937C161.156 62.6934 162.909 63.3347 164.586 63.5939C166.262 63.8529 168.543 65.1943 172.133 67.4719C173.323 68.3882 174.583 69.0425 175.913 69.4347Z" fill="#002864"/>
<path d="M183.944 55.5855C180.957 53.0563 179.369 51.3934 174.059 50.5968C173.123 50.4563 172.153 50.3619 171.147 50.3135L172.907 67.9146L183.001 68.5187C184.197 67.8459 185.147 66.934 185.851 65.7828C186.931 64.0202 187.243 62.188 186.789 60.2856C186.312 58.2928 185.365 56.7261 183.944 55.5855Z" fill="#002864"/>
<path d="M203.959 69.7799L173.849 3.33859L165.237 31.737L171.147 50.3135C172.153 50.362 173.123 50.4564 174.059 50.5968C179.369 51.3934 180.957 53.0563 183.944 55.5856C185.365 56.7262 186.312 58.2928 186.789 60.2856C187.243 62.188 186.931 64.0202 185.851 65.7828C185.147 66.934 184.197 67.8459 183.001 68.5187L203.959 69.7799Z" fill="#515151"/>
<path d="M93.4467 27.6736L81.2587 63.2464L105.131 145.352L110.174 131.573C109.498 129.941 108.941 128.208 108.503 126.375C107.377 121.664 106.964 116.797 107.264 111.774C107.563 106.75 108.495 101.787 110.059 96.884C110.743 94.6698 111.55 92.4966 112.478 90.3643L93.4467 27.6736Z" fill="#515151"/>
<path d="M165.237 31.737L161.653 18.3206V18.3196L157.524 3.33859L155.707 8.62208L163.903 38.6182L165.237 31.737Z" fill="white"/>
<path fill-rule="evenodd" clip-rule="evenodd" d="M137.885 60.4564L155.707 8.62208L163.903 38.6182L161.492 51.0606L159.327 62.7937C156.855 62.9291 154.242 62.8307 151.49 63.6224C145.875 65.2374 140.911 67.923 136.602 71.6794C135.226 72.8585 133.938 74.1091 132.736 75.4312L137.885 60.4564ZM157.651 3.33859L161.653 18.3196L157.524 3.33859H157.651ZM142.339 149.891L107.407 149.555L112.244 135.663L119.569 113.722L120.763 110.25C120.632 108.34 120.626 106.427 120.746 104.511L120.898 109.859L120.923 110.745L120.824 111.029L112.244 135.663C112.722 136.447 113.233 137.201 113.779 137.927C116.319 141.165 119.524 143.681 123.394 145.472C127.347 147.24 131.943 148.193 137.183 148.332C138.947 148.347 140.783 148.254 142.695 148.051L142.339 149.891ZM150.366 108.471L151.66 101.791C149.863 102.529 149.304 104.326 149.987 107.184C150.099 107.653 149.987 108.471 150.366 108.471Z" fill="#0DC01F"/>
<path d="M126.153 127.107C124.179 124.384 122.758 121.21 121.892 117.587C121.37 115.405 121.014 113.219 120.824 111.029L112.244 135.664C112.722 136.447 113.233 137.201 113.78 137.927C116.319 141.165 119.524 143.681 123.394 145.472C127.347 147.24 131.943 148.193 137.183 148.332C138.947 148.347 140.783 148.254 142.695 148.051L144.852 136.928C144.197 136.913 143.548 136.875 142.904 136.812C139.441 136.356 136.282 135.328 133.429 133.728C130.636 132.014 128.211 129.807 126.153 127.107Z" fill="#0DC01F"/>
<path d="M120.746 104.511L120.698 102.821L118.272 109.449L119.57 113.722L120.763 110.25C120.632 108.34 120.626 106.427 120.746 104.511Z" fill="#002864"/>
<path d="M33.951 130.299H61.8032L81.2587 63.2464L69.9053 24.478L38.8266 110.526L33.951 130.299Z" fill="#0DC01F"/>
<path d="M171.672 1.9339H155.474H155.347L159.476 16.9149V16.9159L163.06 30.3323L171.672 1.9339Z" fill="#6F6F6F"/>
<path d="M14.6035 65.589H2.61984L29.6373 128.027L36.6496 109.122L14.6035 65.589Z" fill="#6F6F6F"/>
<path d="M71.0651 25.7909L90.3588 25.076L79.4962 56.8059L71.0651 25.7909Z" fill="#6F6F6F"/>
<path d="M149.313 62.2177C143.698 63.8327 138.734 66.5183 134.425 70.2747C133.049 71.4538 131.761 72.7044 130.559 74.0265L118.721 108.454L118.746 109.34L118.647 109.625C118.837 111.814 119.193 114 119.715 116.182C120.581 119.806 122.001 122.979 123.976 125.703C126.034 128.403 128.459 130.609 131.252 132.323C134.105 133.923 137.264 134.951 140.727 135.407C141.371 135.47 142.02 135.508 142.675 135.523L148.189 107.066C147.81 107.066 147.922 106.248 147.81 105.779C147.127 102.922 147.686 101.124 149.483 100.386L157.15 61.389C154.678 61.5244 152.065 61.4261 149.313 62.2177Z" fill="#0CD720"/>
<path d="M124.187 68.427C120.438 72.3128 117.169 76.5444 114.38 81.1222C112.827 83.6702 111.468 86.2828 110.302 88.9597L116.095 108.045L118.521 101.417L118.569 103.107C118.65 101.825 118.786 100.542 118.979 99.2582C119.81 93.5013 121.535 88.1646 124.155 83.2482C125.912 79.8622 128.047 76.7884 130.559 74.0265L135.708 59.0517C131.483 61.775 127.644 64.9 124.187 68.427Z" fill="#003A90"/>
<path d="M105.087 110.369C104.787 115.393 105.2 120.26 106.326 124.97C106.764 126.803 107.321 128.536 107.997 130.168L116.095 108.045L110.302 88.9597C109.373 91.092 108.566 93.2651 107.882 95.4793C106.318 100.382 105.386 105.346 105.087 110.369Z" fill="#003A90"/>
<path d="M117.392 112.317L116.095 108.045L107.997 130.168C108.544 131.487 109.366 133.071 110.067 134.259L117.392 112.317Z" fill="#003A90"/>
<path d="M164.531 127.545C160.938 130.611 156.665 132.856 151.71 134.281C148.606 135.174 145.594 135.588 142.675 135.523L140.518 146.646C144.266 146.247 148.3 145.427 152.621 144.185C156.668 143.021 160.439 141.259 163.934 138.898C167.535 136.604 170.789 133.974 173.698 131.007C176.586 127.95 179.131 124.75 181.332 121.406C183.595 117.948 185.403 114.62 186.758 111.423C188.173 108.112 189.165 105.067 189.738 102.289C190.287 99.4202 190.335 97.0346 189.88 95.1324C189.447 93.3206 188.564 92.0257 187.23 91.2475C185.979 90.4454 184.157 90.3888 181.762 91.0775L149.483 100.386C149.329 100.431 149.623 100.329 149.483 100.386L148.189 107.066C149.025 109.38 150.362 110.273 152.2 109.744L177.347 102.513C178.42 102.204 179.054 102.457 179.248 103.272C179.465 104.178 179.07 106.034 178.064 108.841C177.141 111.623 175.537 114.698 173.253 118.066C171.03 121.319 168.123 124.479 164.531 127.545Z" fill="#003A90"/>
<path d="M173.736 68.03C175.043 68.3316 177.556 68.3162 178.712 67.9837C179.485 67.7613 180.19 67.4714 180.824 67.114L170.73 66.5099L168.97 48.9088C166.043 48.7675 162.825 49.0165 159.315 49.6559L157.15 61.389C158.979 61.2887 160.732 61.9301 162.409 62.1892C164.085 62.4482 166.366 63.7896 169.956 66.0673C171.146 66.9835 172.406 67.6378 173.736 68.03Z" fill="#003A90"/>
<path d="M181.768 54.1808C178.78 51.6516 177.192 49.9887 171.882 49.1921C170.946 49.0516 169.976 48.9572 168.97 48.9088L170.73 66.5099L180.824 67.114C182.02 66.4412 182.97 65.5293 183.674 64.3781C184.754 62.6155 185.066 60.7833 184.612 58.8809C184.135 56.8881 183.188 55.3214 181.768 54.1808Z" fill="#003A90"/>
<path d="M201.782 68.3751L171.672 1.9339L163.06 30.3323L168.97 48.9088C169.976 48.9572 170.946 49.0516 171.882 49.1921C177.192 49.9887 178.78 51.6516 181.767 54.1808C183.188 55.3214 184.135 56.8881 184.612 58.8809C185.066 60.7833 184.754 62.6155 183.674 64.3781C182.97 65.5293 182.02 66.4412 180.824 67.114L201.782 68.3751Z" fill="#6F6F6F"/>
<path d="M91.2697 26.269L79.0817 61.8417L102.954 143.948L107.997 130.168C107.321 128.536 106.764 126.803 106.326 124.97C105.2 120.26 104.787 115.393 105.087 110.369C105.386 105.346 106.318 100.382 107.882 95.4793C108.566 93.2651 109.373 91.0919 110.302 88.9596L91.2697 26.269Z" fill="#6F6F6F"/>
<path d="M163.06 30.3323L159.476 16.9159V16.9149L155.347 1.9339L153.53 7.21739L161.726 37.2135L163.06 30.3323Z" fill="white"/>
<path fill-rule="evenodd" clip-rule="evenodd" d="M135.708 59.0517L153.53 7.21739L161.726 37.2136L159.315 49.656L157.15 61.389C154.678 61.5244 152.065 61.4261 149.313 62.2177C143.698 63.8327 138.734 66.5183 134.425 70.2747C133.05 71.4538 131.761 72.7044 130.559 74.0265L135.708 59.0517ZM155.474 1.9339L159.476 16.9149L155.347 1.9339H155.474ZM140.162 148.486L105.23 148.15L110.067 134.259L117.393 112.317L118.586 108.845C118.455 106.935 118.449 105.022 118.569 103.107L118.721 108.454L118.746 109.34L118.647 109.625L110.067 134.259C110.545 135.042 111.056 135.797 111.603 136.522C114.142 139.761 117.347 142.276 121.217 144.067C125.17 145.836 129.766 146.788 135.006 146.927C136.77 146.942 138.606 146.85 140.518 146.646L140.162 148.486ZM148.189 107.066L149.484 100.386C147.686 101.124 147.127 102.922 147.81 105.779C147.922 106.248 147.81 107.066 148.189 107.066Z" fill="#0CD720"/>
<path d="M123.976 125.703C122.001 122.979 120.581 119.806 119.715 116.182C119.193 114 118.837 111.814 118.647 109.624L110.067 134.259C110.545 135.042 111.056 135.797 111.602 136.522C114.142 139.761 117.347 142.276 121.217 144.067C125.17 145.835 129.766 146.788 135.006 146.927C136.77 146.942 138.606 146.85 140.518 146.646L142.675 135.523C142.02 135.508 141.371 135.47 140.727 135.407C137.264 134.951 134.105 133.923 131.252 132.323C128.459 130.609 126.034 128.403 123.976 125.703Z" fill="#0CD720"/>
<path d="M118.569 103.107L118.521 101.417L116.095 108.045L117.392 112.317L118.586 108.845C118.455 106.935 118.449 105.022 118.569 103.107Z" fill="#003A90"/>
<path d="M31.7739 128.895H59.6261L79.0817 61.8417L67.7283 23.0733L36.6496 109.122L31.7739 128.895Z" fill="#0CD720"/>
<path d="M169.111 0.0533447H152.915H152.913L156.915 15.0343V15.0353L160.499 28.4517L169.111 0.0533447Z" fill="#B3B3B3"/>
<path d="M12.0422 63.7085H0.0586243L27.076 126.146L34.0884 107.241L12.0422 63.7085Z" fill="#B3B3B3"/>
<path d="M68.5039 23.9105L87.7976 23.1954L76.935 54.9255L68.5039 23.9105Z" fill="#B3B3B3"/>
<path d="M146.752 60.3371C141.136 61.9521 136.173 64.6379 131.864 68.3943C130.488 69.5733 129.2 70.8238 127.997 72.146L116.16 106.573L116.185 107.46L116.086 107.744C116.276 109.934 116.632 112.119 117.154 114.302C118.02 117.925 119.44 121.098 121.415 123.822C123.473 126.522 125.898 128.729 128.69 130.443C131.544 132.042 134.703 133.07 138.166 133.527C138.81 133.589 139.459 133.628 140.113 133.642L145.628 105.186C145.249 105.186 145.361 104.368 145.249 103.898C144.566 101.041 145.124 99.2436 146.922 98.5056L154.589 58.9465C152.116 59.0821 149.504 59.5455 146.752 60.3371Z" fill="#B6F3BD"/>
<path d="M121.626 66.5465C117.877 70.4322 114.608 74.6639 111.818 79.2416C110.266 81.7897 108.907 84.4022 107.74 87.0791L113.534 106.164L115.96 99.5362L116.008 101.226C116.088 99.9445 116.225 98.6618 116.418 97.3778C117.249 91.6207 118.974 86.284 121.594 81.3676C123.351 77.9816 125.485 74.9078 127.997 72.146L133.147 57.1711C128.922 59.8944 125.082 63.0195 121.626 66.5465Z" fill="#B3C4DE"/>
<path d="M102.525 108.489C102.226 113.512 102.639 118.379 103.765 123.089C104.203 124.923 104.76 126.655 105.436 128.288L113.534 106.164L107.74 87.079C106.811 89.2113 106.005 91.3846 105.321 93.5987C103.757 98.5018 102.825 103.465 102.525 108.489Z" fill="#B3C4DE"/>
<path d="M114.831 110.437L113.534 106.164L105.436 128.288C105.983 129.607 106.805 131.19 107.506 132.378L114.831 110.437Z" fill="#B3C4DE"/>
<path d="M161.969 125.664C158.377 128.73 154.104 130.976 149.149 132.401C146.045 133.294 143.033 133.707 140.113 133.642L137.957 144.765C141.705 144.368 145.739 143.546 150.06 142.304C154.106 141.14 157.878 139.378 161.373 137.017C164.974 134.724 168.228 132.093 171.137 129.127C174.025 126.07 176.57 122.869 178.771 119.525C181.034 116.067 182.842 112.74 184.197 109.543C185.612 106.231 186.604 103.187 187.177 100.409C187.726 97.5396 187.774 95.154 187.319 93.2518C186.886 91.4402 186.002 90.1452 184.669 89.3669C183.418 88.5649 181.596 88.5083 179.201 89.197L146.922 98.5056C146.767 98.5503 147.062 98.4481 146.922 98.5056L145.628 105.186C146.464 107.5 147.801 108.392 149.638 107.864L174.786 100.632C175.859 100.323 176.493 100.577 176.687 101.392C176.904 102.298 176.509 104.154 175.503 106.96C174.579 109.743 172.976 112.818 170.692 116.185C168.468 119.439 165.561 122.598 161.969 125.664Z" fill="#B3C4DE"/>
<path d="M175.016 66.1494C176.324 66.451 177.556 66.4356 178.712 66.1031C179.485 65.8807 180.19 65.5908 180.824 65.2334L172.011 64.6293L166.409 47.0282C163.482 46.8869 160.264 47.1361 156.753 47.7755L154.589 58.9465C156.418 58.8464 158.171 58.9257 159.847 59.1849C163.849 59.6798 167.646 61.3471 171.237 64.1867C172.427 65.1031 173.687 65.7573 175.016 66.1494Z" fill="#B3C4DE"/>
<path d="M181.768 52.3003C178.78 49.771 174.631 48.1081 169.321 47.3117C168.385 47.1712 167.414 47.0767 166.409 47.0282L172.011 64.6293L180.824 65.2334C182.02 64.5607 182.97 63.6487 183.674 62.4975C184.754 60.7351 185.066 58.9027 184.612 57.0005C184.135 55.0075 183.188 53.4409 181.768 52.3003Z" fill="#B3C4DE"/>
<path d="M199.221 66.4946L169.111 0.0533447L160.499 28.4517V28.4545L166.409 47.0282C167.414 47.0767 168.385 47.1712 169.321 47.3117C174.631 48.1081 178.78 49.771 181.767 52.3002C183.188 53.4408 184.135 55.0075 184.612 57.0005C185.066 58.9027 184.754 60.7351 183.674 62.4975C182.97 63.6487 182.02 64.5607 180.824 65.2334L199.221 66.4946Z" fill="#B3B3B3"/>
<path d="M88.7085 24.3884L76.5205 59.9613L100.393 142.067L105.436 128.288C104.76 126.655 104.203 124.923 103.765 123.09C102.639 118.379 102.226 113.512 102.525 108.489C102.825 103.465 103.757 98.5018 105.321 93.5988C106.005 91.3847 106.811 89.2114 107.74 87.0791L88.7085 24.3884Z" fill="#B3B3B3"/>
<path fill-rule="evenodd" clip-rule="evenodd" d="M133.147 57.1711L150.965 5.34802L150.969 5.33682L159.165 35.3294V35.3329L156.753 47.7755L154.589 58.9465C152.116 59.082 149.504 59.5454 146.752 60.3371C141.136 61.9521 136.173 64.6378 131.864 68.3942C130.488 69.5733 129.2 70.8238 127.997 72.146L133.147 57.1711ZM137.601 146.605L102.668 146.27L107.506 132.378L114.831 110.437L116.025 106.965C115.893 105.055 115.888 103.142 116.008 101.226L116.16 106.573L116.185 107.46L116.086 107.744L107.506 132.378C107.983 133.162 108.495 133.916 109.041 134.641C111.581 137.88 114.785 140.395 118.656 142.186C122.609 143.955 127.205 144.907 132.445 145.046C134.208 145.063 136.045 144.969 137.957 144.765L137.601 146.605ZM145.628 105.186L146.922 98.5056C145.124 99.2436 144.566 101.041 145.248 103.898C145.361 104.368 145.248 105.186 145.628 105.186Z" fill="#B6F3BD"/>
<path d="M121.415 123.822C119.44 121.099 118.02 117.925 117.154 114.302C116.632 112.12 116.276 109.934 116.086 107.744L107.506 132.378C107.984 133.162 108.495 133.916 109.041 134.641C111.581 137.88 114.785 140.395 118.656 142.186C122.609 143.955 127.205 144.907 132.445 145.046C134.208 145.063 136.045 144.969 137.957 144.765L140.113 133.642C139.459 133.628 138.81 133.589 138.165 133.527C134.703 133.07 131.543 132.042 128.69 130.443C125.898 128.729 123.473 126.522 121.415 123.822Z" fill="#B6F3BD"/>
<path d="M116.008 101.226L115.96 99.5362L113.534 106.164L114.831 110.437L116.025 106.965C115.894 105.055 115.888 103.142 116.008 101.226Z" fill="#B3C4DE"/>
<path d="M29.2127 127.014H57.0649L76.5205 59.9612L67.0611 24.3884L35.9824 110.437L29.2127 127.014Z" fill="#B6F3BD"/>
<path d="M150.583 103.944C150.583 107.034 150.996 107.906 145.027 109.118C141.952 109.118 139.435 107.931 139.435 104.841C139.435 101.751 145.264 98.3563 148.339 98.3563C151.415 98.3563 150.583 100.854 150.583 103.944Z" fill="#B3C4DE"/>
</g>
<defs>
<clipPath id="clip0_4_2">
<rect width="204" height="150" fill="white"/>
</clipPath>
</defs>
</svg>
