<svg width="420" height="320" viewBox="0 0 420 320" fill="none" xmlns="http://www.w3.org/2000/svg">
<rect width="420" height="320" fill="#303030"/>
<path d="M311.661 42.9284H287.84H287.653L293.725 65.0432V65.0446L298.996 84.8498L311.661 42.9284Z" fill="#515151"/>
<path d="M80.6772 136.895H63.0542L102.786 229.066L113.098 201.158L80.6772 136.895Z" fill="#515151"/>
<path d="M163.709 78.1459L192.082 77.0905L176.108 123.93L163.709 78.1459Z" fill="#515151"/>
<path d="M278.78 131.919C270.522 134.303 263.222 138.267 256.885 143.812C254.863 145.553 252.968 147.399 251.2 149.351L233.791 200.172L233.828 201.481L233.682 201.9C233.962 205.133 234.486 208.359 235.253 211.581C236.526 216.93 238.615 221.614 241.52 225.635C244.546 229.62 248.111 232.878 252.218 235.408C256.414 237.769 261.06 239.287 266.153 239.96C267.1 240.053 268.055 240.11 269.017 240.131L277.126 198.123C276.569 198.123 276.734 196.916 276.569 196.224C275.565 192.006 276.386 189.352 279.03 188.263L290.305 130.695C286.669 130.895 282.827 130.75 278.78 131.919Z" fill="#0DC01F"/>
<path d="M241.829 141.085C236.316 146.821 231.509 153.068 227.407 159.825C225.124 163.587 223.125 167.443 221.41 171.395L229.93 199.568L233.497 189.784L233.568 192.279C233.686 190.387 233.887 188.493 234.171 186.598C235.392 178.099 237.929 170.221 241.782 162.964C244.367 157.965 247.505 153.428 251.2 149.351L258.772 127.245C252.559 131.265 246.913 135.878 241.829 141.085Z" fill="#002864"/>
<path d="M213.741 203C213.3 210.415 213.908 217.6 215.563 224.553C216.208 227.259 217.027 229.817 218.021 232.227L229.93 199.568L221.41 171.395C220.044 174.543 218.857 177.751 217.852 181.019C215.552 188.257 214.181 195.584 213.741 203Z" fill="#002864"/>
<path d="M231.837 205.875L229.93 199.568L218.021 232.227C218.825 234.174 220.034 236.511 221.065 238.265L231.837 205.875Z" fill="#002864"/>
<path d="M301.158 228.354C295.876 232.88 289.591 236.195 282.305 238.299C277.74 239.616 273.311 240.227 269.017 240.131L265.846 256.551C271.358 255.962 277.29 254.751 283.644 252.918C289.595 251.199 295.141 248.599 300.281 245.113C305.576 241.727 310.362 237.845 314.64 233.465C318.887 228.953 322.629 224.228 325.866 219.292C329.194 214.187 331.853 209.275 333.846 204.556C335.927 199.668 337.386 195.173 338.228 191.072C339.036 186.837 339.106 183.315 338.437 180.507C337.8 177.833 336.501 175.921 334.541 174.772C332.701 173.588 330.021 173.505 326.499 174.521L279.03 188.263C278.802 188.329 279.235 188.178 279.03 188.263L277.126 198.123C278.356 201.54 280.322 202.857 283.024 202.077L320.006 191.402C321.584 190.946 322.516 191.32 322.802 192.523C323.121 193.86 322.541 196.6 321.06 200.743C319.702 204.851 317.345 209.39 313.985 214.362C310.716 219.164 306.441 223.828 301.158 228.354Z" fill="#002864"/>
<path d="M314.695 140.499C316.618 140.944 320.313 140.921 322.013 140.43C323.151 140.102 324.186 139.674 325.119 139.147L310.275 138.255L307.687 112.272C303.382 112.064 298.65 112.431 293.488 113.375L290.305 130.695C292.994 130.547 295.572 131.494 298.038 131.877C300.503 132.259 303.857 134.239 309.137 137.601C310.887 138.954 312.74 139.92 314.695 140.499Z" fill="#002864"/>
<path d="M326.507 120.055C322.113 116.321 319.778 113.866 311.97 112.691C310.593 112.483 309.166 112.344 307.687 112.272L310.275 138.255L325.119 139.147C326.878 138.153 328.275 136.807 329.311 135.108C330.898 132.506 331.358 129.801 330.689 126.993C329.989 124.051 328.595 121.739 326.507 120.055Z" fill="#002864"/>
<path d="M355.94 141.008L311.661 42.9284L298.996 84.8498L307.687 112.272C309.166 112.344 310.593 112.483 311.97 112.691C319.778 113.866 322.113 116.321 326.507 120.055C328.595 121.739 329.989 124.051 330.689 126.993C331.358 129.801 330.898 132.506 329.311 135.108C328.275 136.807 326.878 138.153 325.119 139.147L355.94 141.008Z" fill="#515151"/>
<path d="M193.422 78.8516L175.498 131.364L210.604 252.568L218.021 232.227C217.027 229.817 216.207 227.259 215.563 224.553C213.907 217.6 213.3 210.415 213.741 203C214.181 195.584 215.552 188.257 217.852 181.019C218.857 177.751 220.043 174.543 221.41 171.395L193.422 78.8516Z" fill="#515151"/>
<path d="M298.996 84.8498L293.725 65.0446V65.0432L287.653 42.9284L284.981 50.7278L297.034 95.0079L298.996 84.8498Z" fill="white"/>
<path fill-rule="evenodd" clip-rule="evenodd" d="M258.772 127.245L284.981 50.7278L297.034 95.0078L293.488 113.375L290.305 130.695C286.669 130.895 282.827 130.75 278.78 131.919C270.522 134.303 263.222 138.267 256.885 143.812C254.862 145.553 252.968 147.399 251.2 149.351L258.772 127.245ZM287.84 42.9284L293.725 65.0432L287.653 42.9284H287.84ZM265.322 259.267L213.951 258.772L221.065 238.265L231.837 205.875L233.593 200.75C233.4 197.93 233.391 195.107 233.568 192.279L233.791 200.172L233.828 201.481L233.682 201.9L221.065 238.265C221.767 239.422 222.52 240.535 223.323 241.606C227.057 246.386 231.77 250.1 237.462 252.744C243.275 255.355 250.034 256.76 257.74 256.966C260.333 256.989 263.034 256.852 265.846 256.551L265.322 259.267ZM277.126 198.123L279.03 188.263C276.386 189.352 275.565 192.006 276.569 196.224C276.734 196.916 276.569 198.123 277.126 198.123Z" fill="#0DC01F"/>
<path d="M241.52 225.635C238.615 221.614 236.526 216.93 235.253 211.581C234.486 208.359 233.962 205.133 233.683 201.9L221.065 238.265C221.767 239.422 222.52 240.535 223.323 241.606C227.057 246.386 231.77 250.1 237.462 252.744C243.275 255.355 250.034 256.761 257.74 256.966C260.333 256.989 263.034 256.852 265.846 256.551L269.017 240.131C268.055 240.11 267.1 240.053 266.153 239.96C261.06 239.287 256.414 237.769 252.218 235.408C248.111 232.878 244.546 229.62 241.52 225.635Z" fill="#0DC01F"/>
<path d="M233.568 192.279L233.497 189.784L229.93 199.568L231.838 205.875L233.593 200.75C233.4 197.93 233.391 195.107 233.568 192.279Z" fill="#002864"/>
<path d="M105.928 230.347H146.887L175.498 131.364L158.802 74.1342L113.098 201.158L105.928 230.347Z" fill="#0DC01F"/>
<path d="M308.46 40.8548H284.638H284.452L290.524 62.9696V62.9711L295.795 82.7762L308.46 40.8548Z" fill="#6F6F6F"/>
<path d="M77.4757 134.822H59.8527L99.5842 226.992L109.896 199.085L77.4757 134.822Z" fill="#6F6F6F"/>
<path d="M160.508 76.0724L188.881 75.0169L172.906 121.856L160.508 76.0724Z" fill="#6F6F6F"/>
<path d="M275.578 129.845C267.32 132.229 260.021 136.194 253.684 141.739C251.661 143.479 249.766 145.326 247.998 147.277L230.589 198.099L230.627 199.407L230.481 199.827C230.761 203.059 231.284 206.286 232.051 209.507C233.325 214.856 235.414 219.541 238.318 223.561C241.344 227.547 244.91 230.804 249.017 233.334C253.213 235.696 257.859 237.213 262.951 237.887C263.898 237.979 264.853 238.036 265.815 238.058L273.925 196.05C273.367 196.05 273.533 194.843 273.367 194.15C272.363 189.932 273.185 187.279 275.829 186.189L287.104 128.622C283.467 128.822 279.625 128.677 275.578 129.845Z" fill="#0CD720"/>
<path d="M238.628 139.011C233.115 144.747 228.307 150.994 224.205 157.752C221.922 161.513 219.923 165.37 218.208 169.321L226.728 197.494L230.296 187.711L230.367 190.205C230.485 188.313 230.686 186.42 230.97 184.524C232.191 176.026 234.728 168.148 238.581 160.89C241.165 155.892 244.304 151.354 247.998 147.277L255.571 125.172C249.358 129.192 243.711 133.805 238.628 139.011Z" fill="#003A90"/>
<path d="M210.539 200.926C210.098 208.342 210.706 215.526 212.362 222.48C213.006 225.186 213.825 227.743 214.82 230.153L226.728 197.494L218.208 169.321C216.842 172.469 215.656 175.677 214.65 178.946C212.35 186.184 210.98 193.51 210.539 200.926Z" fill="#003A90"/>
<path d="M228.636 203.802L226.728 197.494L214.82 230.153C215.623 232.1 216.832 234.438 217.864 236.192L228.636 203.802Z" fill="#003A90"/>
<path d="M297.957 226.281C292.674 230.807 286.39 234.121 279.104 236.225C274.539 237.543 270.109 238.153 265.815 238.058L262.644 254.477C268.156 253.889 274.089 252.678 280.443 250.845C286.394 249.126 291.94 246.525 297.079 243.04C302.375 239.654 307.16 235.771 311.439 231.392C315.685 226.879 319.427 222.154 322.665 217.218C325.992 212.113 328.652 207.201 330.644 202.482C332.725 197.594 334.184 193.099 335.026 188.998C335.834 184.763 335.904 181.242 335.235 178.434C334.599 175.759 333.299 173.847 331.339 172.699C329.499 171.515 326.819 171.431 323.297 172.448L275.829 186.189C275.601 186.255 276.034 186.104 275.829 186.189L273.925 196.05C275.154 199.466 277.121 200.784 279.823 200.004L316.804 189.328C318.382 188.872 319.314 189.246 319.601 190.45C319.919 191.787 319.339 194.527 317.859 198.67C316.501 202.777 314.143 207.317 310.783 212.288C307.514 217.09 303.239 221.755 297.957 226.281Z" fill="#003A90"/>
<path d="M311.493 138.425C313.416 138.87 317.111 138.848 318.812 138.357C319.949 138.029 320.985 137.601 321.917 137.073L307.073 136.181L304.486 110.199C300.181 109.99 295.448 110.358 290.286 111.302L287.104 128.622C289.793 128.474 292.371 129.421 294.836 129.803C297.301 130.185 300.655 132.166 305.936 135.528C307.685 136.88 309.539 137.846 311.493 138.425Z" fill="#003A90"/>
<path d="M323.305 117.981C318.912 114.248 316.576 111.793 308.768 110.617C307.392 110.41 305.964 110.27 304.486 110.199L307.073 136.181L321.917 137.073C323.676 136.08 325.074 134.734 326.109 133.034C327.697 130.432 328.156 127.728 327.488 124.919C326.787 121.978 325.394 119.665 323.305 117.981Z" fill="#003A90"/>
<path d="M352.738 138.935L308.46 40.8548L295.795 82.7762L304.486 110.199C305.964 110.27 307.392 110.41 308.768 110.617C316.576 111.793 318.911 114.248 323.305 117.981C325.394 119.665 326.787 121.978 327.488 124.919C328.156 127.728 327.697 130.432 326.109 133.034C325.073 134.734 323.676 136.08 321.917 137.073L352.738 138.935Z" fill="#6F6F6F"/>
<path d="M190.22 76.778L172.297 129.29L207.403 250.494L214.82 230.153C213.825 227.743 213.006 225.186 212.362 222.48C210.706 215.526 210.099 208.342 210.539 200.926C210.98 193.51 212.35 186.184 214.65 178.946C215.656 175.677 216.842 172.469 218.208 169.321L190.22 76.778Z" fill="#6F6F6F"/>
<path d="M295.795 82.7762L290.524 62.9711V62.9696L284.452 40.8548L281.78 48.6542L293.832 92.9343L295.795 82.7762Z" fill="white"/>
<path fill-rule="evenodd" clip-rule="evenodd" d="M255.571 125.172L281.78 48.6542L293.832 92.9343L290.286 111.302L287.104 128.622C283.467 128.822 279.625 128.677 275.578 129.845C267.32 132.229 260.021 136.194 253.684 141.739C251.661 143.479 249.767 145.326 247.998 147.277L255.571 125.172ZM284.638 40.8548L290.524 62.9696L284.452 40.8548H284.638ZM262.121 257.194L210.749 256.698L217.864 236.192L228.636 203.802L230.392 198.676C230.198 195.857 230.19 193.033 230.367 190.205L230.59 198.099L230.627 199.407L230.481 199.827L217.864 236.192C218.566 237.348 219.318 238.462 220.121 239.533C223.856 244.314 228.569 248.027 234.26 250.67C240.073 253.281 246.832 254.687 254.539 254.892C257.132 254.915 259.832 254.778 262.644 254.478L262.121 257.194ZM273.925 196.05L275.829 186.189C273.185 187.279 272.363 189.932 273.367 194.15C273.533 194.843 273.367 196.05 273.925 196.05Z" fill="#0CD720"/>
<path d="M238.318 223.561C235.414 219.541 233.325 214.856 232.051 209.507C231.284 206.286 230.761 203.059 230.481 199.827L217.864 236.192C218.566 237.348 219.318 238.462 220.121 239.533C223.856 244.314 228.569 248.026 234.26 250.67C240.073 253.281 246.832 254.687 254.539 254.892C257.132 254.915 259.832 254.778 262.644 254.477L265.815 238.058C264.853 238.036 263.898 237.979 262.951 237.887C257.859 237.213 253.213 235.696 249.017 233.334C244.91 230.804 241.344 227.547 238.318 223.561Z" fill="#0CD720"/>
<path d="M230.366 190.205L230.296 187.711L226.728 197.494L228.636 203.802L230.392 198.676C230.198 195.857 230.19 193.033 230.366 190.205Z" fill="#003A90"/>
<path d="M102.726 228.273H143.685L172.297 129.29L155.6 72.0606L109.896 199.085L102.726 228.273Z" fill="#0CD720"/>
<path d="M304.693 38.0788H280.876H280.872L286.757 60.1935V60.195L292.028 80.0001L304.693 38.0788Z" fill="#B3B3B3"/>
<path d="M73.7092 132.046H56.0862L95.8177 224.216L106.13 196.308L73.7092 132.046Z" fill="#B3B3B3"/>
<path d="M156.741 73.2965L185.114 72.2408L169.14 119.08L156.741 73.2965Z" fill="#B3B3B3"/>
<path d="M271.812 127.069C263.554 129.453 256.254 133.418 249.917 138.963C247.895 140.704 246 142.549 244.231 144.501L226.823 195.323L226.86 196.631L226.715 197.051C226.994 200.283 227.518 203.51 228.285 206.731C229.558 212.08 231.647 216.764 234.552 220.785C237.577 224.771 241.144 228.028 245.25 230.559C249.446 232.92 254.092 234.437 259.185 235.111C260.132 235.203 261.087 235.26 262.049 235.282L270.158 193.274C269.601 193.274 269.766 192.066 269.601 191.374C268.597 187.156 269.418 184.502 272.062 183.413L283.337 125.016C279.701 125.216 275.859 125.9 271.812 127.069Z" fill="#B6F3BD"/>
<path d="M234.861 136.235C229.348 141.971 224.541 148.218 220.439 154.976C218.156 158.737 216.157 162.594 214.442 166.545L222.962 194.718L226.529 184.934L226.6 187.429C226.718 185.537 226.919 183.644 227.203 181.748C228.424 173.25 230.961 165.372 234.815 158.114C237.398 153.116 240.537 148.578 244.231 144.501L251.804 122.395C245.591 126.416 239.945 131.029 234.861 136.235Z" fill="#B3C4DE"/>
<path d="M206.773 198.15C206.332 205.566 206.94 212.75 208.595 219.704C209.24 222.41 210.059 224.968 211.053 227.377L222.962 194.718L214.442 166.545C213.076 169.693 211.889 172.901 210.884 176.17C208.584 183.407 207.213 190.734 206.773 198.15Z" fill="#B3C4DE"/>
<path d="M224.869 201.026L222.962 194.718L211.053 227.377C211.857 229.324 213.066 231.662 214.097 233.415L224.869 201.026Z" fill="#B3C4DE"/>
<path d="M294.19 223.505C288.908 228.031 282.623 231.345 275.337 233.449C270.772 234.767 266.343 235.378 262.049 235.282L258.878 251.701C264.39 251.114 270.322 249.901 276.676 248.068C282.627 246.349 288.173 243.749 293.313 240.264C298.608 236.878 303.394 232.995 307.672 228.616C311.919 224.103 315.661 219.378 318.898 214.442C322.226 209.337 324.885 204.425 326.878 199.706C328.959 194.818 330.418 190.323 331.26 186.222C332.068 181.987 332.138 178.465 331.469 175.657C330.832 172.983 329.533 171.071 327.573 169.923C325.733 168.739 323.053 168.655 319.531 169.672L272.062 183.413C271.834 183.479 272.267 183.328 272.062 183.413L270.158 193.274C271.388 196.69 273.354 198.008 276.057 197.227L313.038 186.552C314.616 186.096 315.548 186.47 315.834 187.674C316.153 189.011 315.573 191.751 314.092 195.894C312.734 200.001 310.377 204.541 307.017 209.512C303.748 214.315 299.473 218.979 294.19 223.505Z" fill="#B3C4DE"/>
<path d="M313.377 135.649C315.299 136.094 317.111 136.072 318.812 135.581C319.949 135.253 320.985 134.825 321.917 134.297L308.957 133.405L300.719 107.423C296.414 107.214 291.682 107.582 286.52 108.526L283.337 125.016C286.026 124.868 288.604 124.986 291.07 125.368C296.955 126.099 302.539 128.56 307.819 132.752C309.569 134.105 311.422 135.07 313.377 135.649Z" fill="#B3C4DE"/>
<path d="M323.305 115.205C318.912 111.471 312.81 109.017 305.002 107.841C303.625 107.634 302.198 107.494 300.719 107.423L308.957 133.405L321.917 134.297C323.676 133.304 325.074 131.958 326.109 130.258C327.697 127.657 328.156 124.952 327.488 122.144C326.787 119.202 325.394 116.889 323.305 115.205Z" fill="#B3C4DE"/>
<path d="M348.972 136.159L304.693 38.0788L292.028 80.0001V80.0043L300.719 107.423C302.198 107.494 303.625 107.634 305.002 107.841C312.81 109.017 318.911 111.471 323.305 115.205C325.394 116.889 326.787 119.202 327.488 122.144C328.156 124.952 327.697 127.657 326.109 130.258C325.073 131.958 323.676 133.304 321.917 134.297L348.972 136.159Z" fill="#B3B3B3"/>
<path d="M186.454 74.0019L168.53 126.514L203.636 247.718L211.053 227.377C210.059 224.968 209.24 222.41 208.595 219.704C206.94 212.75 206.332 205.566 206.773 198.15C207.213 190.734 208.584 183.407 210.884 176.17C211.889 172.901 213.076 169.693 214.442 166.545L186.454 74.0019Z" fill="#B3B3B3"/>
<path fill-rule="evenodd" clip-rule="evenodd" d="M251.804 122.395L278.007 45.8947L278.013 45.8782L290.066 90.153V90.1582L286.52 108.526L283.337 125.016C279.701 125.216 275.859 125.9 271.812 127.069C263.554 129.453 256.254 133.418 249.917 138.963C247.894 140.704 246 142.549 244.231 144.501L251.804 122.395ZM258.354 254.417L206.983 253.922L214.097 233.415L224.869 201.026L226.625 195.9C226.432 193.081 226.423 190.257 226.6 187.429L226.823 195.323L226.86 196.631L226.714 197.051L214.097 233.415C214.799 234.572 215.552 235.686 216.355 236.756C220.089 241.538 224.802 245.25 230.494 247.894C236.307 250.504 243.066 251.91 250.772 252.116C253.365 252.141 256.066 252.002 258.878 251.701L258.354 254.417ZM270.158 193.274L272.062 183.413C269.418 184.502 268.597 187.156 269.601 191.374C269.766 192.066 269.601 193.274 270.158 193.274Z" fill="#B6F3BD"/>
<path d="M234.552 220.785C231.647 216.764 229.558 212.08 228.285 206.731C227.518 203.51 226.994 200.283 226.715 197.051L214.097 233.416C214.799 234.572 215.552 235.686 216.355 236.756C220.089 241.538 224.802 245.25 230.494 247.894C236.307 250.504 243.066 251.91 250.772 252.116C253.365 252.141 256.066 252.002 258.878 251.701L262.049 235.282C261.087 235.26 260.132 235.203 259.185 235.111C254.092 234.437 249.446 232.92 245.25 230.559C241.144 228.028 237.577 224.771 234.552 220.785Z" fill="#B6F3BD"/>
<path d="M226.6 187.429L226.529 184.934L222.962 194.718L224.87 201.026L226.625 195.9C226.432 193.081 226.423 190.257 226.6 187.429Z" fill="#B3C4DE"/>
<path d="M98.9599 225.497H139.919L168.53 126.514L154.619 74.0019L108.915 201.026L98.9599 225.497Z" fill="#B6F3BD"/>
<path d="M277.446 191.441C277.446 196.002 278.053 197.289 269.275 199.079C264.753 199.079 261.051 197.326 261.051 192.765C261.051 188.204 269.623 183.193 274.145 183.193C278.669 183.193 277.446 186.88 277.446 191.441Z" fill="#B3C4DE"/>
</svg>
