<?xml version="1.0" encoding="utf-8"?>
<!-- Generator: Adobe Illustrator 23.0.5, SVG Export Plug-In . SVG Version: 6.00 Build 0)  -->
<svg version="1.1" id="Слой_1" xmlns="http://www.w3.org/2000/svg" xmlns:xlink="http://www.w3.org/1999/xlink" x="0px" y="0px"
	 viewBox="0 0 489.2 489.2" style="enable-background:new 0 0 489.2 489.2;" xml:space="preserve">
<style type="text/css">
	.st0{opacity:0.38;fill:#FFFFFF;}
	.st1{fill:#133758;}
	.st2{fill:#8A1133;}
</style>
<circle class="st0" cx="244.6" cy="244.6" r="244.6"/>
<title>mini_blue</title>
<g>
	<path class="st1" d="M435.7,134.8l-14,37.4c-2.8,7.7-11.2,11.5-18.9,8.7l0,0l-8.4-3.5c-5.9-1.7-10.8-8.4-10.1-12.6
		c3.1-4.9-2.1-12.6-13.3-16.8c-16.8-7-31.1-1-34.6,7.7c-1.4,3.1-5.6,14.3-5.6,14.3l-50.7-19.6l3.1-8c0,0,0.7-2.1,2.1-6.6
		c3.1-9.1-1.4-19.6-10.5-23.1c-28.3-9.8-59.4-9.1-87.4,2.1l-5.2-10.8C259.2,44,308.8,67.7,325.6,74.4l36.3,14
		c8.7,3.5,10.5,23.8,23.8,29.7c5.6,2.1,11.5,2.1,17.1,0c3.1-5.9,10.5-8.4,16.8-5.6l7.7,3.5C435,118.4,438.8,126.8,435.7,134.8
		C436,134.5,435.7,134.8,435.7,134.8z"/>
	<path class="st2" d="M273.5,167l50.3,19.2l-90.2,266.3c-3.8,9.4-14.3,14-23.8,10.5l-25.2-9.8c-9.1-3.1-14.3-12.9-11.2-22l0,0
		c0-0.3,0-0.3,0.3-0.7L273.5,167z"/>
	<path class="st1" d="M201.8,177.6l27.7-2c6.1-0.4,10.6,5.6,8.4,11.3L156,398.7c-1.2,3-4,5.1-7.2,5.3h0c-3.2,0.2-6.2-1.4-7.8-4.2
		L28.3,202.7c-3-5.3,0.5-12,6.6-12.4l27.7-2c3.2-0.2,6.3,1.4,7.9,4.3l72.3,130.1L194.6,183C195.8,179.9,198.6,177.8,201.8,177.6z"/>
</g>
</svg>
