<svg width="236" height="196" viewBox="0 0 236 196" fill="none" xmlns="http://www.w3.org/2000/svg">
<path d="M201.12 3.895H182.381H182.234L187.01 21.3728V21.374L191.157 37.0265L201.12 3.895Z" fill="#515151"/>
<path d="M19.4128 78.1593H5.54932L36.8048 151.004L44.917 128.948L19.4128 78.1593Z" fill="#515151"/>
<path d="M84.7311 31.7282L107.051 30.8941L94.4847 67.9124L84.7311 31.7282Z" fill="#515151"/>
<path d="M175.253 74.2261C168.757 76.1103 163.015 79.2435 158.03 83.6259C156.439 85.0016 154.948 86.4606 153.557 88.003L139.862 128.168L139.891 129.203L139.777 129.534C139.997 132.089 140.409 134.639 141.012 137.185C142.014 141.412 143.657 145.114 145.942 148.292C148.323 151.442 151.127 154.017 154.359 156.016C157.659 157.882 161.314 159.082 165.32 159.614C166.065 159.687 166.816 159.732 167.573 159.749L173.953 126.549C173.514 126.549 173.644 125.595 173.514 125.048C172.724 121.714 173.37 119.617 175.45 118.756L184.32 73.2592C181.459 73.4172 178.437 73.3025 175.253 74.2261Z" fill="#0DC01F"/>
<path d="M146.186 81.4703C141.849 86.0037 138.067 90.9406 134.84 96.2814C133.044 99.254 131.471 102.302 130.122 105.425L136.825 127.691L139.631 119.958L139.687 121.93C139.78 120.435 139.938 118.938 140.161 117.44C141.122 110.724 143.118 104.498 146.149 98.7617C148.182 94.8114 150.65 91.2252 153.557 88.003L159.514 70.5325C154.627 73.7096 150.185 77.3554 146.186 81.4703Z" fill="#002864"/>
<path d="M124.089 130.403C123.743 136.264 124.221 141.942 125.523 147.437C126.03 149.576 126.675 151.597 127.457 153.502L136.825 127.691L130.122 105.425C129.048 107.913 128.115 110.448 127.323 113.031C125.514 118.752 124.436 124.542 124.089 130.403Z" fill="#002864"/>
<path d="M138.325 132.676L136.825 127.691L127.457 153.502C128.089 155.041 129.04 156.888 129.851 158.274L138.325 132.676Z" fill="#002864"/>
<path d="M192.858 150.441C188.702 154.018 183.759 156.638 178.027 158.3C174.436 159.342 170.951 159.825 167.573 159.749L165.079 172.726C169.415 172.26 174.081 171.303 179.08 169.855C183.762 168.496 188.124 166.441 192.167 163.686C196.333 161.01 200.098 157.942 203.464 154.481C206.804 150.914 209.748 147.18 212.295 143.279C214.913 139.245 217.004 135.362 218.572 131.633C220.209 127.77 221.357 124.217 222.019 120.976C222.655 117.629 222.71 114.846 222.184 112.627C221.683 110.513 220.661 109.002 219.119 108.094C217.671 107.158 215.563 107.092 212.793 107.896L175.45 118.756C175.271 118.808 175.612 118.689 175.45 118.756L173.953 126.549C174.92 129.249 176.467 130.29 178.593 129.674L207.684 121.237C208.926 120.877 209.659 121.172 209.884 122.123C210.135 123.18 209.679 125.345 208.514 128.62C207.446 131.866 205.591 135.454 202.948 139.383C200.376 143.178 197.013 146.864 192.858 150.441Z" fill="#002864"/>
<path d="M203.507 81.0072C205.019 81.359 207.926 81.341 209.264 80.9531C210.159 80.6937 210.973 80.3554 211.707 79.9385L200.03 79.2337L197.994 58.699C194.607 58.5342 190.884 58.8247 186.824 59.5707L184.32 73.2593C186.436 73.1423 188.464 73.8905 190.403 74.1929C192.342 74.4951 194.981 76.06 199.135 78.7173C200.511 79.7863 201.969 80.5496 203.507 81.0072Z" fill="#002864"/>
<path d="M212.799 64.8498C209.342 61.899 207.505 59.959 201.363 59.0296C200.28 58.8657 199.157 58.7556 197.994 58.6991L200.03 79.2337L211.707 79.9385C213.09 79.1535 214.19 78.0896 215.004 76.7466C216.253 74.6903 216.615 72.5526 216.089 70.3332C215.538 68.0082 214.441 66.1805 212.799 64.8498Z" fill="#002864"/>
<path d="M235.953 81.4098L201.12 3.895L191.157 37.0265L197.994 58.6991C199.157 58.7556 200.28 58.8657 201.363 59.0296C207.505 59.959 209.342 61.899 212.799 64.8498C214.441 66.1805 215.538 68.0082 216.089 70.3332C216.615 72.5526 216.253 74.6903 215.004 76.7466C214.19 78.0896 213.09 79.1535 211.707 79.9385L235.953 81.4098Z" fill="#515151"/>
<path d="M108.105 32.2859L94.0052 73.7874L121.622 169.578L127.457 153.502C126.674 151.597 126.03 149.576 125.523 147.437C124.221 141.942 123.743 136.264 124.089 130.403C124.436 124.542 125.514 118.752 127.323 113.031C128.114 110.448 129.048 107.913 130.122 105.425L108.105 32.2859Z" fill="#515151"/>
<path d="M191.157 37.0265L187.01 21.374V21.3728L182.234 3.895L180.132 10.0591L189.613 45.0546L191.157 37.0265Z" fill="white"/>
<path fill-rule="evenodd" clip-rule="evenodd" d="M159.514 70.5325L180.132 10.0591L189.613 45.0546L186.824 59.5707L184.32 73.2593C181.459 73.4172 178.437 73.3025 175.253 74.2261C168.757 76.1103 163.015 79.2435 158.03 83.6259C156.438 85.0016 154.948 86.4606 153.557 88.003L159.514 70.5325ZM182.381 3.895L187.01 21.3728L182.234 3.895H182.381ZM164.667 174.873L124.255 174.481L129.851 158.274L138.325 132.676L139.707 128.625C139.554 126.397 139.548 124.165 139.687 121.93L139.862 128.168L139.891 129.202L139.777 129.534L129.851 158.274C130.404 159.188 130.995 160.068 131.627 160.915C134.565 164.692 138.272 167.628 142.75 169.717C147.323 171.78 152.64 172.891 158.702 173.054C160.742 173.072 162.867 172.963 165.079 172.726L164.667 174.873ZM173.953 126.549L175.45 118.756C173.37 119.617 172.724 121.714 173.514 125.048C173.644 125.595 173.514 126.549 173.953 126.549Z" fill="#0DC01F"/>
<path d="M145.942 148.292C143.657 145.114 142.014 141.412 141.012 137.185C140.409 134.639 139.997 132.089 139.777 129.534L129.851 158.274C130.404 159.188 130.995 160.068 131.627 160.915C134.565 164.692 138.272 167.628 142.75 169.717C147.323 171.78 152.64 172.891 158.702 173.054C160.742 173.072 162.867 172.964 165.079 172.726L167.573 159.749C166.816 159.732 166.065 159.687 165.32 159.614C161.314 159.082 157.659 157.882 154.359 156.016C151.127 154.017 148.323 151.442 145.942 148.292Z" fill="#0DC01F"/>
<path d="M139.687 121.93L139.631 119.958L136.825 127.691L138.325 132.676L139.707 128.625C139.554 126.397 139.548 124.165 139.687 121.93Z" fill="#002864"/>
<path d="M39.2766 152.016H71.4978L94.0052 73.7875L80.8708 28.5577L44.917 128.948L39.2766 152.016Z" fill="#0DC01F"/>
<path d="M198.601 2.25621H179.862H179.716L184.492 19.7341V19.7352L188.639 35.3877L198.601 2.25621Z" fill="#6F6F6F"/>
<path d="M16.8942 76.5205H3.03079L34.2862 149.365L42.3985 127.309L16.8942 76.5205Z" fill="#6F6F6F"/>
<path d="M82.2126 30.0894L104.533 29.2553L91.9662 66.2736L82.2126 30.0894Z" fill="#6F6F6F"/>
<path d="M172.735 72.5874C166.239 74.4715 160.496 77.6047 155.511 81.9872C153.92 83.3628 152.43 84.8218 151.039 86.3642L137.344 126.53L137.373 127.564L137.258 127.895C137.479 130.45 137.89 133 138.494 135.546C139.496 139.773 141.139 143.476 143.424 146.653C145.804 149.803 148.609 152.378 151.84 154.377C155.141 156.243 158.796 157.443 162.801 157.975C163.547 158.048 164.298 158.093 165.055 158.11L171.434 124.91C170.996 124.91 171.126 123.956 170.996 123.409C170.206 120.075 170.852 117.978 172.932 117.117L181.801 71.6205C178.941 71.7784 175.919 71.6637 172.735 72.5874Z" fill="#0CD720"/>
<path d="M143.667 79.8315C139.33 84.3649 135.548 89.3018 132.322 94.6426C130.526 97.6152 128.953 100.663 127.604 103.786L134.306 126.052L137.113 118.32L137.168 120.291C137.261 118.796 137.419 117.299 137.643 115.801C138.604 109.085 140.599 102.859 143.63 97.1229C145.663 93.1726 148.132 89.5864 151.039 86.3642L156.996 68.8937C152.108 72.0708 147.666 75.7166 143.667 79.8315Z" fill="#003A90"/>
<path d="M121.571 128.764C121.224 134.625 121.702 140.303 123.004 145.798C123.511 147.937 124.156 149.959 124.938 151.863L134.306 126.052L127.604 103.786C126.529 106.274 125.596 108.809 124.805 111.393C122.995 117.113 121.917 122.903 121.571 128.764Z" fill="#003A90"/>
<path d="M135.807 131.037L134.306 126.052L124.938 151.863C125.57 153.402 126.521 155.249 127.333 156.635L135.807 131.037Z" fill="#003A90"/>
<path d="M190.339 148.803C186.184 152.38 181.24 154.999 175.508 156.662C171.917 157.703 168.433 158.186 165.055 158.11L162.56 171.087C166.896 170.622 171.563 169.665 176.561 168.216C181.243 166.857 185.606 164.802 189.649 162.048C193.815 159.372 197.579 156.303 200.945 152.842C204.286 149.275 207.23 145.541 209.776 141.64C212.394 137.606 214.486 133.724 216.053 129.994C217.69 126.131 218.838 122.578 219.501 119.337C220.136 115.99 220.191 113.207 219.665 110.988C219.164 108.874 218.142 107.363 216.6 106.455C215.153 105.52 213.044 105.454 210.274 106.257L172.932 117.117C172.753 117.169 173.093 117.05 172.932 117.117L171.434 124.91C172.401 127.61 173.948 128.652 176.074 128.035L205.166 119.598C206.407 119.238 207.141 119.533 207.366 120.484C207.616 121.541 207.16 123.707 205.995 126.981C204.927 130.227 203.073 133.815 200.43 137.744C197.858 141.539 194.495 145.226 190.339 148.803Z" fill="#003A90"/>
<path d="M200.988 79.3683C202.501 79.7202 205.407 79.7022 206.745 79.3143C207.64 79.0548 208.455 78.7166 209.188 78.2997L197.511 77.5948L195.476 57.0602C192.089 56.8954 188.366 57.1859 184.305 57.9319L181.802 71.6205C183.917 71.5034 185.945 72.2517 187.884 72.5541C189.824 72.8563 192.462 74.4212 196.616 77.0785C197.993 78.1474 199.45 78.9108 200.988 79.3683Z" fill="#003A90"/>
<path d="M210.28 63.211C206.824 60.2602 204.987 58.3202 198.844 57.3908C197.761 57.2269 196.639 57.1168 195.476 57.0603L197.511 77.5949L209.188 78.2997C210.572 77.5147 211.671 76.4508 212.486 75.1078C213.735 73.0515 214.096 70.9138 213.57 68.6944C213.019 66.3694 211.923 64.5417 210.28 63.211Z" fill="#003A90"/>
<path d="M233.434 79.771L198.602 2.25621L188.639 35.3877L195.476 57.0602C196.639 57.1168 197.761 57.2269 198.844 57.3908C204.987 58.3201 206.824 60.2602 210.28 63.211C211.923 64.5417 213.019 66.3694 213.57 68.6944C214.096 70.9138 213.735 73.0515 212.486 75.1078C211.671 76.4508 210.572 77.5147 209.188 78.2997L233.434 79.771Z" fill="#6F6F6F"/>
<path d="M105.587 30.6471L91.4867 72.1487L119.104 167.939L124.938 151.863C124.156 149.959 123.511 147.937 123.004 145.798C121.702 140.303 121.224 134.625 121.571 128.764C121.918 122.903 122.995 117.113 124.805 111.393C125.596 108.809 126.529 106.274 127.604 103.786L105.587 30.6471Z" fill="#6F6F6F"/>
<path d="M188.639 35.3877L184.492 19.7352V19.7341L179.716 2.25621L177.613 8.42028L187.095 43.4158L188.639 35.3877Z" fill="white"/>
<path fill-rule="evenodd" clip-rule="evenodd" d="M156.996 68.8937L177.613 8.42028L187.095 43.4158L184.305 57.9319L181.802 71.6205C178.941 71.7785 175.919 71.6637 172.735 72.5874C166.239 74.4715 160.496 77.6047 155.511 81.9872C153.92 83.3628 152.43 84.8218 151.039 86.3642L156.996 68.8937ZM179.862 2.25621L184.492 19.7341L179.716 2.25621H179.862ZM162.148 173.234L121.736 172.842L127.333 156.635L135.807 131.037L137.188 126.986C137.036 124.758 137.029 122.526 137.168 120.291L137.344 126.53L137.373 127.564L137.258 127.895L127.333 156.635C127.885 157.549 128.477 158.429 129.109 159.276C132.047 163.054 135.754 165.989 140.231 168.078C144.804 170.141 150.122 171.253 156.184 171.415C158.224 171.433 160.348 171.325 162.56 171.087L162.148 173.234ZM171.434 124.91L172.932 117.117C170.852 117.978 170.206 120.075 170.996 123.409C171.126 123.956 170.996 124.91 171.434 124.91Z" fill="#0CD720"/>
<path d="M143.424 146.653C141.139 143.476 139.496 139.773 138.494 135.546C137.89 133 137.479 130.45 137.258 127.895L127.333 156.635C127.885 157.549 128.477 158.429 129.109 159.276C132.047 163.054 135.754 165.989 140.231 168.078C144.804 170.141 150.121 171.252 156.184 171.415C158.224 171.433 160.348 171.325 162.56 171.087L165.055 158.11C164.298 158.093 163.547 158.048 162.801 157.975C158.796 157.443 155.141 156.243 151.84 154.377C148.609 152.378 145.804 149.803 143.424 146.653Z" fill="#0CD720"/>
<path d="M137.168 120.291L137.113 118.32L134.306 126.052L135.807 131.037L137.188 126.986C137.036 124.758 137.029 122.526 137.168 120.291Z" fill="#003A90"/>
<path d="M36.7581 150.377H68.9793L91.4867 72.1486L78.3523 26.9189L42.3985 127.309L36.7581 150.377Z" fill="#0CD720"/>
<path d="M195.639 0.0622406H176.902H176.899L181.529 17.54V17.5412L185.676 33.1936L195.639 0.0622406Z" fill="#B3B3B3"/>
<path d="M13.9312 74.3266H0.0678101L31.3232 147.171L39.4355 125.115L13.9312 74.3266Z" fill="#B3B3B3"/>
<path d="M79.2496 27.8956L101.57 27.0613L89.0033 64.0797L79.2496 27.8956Z" fill="#B3B3B3"/>
<path d="M169.772 70.3933C163.276 72.2775 157.533 75.4108 152.548 79.7933C150.957 81.1689 149.467 82.6278 148.075 84.1704L134.381 124.336L134.41 125.37L134.295 125.701C134.516 128.256 134.927 130.806 135.531 133.352C136.533 137.579 138.176 141.282 140.461 144.459C142.841 147.609 145.646 150.184 148.877 152.183C152.178 154.049 155.833 155.249 159.839 155.781C160.584 155.854 161.335 155.899 162.092 155.916L168.471 122.716C168.033 122.716 168.163 121.762 168.033 121.215C167.243 117.881 167.889 115.784 169.969 114.923L178.838 68.7709C175.978 68.9291 172.956 69.4697 169.772 70.3933Z" fill="#B6F3BD"/>
<path d="M140.704 77.6376C136.367 82.1709 132.585 87.1079 129.359 92.4486C127.563 95.4213 125.99 98.4692 124.641 101.592L131.343 123.858L134.15 116.126L134.205 118.097C134.298 116.602 134.456 115.105 134.68 113.607C135.641 106.891 137.636 100.665 140.667 94.9289C142.7 90.9786 145.169 87.3924 148.075 84.1704L154.033 66.6996C149.145 69.8768 144.703 73.5228 140.704 77.6376Z" fill="#B3C4DE"/>
<path d="M118.608 126.57C118.261 132.431 118.739 138.109 120.042 143.604C120.548 145.743 121.193 147.765 121.975 149.669L131.343 123.858L124.641 101.592C123.566 104.08 122.633 106.615 121.842 109.199C120.032 114.919 118.955 120.709 118.608 126.57Z" fill="#B3C4DE"/>
<path d="M132.844 128.843L131.343 123.858L121.975 149.669C122.607 151.208 123.558 153.055 124.37 154.441L132.844 128.843Z" fill="#B3C4DE"/>
<path d="M187.376 146.609C183.221 150.186 178.277 152.805 172.545 154.468C168.954 155.509 165.47 155.992 162.092 155.916L159.597 168.893C163.933 168.429 168.6 167.47 173.599 166.022C178.28 164.663 182.643 162.608 186.686 159.854C190.852 157.178 194.616 154.109 197.982 150.648C201.323 147.081 204.267 143.347 206.813 139.446C209.431 135.412 211.523 131.53 213.09 127.8C214.727 123.937 215.876 120.384 216.538 117.143C217.173 113.796 217.228 111.013 216.702 108.794C216.202 106.68 215.179 105.169 213.637 104.261C212.19 103.326 210.082 103.26 207.311 104.063L169.969 114.923C169.79 114.975 170.13 114.856 169.969 114.923L168.471 122.716C169.439 125.416 170.985 126.458 173.111 125.841L202.203 117.404C203.444 117.044 204.178 117.339 204.403 118.29C204.653 119.347 204.197 121.513 203.033 124.787C201.964 128.033 200.11 131.621 197.467 135.55C194.895 139.345 191.532 143.032 187.376 146.609Z" fill="#B3C4DE"/>
<path d="M202.47 77.1744C203.982 77.5262 205.407 77.5082 206.745 77.1203C207.64 76.8609 208.455 76.5226 209.188 76.1057L198.993 75.4009L192.513 54.8662C189.126 54.7014 185.403 54.9921 181.342 55.7381L178.839 68.7709C180.954 68.6541 182.982 68.7467 184.921 69.049C189.551 69.6264 193.944 71.5716 198.098 74.8845C199.474 75.9536 200.932 76.7168 202.47 77.1744Z" fill="#B3C4DE"/>
<path d="M210.28 61.017C206.824 58.0662 202.024 56.1261 195.881 55.197C194.799 55.0331 193.676 54.9228 192.513 54.8662L198.993 75.4008L209.188 76.1057C210.572 75.3209 211.671 74.2568 212.486 72.9138C213.735 70.8576 214.096 68.7198 213.57 66.5005C213.019 64.1754 211.923 62.3477 210.28 61.017Z" fill="#B3C4DE"/>
<path d="M230.471 77.577L195.639 0.0622406L185.676 33.1936V33.1969L192.513 54.8662C193.676 54.9228 194.799 55.0331 195.881 55.1969C202.024 56.1261 206.824 58.0661 210.28 61.017C211.923 62.3477 213.019 64.1754 213.57 66.5005C214.096 68.7198 213.735 70.8576 212.486 72.9138C211.671 74.2568 210.572 75.3209 209.188 76.1057L230.471 77.577Z" fill="#B3B3B3"/>
<path d="M102.624 28.4531L88.5237 69.9548L116.141 165.745L121.975 149.669C121.193 147.765 120.548 145.743 120.041 143.604C118.739 138.109 118.261 132.431 118.608 126.57C118.955 120.709 120.032 114.919 121.842 109.199C122.633 106.615 123.566 104.08 124.641 101.592L102.624 28.4531Z" fill="#B3B3B3"/>
<path fill-rule="evenodd" clip-rule="evenodd" d="M154.033 66.6996L174.646 6.23936L174.65 6.2263L184.132 41.2177V41.2218L181.342 55.7381L178.839 68.7709C175.978 68.9291 172.956 69.4697 169.772 70.3933C163.276 72.2774 157.533 75.4108 152.548 79.7933C150.957 81.1689 149.467 82.6278 148.075 84.1703L154.033 66.6996ZM159.185 171.039L118.773 170.648L124.37 154.441L132.844 128.843L134.225 124.792C134.073 122.564 134.066 120.332 134.205 118.097L134.381 124.336L134.41 125.37L134.295 125.701L124.37 154.441C124.922 155.355 125.514 156.235 126.146 157.082C129.084 160.86 132.791 163.795 137.268 165.884C141.841 167.947 147.159 169.058 153.221 169.22C155.261 169.24 157.385 169.13 159.597 168.893L159.185 171.039ZM168.471 122.716L169.969 114.923C167.889 115.784 167.243 117.881 168.033 121.215C168.163 121.762 168.033 122.716 168.471 122.716Z" fill="#B6F3BD"/>
<path d="M140.461 144.459C138.176 141.282 136.533 137.579 135.531 133.352C134.927 130.806 134.516 128.256 134.295 125.701L124.37 154.441C124.922 155.355 125.514 156.235 126.146 157.082C129.084 160.86 132.791 163.795 137.268 165.884C141.841 167.947 147.159 169.058 153.221 169.22C155.261 169.24 157.385 169.13 159.597 168.893L162.092 155.916C161.335 155.899 160.584 155.854 159.839 155.781C155.833 155.249 152.178 154.049 148.877 152.183C145.646 150.184 142.841 147.609 140.461 144.459Z" fill="#B6F3BD"/>
<path d="M134.205 118.097L134.15 116.126L131.343 123.858L132.844 128.843L134.225 124.792C134.073 122.564 134.066 120.332 134.205 118.097Z" fill="#B3C4DE"/>
<path d="M33.7951 148.183H66.0163L88.5237 69.9548L77.5805 28.4531L41.6267 128.843L33.7951 148.183Z" fill="#B6F3BD"/>
<path d="M174.204 121.268C174.204 124.873 174.681 125.89 167.776 127.304C164.219 127.304 161.307 125.919 161.307 122.314C161.307 118.709 168.05 114.749 171.607 114.749C175.166 114.749 174.204 117.663 174.204 121.268Z" fill="#B3C4DE"/>
</svg>
