<?xml version="1.0" encoding="utf-8"?>
<!-- Generator: Adobe Illustrator 23.0.5, SVG Export Plug-In . SVG Version: 6.00 Build 0)  -->
<svg version="1.1" id="Слой_1" xmlns="http://www.w3.org/2000/svg" xmlns:xlink="http://www.w3.org/1999/xlink" x="0px" y="0px"
	 viewBox="0 0 151.5 146.1" style="enable-background:new 0 0 151.5 146.1;" xml:space="preserve">
<style type="text/css">
	.st0{fill:#FFFFFF;}
	.st1{fill:#133758;}
	.st2{fill:#8A1133;}
</style>
<rect x="-13" y="-25" class="st0" width="284" height="283"/>
<title>mini_blue</title>
<path class="st1" d="M134.8,36.1l-4,10.7c-0.8,2.2-3.2,3.3-5.4,2.5l0,0l-2.4-1c-1.7-0.5-3.1-2.4-2.9-3.6c0.9-1.4-0.6-3.6-3.8-4.8
	c-4.8-2-8.9-0.3-9.9,2.2c-0.4,0.9-1.6,4.1-1.6,4.1l-14.5-5.6l0.9-2.3c0,0,0.2-0.6,0.6-1.9c0.9-2.6-0.4-5.6-3-6.6
	c-8.1-2.8-17-2.6-25,0.6l-1.5-3.1c22-17.2,36.2-10.4,41-8.5l10.4,4c2.5,1,3,6.8,6.8,8.5c1.6,0.6,3.3,0.6,4.9,0
	c0.9-1.7,3-2.4,4.8-1.6l2.2,1C134.6,31.4,135.7,33.8,134.8,36.1C134.9,36,134.8,36.1,134.8,36.1z"/>
<path class="st2" d="M88.4,45.3l14.4,5.5L77,127c-1.1,2.7-4.1,4-6.8,3l-7.2-2.8c-2.6-0.9-4.1-3.7-3.2-6.3c0,0,0,0,0,0
	c0-0.1,0-0.1,0.1-0.2L88.4,45.3z"/>
<path class="st1" d="M66.3,48.4l13.2-1L54.3,113l-3,0.2l-35-60.9l13.2-1L51,89.8L66.3,48.4z"/>
</svg>
