<?xml version="1.0" encoding="utf-8"?>
<!-- Generator: Adobe Illustrator 23.0.5, SVG Export Plug-In . SVG Version: 6.00 Build 0)  -->
<svg version="1.1" id="Слой_1" xmlns="http://www.w3.org/2000/svg" xmlns:xlink="http://www.w3.org/1999/xlink" x="0px" y="0px"
	 viewBox="0 0 500 192.1" style="enable-background:new 0 0 500 192.1;" xml:space="preserve">
<style type="text/css">
	.st0{fill:#133758;}
	.st1{fill:#8A1133;}
</style>
<title>vigma_logo_blue</title>
<path class="st0" d="M212.6,111.3h41.1v43c-10.8,8.5-24.2,12.9-37.9,12.5c-15,0.6-29.7-4.8-40.7-15.1c-10.4-9.9-16.2-23.8-15.7-38.2
	c-0.4-14.3,5.3-28.2,15.6-38.2c10.5-10.1,24.7-15.6,39.3-15.2c12.6-0.3,24.9,3.7,34.8,11.5l-9.3,16.2c-6.8-6.1-15.6-9.4-24.7-9.2
	c-9.5-0.4-18.7,3.2-25.4,9.8c-6.6,6.6-10.2,15.7-9.8,25.1c-0.3,9.5,3.4,18.6,10.2,25.2c7.2,6.7,16.8,10.3,26.7,9.8
	c6.1,0,12.1-1.3,17.6-3.7v-16.3h-21.6L212.6,111.3z"/>
<path class="st0" d="M387,165.3h-19.7l-2.2-50.2l-32.9,51.4h-5.8L293.7,115l-2.1,50.2h-19.7l4.3-103.6h5.5l47.6,73.7l47.6-73.7h5.8
	L387,165.3z"/>
<path class="st0" d="M478.3,165.3l-8.4-18.7h-44.8l-8.4,18.7H395l50.4-105.1h4.1L500,165.3H478.3z M432.6,130.2h29.9L447.8,97
	L432.6,130.2z"/>
<path class="st0" d="M202.6,26.5l-4.9,18.3c-1,3.7-4.8,5.9-8.5,4.9c0,0-0.1,0-0.1,0l-4.1-1.3c-2.9-0.6-5.6-3.4-5.4-5.5
	c1.2-2.4-1.6-5.9-7.1-7.3c-8.2-2.5-14.7,1-15.9,5.3c-0.6,1.5-2,7-2,7l-24.6-6.8l1.1-4c0,0,0.3-1,0.7-3.2c1.1-4.5-1.6-9.1-6.1-10.4
	c-13.9-3.3-28.5-1.5-41.2,5.1l-2.9-4.9c33.6-32,58-23.1,66.4-20.7l17.7,4.9c4.3,1.2,6,10.7,12.6,12.9c2.7,0.8,5.5,0.5,8-0.8
	c1.2-3,4.6-4.5,7.6-3.4l3.8,1.2c3.7,1,5.8,4.9,4.8,8.5C202.6,26.4,202.6,26.4,202.6,26.5z"/>
<path class="st1" d="M127.5,49.2l24.6,6.8l-29.8,129.8c-1.4,4.6-6.1,7.2-10.7,6l-12.4-3.4c-4.5-1-7.3-5.5-6.3-9.9
	c0-0.1,0.1-0.2,0.1-0.3L127.5,49.2z"/>
<path class="st0" d="M83,61h21.9L55,166H50L0,61h22l30.5,66.3L83,61z"/>
</svg>
