<svg xmlns="http://www.w3.org/2000/svg" viewBox="0 0 51.58 51.58"><defs><style>.a{fill:#fff;}</style></defs><title>vkontakte</title><path class="a" d="M33.72,0H17.89C3.44,0,0,3.44,0,17.87V33.69C0,48.14,3.41,51.58,17.87,51.58H33.69c14.45,0,17.89-3.41,17.89-17.86V17.89C51.58,3.44,48.17,0,33.72,0Zm7.92,36.81H37.88c-1.42,0-1.85-1.16-4.4-3.71-2.24-2.15-3.17-2.42-3.74-2.42-.78,0-1,.22-1,1.29v3.39c0,.91-.3,1.45-2.69,1.45-4,0-8.35-2.42-11.47-6.88C9.91,23.4,8.65,18.46,8.65,17.46c0-.56.22-1.07,1.29-1.07H13.7c1,0,1.32.43,1.69,1.42,1.83,5.38,4.94,10.05,6.2,10.05.49,0,.7-.21.7-1.42V20.9c-.15-2.52-1.5-2.74-1.5-3.65a.94.94,0,0,1,1-.86h5.91c.81,0,1.08.4,1.08,1.37v7.47c0,.8.35,1.07.59,1.07.48,0,.86-.27,1.74-1.15a30.54,30.54,0,0,0,4.62-7.69,1.63,1.63,0,0,1,1.64-1.07h3.77c1.12,0,1.37.56,1.12,1.37-.45,2.2-5,8.65-5,8.68-.4.61-.56.94,0,1.66.38.57,1.7,1.67,2.58,2.72a16.61,16.61,0,0,1,3.17,4.4C43.25,36.27,42.72,36.81,41.64,36.81Z"/></svg>