<svg xmlns="http://www.w3.org/2000/svg" viewBox="0 0 99.96 100"><defs><style>.a{fill:#fff;}</style></defs><title>location</title><path class="a" d="M64.12,59,81.35,27.52c.2-.8.41-1.79.59-2.79a15,15,0,0,0,.41-3A17.68,17.68,0,0,0,77,9.29a18.14,18.14,0,0,0-25.73,0,24.17,24.17,0,0,0-2,2.18,18.89,18.89,0,0,0-3.36,10.29,16.55,16.55,0,0,0,.39,3,11.44,11.44,0,0,0,.61,2.79ZM3.94,75.62,31.28,39V5.15L3.94,17ZM35.22,38.81,62.15,64.92V63.74L43.34,29.29V28.9a9.79,9.79,0,0,1-1-3.56,21.8,21.8,0,0,1-.4-3.58,21.81,21.81,0,0,1,3-10.68L35.22,5.53V38.81Zm30.9,28.1L96,58.19v-53L83.53,11.08a22,22,0,0,1,2.78,10.68,21.8,21.8,0,0,1-.4,3.58,23.3,23.3,0,0,1-.8,3.56c-.2.2-.2.2-.2.39L66.12,63.74v3.17ZM96,62.36l-29.9,8.7.2,24.34L96,86.9ZM62.15,70.47,35.22,44.34V86.9l27.14,8.32ZM31.28,45.72,3.94,82.35V95.22L31.28,86.9Zm3-45.33L47.31,7.71c.4-.39.79-1,1.17-1.39a22.51,22.51,0,0,1,31.28,0c.41.59,1,1,1.41,1.59L97,.39A1.55,1.55,0,0,1,98,0a2,2,0,0,1,2,2V88.29a1.94,1.94,0,0,1-1.38,2L64.92,100H63.74l-30.49-9.5L2.56,100A2,2,0,0,1,.2,98.58.72.72,0,0,1,0,98V15.64a1.91,1.91,0,0,1,1.38-1.79L32.46.2A2,2,0,0,1,34.25.39ZM64.12,8.7A11.87,11.87,0,0,1,73,12.47a11.9,11.9,0,0,1,3.76,8.9c0,.8-.18,1.39-.18,2.18-.2.59-.4,1.38-.61,2a12.76,12.76,0,0,1-4.53,6.15,13.54,13.54,0,0,1-7.35,2.38,13.52,13.52,0,0,1-7.32-2.38,11.77,11.77,0,0,1-4.55-6.15c-.18-.59-.39-1.38-.59-2a8.88,8.88,0,0,1-.18-2.18,12,12,0,0,1,3.74-8.9,11.94,11.94,0,0,1,8.9-3.77Zm6.15,6.53a8.72,8.72,0,0,0-14.85,6.14c0,.59.2,1,.2,1.39A3,3,0,0,0,56,24.14a8.52,8.52,0,0,0,13.08,4.35,10,10,0,0,0,3.17-4.35,3,3,0,0,0,.39-1.38c0-.39.2-.8.2-1.39A8.72,8.72,0,0,0,70.27,15.23Z"/></svg>