<svg width="88" height="104" viewBox="0 0 88 104" fill="none" xmlns="http://www.w3.org/2000/svg">
<path d="M0.967529 95.7886L31.0306 92.8418L57.0741 96.7227L87.1522 95.8258V99.9839L57.0741 100.881L31.0306 96.9999L0.967529 99.9467V95.7886Z" fill="#303030"/>
<path d="M72.7805 27.7444C72.9668 26.9444 73.1624 25.9544 73.3301 24.9544C73.5513 23.9708 73.6793 22.9657 73.712 21.9544C73.6835 19.631 73.2287 17.3364 72.3736 15.2019C71.5184 13.0673 70.2797 11.1347 68.7282 9.51443C67.1579 7.81853 65.2905 6.47269 63.2338 5.55431C61.1771 4.63593 58.9715 4.16315 56.7439 4.16315C54.5163 4.16315 52.3108 4.63593 50.254 5.55431C48.1973 6.47269 46.33 7.81853 44.7596 9.51443C44.0976 10.1996 43.4755 10.9276 42.8965 11.6944C40.9404 14.7232 39.8524 18.3001 39.7665 21.9844C39.802 22.9942 39.9237 23.9984 40.1298 24.9844C40.2099 25.9362 40.4008 26.8735 40.6981 27.7744L54.8948 55.6244V34.114C53.1032 33.7839 51.392 33.0398 49.8831 31.9244C47.8717 30.4382 46.38 28.2739 45.6446 25.7744C45.5753 25.5306 45.5012 25.2526 45.425 24.9666C45.3168 24.5605 45.2043 24.1382 45.095 23.7744C44.9556 23.0579 44.8992 22.3257 44.9273 21.5944C44.9023 19.9328 45.199 18.2837 45.7987 16.7517C46.3985 15.2197 47.2881 13.8381 48.4113 12.6944C49.472 11.4803 50.7576 10.5178 52.1854 9.86859C53.6132 9.21935 55.1516 8.89774 56.702 8.92443H56.73C58.2778 8.8962 59.8139 9.21719 61.2389 9.86662C62.6638 10.516 63.9459 11.4794 65.0021 12.6944C66.1331 13.8325 67.0293 15.2126 67.6327 16.7456C68.2359 18.2786 68.533 19.9305 68.5047 21.5944C68.5047 21.9957 68.4625 22.3441 68.4204 22.6914C68.3787 23.0366 68.337 23.3807 68.337 23.7744C68.2449 24.0662 68.1527 24.4068 68.0595 24.7517C67.9642 25.1042 67.8676 25.461 67.7688 25.7744C66.9801 28.2389 65.5074 30.385 63.5489 31.9244C62.0551 33.0272 60.3639 33.7668 58.593 34.1023V44.8363V55.5703L65.6868 41.6574L72.7805 27.7444Z" fill="#7EA880"/>
<path d="M56.73 59.2244L58.593 55.5703V44.8363V34.1023C57.9708 34.2202 57.3388 34.2881 56.702 34.3044C56.0937 34.2877 55.4898 34.2237 54.8948 34.114V55.6244L56.73 59.2244Z" fill="#7EA880"/>
<path d="M29.138 52.9444L4.66956 73.5744V96.4444L29.138 94.1244V52.9444Z" fill="#303030" fill-opacity="0.5"/>
<path d="M4.66956 67.8444L29.138 47.2244V13.3744L4.66956 15.2244V67.8444Z" fill="#303030" fill-opacity="0.5"/>
<path d="M54.8948 70.6944L32.8083 52.5644V94.1244L55.0904 97.4444L54.8948 70.6944Z" fill="#303030" fill-opacity="0.5"/>
<path d="M83.4276 62.5844L58.5744 71.2844L58.7607 97.6244L83.4276 97.1244V62.5844Z" fill="#303030" fill-opacity="0.5"/>
<path d="M58.593 66.1344L83.4276 57.4144V15.4144L74.8112 11.3044C76.5057 14.5704 77.397 18.246 77.4009 21.9844C77.3689 23.1867 77.2443 24.3841 77.0283 25.5644C76.867 26.7702 76.6178 27.9605 76.2831 29.1244C76.1739 29.2416 76.1287 29.2901 76.11 29.3485C76.0968 29.3897 76.0968 29.4358 76.0968 29.5144L58.593 63.9644V66.1344Z" fill="#303030" fill-opacity="0.5"/>
<path fill-rule="evenodd" clip-rule="evenodd" d="M54.8948 65.1444L32.8083 47.0344V13.7544L37.2866 14.9014C36.5205 17.165 36.106 19.558 36.0683 21.9844C36.1002 23.1867 36.2249 24.3841 36.4409 25.5644C36.538 26.8038 36.854 28.012 37.3724 29.1244V29.5144L54.8948 63.9644V65.1444Z" fill="#303030" fill-opacity="0.5"/>
<path fill-rule="evenodd" clip-rule="evenodd" d="M58.3126 13.0991C57.7959 12.9903 57.2731 12.9361 56.7515 12.9359C56.1456 12.9357 55.5412 13.0082 54.9499 13.1523L54.8948 13.1637V13.166L54.9499 13.1523C55.6161 13.0156 56.0236 12.9723 56.7515 12.9359C57.5914 12.9537 57.9281 13.0243 58.47 13.138L58.593 13.1637C58.5 13.1405 58.4066 13.1189 58.3126 13.0991Z" fill="#303030" fill-opacity="0.5"/>
<path fill-rule="evenodd" clip-rule="evenodd" d="M54.8948 65.1444L32.8083 47.0344V13.7544C32.8808 12.4422 32.8016 10.5772 31.9047 9.61442C31.6599 9.44507 31.3815 9.33966 31.092 9.30666C30.8024 9.27367 30.5096 9.314 30.2372 9.42442L2.28481 14.0744C1.92098 14.1871 1.60012 14.4214 1.36892 14.7434C1.13772 15.0653 1.00822 15.458 0.999274 15.8644V98.2244C0.988618 98.3298 0.999793 98.4365 1.032 98.5368C1.06421 98.637 1.11665 98.7284 1.18558 98.8044C1.31275 99.2984 1.61174 98.7211 2.02083 98.9854C2.42991 99.2494 2.91789 99.3354 3.38403 99.2244L30.9732 95.7244L56.376 100.224H57.4752L85.8683 99.5144C86.2627 99.388 86.6051 99.1209 86.8388 98.7572C87.0726 98.3935 87.1836 98.9551 87.1538 98.5144V12.2244C87.1538 11.694 86.9575 12.1853 86.6081 11.8102C86.2587 11.4351 85.7848 11.2244 85.2907 11.2244C84.9468 11.2312 84.6164 11.3695 84.3592 11.6144C83.507 12.3092 83.383 14.1039 83.4276 15.4144V57.4144L58.593 66.1344V63.9644L56.73 67.4021L54.8948 63.9644V65.1444ZM29.138 47.2244L4.66956 67.8444V15.2244L29.138 13.3744V47.2244ZM58.5744 71.2844L83.4276 62.5844V97.1244L58.7607 97.6244L58.5744 71.2844ZM32.8083 52.5644L54.8948 70.6944L55.0904 97.4444L32.8083 94.1244V52.5644ZM4.66956 73.5744L29.138 52.9444V94.1244L4.66956 96.4444V73.5744Z" fill="#303030"/>
<path fill-rule="evenodd" clip-rule="evenodd" d="M61.2389 9.86662C59.8139 9.21719 58.2778 8.8962 56.73 8.92443H56.702C55.1516 8.89774 53.6132 9.21935 52.1854 9.86859C50.7576 10.5178 49.472 11.4803 48.4113 12.6944C47.2881 13.8381 46.3985 15.2197 45.7987 16.7517C45.199 18.2837 44.9023 19.9328 44.9273 21.5944C44.8992 22.3257 44.9556 23.0579 45.095 23.7744C45.2043 24.1382 45.3168 24.5605 45.425 24.9666C45.5012 25.2526 45.5753 25.5306 45.6446 25.7744C46.38 28.2739 47.8717 30.4382 49.8831 31.9244C51.392 33.0398 53.1032 33.7839 54.8948 34.114C55.4898 34.2237 56.0937 34.2877 56.702 34.3044C57.3388 34.2881 57.9708 34.2202 58.593 34.1023C60.3639 33.7668 62.0551 33.0272 63.5489 31.9244C65.5074 30.385 66.9801 28.2389 67.7688 25.7744C67.8676 25.461 67.9642 25.1042 68.0595 24.7517C68.1527 24.4068 68.2449 24.0662 68.337 23.7744C68.337 23.3807 68.3787 23.0366 68.4204 22.6914C68.4625 22.3441 68.5047 21.9957 68.5047 21.5944C68.533 19.9305 68.2359 18.2786 67.6327 16.7456C67.0293 15.2126 66.1331 13.8325 65.0021 12.6944C63.9459 11.4794 62.6638 10.516 61.2389 9.86662ZM58.3126 13.0991C58.4106 13.1198 58.5081 13.1423 58.6051 13.1668C60.0595 13.5333 61.3937 14.3241 62.4589 15.4544C63.9818 17.0807 64.8427 19.2884 64.853 21.5944C64.853 21.9198 64.7963 22.1905 64.7455 22.4333C64.7042 22.6306 64.6667 22.8095 64.6667 22.9844C64.6513 23.4692 64.5266 23.9427 64.3034 24.3644C63.708 26.0769 62.6866 27.5814 61.3504 28.7144C60.5192 29.3532 59.5826 29.8122 58.593 30.0686C58.3703 30.1264 58.145 30.1738 57.9175 30.2107C56.9091 30.3745 55.8829 30.3277 54.8948 30.0755C54.6696 30.0181 54.4464 29.95 54.2259 29.8712C53.0376 29.4469 51.9596 28.7268 51.0801 27.7697C50.2007 26.8127 49.5447 25.6457 49.1658 24.3644C48.9458 23.9418 48.8244 23.4683 48.8118 22.9844C48.8118 22.8095 48.7744 22.6306 48.733 22.4333C48.6822 22.1905 48.6255 21.9198 48.6255 21.5944C48.6368 19.8793 49.119 18.2059 50.0117 16.7835C50.9044 15.3611 52.1681 14.2529 53.6446 13.5976C54.0516 13.417 54.4697 13.2729 54.8948 13.166L54.9499 13.1523C56.0502 12.8842 57.1956 12.8638 58.3126 13.0991Z" fill="#475045"/>
<path d="M73.3301 24.9544C73.1624 25.9544 72.9668 26.9444 72.7805 27.7444L65.6868 41.6574L58.593 55.5703V63.9644L76.0968 29.5144C76.0968 29.4358 76.0968 29.3897 76.11 29.3485C76.1287 29.2901 76.1739 29.2416 76.2831 29.1244C76.6178 27.9605 76.867 26.7702 77.0283 25.5644C77.2443 24.3841 77.3689 23.1867 77.4009 21.9844C77.397 18.246 76.5057 14.5704 74.8112 11.3044C74.3441 10.5128 73.2504 8.77043 72.6128 8.13443C72.4218 7.83943 72.1889 7.58943 71.9561 7.33943C71.7232 7.08943 71.4903 6.83943 71.2993 6.54443C67.3897 2.48987 62.1661 0.223633 56.73 0.223633C51.2938 0.223633 46.0702 2.48987 42.1606 6.54443C41.9939 6.72805 41.8252 6.96045 41.6544 7.1957C41.4624 7.46008 41.2679 7.72805 41.0707 7.93443C40.0016 9.24756 39.1534 10.7282 38.8629 11.3044C38.2342 12.4538 37.7073 13.6581 37.2866 14.9014C36.5205 17.165 36.106 19.558 36.0683 21.9844C36.1002 23.1867 36.2249 24.3841 36.4409 25.5644C36.538 26.8038 36.854 28.012 37.3724 29.1244V29.5144L54.8948 63.9644V55.6244L40.6981 27.7744C40.4008 26.8735 40.2099 25.9362 40.1298 24.9844C39.9237 23.9984 39.802 22.9942 39.7665 21.9844C39.8524 18.3001 40.9404 14.7232 42.8965 11.6944C43.4755 10.9276 44.0976 10.1996 44.7596 9.51443C46.33 7.81853 48.1973 6.47269 50.254 5.55431C52.3108 4.63593 54.5163 4.16315 56.7439 4.16315C58.9715 4.16315 61.1771 4.63593 63.2338 5.55431C65.2905 6.47269 67.1579 7.81853 68.7282 9.51443C70.2797 11.1347 71.5184 13.0673 72.3736 15.2019C73.2287 17.3364 73.6835 19.631 73.712 21.9544C73.6793 22.9657 73.5513 23.9708 73.3301 24.9544Z" fill="#475045"/>
<path d="M58.593 55.5703L56.73 59.2244L54.8948 55.6244V63.9644L56.73 67.4021L58.593 63.9644V55.5703Z" fill="#475045"/>
<path d="M53.6446 13.5976C52.1681 14.2529 50.9044 15.3611 50.0117 16.7835C49.119 18.2059 48.6368 19.8793 48.6255 21.5944C48.6255 21.9198 48.6822 22.1905 48.733 22.4333C48.7744 22.6306 48.8118 22.8095 48.8118 22.9844C48.8244 23.4683 48.9458 23.9418 49.1658 24.3644C49.5447 25.6457 50.2007 26.8127 51.0801 27.7697C51.9596 28.7268 53.0376 29.4469 54.2259 29.8712C54.4464 29.95 54.6696 30.0181 54.8948 30.0755V13.166C54.4697 13.2729 54.0516 13.417 53.6446 13.5976Z" fill="#303030" fill-opacity="0.5"/>
<path d="M62.4589 15.4544C61.3937 14.3241 60.0595 13.5333 58.6051 13.1668C58.6011 13.1658 58.5971 13.1647 58.593 13.1637V30.0686C59.5826 29.8122 60.5192 29.3532 61.3504 28.7144C62.6866 27.5814 63.708 26.0769 64.3034 24.3644C64.5266 23.9427 64.6513 23.4692 64.6667 22.9844C64.6667 22.8095 64.7042 22.6306 64.7455 22.4333C64.7963 22.1905 64.853 21.9198 64.853 21.5944C64.8427 19.2884 63.9818 17.0807 62.4589 15.4544Z" fill="#303030" fill-opacity="0.5"/>
<path d="M54.8948 30.0755C55.8829 30.3277 56.9091 30.3745 57.9175 30.2107C58.145 30.1738 58.3703 30.1264 58.593 30.0686V13.1637L58.47 13.138C57.9281 13.0243 57.5914 12.9537 56.7515 12.9359C56.0236 12.9723 55.6161 13.0156 54.9499 13.1523L54.8948 13.166V30.0755Z" fill="#303030"/>
<path d="M0.970215 13.9775H4.66666V96.6357H0.970215V13.9775Z" fill="#303030"/>
<path d="M0.970215 13.9775H4.66666V96.6357H0.970215V13.9775Z" fill="#303030"/>
<path d="M0.970215 13.9775H4.66666V96.6357H0.970215V13.9775Z" fill="#303030"/>
<rect x="83.4556" y="13.9531" width="3.69644" height="82.6581" fill="#303030"/>
<rect x="83.4556" y="13.9531" width="3.69644" height="82.6581" fill="#303030"/>
<rect x="83.4556" y="13.9531" width="3.69644" height="82.6581" fill="#303030"/>
<path fill-rule="evenodd" clip-rule="evenodd" d="M39.0008 11.0347L30.1727 9.03467L0.993408 11.3181V15.7961L30.1727 13.1927L37.2721 14.9765C37.748 13.6362 38.1463 12.8054 39.0008 11.0347ZM76.4023 15.1927H87.2042V11.0347H74.66C75.4134 12.4669 75.8064 13.35 76.4023 15.1927Z" fill="#303030"/>
<path d="M54.6124 13.228H58.8689C60.0553 13.6381 60.6893 13.935 61.7025 14.7204C62.6481 15.5631 63.1182 16.145 63.8352 17.4736H49.6202C50.7906 15.287 51.8205 14.2688 54.6124 13.228Z" fill="#303030"/>
</svg>
