<svg width="101" height="101" viewBox="0 0 101 101" fill="none" xmlns="http://www.w3.org/2000/svg">
<path fill-rule="evenodd" clip-rule="evenodd" d="M50.6902 100.042C78.3044 100.042 100.69 77.6557 100.69 50.0415C100.69 22.4273 78.3044 0.0415039 50.6902 0.0415039C23.0759 0.0415039 0.690186 22.4273 0.690186 50.0415C0.690186 77.6557 23.0759 100.042 50.6902 100.042ZM50.6902 92.3331C74.0472 92.3331 92.9818 73.3985 92.9818 50.0415C92.9818 26.6845 74.0472 7.74988 50.6902 7.74988C27.3332 7.74988 8.39856 26.6845 8.39856 50.0415C8.39856 73.3985 27.3332 92.3331 50.6902 92.3331Z" fill="#303030"/>
<circle cx="50.6903" cy="50.0416" r="42.2916" fill="#303030" fill-opacity="0.45"/>
<path d="M2.73071 50.5C2.73071 48.8431 4.07386 47.5 5.73071 47.5H20.5649C22.2218 47.5 23.5649 48.8431 23.5649 50.5V50.5C23.5649 52.1569 22.2218 53.5 20.5649 53.5H5.73071C4.07386 53.5 2.73071 52.1569 2.73071 50.5V50.5Z" fill="#303030"/>
<path d="M74.4435 44.5705C73.6819 42.2571 70.919 41.3141 68.9019 42.679L50.5707 55.0831C49.2122 56.0024 48.6288 57.7116 49.1418 59.2696V59.2696C49.9035 61.583 52.6663 62.526 54.6835 61.1611L73.0146 48.757C74.3731 47.8378 74.9565 46.1285 74.4435 44.5705V44.5705Z" fill="#303030"/>
<rect width="44.5034" height="7.62915" rx="3.81458" transform="matrix(-0.745757 -0.666218 -0.666218 0.745757 57.2834 58.2783)" fill="#303030"/>
<path d="M80.2935 50.5C80.2935 48.8431 81.6366 47.5 83.2935 47.5H94.9408C96.5977 47.5 97.9408 48.8431 97.9408 50.5V50.5C97.9408 52.1569 96.5977 53.5 94.9408 53.5H83.2935C81.6366 53.5 80.2935 52.1569 80.2935 50.5V50.5Z" fill="#303030"/>
<path d="M50.5 1.02246C51.8807 1.02246 53 2.14175 53 3.52246L53 19.3567C53 20.7374 51.8807 21.8567 50.5 21.8567V21.8567C49.1193 21.8567 48 20.7374 48 19.3567L48 3.52246C48 2.14175 49.1193 1.02246 50.5 1.02246V1.02246Z" fill="#303030"/>
<path d="M50.5 76.4951C51.8807 76.4951 53 77.6144 53 78.9951L53 94.8293C53 96.21 51.8807 97.3293 50.5 97.3293V97.3293C49.1193 97.3293 48 96.21 48 94.8293L48 78.9951C48 77.6144 49.1193 76.4951 50.5 76.4951V76.4951Z" fill="#303030"/>
</svg>
