<svg xmlns="http://www.w3.org/2000/svg" viewBox="0 0 97.01 102.02"><defs><style>.a{fill:#fff;}</style></defs><title>director</title><path class="a" d="M40,49h1c21.92-.23,18-30,18-30C58.1-.54,42.6,0,41,0S22.88-.54,22,19C22,19,18.1,48.78,40,49Z" transform="translate(0 0)"/><path class="a" d="M78,63c-1.53-2.31-3.58-3.76-7-5a81.1,81.1,0,0,1-16-8L47,75l-1,3L43,68c7.85-11-.53-11-2-11H40c-1.47,0-9.85,0-2,11L35,78l-1-3L26,50a81.1,81.1,0,0,1-16,8C-.9,62,.21,71.17,0,88H58c-.06-.71,0-1.26,0-2C58,74.44,66.76,64.25,78,63Z" transform="translate(0 0)"/><path class="a" d="M81,69A17.31,17.31,0,0,0,64,86c0,9.16,7.84,16,17,16a15.61,15.61,0,0,0,16-15.2c0-.27,0-.53,0-.8C97,76.86,90.16,69,81,69Zm1,20-3,4-4-4-3-3,4-3,3,3,7-7,3,3Z" transform="translate(0 0)"/></svg>