<svg xmlns="http://www.w3.org/2000/svg" viewBox="0 0 66.76 50.01"><defs><style>.a,.b{fill:#fff;}.b{stroke:#fff;stroke-linecap:round;stroke-width:2.5px;}</style></defs><title>email</title><path class="a" d="M35,28a4.35,4.35,0,0,1-2,1,4.31,4.31,0,0,1-2-1L6,9,0,5V47a3,3,0,0,0,3,3H63a3,3,0,0,0,3-3V5L60,9Z"/><path class="a" d="M33,21,62,0H4Z"/><path class="b" d="M62.51,1.51c.72.86,3,3,3,3"/><polygon class="a" points="2.39 6.7 0 4.99 4.02 0.02 6.31 1.7 2.39 6.7"/><polygon class="a" points="63.66 6.61 66 4.98 61.99 0 59.73 1.61 63.66 6.61"/><rect class="a" x="64.95" y="4.98" width="1.06" height="1.96"/></svg>