<svg xmlns="http://www.w3.org/2000/svg" viewBox="0 0 48.98 76.16"><defs><style>.a{fill:#fff;}</style></defs><title>location</title><path class="a" d="M27.9.24A24.47,24.47,0,0,0,3.5,37.08c.9,1.5,2.42,3.86,3.17,5.44C11,51.58,16.28,64.62,16.93,74.8c.11,1.73.53,1.82,1.22.22A110.51,110.51,0,0,1,35.29,47.68,42.09,42.09,0,0,1,40,43.49a25.17,25.17,0,0,0,5-5.65A24.45,24.45,0,0,0,27.9.24ZM22.65,37.6A13.67,13.67,0,1,1,38.09,26,13.66,13.66,0,0,1,22.65,37.6Z"/><circle class="a" cx="24.62" cy="23.58" r="5.68"/></svg>