<svg xmlns="http://www.w3.org/2000/svg" viewBox="0 0 59.97 82.53"><defs><style>.a{fill:#fff;}</style></defs><title>phone</title><path class="a" d="M18.26.15C11,1.05,5.08,3.64,2.6,7a8.14,8.14,0,0,0-1.31,3.21,42.37,42.37,0,0,0-1,15.5A68.55,68.55,0,0,0,7.74,50.19C15.32,65.35,27.87,77.51,40.4,81.8a9,9,0,0,0,5.65.47c3.56-.72,8.85-4.73,12.75-9.67,1.13-1.42,1.28-1.74,1.12-2.51S47.48,54,46.62,53.42A3,3,0,0,0,44.36,53a35.19,35.19,0,0,0-4,2.53c-4,2.73-4.45,2.94-6.08,2.49-.88-.26-1.11-.41-2.85-2.14C23.56,48.15,20.68,43,18.26,32.21c-.54-2.4-.56-2.66-.3-3.57.48-1.6,1-2,5.33-3.84a33.93,33.93,0,0,0,4.29-2.08,3.58,3.58,0,0,0,.83-2.52c-.05-.26-1.58-4.72-3.4-9.9C22.89,4.2,21.59.72,21.33.48,20.75-.06,20.35-.1,18.26.15Z"/></svg>