<svg xmlns="http://www.w3.org/2000/svg" viewBox="0 0 297 187.54"><defs><style>.a{fill:#fff;}</style></defs><title>Delivery</title><path class="a" d="M95.5,150.23a18.66,18.66,0,1,0,18.65,18.65A18.67,18.67,0,0,0,95.5,150.23Z"/><path class="a" d="M234.12,150.23a18.66,18.66,0,1,0,18.65,18.65A18.68,18.68,0,0,0,234.12,150.23Z"/><path class="a" d="M280.77,82l-.08-23.75a9.88,9.88,0,0,0-9.88-9.85H256L247.58,82Z"/><path class="a" d="M247.84,12a9.89,9.89,0,0,0-9.65-12H83.27a9.89,9.89,0,0,0-9.65,7.74l-1.9,8.57H50.65a9.89,9.89,0,0,0,0,19.77H67.32l-4.66,21H26.19a9.89,9.89,0,0,0,0,19.77H58.26l-4.66,21H9.88a9.89,9.89,0,0,0,0,19.77H49.2L41,154.51a9.89,9.89,0,0,0,9.65,12h6.51a38.41,38.41,0,0,1,76.68,0h61.93a38.49,38.49,0,0,1,22.55-32.67Z"/><path class="a" d="M295.13,101.7a9.85,9.85,0,0,0-5.86-3.85H243.63l-8.17,32.64a38.47,38.47,0,0,1,37,35.91,9.87,9.87,0,0,0,7.74-6.64l16.31-49.17A9.86,9.86,0,0,0,295.13,101.7Z"/></svg>