<svg width="25" height="19" viewBox="0 0 25 19" fill="none" xmlns="http://www.w3.org/2000/svg">
<path d="M14.8643 0.167208C14.8643 0.167208 14.6984 0.26999 14.6015 0.453861C14.5045 0.637731 14.4448 0.838923 14.4257 1.04591C14.4066 1.2529 14.4286 1.46163 14.4903 1.66013C14.552 1.85862 14.6522 2.043 14.7853 2.20269L20.6043 8.16792L1.58035 8.16792C1.16122 8.16792 0.759247 8.33442 0.462874 8.6308C0.166501 8.92717 -4.32099e-07 9.04819 -4.13778e-07 9.46733C-3.95457e-07 9.88647 0.166501 10.0075 0.462874 10.3039C0.759247 10.6002 1.16122 10.7667 1.58035 10.7667L20.6043 10.7667L14.7853 16.732C14.6525 16.8918 14.5524 17.0762 14.4909 17.2746C14.4293 17.4731 14.4075 17.6817 14.4265 17.8887C14.4456 18.0956 14.5053 18.2967 14.6021 18.4806C14.6372 18.5473 14.6966 18.6095 14.7707 18.6836C14.8448 18.7577 14.9955 18.8315 15.1198 18.8761C15.3084 18.9436 15.5432 18.9408 15.7501 18.9217C15.957 18.9026 16.1582 18.843 16.342 18.7462C16.5259 18.6494 16.6889 18.5173 16.8217 18.3575L24.6412 10.4788L24.7834 10.2417L24.894 10.0363C25.0353 9.67013 25.0353 9.26453 24.894 8.8984L24.7834 8.69295L24.6412 8.4559L16.8217 0.57716C16.689 0.417135 16.5261 0.284854 16.3422 0.187896C16.1584 0.0909372 15.9572 0.0312041 15.7502 0.0121199C15.5432 -0.00696434 15.3181 -0.00987585 15.1196 0.0518285C14.9211 0.113533 14.8643 0.167208 14.8643 0.167208Z" fill="#F3CF88"/>
</svg>
