<svg width="12" height="16" viewBox="0 0 12 16" fill="none" xmlns="http://www.w3.org/2000/svg">
<path d="M10.8817 8.63659L10.8753 8.64319L10.868 8.64889L2.36464 15.3144C2.01845 15.6613 1.46163 15.659 1.11819 15.3075C0.774294 14.9556 0.774294 14.3863 1.11824 14.0344L1.12518 14.0273L1.13305 14.0212L8.97243 7.99992L1.13301 1.97828L1.12514 1.97223L1.11819 1.96513C0.774304 1.61321 0.774297 1.04397 1.11822 0.692038C1.29064 0.51554 1.51764 0.426743 1.74483 0.426743C1.96905 0.426743 2.19309 0.513249 2.36471 0.685221L10.868 7.35114L10.8753 7.35683L10.8817 7.36342C11.0473 7.5328 11.1397 7.76182 11.1397 7.99999C11.1397 8.23813 11.0473 8.46721 10.8817 8.63659Z" fill="black" fill-opacity="0.7" stroke="black" stroke-width="0.279453"/>
</svg>
