<svg width="100" height="100" viewBox="0 0 100 100" fill="none" xmlns="http://www.w3.org/2000/svg">
<circle cx="50" cy="50" r="50" fill="#434C9D"/>
<path d="M71.2214 59.8395C71.2214 59.8395 76.034 64.5926 77.2246 66.7921C77.2477 66.8238 77.2658 66.859 77.2781 66.8963C77.7633 67.7088 77.8823 68.3457 77.6442 68.816C77.2424 69.5928 75.8823 69.9827 75.4209 70.0154H66.9147C66.3224 70.0154 65.0902 69.8606 63.5902 68.8249C62.4443 68.0243 61.3044 66.7058 60.2002 65.417C58.5513 63.5033 57.1257 61.8425 55.6822 61.8425C55.4999 61.8421 55.3188 61.8723 55.1465 61.9318C54.0542 62.2771 52.6672 63.8337 52.6672 67.9796C52.6672 69.2773 51.6434 70.0154 50.9261 70.0154H47.0301C45.7027 70.0154 38.7918 69.5511 32.6636 63.0896C25.1545 55.1786 18.4102 39.3091 18.3447 39.1692C17.9251 38.1424 18.806 37.5828 19.7585 37.5828H28.348C29.4998 37.5828 29.8748 38.2793 30.1368 38.9043C30.4403 39.6216 31.5654 42.4907 33.4107 45.714C36.3989 50.9582 38.2352 53.0922 39.7025 53.0922C39.9782 53.0931 40.2492 53.0212 40.4883 52.8839C42.405 51.8303 42.0479 44.9848 41.9586 43.5741C41.9586 43.3003 41.9556 40.5174 40.9734 39.1722C40.271 38.2078 39.0745 37.8328 38.3513 37.6959C38.5448 37.4162 38.9555 36.9876 39.4823 36.7346C40.7948 36.0798 43.1669 35.9846 45.5212 35.9846H46.8278C49.3814 36.0203 50.0422 36.184 50.9708 36.4191C52.8399 36.8655 52.8756 38.0769 52.7119 42.202C52.6643 43.3806 52.6137 44.708 52.6137 46.2706C52.6137 46.6039 52.5988 46.976 52.5988 47.354C52.5422 49.4701 52.4678 51.8541 53.9619 52.8333C54.1557 52.954 54.3795 53.018 54.6078 53.0178C55.1256 53.0178 56.6763 53.0178 60.8818 45.8003C62.7271 42.6127 64.1557 38.8537 64.2539 38.5709C64.3372 38.4132 64.5873 37.9697 64.8908 37.7912C65.1068 37.6763 65.3487 37.6189 65.5932 37.6245H75.6977C76.7989 37.6245 77.546 37.7912 77.6918 38.2078C77.9359 38.8835 77.6442 40.946 73.031 47.1843C72.2542 48.223 71.5726 49.1219 70.9744 49.9076C66.7927 55.3959 66.7927 55.6727 71.2214 59.8395V59.8395Z" fill="white"/>
</svg>
