<svg width="100" height="100" viewBox="0 0 100 100" fill="none" xmlns="http://www.w3.org/2000/svg">
<circle cx="50" cy="50" r="50" fill="#71BD66"/>
<path d="M49.5395 17.9148C33.6301 18.6724 21.0754 31.9218 21.1237 47.8491C21.1384 52.7002 22.3095 57.279 24.3754 61.3247L21.2035 76.7218C21.0319 77.5546 21.7831 78.2839 22.6105 78.088L37.6978 74.5135C41.5739 76.4443 45.9277 77.5595 50.5354 77.6299C66.7963 77.8782 80.355 64.9667 80.8619 48.7118C81.4052 31.2877 67.0245 17.0821 49.5395 17.9148ZM67.5419 64.2985C63.1234 68.7169 57.2487 71.1502 51.0002 71.1502C47.3414 71.1502 43.8385 70.3293 40.5885 68.7104L38.4874 67.6638L29.2373 69.8553L31.1844 60.4034L30.1493 58.3764C28.4621 55.0722 27.6066 51.4991 27.6066 47.7566C27.6066 41.508 30.0399 35.6334 34.4584 31.2148C38.8373 26.8359 44.8078 24.3629 51.0006 24.3629C57.2492 24.3631 63.1236 26.7964 67.542 31.2147C71.9605 35.6331 74.3938 41.5077 74.3939 47.7562C74.3938 53.9491 71.9208 59.9196 67.5419 64.2985Z" fill="white"/>
<path d="M65.4993 54.236L59.7122 52.5743C58.9514 52.3559 58.1321 52.5717 57.5777 53.1366L56.1625 54.5784C55.5658 55.1864 54.6603 55.3817 53.8705 55.0622C51.1329 53.9543 45.3742 48.8341 43.9036 46.273C43.4793 45.5342 43.5495 44.6106 44.0704 43.9365L45.3059 42.338C45.79 41.7118 45.8922 40.8707 45.572 40.1468L43.1373 34.64C42.5541 33.3211 40.8686 32.9371 39.7675 33.8684C38.1524 35.2345 36.236 37.3103 36.003 39.6101C35.5923 43.6648 37.3312 48.776 43.9069 54.9134C51.5036 62.0037 57.5871 62.9404 61.548 61.9809C63.7946 61.4368 65.5899 59.2553 66.723 57.4691C67.4955 56.2513 66.8855 54.634 65.4993 54.236Z" fill="white"/>
</svg>
