<svg width="25" height="21" viewBox="0 0 25 21" fill="none" xmlns="http://www.w3.org/2000/svg">
<g clip-path="url(#clip0_7_29)">
<path d="M0 2C0 1.46957 0.210714 0.960859 0.585786 0.585786C0.960859 0.210714 1.46957 0 2 0L22.75 0C23.2804 0 23.7891 0.210714 24.1642 0.585786C24.5393 0.960859 24.75 1.46957 24.75 2C24.75 2.53043 24.5393 3.03914 24.1642 3.41421C23.7891 3.78929 23.2804 4 22.75 4H2C1.46957 4 0.960859 3.78929 0.585786 3.41421C0.210714 3.03914 0 2.53043 0 2V2ZM22.75 8.5H2C1.46957 8.5 0.960859 8.71071 0.585786 9.08579C0.210714 9.46086 0 9.96957 0 10.5C0 11.0304 0.210714 11.5391 0.585786 11.9142C0.960859 12.2893 1.46957 12.5 2 12.5H22.75C23.2804 12.5 23.7891 12.2893 24.1642 11.9142C24.5393 11.5391 24.75 11.0304 24.75 10.5C24.75 9.96957 24.5393 9.46086 24.1642 9.08579C23.7891 8.71071 23.2804 8.5 22.75 8.5ZM22.75 17H2C1.46957 17 0.960859 17.2107 0.585786 17.5858C0.210714 17.9609 0 18.4696 0 19C0 19.5304 0.210714 20.0391 0.585786 20.4142C0.960859 20.7893 1.46957 21 2 21H22.75C23.2804 21 23.7891 20.7893 24.1642 20.4142C24.5393 20.0391 24.75 19.5304 24.75 19C24.75 18.4696 24.5393 17.9609 24.1642 17.5858C23.7891 17.2107 23.2804 17 22.75 17Z" fill="#303030"/>
</g>
<defs>
<clipPath id="clip0_7_29">
<rect width="24.75" height="21" fill="white"/>
</clipPath>
</defs>
</svg>
