<svg width="100" height="100" viewBox="0 0 100 100" fill="none" xmlns="http://www.w3.org/2000/svg">
<circle cx="50" cy="50" r="50" fill="#703737"/>
<path d="M74.8718 63.1333C72.9795 59.556 66.4084 55.6773 66.1191 55.5076C65.2747 55.027 64.3936 54.7726 63.569 54.7726C62.343 54.7726 61.3394 55.3342 60.7316 56.3558C59.7704 57.5054 58.5783 58.8493 58.289 59.0575C56.0499 60.5766 54.2971 60.4042 52.3577 58.4648L41.5337 47.6398C39.6066 45.7127 39.4294 43.9382 40.9381 41.7114C41.1492 41.4202 42.493 40.2272 43.6427 39.265C44.3759 38.8287 44.8791 38.1804 45.0996 37.385C45.3927 36.3267 45.1769 35.0819 44.4852 33.869C44.3222 33.5901 40.4415 27.018 36.8662 25.1267C36.199 24.7733 35.447 24.5867 34.6931 24.5867C33.451 24.5867 32.2825 25.0711 31.4042 25.9484L29.0125 28.3392C25.2298 32.1209 23.8606 36.4078 24.9405 41.08C25.8414 44.9739 28.4669 49.1175 32.7452 53.3949L46.6027 67.2523C52.0175 72.6672 57.1798 75.4132 61.9463 75.4132C65.4528 75.4132 68.72 73.9233 71.6583 70.986L74.0491 68.5952C75.5022 67.143 75.8321 64.9473 74.8718 63.1333Z" fill="white"/>
<path d="M52.4398 48.0724C52.5548 48.1204 52.6773 48.1449 52.7998 48.1449H64.1082C64.6284 48.1449 65.0505 47.7237 65.0505 47.2026C65.0505 46.6814 64.6284 46.2602 64.1082 46.2602H55.0747L69.4863 31.8486C69.8547 31.4801 69.8547 30.8846 69.4863 30.5161C69.1178 30.1476 68.5222 30.1476 68.1538 30.5161L53.7422 44.9277V35.8942C53.7422 35.373 53.32 34.9518 52.7998 34.9518C52.2796 34.9518 51.8574 35.373 51.8574 35.8942V47.2026C51.8574 47.3251 51.8829 47.4476 51.93 47.5625C52.0261 47.7934 52.2099 47.9772 52.4398 48.0724Z" fill="white"/>
</svg>
