<svg width="26" height="19" viewBox="0 0 26 19" fill="none" xmlns="http://www.w3.org/2000/svg">
<path d="M23.4805 15.8831H2.73047C2.20004 15.8831 1.69133 16.0287 1.31625 16.2878C0.941183 16.547 0.730469 16.8984 0.730469 17.2649C0.730469 17.6313 0.941183 17.9828 1.31625 18.2419C1.69133 18.5011 2.20004 18.6467 2.73047 18.6467H23.4805C24.0109 18.6467 24.5196 18.5011 24.8947 18.2419C25.2698 17.9828 25.4805 17.6313 25.4805 17.2649C25.4805 16.8984 25.2698 16.547 24.8947 16.2878C24.5196 16.0287 24.0109 15.8831 23.4805 15.8831Z" fill="white"/>
<path d="M1.31625 1.18666C0.941183 1.4458 0.730469 1.79726 0.730469 2.16373C0.730469 2.5302 0.941183 2.88167 1.31625 3.1408C1.69133 3.39994 2.20004 3.54552 2.73047 3.54552H23.4805C24.0109 3.54552 24.5196 3.39994 24.8947 3.1408C25.2698 2.88167 25.4805 2.5302 25.4805 2.16373C25.4805 1.79726 25.2698 1.4458 24.8947 1.18666C24.5196 0.927525 24.0109 0.781944 23.4805 0.781944H2.73047C2.20004 0.781944 1.69133 0.927525 1.31625 1.18666Z" fill="white"/>
<path d="M2.73047 8.33251H23.4805C24.0109 8.33251 24.5196 8.47809 24.8947 8.73723C25.2698 8.99636 25.4805 9.34783 25.4805 9.7143C25.4805 10.0808 25.2698 10.4322 24.8947 10.6914C24.5196 10.9505 24.0109 11.0961 23.4805 11.0961H2.73047C2.20004 11.0961 1.69133 10.9505 1.31625 10.6914C0.941183 10.4322 0.730469 10.0808 0.730469 9.7143C0.730469 9.34783 0.941183 8.99636 1.31625 8.73723C1.69133 8.47809 2.20004 8.33251 2.73047 8.33251Z" fill="white"/>
</svg>
