<svg xmlns="http://www.w3.org/2000/svg" viewBox="0 0 100 118.53"><defs><style>.a{fill:#fff;}</style></defs><title>director</title><path class="a" d="M28.9,50.26c1.08,7,6.5,15.95,15.41,19.09a16.89,16.89,0,0,0,11.31,0C64.39,66.16,70,57.25,71.09,50.26c1.17-.1,2.72-1.75,4.39-7.66,2.28-8.08-.15-9.28-2.21-9.08a21.1,21.1,0,0,0,.88-3.31C77.64,9.27,67.33,8.56,67.33,8.56a15.92,15.92,0,0,0-6.21-5.77A21,21,0,0,0,48.38.09a19.14,19.14,0,0,0-5.08,1h0a22.37,22.37,0,0,0-5.59,2.87A29.12,29.12,0,0,0,32,8.68a23.24,23.24,0,0,0-6.21,10.9,23.51,23.51,0,0,0,0,10.65h0a20.26,20.26,0,0,0,.88,3.31c-2.06-.19-4.49,1-2.21,9.08C26.17,48.51,27.72,50.16,28.9,50.26Z"/><path class="a" d="M90.47,77.72A77.72,77.72,0,0,1,67.75,67.36l-8,25.16-1.5,4.74,0-.08-1.31,4L52.78,89.3C63.09,74.92,50.69,75.07,50,75.09s-13.08-.17-2.77,14.21L43,101.21l-1.3-4,0,.08-1.5-4.74-8-25.16A77.86,77.86,0,0,1,9.51,77.72C.16,80.1-.28,90.9.08,96.22c0,0,.54,7.24,1.08,10.44,0,0,18.26,11.85,48.84,11.87s48.84-11.87,48.84-11.87c.54-3.2,1.08-10.44,1.08-10.44C100.27,90.9,99.83,80.1,90.47,77.72Z"/></svg>