<svg xmlns="http://www.w3.org/2000/svg" viewBox="0 0 66 50"><defs><style>.a{fill:#fff;}</style></defs><title>email</title><path class="a" d="M35,28a4.36,4.36,0,0,1-2,1,4.36,4.36,0,0,1-2-1L6,9,0,5V47a3,3,0,0,0,3,3H63a3,3,0,0,0,3-3V5L60,9Z" transform="translate(0 0)"/><path class="a" d="M33,21,62,0H4Z" transform="translate(0 0)"/><polygon class="a" points="6.45 0 4.05 0 0.01 4.96 0.01 6.9 1.8 8.35 7.75 1.06 6.45 0"/><polygon class="a" points="61.96 0 59.31 0 58.17 0.93 64.12 8.23 66 6.69 66 4.95 61.96 0"/></svg>