<svg xmlns="http://www.w3.org/2000/svg" viewBox="0 0 87.59 150"><defs><style>.a{fill:#fff;}</style></defs><title>phone</title><path class="a" d="M6.49,16.54V133.86a1,1,0,0,0,1,1H79.34a1,1,0,0,0,1-1V16.54a1,1,0,0,0-1-1H7.45A1,1,0,0,0,6.49,16.54Zm1.93,1h70V132.89h-70Z"/><path class="a" d="M48.93,135.85H38.56a3.34,3.34,0,0,0-3.33,3.34v2.07a3.33,3.33,0,0,0,3.33,3.33H48.93a3.33,3.33,0,0,0,3.33-3.33v-2.07A3.34,3.34,0,0,0,48.93,135.85Zm1.41,5.41a1.41,1.41,0,0,1-1.41,1.41H38.56a1.41,1.41,0,0,1-1.41-1.41v-2.07a1.41,1.41,0,0,1,1.41-1.41H48.93a1.41,1.41,0,0,1,1.41,1.41Z"/><path class="a" d="M35,9.65H53.57a1.51,1.51,0,1,0,0-3H35a1.51,1.51,0,1,0,0,3Zm0-2.37H53.57a.87.87,0,1,1,0,1.73H35a.87.87,0,1,1,0-1.73Z"/><circle class="a" cx="36.19" cy="8.14" r="0.43"/><circle class="a" cx="37.45" cy="8.14" r="0.43"/><circle class="a" cx="38.71" cy="8.14" r="0.43"/><circle class="a" cx="39.97" cy="8.14" r="0.43"/><circle class="a" cx="41.23" cy="8.14" r="0.43"/><circle class="a" cx="42.49" cy="8.14" r="0.43"/><circle class="a" cx="43.74" cy="8.14" r="0.43"/><circle class="a" cx="45" cy="8.14" r="0.43"/><circle class="a" cx="46.26" cy="8.14" r="0.43"/><circle class="a" cx="47.53" cy="8.14" r="0.43"/><circle class="a" cx="48.78" cy="8.14" r="0.43"/><circle class="a" cx="50.04" cy="8.14" r="0.43"/><circle class="a" cx="51.3" cy="8.14" r="0.43"/><circle class="a" cx="52.56" cy="8.14" r="0.43"/><circle class="a" cx="69.56" cy="8.6" r="1.05"/><path class="a" d="M24,138.58H19a.27.27,0,0,0-.28.28v2.57a.28.28,0,0,0,.28.28.27.27,0,0,0,.27-.28v-2.3h4.44v2.3a.28.28,0,0,0,.56,0v-2.57A.28.28,0,0,0,24,138.58Z"/><path class="a" d="M22.68,139.66h-2.3a.28.28,0,1,0,0,.55h2.3a.28.28,0,1,0,0-.55Z"/><path class="a" d="M22.68,140.78h-2.3a.28.28,0,1,0,0,.56h2.3a.28.28,0,1,0,0-.56Z"/><path class="a" d="M66.43,139.16H64.51l0-.14-1,.42,1,.41,0-.13h1.92a1,1,0,1,1,0,2H64.55a.28.28,0,0,0,0,.56h1.88a1.58,1.58,0,1,0,0-3.16Z"/><path class="a" d="M0,11.4V138.6A11.42,11.42,0,0,0,11.4,150H76.18a11.42,11.42,0,0,0,11.41-11.4V11.4A11.42,11.42,0,0,0,76.18,0H11.4A11.41,11.41,0,0,0,0,11.4Zm83.74,0V138.6a7.56,7.56,0,0,1-7.55,7.55H11.4a7.56,7.56,0,0,1-7.55-7.55V11.4A7.56,7.56,0,0,1,11.4,3.85H76.18A7.56,7.56,0,0,1,83.74,11.4Z"/></svg>