<svg xmlns="http://www.w3.org/2000/svg" viewBox="0 0 98.94 98.94"><defs><style>.a{fill:#fff;}</style></defs><title>time</title><path class="a" d="M28.29,62.69,48,48.93V25.26a2,2,0,0,1,4.06,0V50a2,2,0,0,1-.87,1.66L30.6,66a2,2,0,0,1-1.16.36h0a2,2,0,0,1-1.66-.89A2,2,0,0,1,28.29,62.69Z" transform="translate(-0.53 -0.53)"/><path class="a" d="M15.05,15.05h0A49.43,49.43,0,1,1,85,85a49.43,49.43,0,1,1-69.9-69.9ZM48,95.38h0V87.1a2,2,0,0,1,4.06,0v8.28A45.49,45.49,0,0,0,95.38,52H87.1a2,2,0,0,1,0-4.06h8.28A45.49,45.49,0,0,0,52,4.62V12.9a2,2,0,0,1-4.06,0V4.62A45.49,45.49,0,0,0,4.62,48H12.9a2,2,0,0,1,0,4.06H4.62A45.49,45.49,0,0,0,48,95.38Z" transform="translate(-0.53 -0.53)"/></svg>