<svg xmlns="http://www.w3.org/2000/svg" viewBox="0 0 100 87.66"><defs><style>.a{fill:#fff;}</style></defs><title>package</title><path class="a" d="M99.55,26.32l-10-13.61a2.83,2.83,0,0,0-1.55-.8L50.43.15a1.44,1.44,0,0,0-1.28,0L11.73,12a6.63,6.63,0,0,0-1.84,1.53L.46,26.32a2.24,2.24,0,0,0,.86,3.41l8.49,3.49V70a2,2,0,0,0,1.29,1.92L48.94,87.44a2.23,2.23,0,0,0,1.92,0L88.71,71.93A1.86,1.86,0,0,0,90,70V33.31l8.71-3.58a2.26,2.26,0,0,0,.84-3.41Zm-94,.43,7.19-9.94,34,13.92L39.37,40.8ZM47.68,82.36,14.08,68.52V35L39.17,45.27a2.13,2.13,0,0,0,2.55-.63l6-8.11ZM50,27.24,18.45,14.32,49.8,4.42l31.68,9.92L50,27.24Zm35.7,41.28L52.13,82.34V36.22l6.16,8.39a2.11,2.11,0,0,0,2.56.64L85.73,35V68.52ZM60.85,40.8,53.39,30.59,87.2,16.77,94.65,27Z"/></svg>