<svg width="209" height="209" viewBox="0 0 209 209" fill="none" xmlns="http://www.w3.org/2000/svg">
<path d="M95.045 0.894194C74.9273 2.81648 55.7784 10.4497 39.855 22.8942C32.005 28.9442 21.855 40.2642 15.985 49.5042C12.3698 55.6914 9.22749 62.1432 6.58504 68.8042C4.29558 75.4502 2.55639 82.2732 1.38504 89.2042C0.115039 97.2042 0.0750386 111.934 1.38504 120.064C2.9622 130.728 6.21571 141.076 11.025 150.724C16.0142 161.11 22.8137 170.524 31.105 178.524C38.9952 186.628 48.2582 193.271 58.465 198.144C68.0517 202.932 78.3243 206.201 88.915 207.834C96.915 209.104 111.565 209.104 119.785 207.834C130.453 206.246 140.802 202.975 150.445 198.144C165.532 190.669 178.598 179.671 188.539 166.081C198.479 152.491 205.002 136.707 207.555 120.064C208.815 111.844 208.815 97.1742 207.555 89.2042C205.919 78.611 202.65 68.3356 197.865 58.7442C192.989 48.5303 186.347 39.2578 178.245 31.3542C170.245 23.065 160.831 16.2687 150.445 11.2842C140.918 6.51129 130.695 3.28108 120.155 1.71419C111.826 0.691249 103.423 0.416818 95.045 0.894194ZM96.045 46.4442C98.175 47.4442 101.565 50.6542 122.455 71.5842C150.215 99.2942 148.785 97.5842 148.785 104.734C148.785 111.884 150.215 110.174 122.455 137.884C94.695 165.594 96.455 164.214 89.305 164.214C85.505 164.214 84.725 164.094 82.685 163.114C79.3967 161.461 76.7283 158.793 75.075 155.504C74.075 153.504 73.975 152.684 73.975 148.884C73.975 141.884 73.365 142.674 93.755 122.184L111.135 104.734L93.775 87.2342C74.075 67.4542 74.195 67.5742 73.875 61.5642C73.465 54.4142 76.975 48.7642 83.475 46.0342C85.475 45.1742 86.385 45.0342 89.735 45.1342C93.085 45.2342 94.025 45.4542 96.065 46.4442H96.045Z" fill="white"/>
</svg>
