<svg xmlns="http://www.w3.org/2000/svg" viewBox="0 0 208.12 208.14"><defs><style>.a{fill:#fff;}.b{fill:#8a1133;}</style></defs><title>next-arrow</title><rect class="a" x="55.94" y="35.48" width="102.35" height="133.76"/><path class="b" d="M94.66.25a106,106,0,0,0-55.19,22c-7.85,6.05-18,17.37-23.87,26.61A142.17,142.17,0,0,0,6.2,68.16,128.25,128.25,0,0,0,1,88.56c-1.27,8-1.31,22.73,0,30.86a102.26,102.26,0,0,0,9.64,30.66,97,97,0,0,0,20.08,27.8A95.79,95.79,0,0,0,58.08,197.5a103.42,103.42,0,0,0,30.45,9.69c8,1.27,22.65,1.27,30.87,0a102,102,0,0,0,30.66-9.69,104.89,104.89,0,0,0,57.11-78.08c1.26-8.22,1.26-22.89,0-30.86a103.68,103.68,0,0,0-9.69-30.46,96.12,96.12,0,0,0-19.62-27.39,96.91,96.91,0,0,0-27.8-20.07,100.67,100.67,0,0,0-30.29-9.57A140.44,140.44,0,0,0,94.66.25Zm1,45.55c2.13,1,5.52,4.21,26.41,25.14,27.76,27.71,26.33,26,26.33,33.15s1.43,5.44-26.33,33.15-26,26.33-33.15,26.33c-3.8,0-4.58-.12-6.62-1.1a17.13,17.13,0,0,1-7.61-7.61c-1-2-1.1-2.82-1.1-6.62,0-7-.61-6.21,19.78-26.7l17.38-17.45L93.39,86.59c-19.7-19.78-19.58-19.66-19.9-25.67-.41-7.15,3.1-12.8,9.6-15.53,2-.86,2.91-1,6.26-.9S93.64,44.81,95.68,45.8Z" transform="translate(0 0)"/></svg>