<svg xmlns="http://www.w3.org/2000/svg" viewBox="0 0 430.81 165.24"><defs><style>.a{fill:#444c78;}.b{fill:#8a1133;}</style></defs><title>vigma_logo_blue</title><path class="a" d="M183.2,95.91h35.43V133q-13.45,10.8-32.63,10.8-21.47,0-35.05-13T137.36,97.81q0-19.82,13.46-32.89t34-13.07q17.53,0,30,9.9l-8,14a30.93,30.93,0,0,0-21.46-8q-13.34,0-21.9,8.5t-8.57,21.59q0,13.22,8.76,21.71t23,8.51a39.47,39.47,0,0,0,15.24-3.17v-14.1H183.2Z"/><path class="a" d="M333.42,142.38H316.27l-1.9-43.3-28.19,44.31h-4.95L253,99.08l-1.78,43.3H234.12l3.68-89.27h4.95l41,63.62,41-63.62h5Z"/><path class="a" d="M412.14,142.38l-7.24-16.13H366.3l-7.24,16.13H340.4l43.43-90.53h3.55l43.43,90.53Zm-39.49-30.22h25.78L385.6,83.59Z"/><path class="a" d="M174.55,22.77l-4.28,15.76a6,6,0,0,1-7.4,4.14l-3.56-1.16c-2.49-.55-4.78-2.9-4.58-4.71,1-2-1.38-5.06-6.18-6.26-7-2.13-12.85.89-13.72,4.54-.51,1.25-1.71,6.05-1.71,6.05L111.89,35.3l1-3.46s.24-.86.63-2.78c1.87-6.63-5.26-8.95-5.26-8.95C89.59,15,72.88,24.62,72.88,24.62l-2.57-4.15c29-27.63,50-20,57.2-18l15.28,4.31C146.54,7.88,148,16.06,153.65,18a9.42,9.42,0,0,0,6.89-.7c.92-2.7,4.18-3.8,6.59-3l3.28,1.08A6,6,0,0,1,174.55,22.77Z"/><path class="b" d="M109.86,42.3l21.26,5.83L105.4,160c-.93,3.77-5.26,6.1-9.34,5L85.36,162A7.18,7.18,0,0,1,80,153.16Z"/><path class="a" d="M71.49,54.56H90.41l-43,90.54H43.05L0,54.57H18.92L45.2,111.7Z"/></svg>