<svg xmlns="http://www.w3.org/2000/svg" viewBox="0 0 51.69 51.69"><defs><style>.a{fill:#fff;fill-rule:evenodd;}</style></defs><title>instagram</title><path class="a" d="M25.85,4.59c6.89,0,7.75,0,10.33.29a13.37,13.37,0,0,1,4.89.86A10.09,10.09,0,0,1,46,10.63a13.32,13.32,0,0,1,.86,4.88c0,2.58.29,3.44.29,10.34s0,7.75-.29,10.33A13.37,13.37,0,0,1,46,41.07,10.07,10.07,0,0,1,41.07,46a13.37,13.37,0,0,1-4.89.86c-2.58,0-3.44.29-10.33.29s-7.76,0-10.34-.29A13.32,13.32,0,0,1,10.63,46a10.09,10.09,0,0,1-4.89-4.88,13.37,13.37,0,0,1-.86-4.89c0-2.58-.28-3.44-.28-10.33s0-7.76.28-10.34a13.32,13.32,0,0,1,.86-4.88,10.73,10.73,0,0,1,2-2.88,4.9,4.9,0,0,1,2.88-2,13.32,13.32,0,0,1,4.88-.86C18.09,4.6,19,4.6,25.85,4.6m0-4.6c-6.9,0-8,0-10.63.29A17.51,17.51,0,0,0,8.9,1.44,11.1,11.1,0,0,0,4.31,4.31,11.1,11.1,0,0,0,1.44,8.9,13,13,0,0,0,.29,15.22C0,17.8,0,19,0,25.85s0,8,.29,10.62a17.51,17.51,0,0,0,1.15,6.32,11.1,11.1,0,0,0,2.87,4.59A11.22,11.22,0,0,0,8.9,50.26a17.71,17.71,0,0,0,6.32,1.14c2.59.29,3.73.29,10.63.29s8,0,10.62-.29a17.72,17.72,0,0,0,6.32-1.15,12.07,12.07,0,0,0,7.47-7.47,17.62,17.62,0,0,0,1.14-6.31c0-2.87.29-3.73.29-10.62s0-8-.29-10.63A17.71,17.71,0,0,0,50.26,8.9a11.32,11.32,0,0,0-2.88-4.6,11.31,11.31,0,0,0-4.59-2.87A17.71,17.71,0,0,0,36.47.29C33.89,0,32.74,0,25.85,0m0,12.64A13,13,0,0,0,12.64,25.42a3.08,3.08,0,0,0,0,.43A13.21,13.21,0,1,0,25.85,12.64h0m0,21.82a8.46,8.46,0,0,1-8.62-8.3v-.31a8.47,8.47,0,0,1,8.31-8.62h.31a8.46,8.46,0,0,1,8.61,8.31v.31a8.45,8.45,0,0,1-8.3,8.61h-.31M39.63,8.9a3.16,3.16,0,1,0,3.16,3.16A3.19,3.19,0,0,0,39.63,8.9"/></svg>