<svg xmlns="http://www.w3.org/2000/svg" viewBox="0 0 101.7 39.01"><defs><style>.a{fill:#133758;}.b{fill:#8a1133;}</style></defs><title>vigma_logo_blue</title><path class="a" d="M43.25,22.64h8.36v8.75a11.93,11.93,0,0,1-7.7,2.55,11.47,11.47,0,0,1-8.28-3.07,10.3,10.3,0,0,1-3.2-7.78,10.37,10.37,0,0,1,3.17-7.76,11.07,11.07,0,0,1,8-3.09,11,11,0,0,1,7.07,2.34l-1.89,3.29A7.3,7.3,0,0,0,43.76,16a7,7,0,0,0-5.17,2,6.89,6.89,0,0,0-2,5.1,6.8,6.8,0,0,0,2.07,5.12,7.46,7.46,0,0,0,5.43,2,9.25,9.25,0,0,0,3.59-.75V26.15h-4.4Z"/><path class="a" d="M78.71,33.61h-4l-.45-10.22L67.56,33.85H66.39L59.73,23.39l-.42,10.22h-4l.87-21.07H57.3l9.69,15,9.68-15h1.17Z"/><path class="a" d="M97.29,33.61,95.58,29.8H86.47l-1.71,3.81H80.35L90.61,12.24h.83L101.7,33.61ZM88,26.48h6.08l-3-6.75Z"/><path class="a" d="M41.2,5.38l-1,3.72a1.41,1.41,0,0,1-1.74,1l-.84-.27c-.59-.13-1.13-.69-1.09-1.11.25-.49-.32-1.2-1.45-1.48-1.66-.5-3,.21-3.24,1.07-.12.3-.41,1.43-.41,1.43l-5-1.38.23-.81s.06-.21.15-.66a1.77,1.77,0,0,0-1.24-2.11A12,12,0,0,0,17.2,5.81l-.6-1C23.43-1.69,28.4.11,30.1.59l3.61,1c.88.25,1.22,2.18,2.56,2.63a2.2,2.2,0,0,0,1.63-.16,1.23,1.23,0,0,1,1.55-.7l.78.25A1.41,1.41,0,0,1,41.2,5.38Z"/><path class="b" d="M25.93,10l5,1.38-6.07,26.4A1.79,1.79,0,0,1,22.68,39l-2.53-.7a1.69,1.69,0,0,1-1.26-2.09Z"/><path class="a" d="M16.88,12.4h4.46L11.18,33.77h-1L0,12.4H4.47l6.2,13.49Z"/></svg>