<svg width="50" height="50" viewBox="0 0 50 50" fill="none" xmlns="http://www.w3.org/2000/svg">
<rect x="0.5" y="0.5" width="49" height="48.9983" rx="8.40869" fill="#0C0C0C" stroke="#313131"/>
<path d="M32.9302 28.8611C32.3737 28.2856 31.7024 27.9779 30.991 27.9779C30.2853 27.9779 29.6083 28.2799 29.0288 28.8554L27.2158 30.6502C27.0667 30.5704 26.9175 30.4963 26.7741 30.4223C26.5675 30.3197 26.3725 30.2229 26.2061 30.1203C24.5078 29.0491 22.9645 27.6532 21.4843 25.847C20.7671 24.9467 20.2852 24.1889 19.9352 23.4197C20.4056 22.9924 20.8417 22.548 21.2662 22.1206C21.4269 21.9611 21.5875 21.7959 21.7482 21.6363C22.953 20.4398 22.953 18.89 21.7482 17.6935L20.1819 16.138C20.004 15.9614 19.8204 15.779 19.6483 15.5967C19.3041 15.2434 18.9426 14.8788 18.5697 14.5369C18.0132 13.9899 17.3477 13.6993 16.6477 13.6993C15.9478 13.6993 15.2707 13.9899 14.697 14.5369C14.6913 14.5426 14.6913 14.5426 14.6855 14.5483L12.7349 16.5026C12.0005 17.232 11.5817 18.1208 11.4899 19.1521C11.3522 20.8158 11.8456 22.3656 12.2242 23.3798C13.1537 25.8698 14.5421 28.1774 16.6133 30.6502C19.1262 33.6301 22.1498 35.9833 25.6037 37.6413C26.9232 38.2624 28.6846 38.9974 30.6525 39.1228C30.773 39.1285 30.8992 39.1341 31.014 39.1341C32.3393 39.1341 33.4523 38.6612 34.3244 37.7211C34.3301 37.7097 34.3416 37.704 34.3473 37.6926C34.6457 37.3337 34.9899 37.0089 35.3514 36.6613C35.5981 36.4277 35.8505 36.1827 36.0972 35.9263C36.6652 35.3394 36.9636 34.6557 36.9636 33.9549C36.9636 33.2484 36.6595 32.5703 36.08 32.0006L32.9302 28.8611ZM34.9842 34.8608C34.9784 34.8665 34.9784 34.8608 34.9842 34.8608C34.7604 35.1001 34.5309 35.3167 34.2842 35.556C33.9113 35.9092 33.5326 36.2796 33.1769 36.6955C32.5975 37.3109 31.9147 37.6015 31.0197 37.6015C30.9336 37.6015 30.8418 37.6015 30.7558 37.5958C29.0518 37.4875 27.4683 36.8266 26.2807 36.2625C23.0333 34.7013 20.1819 32.4849 17.8124 29.6759C15.856 27.3341 14.5478 25.1689 13.6815 22.8442C13.1479 21.4255 12.9529 20.3201 13.0389 19.2775C13.0963 18.6108 13.3545 18.0581 13.8307 17.5852L15.7871 15.6423C16.0682 15.3802 16.3666 15.2377 16.6592 15.2377C17.0206 15.2377 17.3132 15.4543 17.4968 15.6366C17.5026 15.6423 17.5083 15.648 17.514 15.6537C17.864 15.9784 18.1968 16.3146 18.5468 16.6736C18.7246 16.8559 18.9082 17.0382 19.0918 17.2263L20.6581 18.7817C21.2662 19.3857 21.2662 19.9441 20.6581 20.5481C20.4917 20.7133 20.3311 20.8785 20.1647 21.0381C19.6827 21.5281 19.2238 21.9839 18.7246 22.4283C18.7131 22.4397 18.7017 22.4454 18.6959 22.4568C18.2025 22.9468 18.2943 23.4254 18.3976 23.7502C18.4033 23.7673 18.4091 23.7844 18.4148 23.8015C18.8221 24.7815 19.3959 25.7045 20.268 26.8042L20.2737 26.8099C21.8572 28.7471 23.5268 30.257 25.3684 31.4137C25.6037 31.5618 25.8446 31.6815 26.0741 31.7954C26.2807 31.898 26.4757 31.9949 26.6421 32.0974C26.6651 32.1088 26.688 32.1259 26.711 32.1373C26.906 32.2342 27.0896 32.2797 27.279 32.2797C27.7552 32.2797 28.0535 31.9835 28.151 31.8866L30.1132 29.938C30.3083 29.7442 30.6181 29.5106 30.9795 29.5106C31.3352 29.5106 31.6278 29.7328 31.8057 29.9266C31.8114 29.9323 31.8114 29.9323 31.8172 29.938L34.9784 33.0774C35.5694 33.6586 35.5694 34.2569 34.9842 34.8608Z" fill="url(#paint0_linear_350_191)"/>
<path d="M34.9842 34.8608C34.7604 35.1001 34.5309 35.3167 34.2842 35.556C33.9113 35.9092 33.5326 36.2796 33.1769 36.6955C32.5975 37.3109 31.9147 37.6015 31.0197 37.6015C30.9336 37.6015 30.8418 37.6015 30.7558 37.5958C29.0518 37.4875 27.4683 36.8266 26.2807 36.2625C23.0333 34.7013 20.1819 32.4849 17.8124 29.6759C15.856 27.3341 14.5478 25.1689 13.6815 22.8442C13.1479 21.4255 12.9529 20.3201 13.0389 19.2775C13.0963 18.6108 13.3545 18.0581 13.8307 17.5852L15.7871 15.6423C16.0682 15.3802 16.3666 15.2377 16.6592 15.2377C17.0206 15.2377 17.3132 15.4543 17.4968 15.6366L17.514 15.6537C17.864 15.9784 18.1968 16.3146 18.5468 16.6736C18.7246 16.8559 18.9082 17.0382 19.0918 17.2263L20.6581 18.7817C21.2662 19.3857 21.2662 19.9441 20.6581 20.5481C20.4917 20.7133 20.3311 20.8785 20.1647 21.0381C19.6827 21.5281 19.2238 21.9839 18.7246 22.4283C18.7131 22.4397 18.7017 22.4454 18.6959 22.4568C18.2025 22.9468 18.2943 23.4254 18.3976 23.7502L18.4148 23.8015C18.8221 24.7815 19.3959 25.7045 20.268 26.8042L20.2737 26.8099C21.8572 28.7471 23.5268 30.257 25.3684 31.4137C25.6037 31.5618 25.8446 31.6815 26.0741 31.7954C26.2807 31.898 26.4757 31.9949 26.6421 32.0974C26.6651 32.1088 26.688 32.1259 26.711 32.1373C26.906 32.2342 27.0896 32.2797 27.279 32.2797C27.7552 32.2797 28.0535 31.9835 28.151 31.8866L30.1132 29.938C30.3083 29.7442 30.6181 29.5106 30.9795 29.5106C31.3352 29.5106 31.6278 29.7328 31.8057 29.9266L31.8172 29.938L34.9784 33.0774C35.5694 33.6586 35.5694 34.2569 34.9842 34.8608Z" fill="url(#paint1_linear_350_191)"/>
<path d="M26.5079 18.4961C28.0111 18.7468 29.3766 19.4533 30.4667 20.5359C31.5568 21.6185 32.2625 22.9746 32.5206 24.4674C32.5838 24.8434 32.9108 25.1055 33.2837 25.1055C33.3296 25.1055 33.3698 25.0998 33.4157 25.0941C33.8402 25.0258 34.1214 24.6269 34.0525 24.2053C33.7427 22.3991 32.8821 20.7524 31.5682 19.4476C30.2544 18.1429 28.5963 17.2882 26.7776 16.9805C26.353 16.9121 25.9572 17.1913 25.8826 17.6073C25.808 18.0232 26.0834 18.4277 26.5079 18.4961Z" fill="url(#paint2_linear_350_191)"/>
<path d="M38.5985 24.3505C38.0878 21.3763 36.6765 18.6699 34.5078 16.5161C32.3391 14.3624 29.6138 12.9607 26.6189 12.4536C26.2001 12.3796 25.8042 12.6644 25.7297 13.0804C25.6608 13.502 25.9419 13.8952 26.3665 13.9692C29.0401 14.4193 31.4785 15.6786 33.4177 17.5987C35.3569 19.5245 36.6191 21.9461 37.0723 24.6013C37.1355 24.9773 37.4625 25.2394 37.8354 25.2394C37.8813 25.2394 37.9215 25.2337 37.9674 25.228C38.3862 25.1653 38.6731 24.7665 38.5985 24.3505Z" fill="url(#paint3_linear_350_191)"/>
<defs>
<linearGradient id="paint0_linear_350_191" x1="20.939" y1="21.5251" x2="36.8515" y2="38.3418" gradientUnits="userSpaceOnUse">
<stop stop-color="white"/>
<stop offset="1" stop-color="#E2E2E2"/>
</linearGradient>
<linearGradient id="paint1_linear_350_191" x1="20.939" y1="21.5251" x2="36.8515" y2="38.3418" gradientUnits="userSpaceOnUse">
<stop stop-color="white"/>
<stop offset="1" stop-color="#E2E2E2"/>
</linearGradient>
<linearGradient id="paint2_linear_350_191" x1="28.9141" y1="19.4733" x2="34.0023" y2="24.8752" gradientUnits="userSpaceOnUse">
<stop stop-color="white"/>
<stop offset="1" stop-color="#E2E2E2"/>
</linearGradient>
<linearGradient id="paint3_linear_350_191" x1="30.5086" y1="16.3794" x2="38.5127" y2="24.8793" gradientUnits="userSpaceOnUse">
<stop stop-color="white"/>
<stop offset="1" stop-color="#E2E2E2"/>
</linearGradient>
</defs>
</svg>
