<svg width="50" height="51" viewBox="0 0 50 51" fill="none" xmlns="http://www.w3.org/2000/svg">
<rect x="0.5" y="1.49805" width="49" height="48.9983" rx="8.40869" fill="#0C0C0C" stroke="#313131"/>
<path fill-rule="evenodd" clip-rule="evenodd" d="M37.7662 25.8505H28.3905V14.4939C28.3905 13.9246 27.9363 13.4634 27.3761 13.4634H18.24C17.6798 13.4634 17.2256 13.9246 17.2256 14.4939V34.7919C17.2256 35.3611 17.6798 35.8224 18.24 35.8224H37.7662C38.3264 35.8224 38.7805 35.3611 38.7805 34.7919V26.881C38.7805 26.3118 38.3264 25.8505 37.7662 25.8505Z" fill="url(#paint0_linear_350_197)"/>
<path d="M38.7805 38.9636C38.7805 38.7361 38.6736 38.5177 38.4833 38.3568L37.5927 37.6033C37.1964 37.2683 36.5544 37.2682 36.1581 37.6035C35.9889 37.7466 35.8926 37.9277 35.868 38.1144H19.2473C19.2226 37.9277 19.1263 37.7466 18.957 37.6033C18.5609 37.2683 17.9186 37.2683 17.5225 37.6033L16.6982 38.3007C16.4643 38.4579 16.3138 38.7001 16.3138 38.9726C16.3138 38.9733 16.3139 38.974 16.3139 38.9747C16.314 38.9754 16.3141 38.9762 16.3141 38.9769C16.3141 38.9784 16.3138 38.9799 16.3138 38.9814C16.3138 39.2089 16.4207 39.4272 16.611 39.5882L17.5016 40.3417C17.6997 40.5092 17.9593 40.5929 18.2188 40.5929C18.4784 40.5929 18.738 40.5092 18.9362 40.3415C19.1054 40.1984 19.2015 40.0173 19.2263 39.8307H35.847C35.8716 40.0173 35.9679 40.1985 36.1371 40.3417C36.3351 40.5092 36.5948 40.5929 36.8544 40.5929C37.1139 40.5929 37.3736 40.5092 37.5716 40.3417L38.3954 39.6447C38.6297 39.4875 38.7803 39.2452 38.7803 38.9726C38.7803 38.9718 38.7803 38.9711 38.7802 38.9703L38.7801 38.9693L38.7801 38.9681L38.7802 38.9666C38.7803 38.9656 38.7805 38.9646 38.7805 38.9636Z" fill="url(#paint1_linear_350_197)"/>
<path d="M15.4417 34.3634C15.7799 34.7659 15.7799 35.4184 15.4417 35.8207L14.6811 36.7256C14.5186 36.9189 14.2983 37.0274 14.0685 37.0274C14.067 37.0274 14.0655 37.0272 14.064 37.0272C14.0625 37.0272 14.061 37.0274 14.0596 37.0274C13.7845 37.0274 13.5397 36.8744 13.3811 36.6364L12.6774 35.7992C12.3391 35.3968 12.3393 34.7443 12.6774 34.342C12.8219 34.1701 13.0049 34.0724 13.1933 34.0473V16.4223C13.0048 16.3973 12.8219 16.2995 12.6773 16.1275C12.339 15.725 12.3391 15.0725 12.6773 14.6702L13.4379 13.7655C13.608 13.5631 13.8314 13.4628 14.0544 13.464C14.056 13.464 14.0576 13.4637 14.0594 13.4637C14.3344 13.4637 14.579 13.6167 14.7377 13.8545L15.4414 14.6917C15.7797 15.0941 15.7797 15.7466 15.4414 16.1489C15.2969 16.3208 15.114 16.4188 14.9255 16.4438V34.0689C15.1142 34.0937 15.2972 34.1916 15.4417 34.3634Z" fill="url(#paint2_linear_350_197)"/>
<defs>
<linearGradient id="paint0_linear_350_197" x1="20.2312" y1="13.9381" x2="37.8692" y2="35.1529" gradientUnits="userSpaceOnUse">
<stop offset="0.0001" stop-color="white"/>
<stop offset="1" stop-color="#E2E2E2"/>
</linearGradient>
<linearGradient id="paint1_linear_350_197" x1="19.4466" y1="37.4209" x2="20.0399" y2="42.5528" gradientUnits="userSpaceOnUse">
<stop offset="0.0001" stop-color="white"/>
<stop offset="1" stop-color="#E2E2E2"/>
</linearGradient>
<linearGradient id="paint2_linear_350_197" x1="12.8799" y1="13.9641" x2="19.2393" y2="15.0657" gradientUnits="userSpaceOnUse">
<stop offset="0.0001" stop-color="white"/>
<stop offset="1" stop-color="#E2E2E2"/>
</linearGradient>
</defs>
</svg>
