<svg width="50" height="51" viewBox="0 0 50 51" fill="none" xmlns="http://www.w3.org/2000/svg">
<rect x="0.5" y="1.49512" width="49" height="48.9983" rx="8.40869" fill="#0C0C0C" stroke="#313131"/>
<path d="M23.9302 16.437C22.6834 19.1966 20.9191 23.0135 20.866 23.0535C20.8207 23.0906 15.9979 23.9162 13.872 24.2537C12.3155 24.4975 11.7956 24.5887 11.7972 24.6116C11.796 24.6229 11.8991 24.728 12.0276 24.8433C12.4331 25.2176 18.3428 30.8119 18.3938 30.87C18.4346 30.9158 18.3962 31.2642 18.123 33.2892C17.7732 35.8935 17.2965 39.394 17.2233 39.9016C17.1938 40.0842 17.1793 40.2304 17.1868 40.2312C17.2055 40.2331 20.9928 38.0642 23.3174 36.7166L25.2406 35.601L25.4605 35.7104C25.583 35.7721 26.4668 36.2063 27.43 36.6788C28.3929 37.1551 30.1492 38.0223 31.3357 38.6084C32.5184 39.194 33.4903 39.6561 33.4917 39.6411C33.4936 39.6223 33.3599 38.9119 33.1992 38.0549C33.0344 37.2012 32.7231 35.5373 32.5072 34.3603C32.2913 33.1833 32.0465 31.8784 31.9669 31.4613L31.8223 30.7081L33.1046 29.3799C33.8125 28.6525 35.2258 27.1861 36.2471 26.1231C37.2684 25.06 38.1332 24.163 38.1669 24.1285C38.2002 24.0978 38.2193 24.0581 38.2058 24.0416C38.1923 24.025 37.3859 23.9168 36.4172 23.8035C34.8725 23.6243 32.5448 23.3279 29.8973 22.9763L29.102 22.8692L27.7397 20.3225C26.99 18.9209 26.0145 17.0875 25.5647 16.2466C25.1185 15.4061 24.741 14.7126 24.7298 14.7115C24.7186 14.7103 24.3575 15.488 23.9302 16.437Z" fill="url(#paint0_linear_350_215)"/>
<path d="M32.7926 9.44522C31.9524 12.3084 30.2964 13.6354 27.7502 13.2456C27.7869 13.2564 27.8235 13.2673 27.8602 13.2781L27.8603 13.2781L27.8604 13.2781C29.928 13.8886 32.0112 14.5036 31.5084 18.2309C31.966 15.1193 33.8486 14.2162 36.5448 14.5417C33.9555 14.0534 32.2569 12.7509 32.7926 9.44522Z" fill="url(#paint1_linear_350_215)"/>
<path d="M11.1484 29.8389C11.5145 32.1299 10.7961 33.621 8.88078 34.2107C8.91011 34.2058 8.93945 34.201 8.96879 34.1962L8.96884 34.1961L8.96889 34.1961C10.6223 33.9232 12.2881 33.6483 13.1791 36.4305C12.4618 34.0951 13.4805 32.8243 15.4795 32.1387C13.5011 32.674 11.8756 32.3368 11.1484 29.8389Z" fill="url(#paint2_linear_350_215)"/>
<path d="M38.5264 30.2336C38.2358 32.5676 37.1161 33.8115 35.0864 33.8343C35.1163 33.838 35.1462 33.8417 35.1761 33.8455L35.1762 33.8455L35.1762 33.8455C36.8616 34.0556 38.5598 34.2672 38.6412 37.23C38.6027 34.7518 39.9524 33.8086 42.0906 33.7166C40.0149 33.6683 38.5287 32.8728 38.5264 30.2336Z" fill="url(#paint3_linear_350_215)"/>
<path d="M34.5187 17.2785C34.8491 18.5102 34.5221 19.3775 33.4686 19.8327C33.485 19.828 33.5014 19.8233 33.5177 19.8186C34.4398 19.5553 35.3689 19.2899 36.023 20.755C35.4913 19.5231 36.0002 18.7559 37.096 18.2424C36.0038 18.6721 35.0648 18.5988 34.5187 17.2785Z" fill="url(#paint4_linear_350_215)"/>
<path d="M13.3777 12.0959C13.8108 15.7162 12.5905 18.012 9.54673 18.8171C9.59307 18.8114 9.63944 18.8056 9.6858 18.7999L9.68588 18.7999L9.68597 18.7999C12.2988 18.4757 14.9315 18.149 16.1582 22.5736C15.1766 18.8615 16.8547 16.9304 20.0358 15.98C16.8964 16.6957 14.365 16.0638 13.3777 12.0959Z" fill="url(#paint5_linear_350_215)"/>
<defs>
<linearGradient id="paint0_linear_350_215" x1="22.0726" y1="38.0764" x2="29.7818" y2="13.6631" gradientUnits="userSpaceOnUse">
<stop stop-color="white"/>
<stop offset="1" stop-color="#E2E2E2"/>
</linearGradient>
<linearGradient id="paint1_linear_350_215" x1="32.1458" y1="10.2547" x2="32.6592" y2="18.9371" gradientUnits="userSpaceOnUse">
<stop stop-color="white"/>
<stop offset="1" stop-color="#E2E2E2"/>
</linearGradient>
<linearGradient id="paint2_linear_350_215" x1="10.9649" y1="30.6253" x2="14.2535" y2="36.5176" gradientUnits="userSpaceOnUse">
<stop stop-color="white"/>
<stop offset="1" stop-color="#E2E2E2"/>
</linearGradient>
<linearGradient id="paint3_linear_350_215" x1="38.1259" y1="30.9459" x2="39.6355" y2="37.6297" gradientUnits="userSpaceOnUse">
<stop stop-color="white"/>
<stop offset="1" stop-color="#E2E2E2"/>
</linearGradient>
<linearGradient id="paint4_linear_350_215" x1="34.4569" y1="17.7225" x2="36.5833" y2="20.766" gradientUnits="userSpaceOnUse">
<stop stop-color="white"/>
<stop offset="1" stop-color="#E2E2E2"/>
</linearGradient>
<linearGradient id="paint5_linear_350_215" x1="13.041" y1="13.3191" x2="17.8357" y2="22.7801" gradientUnits="userSpaceOnUse">
<stop stop-color="white"/>
<stop offset="1" stop-color="#E2E2E2"/>
</linearGradient>
</defs>
</svg>
