<svg width="800" height="800" viewBox="0 0 800 800" fill="none" xmlns="http://www.w3.org/2000/svg">
<g clip-path="url(#clip0_202_13)">
<path d="M192.471 374.276L556.107 10.6496C570.306 -3.55158 593.331 -3.55158 607.532 10.6521C621.731 24.8533 621.731 47.8763 607.53 62.0775L269.607 399.993L607.532 737.925C621.731 752.126 621.731 775.149 607.53 789.35C600.432 796.451 591.125 800 581.818 800C572.512 800 563.205 796.451 556.104 789.348L192.471 425.702C185.649 418.882 181.818 409.634 181.818 399.99C181.818 390.347 185.649 381.096 192.471 374.276Z" fill="black"/>
</g>
<defs>
<clipPath id="clip0_202_13">
<rect width="800" height="800" fill="white" transform="matrix(-1 0 0 1 800 0)"/>
</clipPath>
</defs>
</svg>
