<svg width="60" height="22" viewBox="0 0 60 22" fill="none" xmlns="http://www.w3.org/2000/svg">
<path d="M46.1306 0.19426C46.1306 0.19426 45.938 0.313689 45.8253 0.52734C45.7126 0.740991 45.6432 0.974769 45.6211 1.21528C45.5989 1.4558 45.6244 1.69833 45.6961 1.92898C45.7678 2.15962 45.8843 2.37386 46.0389 2.55942L54.8003 9.4908L1.83631 9.49081C1.34929 9.49081 0.882217 9.68428 0.537842 10.0287C0.193468 10.373 -5.02083e-07 10.5136 -4.80795e-07 11.0007C-4.59507e-07 11.4877 0.193468 11.6283 0.537843 11.9727C0.882217 12.3171 1.34929 12.5105 1.83631 12.5105L54.8003 12.5105L46.0389 19.4419C45.8845 19.6276 45.7683 19.8419 45.6968 20.0725C45.6252 20.3031 45.5998 20.5455 45.622 20.786C45.6442 21.0264 45.7135 21.2601 45.826 21.4738C45.8668 21.5513 45.9358 21.6236 46.0219 21.7097C46.108 21.7958 46.2831 21.8815 46.4276 21.9333C46.6467 22.0118 46.9195 22.0085 47.16 21.9863C47.4004 21.9642 47.6341 21.8949 47.8477 21.7824C48.0614 21.6699 48.2508 21.5164 48.4051 21.3307L59.491 12.1759L59.6563 11.9005L59.7849 11.6617C59.949 11.2363 59.949 10.765 59.7849 10.3396L59.6563 10.1009L59.491 9.82542L48.4051 0.67061C48.251 0.484667 48.0616 0.33096 47.848 0.218298C47.6343 0.105636 47.4006 0.0362284 47.16 0.0140532C46.9195 -0.00812201 46.658 -0.0115083 46.4273 0.0601901C46.1967 0.131888 46.1306 0.19426 46.1306 0.19426Z" fill="#F3CF88"/>
</svg>
