<svg width="14" height="18" viewBox="0 0 14 18" fill="none" xmlns="http://www.w3.org/2000/svg">
<path d="M13.5117 10.7023C13.5117 10.7023 13.4377 10.5829 13.3053 10.5131C13.1729 10.4433 13.0281 10.4003 12.879 10.3865C12.73 10.3728 12.5797 10.3886 12.4368 10.433C12.2939 10.4774 12.1611 10.5496 12.0462 10.6454L7.7512 14.8351L7.7512 1.13785C7.7512 0.836075 7.63131 0.546658 7.41792 0.33327C7.20453 0.119881 7.1174 0 6.81562 0C6.51384 0 6.42671 0.119881 6.21332 0.33327C5.99993 0.546658 5.88005 0.836075 5.88005 1.13785L5.88005 14.8351L1.58509 10.6454C1.47003 10.5498 1.33726 10.4778 1.19437 10.4334C1.05147 10.3891 0.901242 10.3734 0.752261 10.3871C0.60328 10.4008 0.458464 10.4438 0.32608 10.5135C0.278034 10.5388 0.233262 10.5816 0.179909 10.6349C0.126555 10.6883 0.0734024 10.7968 0.0413427 10.8863C-0.0072872 11.0221 -0.00527246 11.1911 0.00846335 11.3401C0.0221992 11.4891 0.0651445 11.6339 0.134847 11.7663C0.20455 11.8986 0.299645 12.016 0.414703 12.1116L6.08739 17.7417L6.25807 17.8441L6.40599 17.9237C6.66961 18.0254 6.96164 18.0254 7.22525 17.9237L7.37317 17.8441L7.54385 17.7417L13.2165 12.1116C13.3318 12.0161 13.427 11.8988 13.4968 11.7664C13.5666 11.634 13.6096 11.4892 13.6234 11.3401C13.6371 11.1911 13.6392 11.029 13.5948 10.8861C13.5504 10.7432 13.5117 10.7023 13.5117 10.7023Z" fill="white"/>
</svg>
