<svg width="31" height="31" viewBox="0 0 31 31" fill="none" xmlns="http://www.w3.org/2000/svg">
<path d="M24.4772 19.2034C23.8426 18.5426 23.0771 18.1893 22.2658 18.1893C21.461 18.1893 20.689 18.5361 20.0282 19.1969L17.9606 21.2579C17.7905 21.1663 17.6204 21.0812 17.4569 20.9962C17.2213 20.8784 16.9989 20.7672 16.8091 20.6494C14.8725 19.4193 13.1125 17.8164 11.4244 15.7423C10.6066 14.7086 10.057 13.8384 9.65788 12.9551C10.1944 12.4644 10.6916 11.9541 11.1758 11.4634C11.359 11.2802 11.5422 11.0904 11.7254 10.9072C13.0994 9.53324 13.0994 7.75361 11.7254 6.37963L9.93922 4.59345C9.73639 4.39063 9.52702 4.18126 9.33074 3.97189C8.93817 3.56624 8.52598 3.1475 8.1007 2.75494C7.46605 2.12683 6.70709 1.79315 5.90887 1.79315C5.11065 1.79315 4.33861 2.12683 3.68433 2.75494C3.67779 2.76148 3.67779 2.76148 3.67124 2.76802L1.4467 5.01219C0.609229 5.84966 0.131607 6.87033 0.0269225 8.05457C-0.130104 9.96506 0.432574 11.7447 0.864397 12.9093C1.92433 15.7685 3.50768 18.4183 5.86961 21.2579C8.73535 24.6797 12.1834 27.3819 16.1221 29.2858C17.627 29.999 19.6356 30.843 21.8798 30.9869C22.0172 30.9935 22.1611 31 22.292 31C23.8033 31 25.0726 30.457 26.0671 29.3774C26.0737 29.3643 26.0868 29.3578 26.0933 29.3447C26.4335 28.9325 26.8261 28.5596 27.2383 28.1605C27.5196 27.8922 27.8075 27.6109 28.0889 27.3165C28.7366 26.6426 29.0768 25.8574 29.0768 25.0527C29.0768 24.2414 28.73 23.4628 28.0692 22.8085L24.4772 19.2034ZM26.8196 26.093C26.813 26.093 26.813 26.0995 26.8196 26.093C26.5644 26.3678 26.3027 26.6164 26.0213 26.8912C25.5961 27.2968 25.1642 27.7221 24.7586 28.1997C24.0978 28.9064 23.3192 29.24 22.2985 29.24C22.2004 29.24 22.0957 29.24 21.9975 29.2335C20.0543 29.1092 18.2485 28.3502 16.8942 27.7025C13.191 25.9098 9.93922 23.3646 7.23705 20.1391C5.00597 17.45 3.51422 14.9637 2.52626 12.2943C1.91778 10.6651 1.69533 9.39584 1.79347 8.19851C1.8589 7.43301 2.15332 6.79836 2.69637 6.25531L4.92746 4.02423C5.24805 3.72327 5.58828 3.5597 5.92196 3.5597C6.33415 3.5597 6.66783 3.80832 6.8772 4.01769C6.88374 4.02423 6.89029 4.03078 6.89683 4.03732C7.29594 4.41026 7.67542 4.79628 8.07453 5.20847C8.27735 5.41784 8.48672 5.62721 8.69609 5.84312L10.4823 7.62929C11.1758 8.32283 11.1758 8.96402 10.4823 9.65755C10.2925 9.84729 10.1093 10.037 9.91959 10.2202C9.37 10.7829 8.84657 11.3063 8.27735 11.8167C8.26427 11.8297 8.25118 11.8363 8.24464 11.8494C7.68196 12.4121 7.78665 12.9616 7.90442 13.3346C7.91096 13.3542 7.9175 13.3738 7.92404 13.3935C8.38858 14.5188 9.04286 15.5787 10.0374 16.8415L10.0439 16.848C11.8497 19.0726 13.7537 20.8064 15.8539 22.1346C16.1221 22.3047 16.3969 22.4421 16.6586 22.573C16.8942 22.6907 17.1166 22.802 17.3064 22.9197C17.3325 22.9328 17.3587 22.9524 17.3849 22.9655C17.6073 23.0767 17.8167 23.1291 18.0326 23.1291C18.5757 23.1291 18.9159 22.7889 19.0271 22.6776L21.2647 20.44C21.4872 20.2176 21.8405 19.9493 22.2527 19.9493C22.6584 19.9493 22.992 20.2045 23.1949 20.4269C23.2014 20.4335 23.2014 20.4335 23.2079 20.44L26.813 24.0451C27.4869 24.7124 27.4869 25.3994 26.8196 26.093Z" fill="#EFEFEF"/>
<path d="M26.8196 26.093C26.5644 26.3678 26.3027 26.6164 26.0213 26.8912C25.5961 27.2968 25.1642 27.7221 24.7586 28.1997C24.0978 28.9064 23.3192 29.24 22.2985 29.24C22.2004 29.24 22.0957 29.24 21.9975 29.2335C20.0543 29.1092 18.2485 28.3502 16.8942 27.7025C13.191 25.9098 9.93922 23.3646 7.23705 20.1391C5.00597 17.45 3.51422 14.9637 2.52626 12.2943C1.91778 10.6651 1.69533 9.39584 1.79347 8.19851C1.8589 7.43301 2.15332 6.79836 2.69637 6.25531L4.92746 4.02423C5.24805 3.72327 5.58828 3.5597 5.92196 3.5597C6.33415 3.5597 6.66783 3.80832 6.8772 4.01769L6.89683 4.03732C7.29594 4.41026 7.67542 4.79628 8.07453 5.20847C8.27735 5.41784 8.48672 5.62721 8.69609 5.84312L10.4823 7.62929C11.1758 8.32283 11.1758 8.96402 10.4823 9.65755C10.2925 9.84729 10.1093 10.037 9.91959 10.2202C9.37 10.7829 8.84657 11.3063 8.27735 11.8167C8.26427 11.8297 8.25118 11.8363 8.24464 11.8494C7.68196 12.4121 7.78665 12.9616 7.90442 13.3346L7.92404 13.3935C8.38858 14.5188 9.04286 15.5787 10.0374 16.8415L10.0439 16.848C11.8497 19.0726 13.7537 20.8064 15.8539 22.1346C16.1221 22.3047 16.3969 22.4421 16.6586 22.573C16.8942 22.6907 17.1166 22.802 17.3064 22.9197C17.3325 22.9328 17.3587 22.9524 17.3849 22.9655C17.6073 23.0767 17.8167 23.1291 18.0326 23.1291C18.5757 23.1291 18.9159 22.7889 19.0271 22.6776L21.2647 20.44C21.4872 20.2176 21.8405 19.9493 22.2527 19.9493C22.6584 19.9493 22.992 20.2045 23.1949 20.4269L23.2079 20.44L26.813 24.0451C27.4869 24.7124 27.4869 25.3994 26.8196 26.093Z" fill="#EFEFEF"/>
<path d="M16.7297 7.37403C18.4439 7.66191 20.0011 8.47321 21.2442 9.71633C22.4874 10.9595 23.2921 12.5166 23.5866 14.2308C23.6585 14.6627 24.0315 14.9636 24.4567 14.9636C24.5091 14.9636 24.5549 14.9571 24.6072 14.9505C25.0914 14.872 25.412 14.414 25.3335 13.9299C24.9802 11.8558 23.9987 9.96496 22.5005 8.46667C21.0022 6.96837 19.1113 5.98696 17.0372 5.63365C16.5531 5.55514 16.1016 5.87573 16.0166 6.35335C15.9315 6.83098 16.2456 7.29551 16.7297 7.37403Z" fill="#EFEFEF"/>
<path d="M30.9407 13.6747C30.3584 10.2594 28.7488 7.15162 26.2757 4.67845C23.8025 2.20529 20.6947 0.595772 17.2794 0.013466C16.8017 -0.0715899 16.3503 0.255548 16.2652 0.73317C16.1867 1.21733 16.5073 1.66878 16.9915 1.75384C20.0404 2.27072 22.8211 3.71667 25.0325 5.92158C27.244 8.13303 28.6834 10.9137 29.2003 13.9626C29.2723 14.3945 29.6452 14.6954 30.0705 14.6954C30.1228 14.6954 30.1686 14.6889 30.221 14.6823C30.6986 14.6104 31.0257 14.1524 30.9407 13.6747Z" fill="#EFEFEF"/>
</svg>
