<svg width="602" height="143" viewBox="0 0 602 143" fill="none" xmlns="http://www.w3.org/2000/svg">
<path d="M173.139 115.927V31.9799H208.386C217.245 31.9799 224.152 33.8587 229.107 37.6163C234.061 41.294 236.539 46.6106 236.539 53.5663C236.539 60.4419 234.174 65.7586 229.444 69.5162C224.715 73.1939 218.484 75.0327 210.751 75.0327L212.778 70.7154C221.562 70.7154 228.356 72.5943 233.161 76.3519C237.965 80.1095 240.368 85.5461 240.368 92.6616C240.368 99.937 237.853 105.653 232.823 109.811C227.793 113.888 220.36 115.927 210.526 115.927H173.139ZM187.553 103.935H210.075C215.18 103.935 219.047 102.935 221.674 100.936C224.302 98.8577 225.616 95.6997 225.616 91.4624C225.616 87.225 224.302 84.147 221.674 82.2282C219.047 80.2294 215.18 79.2301 210.075 79.2301H187.553V103.935ZM187.553 67.8373H207.147C211.877 67.8373 215.481 66.8379 217.958 64.8391C220.435 62.7605 221.674 59.8023 221.674 55.9647C221.674 51.9673 220.435 48.9692 217.958 46.9704C215.481 44.9717 211.877 43.9723 207.147 43.9723H187.553V67.8373Z" fill="white"/>
<path d="M257.157 115.927V31.9799H271.572V91.5823L313.913 31.9799H327.539V115.927H313.125V56.4444L270.783 115.927H257.157Z" fill="white"/>
<path d="M347.932 115.927V31.9799H401.422L401.31 45.693H358.855L362.234 41.9753L362.346 115.927H347.932Z" fill="white"/>
<path d="M417.449 115.927V31.9799H429.385L463.957 93.2612H457.538L491.547 31.9799H503.484L503.709 115.927H489.745L489.632 55.1253H492.56L463.732 106.333H457.2L427.921 55.1253H431.3V115.927H417.449Z" fill="white"/>
<path d="M516.527 115.927L552 31.9799H566.414L601.999 115.927H586.684L556.166 40.2546H562.022L531.617 115.927H516.527ZM532.856 96.4992L536.797 84.2669H579.364L583.306 96.4992H532.856Z" fill="white"/>
<path d="M62.3822 0.937256L123.897 36.4529V107.484L62.3822 143L0.867188 107.484V36.4529L62.3822 0.937256Z" fill="white"/>
<path d="M62.4388 0.937256L123.954 36.4529V107.484L62.4388 143L0.923828 107.484V36.4529L62.4388 0.937256Z" fill="white"/>
<path fill-rule="evenodd" clip-rule="evenodd" d="M62.4147 143L1.10254 36.4255L31.9439 36.4529L62.5154 89.7264L93.2891 36.4529L124.132 36.4255L62.4147 143Z" fill="#0A1012"/>
</svg>
