<svg width="75" height="75" viewBox="0 0 75 75" fill="none" xmlns="http://www.w3.org/2000/svg">
<rect x="0.75" y="0.75" width="73.5" height="73.5" rx="7.0451" fill="#F0F0F0" stroke="#CCCCCC" stroke-width="1.5"/>
<path d="M22.4008 58.937H50.6008C50.6422 58.937 50.688 58.9377 50.7331 58.9384C50.7911 58.9393 50.8479 58.9402 50.8925 58.9395C50.9779 58.9382 51.0756 58.932 51.1643 58.8985C51.2645 58.8606 51.3459 58.7908 51.3959 58.6835C51.4409 58.587 51.4548 58.472 51.4548 58.3477C51.4548 58.2235 51.4409 58.1084 51.3959 58.0119C51.3459 57.9046 51.2645 57.8348 51.1643 57.7969C51.0757 57.7634 50.978 57.7572 50.8925 57.7559C50.8479 57.7552 50.791 57.7561 50.733 57.757C50.6879 57.7577 50.6422 57.7584 50.6008 57.7584H21.4036C20.8158 57.7584 20.2688 57.4489 19.8628 56.9653C19.4568 56.4816 19.2069 55.8399 19.2069 55.2122V27.5623C19.2069 27.0051 18.765 26.544 18.2097 26.544C17.6543 26.544 17.2125 27.0051 17.2125 27.5623V55.2122C17.2125 57.2269 18.5726 58.9249 20.4064 59.3858V61.7693C20.4064 62.3266 20.8483 62.7877 21.4036 62.7877H54.9402C55.4966 62.7877 55.9374 62.3264 55.9374 61.7693V59.3858C57.7713 58.9257 59.1314 57.2268 59.1314 55.2122V17.5092C59.1315 15.1446 57.2563 13.2123 54.9402 13.2123H21.4036C19.0876 13.2123 17.2124 15.1446 17.2124 17.5092V22.8954C17.2124 23.4648 17.6664 23.8765 18.2096 23.8765H54.023C54.2484 23.8765 54.4919 23.8553 54.6833 23.7506C54.7836 23.6957 54.8712 23.617 54.9322 23.5081C54.9926 23.4002 55.0202 23.2747 55.0202 23.1354C55.0202 22.9963 54.9927 22.8709 54.9312 22.7637C54.8691 22.6553 54.78 22.579 54.6791 22.5268C54.4881 22.4281 54.2448 22.4119 54.023 22.4119H19.2069V17.5092C19.2069 16.2584 20.1975 15.249 21.4036 15.249H54.9402C56.1463 15.249 57.137 16.2584 57.137 17.5092V55.2122C57.137 56.4631 56.1463 57.4724 54.9402 57.4724C54.3839 57.4724 53.9431 57.9337 53.9431 58.4907V60.7509H22.4008V58.937Z" fill="#121212" stroke="#121212" stroke-width="0.397452"/>
<path d="M44.3304 18.9876C44.3304 19.9435 45.0876 20.7272 46.0271 20.7272C46.9664 20.7272 47.7237 19.9436 47.7237 18.9876C47.7237 18.0317 46.9665 17.248 46.0271 17.248C45.0876 17.248 44.3304 18.0317 44.3304 18.9876Z" fill="#393939" stroke="#393939" stroke-width="0.279195"/>
<path d="M50.5582 18.9876C50.5582 19.9435 51.3154 20.7272 52.2548 20.7272C53.1942 20.7272 53.9515 19.9436 53.9515 18.9876C53.9515 18.0317 53.1943 17.248 52.2548 17.248C51.3155 17.248 50.5582 18.0317 50.5582 18.9876Z" fill="#5F5F5F" stroke="#5F5F5F" stroke-width="0.279195"/>
<path d="M23.4496 18.048C22.9393 18.048 22.5315 18.4725 22.5315 18.9876C22.5315 19.5026 22.9393 19.9272 23.4496 19.9272H29.6779C30.1882 19.9272 30.5959 19.5026 30.5959 18.9876C30.5959 18.4725 30.1882 18.048 29.6779 18.048H23.4496Z" fill="#121212" stroke="#121212" stroke-width="0.279195"/>
<rect x="24.5934" y="28.1099" width="27.6924" height="25.4506" fill="#CDCDCD" fill-opacity="0.6"/>
<path fill-rule="evenodd" clip-rule="evenodd" d="M24.5934 28.1951V47.6267L44.5054 28.1951H24.5934Z" fill="#C1C1C1" fill-opacity="0.5"/>
<path d="M51.3829 54.4747C52.0307 54.4747 52.5498 54.1998 52.9014 53.7549C53.2485 53.3156 53.4229 52.7241 53.4229 52.0923V29.2867C53.4229 28.6542 53.2479 28.0925 52.8942 27.6852C52.5367 27.2736 52.0174 27.0439 51.3829 27.0439H25.1005C24.466 27.0439 23.9467 27.2736 23.5892 27.6852C23.2355 28.0925 23.0605 28.6542 23.0605 29.2867V52.0924C23.0605 52.7242 23.2349 53.3157 23.582 53.7549C23.9336 54.1999 24.4527 54.4748 25.1005 54.4748L51.3829 54.4747ZM24.6531 52.0923V29.2867C24.6531 29.0219 24.8611 28.8183 25.1005 28.8183H51.3829C51.6227 28.8183 51.8302 29.0218 51.8302 29.2867V52.0924C51.8302 52.2298 51.7738 52.3917 51.6777 52.5176C51.5804 52.6451 51.4717 52.7004 51.3829 52.7004H25.1005C25.0121 52.7004 24.9034 52.6451 24.8059 52.5175C24.7096 52.3915 24.6531 52.2296 24.6531 52.0923Z" fill="#121212" stroke="#121212" stroke-width="0.48859"/>
</svg>
