<svg width="75" height="75" viewBox="0 0 75 75" fill="none" xmlns="http://www.w3.org/2000/svg">
<rect x="0.75" y="0.75" width="73.5" height="73.5" rx="7.0451" fill="#F0F0F0" stroke="#CCCCCC" stroke-width="1.5"/>
<g clip-path="url(#clip0_350_34)">
<path d="M42.1542 54.7987C42.2696 54.8024 42.3848 54.7859 42.4945 54.7499C42.4948 54.7498 42.4951 54.7497 42.4955 54.7496L52.3637 51.6565L52.3637 51.6566L52.3684 51.6549C52.6234 51.5651 52.8336 51.3798 52.9545 51.138C53.0754 50.8962 53.0977 50.6169 53.0165 50.3591C52.9353 50.1012 52.757 49.885 52.5194 49.756C52.2817 49.6271 52.0033 49.5954 51.7427 49.6677L51.7427 49.6676L51.7383 49.669L41.8441 52.7627L41.8437 52.7628C41.6065 52.8379 41.404 52.9952 41.2727 53.2065C41.1414 53.4177 41.09 53.6689 41.1277 53.9147C41.1655 54.1605 41.29 54.3847 41.4786 54.5468C41.6667 54.7084 41.9062 54.7977 42.1542 54.7987ZM42.1542 54.7987C42.1534 54.7987 42.1527 54.7987 42.1519 54.7986L42.1568 54.6575L42.1565 54.7987C42.1557 54.7987 42.155 54.7987 42.1542 54.7987Z" fill="#5F5F5F" stroke="#5F5F5F" stroke-width="0.282353"/>
<path d="M41.8442 48.8409L41.8442 48.8409L41.8437 48.8411C41.6065 48.9161 41.404 49.0735 41.2727 49.2847C41.1414 49.4959 41.09 49.7471 41.1277 49.9929C41.1655 50.2387 41.29 50.4629 41.4786 50.625C41.6667 50.7866 41.9062 50.8759 42.1542 50.8769C42.2696 50.8806 42.3847 50.8641 42.4944 50.8281L48.8111 48.8521L48.8111 48.8521L48.8121 48.8517C49.0757 48.767 49.2949 48.5811 49.4213 48.3348C49.5478 48.0886 49.5712 47.8022 49.4864 47.5387C49.4016 47.2752 49.2155 47.0562 48.9691 46.9299C48.723 46.8036 48.4367 46.7802 48.1733 46.8647C48.1731 46.8648 48.1729 46.8648 48.1727 46.8649L41.8442 48.8409Z" fill="#393939" stroke="#393939" stroke-width="0.282353"/>
<path d="M21.8899 25.0024L22.013 24.7483C21.9676 24.7258 21.9205 24.707 21.8722 24.692L21.8517 24.6856H21.8303H21.7942L21.7726 24.9663C21.8133 24.9726 21.8528 24.9847 21.8899 25.0024Z" fill="#121212" stroke="#121212" stroke-width="0.282353"/>
<path d="M30.7575 28.215L30.5734 28.003L30.5133 28.045L30.4937 28.0587L30.4798 28.078C30.4143 28.1685 30.3632 28.2685 30.328 28.3745L30.328 28.3745L30.3278 28.3749C30.3042 28.4467 30.2917 28.5218 30.2907 28.5975L30.5721 28.6155C30.5895 28.4656 30.6544 28.3253 30.7575 28.215Z" fill="#121212" stroke="#121212" stroke-width="0.282353"/>
<mask id="path-6-outside-1_350_34" maskUnits="userSpaceOnUse" x="13.3704" y="12.3064" width="49" height="49" fill="black">
<rect fill="white" x="13.3704" y="12.3064" width="49" height="49"/>
<path d="M61.6894 23.6253C61.6951 23.5915 61.6951 23.557 61.6894 23.5232C61.6929 23.4893 61.6929 23.455 61.6894 23.4211C61.6779 23.388 61.6639 23.3559 61.6473 23.325C61.6038 23.2286 61.5403 23.1426 61.461 23.0727L61.3287 23.0246C61.2756 22.9827 61.217 22.9483 61.1544 22.9225H61.1063L45.4415 16.3146L38.5468 13.377H38.4927C38.4425 13.3556 38.3901 13.3395 38.3365 13.329C38.21 13.2989 38.0782 13.2989 37.9517 13.329C37.8981 13.3395 37.8457 13.3556 37.7955 13.377H37.7594L14.9174 22.8684C14.8623 22.8904 14.8098 22.9186 14.7611 22.9525C14.7268 22.9757 14.6964 23.0041 14.6709 23.0366C14.6453 23.0502 14.6244 23.0711 14.6108 23.0967C14.5143 23.1984 14.4441 23.3221 14.4064 23.4571C14.3823 23.5349 14.3702 23.616 14.3704 23.6974V52.9825C14.3695 53.1744 14.4304 53.3615 14.5441 53.5161C14.6577 53.6708 14.8181 53.7849 15.0015 53.8415L37.5189 60.87L38.3725 60.9721L50.046 57.3317L61.0282 53.8956C61.2065 53.8345 61.3609 53.7184 61.4689 53.564C61.5769 53.4096 61.6331 53.2249 61.6293 53.0366V23.7395C61.653 23.7035 61.6732 23.6653 61.6894 23.6253ZM37.1463 58.8696L16.1677 52.3217V24.9109L20.5437 26.2805V38.4391C20.5439 38.6258 20.6017 38.8079 20.7093 38.9606C20.8169 39.1133 20.969 39.229 21.1448 39.2921L21.2831 39.3402H21.3552H21.4153C21.4672 39.3464 21.5197 39.3464 21.5716 39.3402H21.6377C21.6574 39.3458 21.6782 39.3458 21.6978 39.3402C21.7276 39.3458 21.7582 39.3458 21.788 39.3402L21.9263 39.2981C21.9588 39.2846 21.9892 39.2664 22.0164 39.244C22.0522 39.2255 22.0847 39.2011 22.1126 39.172L22.1607 39.1299L26.2602 35.5256L30.468 42.0855L30.5221 42.1756C30.5887 42.2814 30.6765 42.3723 30.7799 42.4426C30.8834 42.5129 31.0002 42.561 31.1232 42.5841H31.3877C31.4134 42.5902 31.4401 42.5902 31.4658 42.5841C31.4855 42.5894 31.5062 42.5894 31.5259 42.5841H31.5981C31.6471 42.5661 31.6936 42.5419 31.7363 42.512C31.7844 42.4811 31.8288 42.4448 31.8686 42.4038L32.0128 42.2476C32.0422 42.2162 32.0683 42.182 32.091 42.1455C32.1271 42.0982 32.1555 42.0455 32.1751 41.9893C32.1994 41.9355 32.2176 41.8791 32.2292 41.8211C32.2351 41.7612 32.2351 41.7008 32.2292 41.6409V29.9329L37.1463 31.4647V58.8696ZM31.033 27.8304L30.9729 27.8724L30.6543 28.1127C30.5307 28.245 30.4528 28.4135 30.4319 28.5933C30.4289 28.6293 30.4289 28.6654 30.4319 28.7014V38.5712L27.3062 33.6814C27.3087 33.6655 27.3087 33.6492 27.3062 33.6333C27.2842 33.5945 27.258 33.5582 27.228 33.5252C27.189 33.4839 27.1468 33.4457 27.1018 33.4111C27.0609 33.3753 27.0141 33.3469 26.9635 33.327L26.8794 33.2849C26.8453 33.2676 26.8088 33.2554 26.7712 33.2489L26.6029 33.2368C26.5252 33.2248 26.4461 33.2248 26.3684 33.2368H26.2422C26.1677 33.2554 26.0967 33.2858 26.0318 33.327L25.9116 33.4111L25.8395 33.4771L22.335 36.5769V26.5148C22.3913 26.5072 22.446 26.491 22.4973 26.4667L32.4576 22.3278L39.0185 24.8868L31.033 27.8304ZM38.1261 29.8788L33.9544 28.5693L41.6453 25.7459L41.7895 25.6678C41.8376 25.6369 41.882 25.6006 41.9218 25.5596C42.0062 25.4821 42.0737 25.3881 42.1202 25.2833C42.1415 25.2372 42.1577 25.1888 42.1682 25.1391C42.1716 25.1253 42.1716 25.1109 42.1682 25.0971C42.1745 25.0452 42.1745 24.9928 42.1682 24.9409C42.169 24.8471 42.1548 24.7539 42.1262 24.6646C42.1262 24.6646 42.1262 24.6105 42.0961 24.5865C42.0785 24.5433 42.0585 24.5012 42.036 24.4603L41.9579 24.3522C41.9224 24.3078 41.8821 24.2675 41.8376 24.2321H41.7956C41.7495 24.1911 41.6966 24.1585 41.6393 24.1359L32.9205 20.5557H32.8784C32.7629 20.5007 32.6366 20.4722 32.5087 20.4722C32.3808 20.4722 32.2545 20.5007 32.1391 20.5557L21.8301 24.8268C21.8724 24.8493 21.9126 24.8754 21.9503 24.9049C21.9026 24.8709 21.8499 24.8445 21.794 24.8268C21.7711 24.8088 21.7444 24.7965 21.7159 24.7907L17.9109 23.5893L38.1441 15.1792L44.7563 17.9605L58.1729 23.6253L38.1261 29.8788ZM59.8921 52.3698L49.5411 55.6077L38.9496 58.9176V31.5128L59.8921 24.9649V52.3698Z"/>
</mask>
<path d="M61.6894 23.6253C61.6951 23.5915 61.6951 23.557 61.6894 23.5232C61.6929 23.4893 61.6929 23.455 61.6894 23.4211C61.6779 23.388 61.6639 23.3559 61.6473 23.325C61.6038 23.2286 61.5403 23.1426 61.461 23.0727L61.3287 23.0246C61.2756 22.9827 61.217 22.9483 61.1544 22.9225H61.1063L45.4415 16.3146L38.5468 13.377H38.4927C38.4425 13.3556 38.3901 13.3395 38.3365 13.329C38.21 13.2989 38.0782 13.2989 37.9517 13.329C37.8981 13.3395 37.8457 13.3556 37.7955 13.377H37.7594L14.9174 22.8684C14.8623 22.8904 14.8098 22.9186 14.7611 22.9525C14.7268 22.9757 14.6964 23.0041 14.6709 23.0366C14.6453 23.0502 14.6244 23.0711 14.6108 23.0967C14.5143 23.1984 14.4441 23.3221 14.4064 23.4571C14.3823 23.5349 14.3702 23.616 14.3704 23.6974V52.9825C14.3695 53.1744 14.4304 53.3615 14.5441 53.5161C14.6577 53.6708 14.8181 53.7849 15.0015 53.8415L37.5189 60.87L38.3725 60.9721L50.046 57.3317L61.0282 53.8956C61.2065 53.8345 61.3609 53.7184 61.4689 53.564C61.5769 53.4096 61.6331 53.2249 61.6293 53.0366V23.7395C61.653 23.7035 61.6732 23.6653 61.6894 23.6253ZM37.1463 58.8696L16.1677 52.3217V24.9109L20.5437 26.2805V38.4391C20.5439 38.6258 20.6017 38.8079 20.7093 38.9606C20.8169 39.1133 20.969 39.229 21.1448 39.2921L21.2831 39.3402H21.3552H21.4153C21.4672 39.3464 21.5197 39.3464 21.5716 39.3402H21.6377C21.6574 39.3458 21.6782 39.3458 21.6978 39.3402C21.7276 39.3458 21.7582 39.3458 21.788 39.3402L21.9263 39.2981C21.9588 39.2846 21.9892 39.2664 22.0164 39.244C22.0522 39.2255 22.0847 39.2011 22.1126 39.172L22.1607 39.1299L26.2602 35.5256L30.468 42.0855L30.5221 42.1756C30.5887 42.2814 30.6765 42.3723 30.7799 42.4426C30.8834 42.5129 31.0002 42.561 31.1232 42.5841H31.3877C31.4134 42.5902 31.4401 42.5902 31.4658 42.5841C31.4855 42.5894 31.5062 42.5894 31.5259 42.5841H31.5981C31.6471 42.5661 31.6936 42.5419 31.7363 42.512C31.7844 42.4811 31.8288 42.4448 31.8686 42.4038L32.0128 42.2476C32.0422 42.2162 32.0683 42.182 32.091 42.1455C32.1271 42.0982 32.1555 42.0455 32.1751 41.9893C32.1994 41.9355 32.2176 41.8791 32.2292 41.8211C32.2351 41.7612 32.2351 41.7008 32.2292 41.6409V29.9329L37.1463 31.4647V58.8696ZM31.033 27.8304L30.9729 27.8724L30.6543 28.1127C30.5307 28.245 30.4528 28.4135 30.4319 28.5933C30.4289 28.6293 30.4289 28.6654 30.4319 28.7014V38.5712L27.3062 33.6814C27.3087 33.6655 27.3087 33.6492 27.3062 33.6333C27.2842 33.5945 27.258 33.5582 27.228 33.5252C27.189 33.4839 27.1468 33.4457 27.1018 33.4111C27.0609 33.3753 27.0141 33.3469 26.9635 33.327L26.8794 33.2849C26.8453 33.2676 26.8088 33.2554 26.7712 33.2489L26.6029 33.2368C26.5252 33.2248 26.4461 33.2248 26.3684 33.2368H26.2422C26.1677 33.2554 26.0967 33.2858 26.0318 33.327L25.9116 33.4111L25.8395 33.4771L22.335 36.5769V26.5148C22.3913 26.5072 22.446 26.491 22.4973 26.4667L32.4576 22.3278L39.0185 24.8868L31.033 27.8304ZM38.1261 29.8788L33.9544 28.5693L41.6453 25.7459L41.7895 25.6678C41.8376 25.6369 41.882 25.6006 41.9218 25.5596C42.0062 25.4821 42.0737 25.3881 42.1202 25.2833C42.1415 25.2372 42.1577 25.1888 42.1682 25.1391C42.1716 25.1253 42.1716 25.1109 42.1682 25.0971C42.1745 25.0452 42.1745 24.9928 42.1682 24.9409C42.169 24.8471 42.1548 24.7539 42.1262 24.6646C42.1262 24.6646 42.1262 24.6105 42.0961 24.5865C42.0785 24.5433 42.0585 24.5012 42.036 24.4603L41.9579 24.3522C41.9224 24.3078 41.8821 24.2675 41.8376 24.2321H41.7956C41.7495 24.1911 41.6966 24.1585 41.6393 24.1359L32.9205 20.5557H32.8784C32.7629 20.5007 32.6366 20.4722 32.5087 20.4722C32.3808 20.4722 32.2545 20.5007 32.1391 20.5557L21.8301 24.8268C21.8724 24.8493 21.9126 24.8754 21.9503 24.9049C21.9026 24.8709 21.8499 24.8445 21.794 24.8268C21.7711 24.8088 21.7444 24.7965 21.7159 24.7907L17.9109 23.5893L38.1441 15.1792L44.7563 17.9605L58.1729 23.6253L38.1261 29.8788ZM59.8921 52.3698L49.5411 55.6077L38.9496 58.9176V31.5128L59.8921 24.9649V52.3698Z" fill="#121212"/>
<path d="M61.6894 23.6253C61.6951 23.5915 61.6951 23.557 61.6894 23.5232C61.6929 23.4893 61.6929 23.455 61.6894 23.4211C61.6779 23.388 61.6639 23.3559 61.6473 23.325C61.6038 23.2286 61.5403 23.1426 61.461 23.0727L61.3287 23.0246C61.2756 22.9827 61.217 22.9483 61.1544 22.9225H61.1063L45.4415 16.3146L38.5468 13.377H38.4927C38.4425 13.3556 38.3901 13.3395 38.3365 13.329C38.21 13.2989 38.0782 13.2989 37.9517 13.329C37.8981 13.3395 37.8457 13.3556 37.7955 13.377H37.7594L14.9174 22.8684C14.8623 22.8904 14.8098 22.9186 14.7611 22.9525C14.7268 22.9757 14.6964 23.0041 14.6709 23.0366C14.6453 23.0502 14.6244 23.0711 14.6108 23.0967C14.5143 23.1984 14.4441 23.3221 14.4064 23.4571C14.3823 23.5349 14.3702 23.616 14.3704 23.6974V52.9825C14.3695 53.1744 14.4304 53.3615 14.5441 53.5161C14.6577 53.6708 14.8181 53.7849 15.0015 53.8415L37.5189 60.87L38.3725 60.9721L50.046 57.3317L61.0282 53.8956C61.2065 53.8345 61.3609 53.7184 61.4689 53.564C61.5769 53.4096 61.6331 53.2249 61.6293 53.0366V23.7395C61.653 23.7035 61.6732 23.6653 61.6894 23.6253ZM37.1463 58.8696L16.1677 52.3217V24.9109L20.5437 26.2805V38.4391C20.5439 38.6258 20.6017 38.8079 20.7093 38.9606C20.8169 39.1133 20.969 39.229 21.1448 39.2921L21.2831 39.3402H21.3552H21.4153C21.4672 39.3464 21.5197 39.3464 21.5716 39.3402H21.6377C21.6574 39.3458 21.6782 39.3458 21.6978 39.3402C21.7276 39.3458 21.7582 39.3458 21.788 39.3402L21.9263 39.2981C21.9588 39.2846 21.9892 39.2664 22.0164 39.244C22.0522 39.2255 22.0847 39.2011 22.1126 39.172L22.1607 39.1299L26.2602 35.5256L30.468 42.0855L30.5221 42.1756C30.5887 42.2814 30.6765 42.3723 30.7799 42.4426C30.8834 42.5129 31.0002 42.561 31.1232 42.5841H31.3877C31.4134 42.5902 31.4401 42.5902 31.4658 42.5841C31.4855 42.5894 31.5062 42.5894 31.5259 42.5841H31.5981C31.6471 42.5661 31.6936 42.5419 31.7363 42.512C31.7844 42.4811 31.8288 42.4448 31.8686 42.4038L32.0128 42.2476C32.0422 42.2162 32.0683 42.182 32.091 42.1455C32.1271 42.0982 32.1555 42.0455 32.1751 41.9893C32.1994 41.9355 32.2176 41.8791 32.2292 41.8211C32.2351 41.7612 32.2351 41.7008 32.2292 41.6409V29.9329L37.1463 31.4647V58.8696ZM31.033 27.8304L30.9729 27.8724L30.6543 28.1127C30.5307 28.245 30.4528 28.4135 30.4319 28.5933C30.4289 28.6293 30.4289 28.6654 30.4319 28.7014V38.5712L27.3062 33.6814C27.3087 33.6655 27.3087 33.6492 27.3062 33.6333C27.2842 33.5945 27.258 33.5582 27.228 33.5252C27.189 33.4839 27.1468 33.4457 27.1018 33.4111C27.0609 33.3753 27.0141 33.3469 26.9635 33.327L26.8794 33.2849C26.8453 33.2676 26.8088 33.2554 26.7712 33.2489L26.6029 33.2368C26.5252 33.2248 26.4461 33.2248 26.3684 33.2368H26.2422C26.1677 33.2554 26.0967 33.2858 26.0318 33.327L25.9116 33.4111L25.8395 33.4771L22.335 36.5769V26.5148C22.3913 26.5072 22.446 26.491 22.4973 26.4667L32.4576 22.3278L39.0185 24.8868L31.033 27.8304ZM38.1261 29.8788L33.9544 28.5693L41.6453 25.7459L41.7895 25.6678C41.8376 25.6369 41.882 25.6006 41.9218 25.5596C42.0062 25.4821 42.0737 25.3881 42.1202 25.2833C42.1415 25.2372 42.1577 25.1888 42.1682 25.1391C42.1716 25.1253 42.1716 25.1109 42.1682 25.0971C42.1745 25.0452 42.1745 24.9928 42.1682 24.9409C42.169 24.8471 42.1548 24.7539 42.1262 24.6646C42.1262 24.6646 42.1262 24.6105 42.0961 24.5865C42.0785 24.5433 42.0585 24.5012 42.036 24.4603L41.9579 24.3522C41.9224 24.3078 41.8821 24.2675 41.8376 24.2321H41.7956C41.7495 24.1911 41.6966 24.1585 41.6393 24.1359L32.9205 20.5557H32.8784C32.7629 20.5007 32.6366 20.4722 32.5087 20.4722C32.3808 20.4722 32.2545 20.5007 32.1391 20.5557L21.8301 24.8268C21.8724 24.8493 21.9126 24.8754 21.9503 24.9049C21.9026 24.8709 21.8499 24.8445 21.794 24.8268C21.7711 24.8088 21.7444 24.7965 21.7159 24.7907L17.9109 23.5893L38.1441 15.1792L44.7563 17.9605L58.1729 23.6253L38.1261 29.8788ZM59.8921 52.3698L49.5411 55.6077L38.9496 58.9176V31.5128L59.8921 24.9649V52.3698Z" stroke="#121212" stroke-width="0.564707" mask="url(#path-6-outside-1_350_34)"/>
<path d="M21.8958 25.005L22.0111 24.7473C21.9492 24.7179 21.8834 24.6977 21.8157 24.6873L21.7663 24.9652C21.8107 24.9741 21.8541 24.9875 21.8958 25.005Z" fill="#121212" stroke="#121212" stroke-width="0.282353"/>
<path d="M30.7575 28.215L30.5677 28.0072L30.5136 28.0492L30.4997 28.0601L30.4889 28.074C30.3992 28.1891 30.3354 28.3222 30.3016 28.4642C30.2679 28.6062 30.2651 28.7538 30.2935 28.897L30.5731 28.8696V28.7074H30.5736L30.5727 28.6957C30.5704 28.6682 30.5703 28.6406 30.5725 28.6132C30.5902 28.4642 30.6551 28.3247 30.7575 28.215Z" fill="#121212" stroke="#121212" stroke-width="0.282353"/>
</g>
<defs>
<clipPath id="clip0_350_34">
<rect width="48" height="48.3851" fill="white" transform="translate(14 13)"/>
</clipPath>
</defs>
</svg>
