<svg width="80" height="80" viewBox="0 0 80 80" fill="none" xmlns="http://www.w3.org/2000/svg">
<rect width="80" height="80" rx="40" fill="white"/>
<rect x="0.25" y="0.25" width="79.5" height="79.5" rx="39.75" stroke="#0A1012" stroke-opacity="0.5" stroke-width="0.5"/>
<g clip-path="url(#clip0_403_106)">
<path d="M19.9539 50.4608H25.0871C25.6556 50.4608 26.1165 49.9898 26.1165 49.4089C26.1165 48.8279 25.6556 48.357 25.0871 48.357H19.9539V50.4608Z" fill="#0A1012"/>
<path fill-rule="evenodd" clip-rule="evenodd" d="M63.4449 39.479H57.8502C58.3101 38.5515 58.5554 37.4137 58.5554 36.3444V35.69C58.5554 35.1091 58.0945 34.6381 57.526 34.6381H54.386C54.8985 33.9517 55.2795 33.1624 55.5048 32.3033C55.9585 30.5724 55.7256 28.7647 54.8489 27.2131L54.5288 26.6461C54.3923 26.4045 54.1675 26.2281 53.9038 26.1559C53.6398 26.0835 53.3589 26.1213 53.1225 26.261L50.4037 27.865C50.5116 27.0087 50.4554 26.1308 50.2301 25.2718C49.7761 23.5408 48.6896 22.0942 47.1711 21.1986L46.6173 20.8715C46.381 20.7318 46.0998 20.694 45.8362 20.7661C45.5723 20.8382 45.3474 21.0145 45.2108 21.2562L43.6407 24.0348C43.3151 23.2382 42.8369 22.5061 42.2213 21.8764C40.9804 20.6096 39.3317 19.912 37.5791 19.912H36.9389C36.3704 19.912 35.9095 20.3829 35.9095 20.9639V24.1772C33.8658 22.5874 31.0025 22.3078 28.6416 23.7001L28.0878 24.0272C27.5959 24.3178 27.4275 24.9608 27.7116 25.4638L29.2813 28.2421C28.4433 28.1318 27.5837 28.1892 26.743 28.4194C25.0488 28.8834 23.6327 29.9937 22.7564 31.5454L22.4362 32.1113C22.2996 32.3528 22.2625 32.6401 22.3331 32.9095C22.4037 33.1792 22.5762 33.409 22.8127 33.5486L25.5322 35.1534C24.7528 35.4861 24.0366 35.9748 23.4205 36.6036C22.654 37.3881 22.0998 38.4402 21.7886 39.4791H16.6088C16.0401 39.4791 15.5792 39.95 15.5792 40.531V45.1471C15.5792 45.7281 16.0401 46.199 16.6086 46.199H17.8952V55.0795C17.8952 55.6605 18.3561 56.1314 18.9246 56.1314H61.1288C61.6973 56.1314 62.1581 55.6605 62.1581 55.0795V46.1989H63.445C64.0135 46.1989 64.4744 45.728 64.4744 45.147V40.5309C64.4743 39.9499 64.0134 39.479 63.4449 39.479ZM24.8761 38.091C25.7283 37.2211 26.8601 36.7419 28.0633 36.7419C28.5342 36.7419 28.9451 36.4153 29.0611 35.9488C29.0714 35.9073 29.0825 35.8657 29.0935 35.8245L29.0984 35.8062L29.1155 35.7425C29.2378 35.2819 29.0413 34.7949 28.6369 34.5562L24.7479 32.2612C25.3541 31.3715 26.2389 30.7352 27.2756 30.4513C28.4327 30.1345 29.641 30.2948 30.6798 30.9023C31.0864 31.1539 31.612 31.089 31.948 30.7393C31.9929 30.6925 32.0387 30.6466 32.0879 30.5972L32.0881 30.597L32.0938 30.5913C32.4289 30.2553 32.4991 29.73 32.2643 29.3146L30.0172 25.3372C32.103 24.3402 34.6305 25.1177 35.8133 27.1809C35.8825 27.3119 35.9788 27.4281 36.0981 27.5203C36.3552 27.7191 36.6883 27.7834 36.9989 27.6941C37.0675 27.6742 37.1362 27.6555 37.2048 27.6369C37.655 27.5138 37.9682 27.0969 37.9682 26.6208V22.0323C39.0247 22.1241 40.0065 22.5889 40.7655 23.3637C41.6168 24.2346 42.0857 25.3912 42.0857 26.6207C42.0857 27.0969 42.3988 27.5137 42.8491 27.6368L42.8619 27.6403C42.925 27.6575 42.9881 27.6748 43.0504 27.6931C43.5045 27.8256 43.9887 27.6256 44.2248 27.2078L46.4708 23.2337C47.3414 23.8532 47.9641 24.7571 48.2419 25.8162C48.5534 27.0042 48.3935 28.2451 47.7916 29.3103C47.7813 29.3285 47.7694 29.3512 47.7603 29.37C47.5606 29.7782 47.6412 30.2716 47.96 30.5912C48.0088 30.6401 48.0565 30.6889 48.1043 30.7388C48.4331 31.0815 48.9473 31.1534 49.3541 30.9134L53.2463 28.6171C53.697 29.5985 53.7941 30.6997 53.5163 31.759C53.2048 32.9471 52.4593 33.9401 51.4169 34.5552C51.339 34.6011 51.2663 34.6583 51.2027 34.7234C50.9385 34.9934 50.8382 35.3886 50.9407 35.7557C50.9591 35.8214 50.9765 35.8877 50.9961 35.9627C51.1167 36.4224 51.5246 36.742 51.9904 36.742H56.4805C56.3993 37.7182 56.0195 38.7393 55.3868 39.479H46.9554C46.968 39.3043 46.975 39.0216 46.975 38.8458C46.975 34.9307 43.858 31.7455 40.0267 31.7455C36.1954 31.7455 33.0785 34.9307 33.0785 38.8458C33.0785 39.0216 33.0854 39.3043 33.098 39.479H23.99C24.2086 39.0085 24.5067 38.4691 24.8761 38.091ZM44.9162 38.8458C44.9162 39.022 44.9073 39.3048 44.8894 39.479H35.164C35.1462 39.3047 35.1372 39.0219 35.1372 38.8458C35.1372 36.0908 37.3307 33.8493 40.0267 33.8493C42.7227 33.8493 44.9162 36.0908 44.9162 38.8458ZM60.0993 46.1992V49.5515V51.6553V54.0275H19.9539V50.4608V48.357V46.1992H60.0993ZM62.4155 44.0951H17.6379V41.5828H62.4155V44.0951Z" fill="#0A1012"/>
<path d="M60.0993 49.5515H54.966C54.3975 49.5515 53.9366 50.0225 53.9366 50.6034C53.9366 51.1844 54.3975 51.6553 54.966 51.6553H60.0993V49.5515Z" fill="#0A1012"/>
<path d="M50.9492 51.6366H51.3218C52.0077 51.6366 52.5638 51.1657 52.5638 50.5847C52.5638 50.0038 52.0077 49.5328 51.3218 49.5328H50.9492C50.2633 49.5328 49.7072 50.0038 49.7072 50.5847C49.7072 51.1658 50.2633 51.6366 50.9492 51.6366Z" fill="#0A1012"/>
<path d="M28.7414 50.45H29.0502C29.6187 50.45 30.0796 49.979 30.0796 49.3981C30.0796 48.8172 29.6187 48.3462 29.0502 48.3462H28.7414C28.1729 48.3462 27.712 48.8172 27.712 49.3981C27.712 49.979 28.1729 50.45 28.7414 50.45Z" fill="#0A1012"/>
</g>
<defs>
<clipPath id="clip0_403_106">
<rect width="49" height="36.348" fill="white" transform="translate(15.5 19.826)"/>
</clipPath>
</defs>
</svg>
