<svg width="75" height="75" viewBox="0 0 75 75" fill="none" xmlns="http://www.w3.org/2000/svg">
<rect x="0.75" y="0.75" width="73.5" height="73.5" rx="7.0451" fill="#F0F0F0" stroke="#CCCCCC" stroke-width="1.5"/>
<g clip-path="url(#clip0_350_22)">
<path d="M15.7265 50.5101H21.174C21.7773 50.5101 22.2664 50.0103 22.2664 49.3938C22.2664 48.7773 21.7773 48.2775 21.174 48.2775H15.7265V50.5101Z" fill="#393939"/>
<path fill-rule="evenodd" clip-rule="evenodd" d="M61.8802 38.856H55.943C56.4311 37.8717 56.6914 36.6643 56.6914 35.5295V34.8351C56.6914 34.2186 56.2023 33.7188 55.599 33.7188H52.2667C52.8106 32.9903 53.2149 32.1527 53.454 31.241C53.9355 29.4042 53.6883 27.4858 52.758 25.8392L52.4183 25.2375C52.2734 24.9811 52.0349 24.7938 51.755 24.7172C51.4748 24.6404 51.1768 24.6806 50.9259 24.8288L48.0406 26.531C48.1551 25.6222 48.0955 24.6906 47.8564 23.779C47.3746 21.942 46.2215 20.4068 44.6101 19.4564L44.0224 19.1093C43.7716 18.9611 43.4732 18.9209 43.1934 18.9974C42.9134 19.074 42.6747 19.2611 42.5298 19.5175L40.8635 22.4663C40.518 21.6209 40.0105 20.844 39.3572 20.1758C38.0403 18.8314 36.2907 18.0911 34.4308 18.0911H33.7514C33.1481 18.0911 32.659 18.5909 32.659 19.2074V22.6174C30.4901 20.9302 27.4516 20.6335 24.9462 22.1111L24.3585 22.4582C23.8364 22.7666 23.6577 23.449 23.9592 23.9827L25.625 26.9312C24.7357 26.8142 23.8235 26.875 22.9313 27.1194C21.1334 27.6117 19.6306 28.79 18.7006 30.4367L18.3609 31.0372C18.2158 31.2935 18.1765 31.5984 18.2514 31.8844C18.3263 32.1705 18.5094 32.4144 18.7604 32.5625L21.6464 34.2656C20.8193 34.6186 20.0592 35.1373 19.4054 35.8046C18.5919 36.6371 18.0038 37.7537 17.6735 38.8561H12.1766C11.5731 38.8561 11.084 39.3559 11.084 39.9724V44.8712C11.084 45.4877 11.5731 45.9875 12.1764 45.9875H13.5418V55.4116C13.5418 56.0282 14.0309 56.528 14.6342 56.528H59.4223C60.0256 56.528 60.5147 56.0282 60.5147 55.4116V45.9874H61.8803C62.4836 45.9874 62.9727 45.4876 62.9727 44.8711V39.9723C62.9726 39.3558 62.4835 38.856 61.8802 38.856ZM20.9501 37.383C21.8544 36.4599 23.0556 35.9514 24.3324 35.9514C24.8321 35.9514 25.2682 35.6048 25.3913 35.1097C25.4022 35.0656 25.414 35.0215 25.4257 34.9778L25.4309 34.9583L25.449 34.8908C25.5789 34.402 25.3703 33.8851 24.9411 33.6319L20.814 31.1963C21.4574 30.2521 22.3963 29.5769 23.4965 29.2756C24.7244 28.9395 26.0067 29.1095 27.1092 29.7542C27.5406 30.0213 28.0984 29.9524 28.4549 29.5812C28.5026 29.5316 28.5512 29.4829 28.6035 29.4305L28.6037 29.4303L28.6097 29.4242C28.9653 29.0677 29.0398 28.5102 28.7906 28.0693L26.4059 23.8484C28.6194 22.7904 31.3017 23.6155 32.557 25.805C32.6303 25.944 32.7326 26.0674 32.8592 26.1652C33.132 26.3762 33.4855 26.4444 33.8151 26.3496C33.8879 26.3285 33.9608 26.3087 34.0336 26.2889C34.5114 26.1583 34.8437 25.7159 34.8437 25.2106V20.3412C35.9649 20.4386 37.0068 20.9319 37.8123 21.7541C38.7157 22.6783 39.2133 23.9057 39.2133 25.2105C39.2133 25.7159 39.5456 26.1582 40.0235 26.2888L40.037 26.2925C40.104 26.3108 40.171 26.3291 40.2371 26.3485C40.719 26.4892 41.2328 26.277 41.4834 25.8335L43.8669 21.6161C44.7908 22.2735 45.4516 23.2328 45.7464 24.3567C46.077 25.6175 45.9073 26.9344 45.2686 28.0648C45.2576 28.084 45.2451 28.1082 45.2353 28.1282C45.0234 28.5614 45.109 29.085 45.4472 29.4241C45.499 29.476 45.5497 29.5278 45.6005 29.5807C45.9494 29.9444 46.495 30.0207 46.9268 29.766L51.0572 27.3292C51.5355 28.3706 51.6386 29.5392 51.3438 30.6634C51.0132 31.9242 50.222 32.978 49.1158 33.6308C49.0331 33.6795 48.956 33.7402 48.8885 33.8093C48.6082 34.0959 48.5017 34.5152 48.6105 34.9048C48.63 34.9745 48.6484 35.0449 48.6693 35.1244C48.7973 35.6123 49.2301 35.9515 49.7244 35.9515H54.4894C54.4033 36.9874 54.0003 38.0711 53.3288 38.856H44.3812C44.3946 38.6706 44.402 38.3706 44.402 38.1841C44.402 34.0293 41.0942 30.6491 37.0283 30.6491C32.9624 30.6491 29.6546 34.0293 29.6546 38.1841C29.6546 38.3706 29.662 38.6706 29.6754 38.856H20.0097C20.2417 38.3567 20.5581 37.7843 20.9501 37.383ZM42.2172 38.1841C42.2172 38.371 42.2076 38.6711 42.1887 38.856H31.8678C31.849 38.671 31.8394 38.3709 31.8394 38.1841C31.8394 35.2604 34.1672 32.8817 37.0283 32.8817C39.8894 32.8817 42.2172 35.2604 42.2172 38.1841ZM58.3298 45.9877V49.5452V51.7778V54.2952H15.7265V50.5101V48.2775V45.9877H58.3298ZM60.7878 43.7548H13.2688V41.0886H60.7878V43.7548Z" fill="#121212"/>
<path d="M58.3298 49.5452H52.8822C52.2789 49.5452 51.7898 50.045 51.7898 50.6615C51.7898 51.278 52.2789 51.7778 52.8822 51.7778H58.3298V49.5452Z" fill="#5F5F5F"/>
<path d="M48.6195 51.758H49.0149C49.7428 51.758 50.3329 51.2582 50.3329 50.6417C50.3329 50.0252 49.7428 49.5254 49.0149 49.5254H48.6195C47.8916 49.5254 47.3015 50.0252 47.3015 50.6417C47.3015 51.2583 47.8916 51.758 48.6195 51.758Z" fill="#5F5F5F"/>
<path d="M25.0521 50.4986H25.3799C25.9832 50.4986 26.4723 49.9988 26.4723 49.3823C26.4723 48.7658 25.9832 48.266 25.3799 48.266H25.0521C24.4488 48.266 23.9597 48.7658 23.9597 49.3823C23.9597 49.9988 24.4488 50.4986 25.0521 50.4986Z" fill="#393939"/>
</g>
<defs>
<clipPath id="clip0_350_22">
<rect width="52" height="38.5733" fill="white" transform="translate(11 18)"/>
</clipPath>
</defs>
</svg>
