<svg width="75" height="75" viewBox="0 0 75 75" fill="none" xmlns="http://www.w3.org/2000/svg">
<rect x="0.75" y="0.75" width="73.5" height="73.5" rx="7.0451" fill="#F0F0F0" stroke="#CCCCCC" stroke-width="1.5"/>
<g clip-path="url(#clip0_350_11)">
<path d="M34.9206 26.6037C29.4306 21.0994 25.7893 16.9702 25.5871 16.7409C25.5871 16.7408 25.587 16.7408 25.587 16.7407C25.587 16.7407 25.587 16.7407 25.587 16.7407C25.587 16.7407 25.587 16.7407 25.5869 16.7406L34.9206 26.6037ZM34.9206 26.6037C35.3475 27.0316 36.0411 27.0316 36.468 26.6037C36.8943 26.1762 36.8943 25.4824 36.468 25.055L36.468 25.0549C30.9775 19.5516 27.3584 15.4415 27.1942 15.255L27.1941 15.2549L27.1941 15.2549L27.189 15.2492L27.1888 15.2489L27.1814 15.2405L27.1733 15.2324C26.4234 14.4822 25.5722 14.2015 24.7634 14.2605C23.9657 14.3188 23.2401 14.7047 22.7135 15.2326C22.7135 15.2326 22.7135 15.2326 22.7135 15.2326L15.4303 22.5333L15.4301 22.5335C14.0317 23.9371 14.3417 25.9126 15.4421 27.0142L15.442 27.0142L15.4468 27.0188L15.4475 27.0195L15.4616 27.033L15.4616 27.0331L15.4616 27.0331L15.4617 27.0331C15.7244 27.2853 19.5929 30.9976 24.9679 36.3866C25.1828 36.602 25.464 36.7072 25.7423 36.7072C26.0223 36.7072 26.3022 36.5995 26.5154 36.3879L26.5167 36.3866C26.9431 35.9591 26.9431 35.2653 26.5167 34.8378C25.7756 34.0948 25.0666 33.3874 24.3897 32.7136L26.4454 30.6526C26.8717 30.2252 26.8717 29.5313 26.4454 29.1039C26.0185 28.6759 25.3248 28.6759 24.898 29.1039L22.8352 31.172C21.7618 30.1102 20.8002 29.1663 19.9851 28.3689L24.989 23.352C25.4154 22.9245 25.4154 22.2307 24.989 21.8032C24.5622 21.3753 23.8685 21.3753 23.4416 21.8032L18.4156 26.8423L34.9206 26.6037ZM16.9791 25.455C16.978 25.454 16.9771 25.4531 16.9765 25.4525L16.9774 25.4533C16.978 25.4539 16.9785 25.4545 16.9791 25.455ZM16.9791 25.455L16.7212 25.7122L16.9791 25.455C16.9791 25.455 16.9791 25.455 16.9791 25.455ZM25.853 16.4896L25.58 16.7327M25.853 16.4896L25.7158 16.6271L25.8483 16.5103M25.853 16.4896L25.8612 16.4989L25.58 16.7327M25.853 16.4896L25.5789 16.7315L25.58 16.7327M25.58 16.7327L25.8483 16.5103M25.8483 16.5103L25.8504 16.5084L25.8483 16.5103ZM25.7148 16.6282L25.7158 16.6272L25.7148 16.6282ZM25.7148 16.6282L25.5871 16.7408L25.7148 16.6282ZM19.4654 28.3721C19.4654 28.3722 19.4655 28.3722 19.4655 28.3722C19.5508 28.4556 19.638 28.5408 19.7269 28.6278L19.4654 28.3721ZM19.4654 28.3721L19.2066 28.1139L19.4614 27.8584L19.4654 28.3721ZM19.7237 28.1133L24.7302 23.0938C25.0141 22.809 25.0141 22.3462 24.7302 22.0614C24.4462 21.7767 23.9845 21.7767 23.7005 22.0614L18.678 27.097M18.682 27.6107L18.9402 27.3518L18.4197 27.3559C18.4198 27.3559 18.4198 27.3559 18.4198 27.3559L18.682 27.6107ZM25.9276 30.1362L23.8709 32.1983L23.3548 31.6866L25.4157 29.6203C25.5569 29.4788 25.7865 29.4788 25.9276 29.6203C26.0693 29.7623 26.0693 29.9942 25.9276 30.1362Z" fill="#121212" stroke="#121212" stroke-width="0.731254"/>
<path d="M20.2347 27.6098L20.4936 27.8614L20.7485 27.6057L24.9889 23.3516C25.4153 22.9242 25.4153 22.2303 24.9889 21.8029C24.5621 21.3749 23.8684 21.3749 23.4416 21.8029L23.4415 21.803L19.1849 26.0733L18.9235 26.3355L19.189 26.5936L20.2347 27.6098Z" fill="#393939" stroke="#393939" stroke-width="0.731254"/>
<path d="M43.2303 51.6058C42.6019 50.9685 41.9459 50.3051 41.2593 49.6168C40.8325 49.1888 40.1388 49.1888 39.7119 49.6168C39.2856 50.0442 39.2856 50.738 39.7119 51.1655L39.712 51.1655C42.4071 53.8669 44.6959 56.2265 46.3174 57.918C47.1282 58.7637 47.7722 59.4423 48.2166 59.913C48.4389 60.1484 48.6113 60.3317 48.7297 60.458L48.8663 60.6039L48.9033 60.6435L48.9136 60.6546L48.9167 60.6579L48.9176 60.6589L48.9179 60.6592L48.9177 60.6594L48.9274 60.6691C49.4993 61.2442 50.2788 61.5552 51.1134 61.5552C51.9619 61.5552 52.833 61.226 53.3897 60.6662L53.3908 60.665L60.6681 53.2827C60.6684 53.2824 60.6686 53.2822 60.6689 53.2819C61.7101 52.2372 61.7945 50.4487 60.7822 49.4303L60.7817 49.4298L51.0154 39.6397C51.0154 39.6397 51.0154 39.6397 51.0154 39.6396C50.5886 39.2117 49.8949 39.2117 49.468 39.6397C49.0417 40.0671 49.0417 40.761 49.468 41.1884L49.4681 41.1884L59.2343 50.9786C59.2344 50.9786 59.2344 50.9786 59.2344 50.9786C59.2796 51.0239 59.3275 51.133 59.3124 51.3027C59.2977 51.4667 59.227 51.6289 59.1193 51.7369L59.1178 51.7384L51.8379 59.1219C51.8378 59.122 51.8377 59.1221 51.8376 59.1222C51.7471 59.2134 51.4653 59.3638 51.1134 59.3638C50.9122 59.3638 50.6705 59.3134 50.497 59.1412C50.4279 59.067 49.9162 58.5205 49.0607 57.6211L54.116 52.5526C54.5423 52.1252 54.5423 51.4313 54.116 51.0039C53.6892 50.5759 52.9955 50.5759 52.5686 51.0039L47.5474 56.0381C46.7514 55.2097 45.8138 54.2409 44.7649 53.1672L46.8336 51.0931C46.8337 51.093 46.8338 51.0929 46.8339 51.0928C47.2615 50.6659 47.2595 49.9738 46.8349 49.5459L46.8342 49.5452C46.4074 49.1172 45.7137 49.1172 45.2869 49.5452L43.2303 51.6058ZM48.0534 56.5663L53.0864 51.5203C53.2275 51.3788 53.4571 51.3788 53.5983 51.5203C53.7399 51.6623 53.7399 51.8942 53.5983 52.0362L48.5557 57.0918L48.0534 56.5663Z" fill="#121212" stroke="#121212" stroke-width="0.731254"/>
<path d="M49.3041 56.8501L49.5629 57.1208L49.8273 56.8556L54.1159 52.5531C54.5423 52.1257 54.5423 51.4318 54.1159 51.0044C53.6891 50.5765 52.9954 50.5765 52.5685 51.0044L52.5685 51.0045L48.3016 55.2851L48.0496 55.5379L48.2963 55.7959L49.3041 56.8501Z" fill="#393939" stroke="#393939" stroke-width="0.731254"/>
<path d="M16.2453 59.5803L16.244 59.579C15.9696 59.3026 15.871 58.8994 15.9946 58.5278C15.9948 58.5271 15.9951 58.5263 15.9954 58.5255L20.4575 44.6599L20.4581 44.6581C20.5102 44.4989 20.6007 44.3571 20.7184 44.242L20.719 44.2415L43.7712 21.8151C43.7873 21.7873 43.8241 21.7258 43.8805 21.6707L49.0413 16.6283C49.9949 15.6965 51.6393 15.6965 52.593 16.6282C52.593 16.6282 52.593 16.6282 52.593 16.6283L59.8182 23.6864C60.2936 24.1492 60.5596 24.7705 60.5596 25.4318C60.5596 26.0945 60.2936 26.7153 59.8191 27.1804L59.8188 27.1808L54.955 31.9353C54.94 31.9614 54.9039 32.0228 54.8475 32.078L16.2453 59.5803ZM16.2453 59.5803C16.4489 59.7834 16.721 59.8893 16.9976 59.8893C17.0988 59.8893 17.1994 59.8749 17.2972 59.8465L17.3056 59.844L17.314 59.8411L31.2108 55.0581C31.3759 55.0087 31.5255 54.921 31.6489 54.7988C31.6492 54.7985 31.6495 54.7982 31.6499 54.7978L54.8472 32.0783L16.2453 59.5803ZM23.5669 44.3904L44.6672 23.868L48.7196 27.6895L52.5996 31.3484L31.274 52.2308L30.6497 50.1141L30.618 50.0067L30.5316 49.9354L29.4715 49.0615L29.3702 48.978H29.2389H26.4369V46.196V46.0669L26.3557 45.9663L25.4944 44.8996L25.4141 44.8L25.2891 44.7723L23.5669 44.3904ZM58.3317 25.7058L54.0791 29.8642L46.1491 22.3873L50.5295 18.1048C50.5296 18.1047 50.5296 18.1047 50.5296 18.1047C50.6788 17.959 50.9584 17.959 51.1075 18.1048L58.3332 25.1647C58.4085 25.2383 58.4481 25.3331 58.4481 25.4345C58.4481 25.5344 58.4086 25.6306 58.3318 25.7057L58.3317 25.7058ZM18.6334 57.2475L22.1673 46.2113L24.3254 46.6903V50.018C24.3254 50.6001 24.8063 51.0579 25.3811 51.0579H28.7296L29.4292 53.4301L18.6334 57.2475Z" fill="#121212" stroke="#121212" stroke-width="0.731254"/>
<path d="M24.6384 31.9507L24.8975 32.2076L25.155 31.949L26.4453 30.6526C26.4454 30.6525 26.4455 30.6525 26.4456 30.6524C26.4456 30.6524 26.4456 30.6524 26.4456 30.6524C26.8716 30.2249 26.8716 29.5312 26.4453 29.1039C26.0185 28.6759 25.3248 28.6759 24.8979 29.1039L24.8977 29.1042L23.6012 30.4067L23.3428 30.6663L23.6029 30.9243L24.6384 31.9507Z" fill="#5F5F5F" stroke="#5F5F5F" stroke-width="0.731254"/>
</g>
<defs>
<clipPath id="clip0_350_11">
<rect width="47.9897" height="48.125" fill="white" transform="translate(14 13.8301)"/>
</clipPath>
</defs>
</svg>
