<svg width="80" height="80" viewBox="0 0 80 80" fill="none" xmlns="http://www.w3.org/2000/svg">
<rect width="80" height="80" rx="40" fill="white"/>
<rect x="0.25" y="0.25" width="79.5" height="79.5" rx="39.75" stroke="#0A1012" stroke-opacity="0.5" stroke-width="0.5"/>
<g clip-path="url(#clip0_403_110)">
<path d="M30.2026 37.3817C29.5728 36.7505 28.9701 36.1494 28.3946 35.5767L30.1417 33.8258C30.511 33.4557 30.511 32.8549 30.1417 32.4848C29.772 32.1143 29.1713 32.1143 28.8016 32.4848L27.0482 34.242C26.1389 33.3429 25.3237 32.543 24.6316 31.8661L28.8974 27.5908C29.2667 27.2207 29.2667 26.6199 28.8974 26.2498C28.5278 25.8793 27.927 25.8793 27.5574 26.2498L23.2723 30.5444C22.6379 29.9293 22.2273 29.5348 22.0952 29.408L22.062 29.376L22.0534 29.3678L22.0526 29.367C21.9673 29.2806 21.8516 29.0933 21.8196 28.8744C21.7898 28.6716 21.83 28.4401 22.0541 28.2155L28.2753 21.9806L28.2753 21.9806L28.2771 21.9788C28.3791 21.875 28.5462 21.7428 28.7362 21.6987C28.8959 21.6617 29.1162 21.6749 29.39 21.9443C29.5644 22.1421 32.6751 25.6681 37.3644 30.3679C37.7341 30.7384 38.3348 30.7384 38.7045 30.3679C39.0738 29.9978 39.0738 29.3969 38.7045 29.0268L38.7045 29.0268C34.0138 24.327 30.922 20.817 30.782 20.658L30.7819 20.6579L30.7819 20.6579L30.7789 20.6546L30.7779 20.6534L30.7776 20.6531L30.7776 20.653L30.7776 20.653L30.7775 20.653L30.7775 20.653L30.7708 20.6453L30.7635 20.6381C30.1204 19.9949 29.3896 19.7537 28.6947 19.8044C28.0097 19.8544 27.387 20.1856 26.9352 20.6383L20.7128 26.8733L20.7127 26.8734C19.5122 28.078 19.7786 29.7734 20.7229 30.7184L20.7229 30.7185L20.7277 30.7231L20.7277 30.7231L20.7278 30.7232L20.7278 30.7232L20.7279 30.7233L20.7286 30.724L20.7311 30.7264L20.7398 30.7347L20.7399 30.7348L20.7399 30.7348C20.964 30.9498 24.2691 34.1203 28.8613 38.7227C29.0475 38.9093 29.291 39.0003 29.532 39.0003C29.7744 39.0003 30.0168 38.9071 30.2015 38.7239L30.2026 38.7227C30.5719 38.3526 30.5719 37.7518 30.2026 37.3817ZM27.5104 34.6996L29.262 32.9441C29.3776 32.8283 29.5657 32.8283 29.6813 32.9441C29.7972 33.0604 29.7972 33.2502 29.6813 33.3664L27.9331 35.1184L27.5104 34.6996ZM28.437 27.1314L24.1658 31.4121L23.7389 30.9975L28.0178 26.7092C28.1333 26.5934 28.3215 26.5934 28.437 26.7092C28.553 26.8254 28.553 27.0152 28.437 27.1314Z" fill="#0A1012" stroke="#0A1012" stroke-width="0.650387"/>
<path d="M24.8177 31.2273L25.0479 31.451L25.2746 31.2237L28.8974 27.5906C28.8975 27.5905 28.8975 27.5905 28.8975 27.5905C29.2667 27.2204 29.2667 26.6196 28.8974 26.2496C28.5278 25.8791 27.927 25.8791 27.5574 26.2496L27.5573 26.2496L23.9207 29.8966L23.688 30.1299L23.9243 30.3594L24.8177 31.2273Z" fill="#0A1012" stroke="#0A1012" stroke-width="0.650387"/>
<path d="M50.6903 58.1377C50.6305 58.0734 50.1966 57.6103 49.472 56.8487L53.7821 52.529C54.1514 52.1589 54.1514 51.5581 53.7821 51.188C53.4124 50.8175 52.8117 50.8175 52.442 51.188L48.1613 55.4782C47.4855 54.7751 46.6906 53.9541 45.802 53.0449L47.5603 51.2826C47.5604 51.2826 47.5605 51.2825 47.5606 51.2824C47.931 50.9127 47.9293 50.3134 47.5615 49.9429L47.5609 49.9423C47.1913 49.5718 46.5906 49.5718 46.2209 49.9422C46.2209 49.9422 46.2209 49.9423 46.2208 49.9423L44.4729 51.693C43.9388 51.1515 43.3813 50.588 42.798 50.0034C42.4283 49.6329 41.8276 49.6329 41.4579 50.0034C41.0886 50.3735 41.0886 50.9743 41.4579 51.3444L41.4579 51.3444C43.7604 53.6514 45.7158 55.6665 47.1011 57.111C47.7938 57.8333 48.3439 58.4128 48.7237 58.8148C48.9135 59.0158 49.0608 59.1724 49.162 59.2802L49.2787 59.4048L49.3102 59.4386L49.3191 59.4481L49.3217 59.4509L49.3224 59.4517L49.3227 59.4519L49.3225 59.4521L49.3311 59.4607C49.8223 59.9545 50.4916 60.2212 51.2078 60.2212C51.9356 60.2212 52.6832 59.9391 53.1616 59.4582L53.1626 59.4572L59.3799 53.1525C59.3801 53.1524 59.3803 53.1522 59.3805 53.152C60.2745 52.2553 60.3479 50.7196 59.4774 49.8442L59.4769 49.8438L51.1331 41.4827C51.1331 41.4827 51.1331 41.4827 51.1331 41.4827C50.7634 41.1122 50.1627 41.1122 49.793 41.4827C49.4238 41.8528 49.4238 42.4536 49.793 42.8237L49.7931 42.8237L58.1369 51.1848C58.1369 51.1848 58.1369 51.1848 58.1369 51.1848C58.172 51.22 58.2126 51.3088 58.1998 51.4513C58.1875 51.5886 58.1282 51.7242 58.0386 51.814L58.0373 51.8154L51.8177 58.1211C51.7434 58.1961 51.5058 58.3238 51.2078 58.3238C51.0376 58.3238 50.8352 58.2812 50.6903 58.1377ZM48.6115 55.9479L52.9024 51.6474C53.018 51.5316 53.2061 51.5316 53.3217 51.6474C53.4377 51.7637 53.4377 51.9534 53.3217 52.0697L49.0228 56.378L48.6115 55.9479Z" fill="#0A1012" stroke="#0A1012" stroke-width="0.650387"/>
<path d="M49.6621 56.1902L49.8832 56.4214L50.1091 56.1949L53.7731 52.5205C53.7731 52.5204 53.7731 52.5204 53.7731 52.5204C54.1373 52.1553 54.1373 51.5626 53.7731 51.1976C53.4084 50.8321 52.8158 50.8321 52.4511 51.1976L52.4511 51.1976L48.8057 54.8534L48.5903 55.0694L48.8011 55.2899L49.6621 56.1902Z" fill="#0A1012" stroke="#0A1012" stroke-width="0.624747"/>
<path d="M21.4081 58.5298L21.4092 58.5309C21.5857 58.7068 21.8214 58.7985 22.061 58.7985C22.1486 58.7985 22.2358 58.786 22.3205 58.7614L22.328 58.7592L22.3354 58.7567L34.2079 54.672C34.3509 54.6291 34.4805 54.5532 34.5874 54.4473C34.5876 54.4471 34.5879 54.4468 34.5881 54.4465L54.4067 35.0436C54.4553 34.9961 54.4867 34.9435 54.5001 34.9201L58.6542 30.8609L58.6545 30.8606C59.0622 30.461 59.291 29.9275 59.291 29.358C59.291 28.7897 59.0623 28.2558 58.6538 27.8581C58.6538 27.8581 58.6537 27.8581 58.6537 27.858L52.4809 21.8302C51.6611 21.0296 50.2483 21.0296 49.4286 21.8302L45.0195 26.1366C44.971 26.1839 44.9391 26.2365 44.9249 26.2611L25.2315 45.4126L25.231 45.4131C25.1289 45.5127 25.0505 45.6357 25.0053 45.7737L25.0048 45.7753L21.1926 57.6167C21.1923 57.6173 21.1921 57.618 21.1919 57.6187C21.0847 57.9407 21.1702 58.2903 21.4081 58.5298ZM27.6996 45.5416L45.7006 28.0402L49.1539 31.2956L52.4589 34.4111L34.2643 52.2208L33.7369 50.4336L33.7087 50.338L33.6318 50.2747L32.7262 49.5284L32.6361 49.4541H32.5194H30.1383V47.0912V46.9762L30.066 46.8868L29.3302 45.9758L29.2587 45.8873L29.1476 45.8626L27.6996 45.5416ZM53.7414 33.1255L46.9852 26.7577L50.7179 23.1098C50.8404 22.9902 51.0714 22.9902 51.1939 23.1098L57.3671 29.1391C57.429 29.1996 57.4614 29.2773 57.4614 29.3603C57.4614 29.442 57.4291 29.5209 57.366 29.5826L57.3659 29.5827L53.7414 33.1255ZM23.4787 56.5086L26.4863 47.1193L28.3086 47.5237V50.3552C28.3086 50.8598 28.7257 51.2562 29.2234 51.2562H32.0746L32.6662 53.2611L23.4787 56.5086Z" fill="#0A1012" stroke="#0A1012" stroke-width="0.650387"/>
<path d="M28.5799 34.9352L28.8104 35.1637L29.0393 34.9337L30.1417 33.8262C30.1418 33.8261 30.1418 33.8261 30.1419 33.826C30.5109 33.4558 30.5109 32.855 30.1417 32.4849C29.772 32.1142 29.1712 32.1142 28.8015 32.4849L28.8013 32.4851L27.6937 33.5979L27.4638 33.8289L27.6952 34.0583L28.5799 34.9352Z" fill="#0A1012" stroke="#0A1012" stroke-width="0.650387"/>
</g>
<defs>
<clipPath id="clip0_403_110">
<rect width="41" height="41.1" fill="white" transform="translate(19.5 19.45)"/>
</clipPath>
</defs>
</svg>
