<svg width="75" height="75" viewBox="0 0 75 75" fill="none" xmlns="http://www.w3.org/2000/svg">
<rect x="0.75" y="0.75" width="73.5" height="73.5" rx="7.0451" fill="#F0F0F0" stroke="#CCCCCC" stroke-width="1.5"/>
<g clip-path="url(#clip0_350_66)">
<path d="M22.1213 17.8403H21.9612V18.0004V57.9996V58.1597H22.1213H40.0201V61.8399H18.2679V14.1601H58.0789V33.8401H54.3861V18.0004V17.8403H54.226H22.1213Z" fill="#121212" stroke="#F0F0F0" stroke-width="0.320131"/>
<path d="M51.1441 57.6709L51.2155 57.7065L51.2869 57.6709L51.6973 57.4664C55.8302 55.4067 58.3985 51.2651 58.3985 46.6586V44.3054V44.2063L58.3098 44.1622L51.2869 40.6622L51.2155 40.6266L51.1441 40.6622L44.1211 44.1622L44.0325 44.2063V44.3054V46.6586C44.0325 51.2646 46.6007 55.4067 50.7337 57.4664L51.1441 57.6709ZM40.3396 41.9326L51.2155 36.512L62.0913 41.9326V46.6592C62.0913 52.6297 58.7071 58.0879 53.3492 60.7581C53.3492 60.7581 53.3492 60.7581 53.3492 60.7581L51.2155 61.8212L49.0818 60.7581C49.0818 60.7581 49.0818 60.7581 49.0818 60.7581C43.7239 58.0879 40.3396 52.6297 40.3396 46.6592V41.9326Z" fill="#121212" stroke="#F0F0F0" stroke-width="0.320131"/>
<path d="M26.1338 34.0002H43.1462V38H26.1338V34.0002Z" fill="#393939"/>
<path fill-rule="evenodd" clip-rule="evenodd" d="M48.1831 47.363L46.1898 49.6112L51.3061 54.1191L57.5571 46.9501L55.2861 44.9814L51.0263 49.8671L48.1831 47.363ZM26.1338 24.0001H50.2126V27.9999H26.1338V24.0001Z" fill="#121212"/>
<path d="M26.1338 43.9998H36.0802V47.9996H26.1338V43.9998Z" fill="#5F5F5F"/>
<path d="M57.3309 46.9659L51.2912 53.8926L46.4161 49.5972L48.197 47.5886L50.9205 49.9873L51.0412 50.0936L51.1469 49.9723L55.3019 45.2069L57.3309 46.9659ZM26.2939 24.1602H50.0525V27.8399H26.2939V24.1602ZM26.2939 34.1603H42.9861V37.84H26.2939V34.1603ZM26.2939 44.1598H35.9202V47.8395H26.2939V44.1598Z" stroke="#F0F0F0" stroke-width="0.320131"/>
</g>
<defs>
<clipPath id="clip0_350_66">
<rect width="44.64" height="48" fill="white" transform="translate(18 14)"/>
</clipPath>
</defs>
</svg>
