<svg width="100" height="76" viewBox="0 0 100 76" fill="none" xmlns="http://www.w3.org/2000/svg">
<mask id="path-1-inside-1_5_270" fill="white">
<path fill-rule="evenodd" clip-rule="evenodd" d="M100 76V0L46.6676 46L0 0V76H100Z"/>
</mask>
<path fill-rule="evenodd" clip-rule="evenodd" d="M100 76V0L46.6676 46L0 0V76H100Z" fill="#303030"/>
<path d="M100 0H101V-2.18309L99.3469 -0.757243L100 0ZM100 76V77H101V76H100ZM46.6676 46L45.9656 46.7122L46.6224 47.3596L47.3207 46.7572L46.6676 46ZM0 0L0.701995 -0.712182L-1 -2.38983L-1 0H0ZM0 76H-1V77H0V76ZM99 0V76H101V0H99ZM47.3207 46.7572L100.653 0.757243L99.3469 -0.757243L46.0144 45.2428L47.3207 46.7572ZM-0.701995 0.712182L45.9656 46.7122L47.3696 45.2878L0.701995 -0.712182L-0.701995 0.712182ZM1 76V0H-1V76H1ZM100 75H0V77H100V75Z" fill="#303030" mask="url(#path-1-inside-1_5_270)"/>
<path d="M9.20711 0.5H49.4601L46.5849 37.8777L9.20711 0.5ZM47.5918 37.8254L50.463 0.5H90.6596L47.5918 37.8254Z" fill="#303030" stroke="#303030"/>
<rect width="100" height="5" fill="#303030"/>
</svg>
