<svg width="57" height="56" viewBox="0 0 57 56" fill="none" xmlns="http://www.w3.org/2000/svg">
<rect x="1.30504" y="0.5" width="55" height="55" rx="27.5" fill="#151B1D" stroke="#383D3F"/>
<g clip-path="url(#clip0_403_156)">
<path fill-rule="evenodd" clip-rule="evenodd" d="M16.9887 20.5359C16.9852 20.6263 16.9834 20.7171 16.9834 20.8083V34.5293C16.9834 38.3336 20.0674 41.4176 23.8717 41.4176H33.3432C37.1475 41.4176 40.2315 38.3337 40.2315 34.5293V20.8083C40.2315 17.004 37.1475 13.92 33.3432 13.92H25.0471L16.9887 20.5359Z" fill="white" fill-opacity="0.35"/>
<path d="M35.4156 13.0034H25.9542H25.2214L24.7033 13.5203L17.5405 20.6676L17.0225 21.1845V21.9157V36.6507C17.0225 39.2791 19.1653 41.4176 21.7998 41.4176H35.4156C38.0496 41.4176 40.1925 39.2791 40.1925 36.6507V17.7703C40.1925 15.1416 38.0496 13.0034 35.4156 13.0034ZM38.4236 36.6506C38.4236 38.3087 37.0769 39.6525 35.4156 39.6525H21.7998C20.1381 39.6525 18.7914 38.3087 18.7914 36.6506V21.9156H23.4475C24.8315 21.9156 25.9542 20.7958 25.9542 19.4144V14.7684H35.4156C37.0769 14.7684 38.4236 16.1122 38.4236 17.7703V36.6506Z" fill="url(#paint0_linear_403_156)"/>
<path d="M34.7709 18.1741H29.8002V23.1339H34.7709V18.1741Z" fill="url(#paint1_linear_403_156)"/>
<path d="M34.7709 25.9114H22.4437V27.3001H34.7709V25.9114Z" fill="url(#paint2_linear_403_156)"/>
<path d="M34.7709 29.8793H22.4437V31.268H34.7709V29.8793Z" fill="url(#paint3_linear_403_156)"/>
<path d="M34.7709 33.8472H22.4437V35.2359H34.7709V33.8472Z" fill="url(#paint4_linear_403_156)"/>
</g>
<defs>
<linearGradient id="paint0_linear_403_156" x1="28.6075" y1="13.0034" x2="28.6075" y2="41.4176" gradientUnits="userSpaceOnUse">
<stop stop-color="white"/>
<stop offset="1" stop-color="#E2E2E2"/>
</linearGradient>
<linearGradient id="paint1_linear_403_156" x1="32.2856" y1="18.1741" x2="32.2856" y2="23.1339" gradientUnits="userSpaceOnUse">
<stop stop-color="white"/>
<stop offset="1" stop-color="#E2E2E2"/>
</linearGradient>
<linearGradient id="paint2_linear_403_156" x1="28.6073" y1="25.9114" x2="28.6073" y2="27.3001" gradientUnits="userSpaceOnUse">
<stop stop-color="white"/>
<stop offset="1" stop-color="#E2E2E2"/>
</linearGradient>
<linearGradient id="paint3_linear_403_156" x1="28.6073" y1="29.8793" x2="28.6073" y2="31.268" gradientUnits="userSpaceOnUse">
<stop stop-color="white"/>
<stop offset="1" stop-color="#E2E2E2"/>
</linearGradient>
<linearGradient id="paint4_linear_403_156" x1="28.6073" y1="33.8472" x2="28.6073" y2="35.2359" gradientUnits="userSpaceOnUse">
<stop stop-color="white"/>
<stop offset="1" stop-color="#E2E2E2"/>
</linearGradient>
<clipPath id="clip0_403_156">
<rect width="23.2481" height="28.4142" fill="white" transform="translate(16.9834 13.0034)"/>
</clipPath>
</defs>
</svg>
