<svg width="57" height="56" viewBox="0 0 57 56" fill="none" xmlns="http://www.w3.org/2000/svg">
<rect x="1.30504" y="0.5" width="55" height="55" rx="27.5" fill="#151B1D" stroke="#383D3F"/>
<path d="M36.4474 31.4192C35.8908 30.8437 35.2196 30.536 34.5081 30.536C33.8025 30.536 33.1255 30.838 32.546 31.4135L30.733 33.2083C30.5838 33.1285 30.4347 33.0544 30.2912 32.9804C30.0847 32.8778 29.8896 32.781 29.7232 32.6784C28.025 31.6072 26.4816 30.2113 25.0014 28.4051C24.2842 27.5048 23.8023 26.747 23.4523 25.9778C23.9228 25.5505 24.3588 25.1061 24.7834 24.6787C24.944 24.5192 25.1047 24.354 25.2653 24.1944C26.4702 22.9979 26.4702 21.4481 25.2653 20.2516L23.699 18.6961C23.5212 18.5195 23.3376 18.3371 23.1655 18.1548C22.8212 17.8015 22.4598 17.4369 22.0869 17.095C21.5303 16.548 20.8648 16.2574 20.1648 16.2574C19.4649 16.2574 18.7879 16.548 18.2142 17.095C18.2084 17.1007 18.2084 17.1007 18.2027 17.1064L16.252 19.0607C15.5176 19.7901 15.0988 20.6789 15.007 21.7102C14.8693 23.374 15.3627 24.9237 15.7414 25.9379C16.6708 28.4279 18.0593 30.7355 20.1304 33.2083C22.6434 36.1882 25.6669 38.5414 29.1208 40.1994C30.4404 40.8205 32.2017 41.5555 34.1696 41.6809C34.2901 41.6866 34.4163 41.6923 34.5311 41.6923C35.8564 41.6923 36.9695 41.2193 37.8415 40.2792C37.8473 40.2678 37.8587 40.2621 37.8645 40.2507C38.1628 39.8918 38.5071 39.567 38.8685 39.2194C39.1152 38.9858 39.3677 38.7408 39.6144 38.4844C40.1824 37.8975 40.4807 37.2138 40.4807 36.513C40.4807 35.8065 40.1766 35.1284 39.5971 34.5587L36.4474 31.4192ZM38.5013 37.4189C38.4956 37.4246 38.4956 37.4189 38.5013 37.4189C38.2776 37.6582 38.0481 37.8748 37.8014 38.1141C37.4284 38.4673 37.0498 38.8377 36.6941 39.2536C36.1146 39.869 35.4319 40.1596 34.5368 40.1596C34.4508 40.1596 34.359 40.1596 34.2729 40.1539C32.5689 40.0456 30.9854 39.3847 29.7978 38.8206C26.5505 37.2594 23.699 35.043 21.3295 32.234C19.3731 29.8922 18.065 27.727 17.1987 25.4024C16.6651 23.9836 16.47 22.8782 16.5561 21.8356C16.6134 21.1689 16.8716 20.6162 17.3478 20.1433L19.3043 18.2004C19.5854 17.9383 19.8837 17.7958 20.1763 17.7958C20.5378 17.7958 20.8304 18.0124 21.014 18.1947C21.0197 18.2004 21.0254 18.2061 21.0312 18.2118C21.3812 18.5366 21.7139 18.8727 22.0639 19.2317C22.2418 19.414 22.4254 19.5963 22.6089 19.7844L24.1752 21.3399C24.7834 21.9438 24.7834 22.5022 24.1752 23.1062C24.0089 23.2714 23.8482 23.4366 23.6818 23.5962C23.1999 24.0862 22.7409 24.542 22.2418 24.9864C22.2303 24.9978 22.2188 25.0035 22.2131 25.0149C21.7197 25.5049 21.8115 25.9835 21.9147 26.3083C21.9205 26.3254 21.9262 26.3425 21.9319 26.3596C22.3393 27.3396 22.913 28.2626 23.7851 29.3623L23.7908 29.368C25.3743 31.3052 27.0439 32.8151 28.8856 33.9718C29.1208 34.1199 29.3618 34.2396 29.5913 34.3535C29.7978 34.4561 29.9929 34.553 30.1593 34.6555C30.1822 34.6669 30.2052 34.684 30.2281 34.6954C30.4232 34.7923 30.6068 34.8378 30.7961 34.8378C31.2723 34.8378 31.5706 34.5416 31.6682 34.4447L33.6303 32.4961C33.8254 32.3023 34.1352 32.0687 34.4967 32.0687C34.8524 32.0687 35.145 32.2909 35.3228 32.4847C35.3286 32.4904 35.3286 32.4904 35.3343 32.4961L38.4956 35.6355C39.0865 36.2167 39.0865 36.815 38.5013 37.4189Z" fill="url(#paint0_linear_403_144)"/>
<path d="M38.5013 37.4189C38.2776 37.6582 38.0481 37.8748 37.8014 38.1141C37.4284 38.4673 37.0498 38.8377 36.6941 39.2536C36.1146 39.869 35.4319 40.1596 34.5368 40.1596C34.4508 40.1596 34.359 40.1596 34.2729 40.1539C32.5689 40.0456 30.9854 39.3847 29.7978 38.8206C26.5505 37.2594 23.699 35.043 21.3295 32.234C19.3731 29.8922 18.065 27.727 17.1987 25.4024C16.6651 23.9836 16.47 22.8782 16.5561 21.8356C16.6134 21.1689 16.8716 20.6162 17.3478 20.1433L19.3043 18.2004C19.5854 17.9383 19.8837 17.7958 20.1763 17.7958C20.5378 17.7958 20.8304 18.0124 21.014 18.1947L21.0312 18.2118C21.3812 18.5366 21.7139 18.8727 22.0639 19.2317C22.2418 19.414 22.4254 19.5963 22.6089 19.7844L24.1752 21.3399C24.7834 21.9438 24.7834 22.5022 24.1752 23.1062C24.0089 23.2714 23.8482 23.4366 23.6818 23.5962C23.1999 24.0862 22.7409 24.542 22.2418 24.9864C22.2303 24.9978 22.2188 25.0035 22.2131 25.0149C21.7197 25.5049 21.8115 25.9835 21.9147 26.3083L21.9319 26.3596C22.3393 27.3396 22.913 28.2626 23.7851 29.3623L23.7908 29.368C25.3743 31.3052 27.0439 32.8151 28.8856 33.9718C29.1208 34.1199 29.3618 34.2396 29.5913 34.3535C29.7978 34.4561 29.9929 34.553 30.1593 34.6555C30.1822 34.6669 30.2052 34.684 30.2281 34.6954C30.4232 34.7923 30.6068 34.8378 30.7961 34.8378C31.2723 34.8378 31.5706 34.5416 31.6682 34.4447L33.6303 32.4961C33.8254 32.3023 34.1352 32.0687 34.4967 32.0687C34.8524 32.0687 35.145 32.2909 35.3228 32.4847L35.3343 32.4961L38.4956 35.6355C39.0865 36.2167 39.0865 36.815 38.5013 37.4189Z" fill="url(#paint1_linear_403_144)"/>
<path d="M30.0251 21.0542C31.5283 21.3049 32.8938 22.0114 33.9838 23.094C35.0739 24.1766 35.7796 25.5327 36.0378 27.0255C36.1009 27.4015 36.4279 27.6636 36.8009 27.6636C36.8468 27.6636 36.8869 27.6579 36.9328 27.6522C37.3574 27.5839 37.6385 27.185 37.5697 26.7634C37.2599 24.9572 36.3993 23.3105 35.0854 22.0057C33.7716 20.701 32.1135 19.8463 30.2948 19.5386C29.8702 19.4702 29.4743 19.7494 29.3997 20.1654C29.3251 20.5813 29.6005 20.9859 30.0251 21.0542Z" fill="url(#paint2_linear_403_144)"/>
<path d="M42.1156 26.9087C41.605 23.9344 40.1936 21.228 38.0249 19.0742C35.8562 16.9205 33.131 15.5188 30.1361 15.0117C29.7173 14.9377 29.3214 15.2225 29.2468 15.6385C29.178 16.0601 29.4591 16.4533 29.8837 16.5273C32.5572 16.9775 34.9956 18.2367 36.9348 20.1568C38.874 22.0826 40.1362 24.5042 40.5895 27.1594C40.6526 27.5354 40.9796 27.7975 41.3526 27.7975C41.3984 27.7975 41.4386 27.7918 41.4845 27.7861C41.9033 27.7234 42.1902 27.3246 42.1156 26.9087Z" fill="url(#paint3_linear_403_144)"/>
<defs>
<linearGradient id="paint0_linear_403_144" x1="24.4561" y1="24.0833" x2="40.3687" y2="40.8999" gradientUnits="userSpaceOnUse">
<stop stop-color="white"/>
<stop offset="1" stop-color="#E2E2E2"/>
</linearGradient>
<linearGradient id="paint1_linear_403_144" x1="24.4561" y1="24.0833" x2="40.3687" y2="40.8999" gradientUnits="userSpaceOnUse">
<stop stop-color="white"/>
<stop offset="1" stop-color="#E2E2E2"/>
</linearGradient>
<linearGradient id="paint2_linear_403_144" x1="32.4312" y1="22.0314" x2="37.5195" y2="27.4333" gradientUnits="userSpaceOnUse">
<stop stop-color="white"/>
<stop offset="1" stop-color="#E2E2E2"/>
</linearGradient>
<linearGradient id="paint3_linear_403_144" x1="34.0257" y1="18.9375" x2="42.0298" y2="27.4374" gradientUnits="userSpaceOnUse">
<stop stop-color="white"/>
<stop offset="1" stop-color="#E2E2E2"/>
</linearGradient>
</defs>
</svg>
