<svg width="57" height="56" viewBox="0 0 57 56" fill="none" xmlns="http://www.w3.org/2000/svg">
<rect x="1.03479" y="0.229758" width="55.5405" height="55.5405" rx="27.7702" fill="#151B1D"/>
<rect x="1.03479" y="0.229758" width="55.5405" height="55.5405" rx="27.7702" stroke="#383D3F" stroke-width="0.459515"/>
<path fill-rule="evenodd" clip-rule="evenodd" d="M42.0087 26.808H32.3144V15.0655C32.3144 14.4769 31.8448 14 31.2655 14H21.819C21.2397 14 20.7701 14.4769 20.7701 15.0655V36.0532C20.7701 36.6418 21.2397 37.1187 21.819 37.1187H42.0087C42.5879 37.1187 43.0575 36.6418 43.0575 36.0532V27.8735C43.0575 27.2851 42.5879 26.808 42.0087 26.808Z" fill="url(#paint0_linear_403_150)"/>
<path d="M43.0574 40.3667C43.0574 40.1314 42.947 39.9056 42.7502 39.7392L41.8293 38.9601C41.4195 38.6137 40.7557 38.6136 40.3459 38.9603C40.171 39.1083 40.0714 39.2955 40.046 39.4886H22.8605C22.835 39.2955 22.7354 39.1083 22.5603 38.9601C22.1507 38.6137 21.4866 38.6137 21.0771 38.9601L20.2248 39.6812C19.983 39.8438 19.8273 40.0942 19.8273 40.3759C19.8273 40.3767 19.8274 40.3774 19.8275 40.3781C19.8275 40.3789 19.8276 40.3796 19.8276 40.3804C19.8276 40.3819 19.8273 40.3835 19.8273 40.385C19.8273 40.6203 19.9378 40.846 20.1346 41.0125L21.0555 41.7915C21.2603 41.9647 21.5287 42.0513 21.7971 42.0513C22.0654 42.0513 22.3339 41.9647 22.5388 41.7914C22.7138 41.6434 22.8132 41.4561 22.8388 41.2632H40.0243C40.0497 41.4561 40.1493 41.6435 40.3243 41.7915C40.529 41.9647 40.7975 42.0513 41.0659 42.0513C41.3342 42.0513 41.6027 41.9647 41.8075 41.7915L42.6593 41.0709C42.9015 40.9084 43.0573 40.6578 43.0573 40.3759C43.0573 40.3751 43.0572 40.3743 43.0572 40.3736L43.0571 40.3726L43.057 40.3713L43.0572 40.3697C43.0573 40.3687 43.0574 40.3677 43.0574 40.3667Z" fill="url(#paint1_linear_403_150)"/>
<path d="M18.9256 35.6102C19.2753 36.0263 19.2753 36.701 18.9256 37.117L18.1392 38.0526C17.9711 38.2525 17.7434 38.3647 17.5057 38.3647C17.5042 38.3647 17.5026 38.3645 17.5011 38.3645C17.4995 38.3645 17.498 38.3647 17.4965 38.3647C17.2121 38.3647 16.959 38.2065 16.7949 37.9604L16.0674 37.0948C15.7176 36.6787 15.7177 36.004 16.0674 35.5881C16.2168 35.4103 16.406 35.3093 16.6007 35.2833V17.0595C16.4058 17.0336 16.2168 16.9325 16.0673 16.7546C15.7175 16.3385 15.7176 15.6638 16.0673 15.2479L16.8537 14.3123C17.0296 14.1031 17.2606 13.9994 17.4912 14.0007C17.4928 14.0007 17.4945 14.0004 17.4963 14.0004C17.7806 14.0004 18.0336 14.1585 18.1977 14.4044L18.9253 15.27C19.2751 15.6861 19.2751 16.3608 18.9253 16.7768C18.7759 16.9545 18.5867 17.0558 18.3918 17.0816V35.3056C18.587 35.3313 18.7762 35.4325 18.9256 35.6102Z" fill="url(#paint2_linear_403_150)"/>
<defs>
<linearGradient id="paint0_linear_403_150" x1="23.8779" y1="14.4909" x2="42.1151" y2="36.4266" gradientUnits="userSpaceOnUse">
<stop offset="0.0001" stop-color="white"/>
<stop offset="1" stop-color="#E2E2E2"/>
</linearGradient>
<linearGradient id="paint1_linear_403_150" x1="23.0665" y1="38.7715" x2="23.68" y2="44.0778" gradientUnits="userSpaceOnUse">
<stop offset="0.0001" stop-color="white"/>
<stop offset="1" stop-color="#E2E2E2"/>
</linearGradient>
<linearGradient id="paint2_linear_403_150" x1="16.2767" y1="14.5177" x2="22.8523" y2="15.6568" gradientUnits="userSpaceOnUse">
<stop offset="0.0001" stop-color="white"/>
<stop offset="1" stop-color="#E2E2E2"/>
</linearGradient>
</defs>
</svg>
