<svg width="57" height="56" viewBox="0 0 57 56" fill="none" xmlns="http://www.w3.org/2000/svg">
<rect x="1.30504" y="0.5" width="55" height="55" rx="27.5" fill="#151B1D" stroke="#383D3F"/>
<path d="M28.0611 17.644C26.8143 20.4037 25.05 24.2205 24.9969 24.2606C24.9516 24.2976 20.1288 25.1232 18.0029 25.4608C16.4464 25.7045 15.9265 25.7958 15.9281 25.8187C15.9269 25.8299 16.03 25.935 16.1585 26.0503C16.564 26.4247 22.4737 32.0189 22.5247 32.0771C22.5655 32.1229 22.5271 32.4712 22.2539 34.4962C21.9041 37.1006 21.4274 40.601 21.3542 41.1086C21.3247 41.2912 21.3102 41.4375 21.3177 41.4382C21.3364 41.4401 25.1237 39.2712 27.4483 37.9236L29.3715 36.8081L29.5914 36.9175C29.7139 36.9791 30.5977 37.4133 31.5609 37.8858C32.5238 38.3621 34.2801 39.2293 35.4666 39.8154C36.6493 40.4011 37.6212 40.8631 37.6226 40.8481C37.6245 40.8294 37.4908 40.119 37.3301 39.2619C37.1653 38.4082 36.854 36.7443 36.6381 35.5673C36.4222 34.3903 36.1774 33.0854 36.0978 32.6683L35.9532 31.9151L37.2355 30.5869C37.9434 29.8595 39.3567 28.3931 40.378 27.3301C41.3993 26.2671 42.2641 25.37 42.2978 25.3355C42.3311 25.3048 42.3502 25.2651 42.3367 25.2486C42.3232 25.2321 41.5168 25.1238 40.5481 25.0106C39.0034 24.8313 36.6757 24.5349 34.0282 24.1833L33.2329 24.0762L31.8706 21.5295C31.1209 20.128 30.1454 18.2945 29.6956 17.4536C29.2494 16.6131 28.8719 15.9196 28.8607 15.9185C28.8495 15.9174 28.4884 16.6951 28.0611 17.644Z" fill="url(#paint0_linear_403_168)"/>
<path d="M36.9235 10.6523C36.0833 13.5154 34.4273 14.8424 31.8811 14.4526C31.9178 14.4635 31.9545 14.4743 31.9911 14.4851L31.9912 14.4851L31.9913 14.4852C34.0589 15.0956 36.1421 15.7107 35.6393 19.4379C36.0969 16.3264 37.9795 15.4233 40.6757 15.7487C38.0864 15.2604 36.3878 13.9579 36.9235 10.6523Z" fill="url(#paint1_linear_403_168)"/>
<path d="M15.2793 31.0459C15.6454 33.3369 14.927 34.828 13.0117 35.4177C13.041 35.4129 13.0703 35.408 13.0997 35.4032L13.0997 35.4032L13.0998 35.4032C14.7532 35.1303 16.419 34.8553 17.31 37.6375C16.5927 35.3021 17.6114 34.0313 19.6104 33.3457C17.632 33.881 16.0065 33.5438 15.2793 31.0459Z" fill="url(#paint2_linear_403_168)"/>
<path d="M42.6573 31.4406C42.3668 33.7747 41.247 35.0185 39.2173 35.0413C39.2472 35.045 39.2771 35.0488 39.307 35.0525L39.3071 35.0525L39.3071 35.0525C40.9925 35.2626 42.6907 35.4743 42.7721 38.4371C42.7336 35.9588 44.0833 35.0156 46.2215 34.9237C44.1458 34.8753 42.6597 34.0798 42.6573 31.4406Z" fill="url(#paint3_linear_403_168)"/>
<path d="M38.6496 18.4855C38.98 19.7172 38.653 20.5845 37.5995 21.0397C37.6159 21.035 37.6323 21.0303 37.6486 21.0257C38.5707 20.7623 39.4998 20.497 40.1539 21.962C39.6222 20.7301 40.1311 19.963 41.2269 19.4495C40.1347 19.8791 39.1957 19.8059 38.6496 18.4855Z" fill="url(#paint4_linear_403_168)"/>
<path d="M17.5086 13.3029C17.9417 16.9232 16.7214 19.2191 13.6776 20.0241C13.724 20.0184 13.7703 20.0127 13.8167 20.0069L13.8168 20.0069L13.8169 20.0069C16.4297 19.6827 19.0624 19.3561 20.2891 23.7806C19.3075 20.0685 20.9856 18.1374 24.1667 17.1871C21.0273 17.9028 18.4959 17.2708 17.5086 13.3029Z" fill="url(#paint5_linear_403_168)"/>
<defs>
<linearGradient id="paint0_linear_403_168" x1="26.2035" y1="39.2834" x2="33.9127" y2="14.8701" gradientUnits="userSpaceOnUse">
<stop stop-color="white"/>
<stop offset="1" stop-color="#E2E2E2"/>
</linearGradient>
<linearGradient id="paint1_linear_403_168" x1="36.2767" y1="11.4617" x2="36.7901" y2="20.1441" gradientUnits="userSpaceOnUse">
<stop stop-color="white"/>
<stop offset="1" stop-color="#E2E2E2"/>
</linearGradient>
<linearGradient id="paint2_linear_403_168" x1="15.0958" y1="31.8323" x2="18.3844" y2="37.7246" gradientUnits="userSpaceOnUse">
<stop stop-color="white"/>
<stop offset="1" stop-color="#E2E2E2"/>
</linearGradient>
<linearGradient id="paint3_linear_403_168" x1="42.2569" y1="32.1529" x2="43.7664" y2="38.8367" gradientUnits="userSpaceOnUse">
<stop stop-color="white"/>
<stop offset="1" stop-color="#E2E2E2"/>
</linearGradient>
<linearGradient id="paint4_linear_403_168" x1="38.5878" y1="18.9295" x2="40.7142" y2="21.973" gradientUnits="userSpaceOnUse">
<stop stop-color="white"/>
<stop offset="1" stop-color="#E2E2E2"/>
</linearGradient>
<linearGradient id="paint5_linear_403_168" x1="17.172" y1="14.5261" x2="21.9667" y2="23.9872" gradientUnits="userSpaceOnUse">
<stop stop-color="white"/>
<stop offset="1" stop-color="#E2E2E2"/>
</linearGradient>
</defs>
</svg>
