<svg xmlns="http://www.w3.org/2000/svg" viewBox="0 0 32.75 30.81"><defs><style>.a{fill:#ffd9b8;}</style></defs><title>star</title><path class="a" d="M32.61,11.72c-.11-.34-.55-.86-.9-.9L23,10a2.16,2.16,0,0,1-1.73-1.18L17.28.9c-.15-.32-.55-.9-.9-.9s-.76.57-.9.9l-4,8A2.17,2.17,0,0,1,9.77,10l-8.72.79c-.36,0-.8.56-.9.9s-.27.66,0,.9L7.27,19a2.13,2.13,0,0,1,.64,2.17L5.55,29.76c-.07.35.61.7.9.9s-.19,0,0,0a2.72,2.72,0,0,0,.9,0l7.91-4.74a2.16,2.16,0,0,1,2.22,0l7.91,4.74a.75.75,0,0,0,.9,0c.29-.2,1-.55.9-.9l-2.35-8.63A2.13,2.13,0,0,1,25.48,19l7.13-6.34C32.87,12.39,32.72,12.06,32.61,11.72Z"/></svg>