<svg width="80" height="80" viewBox="0 0 80 80" fill="none" xmlns="http://www.w3.org/2000/svg">
<rect width="80" height="80" rx="40" fill="white"/>
<rect x="0.25" y="0.25" width="79.5" height="79.5" rx="39.75" stroke="#0A1012" stroke-opacity="0.5" stroke-width="0.5"/>
<path d="M26.7993 57.4474H50.2993C50.3338 57.4474 50.372 57.4481 50.4095 57.4487C50.4579 57.4494 50.5052 57.4502 50.5424 57.4496C50.6136 57.4485 50.695 57.4433 50.7689 57.4154C50.8524 57.3838 50.9203 57.3257 50.9619 57.2362C50.9994 57.1558 51.011 57.0599 51.011 56.9564C51.011 56.8529 50.9994 56.757 50.9619 56.6766C50.9203 56.5871 50.8524 56.529 50.7689 56.4974C50.695 56.4695 50.6136 56.4643 50.5424 56.4632C50.5052 56.4626 50.4579 56.4634 50.4095 56.4641C50.372 56.4647 50.3338 56.4654 50.2993 56.4654H25.9683C25.4785 56.4654 25.0226 56.2074 24.6843 55.8044C24.346 55.4013 24.1377 54.8665 24.1377 54.3435V31.3019C24.1377 30.8375 23.7695 30.4533 23.3067 30.4533C22.8439 30.4533 22.4757 30.8375 22.4757 31.3019V54.3435C22.4757 56.0224 23.6092 57.4374 25.1373 57.8214V59.8078C25.1373 60.2721 25.5055 60.6564 25.9683 60.6564H53.9155C54.3791 60.6564 54.7465 60.272 54.7465 59.8078V57.8215C56.2748 57.438 57.4081 56.0223 57.4081 54.3435V22.9243C57.4082 20.9538 55.8456 19.3435 53.9155 19.3435H25.9683C24.0383 19.3435 22.4756 20.9538 22.4756 22.9243V27.4128C22.4756 27.8873 22.854 28.2304 23.3066 28.2304H53.1512C53.339 28.2304 53.5419 28.2127 53.7014 28.1254C53.785 28.0797 53.858 28.0142 53.9088 27.9234C53.9592 27.8335 53.9822 27.7289 53.9822 27.6128C53.9822 27.4969 53.9592 27.3924 53.908 27.3031C53.8563 27.2128 53.782 27.1491 53.6979 27.1057C53.5387 27.0234 53.336 27.0099 53.1512 27.0099H24.1377V22.9243C24.1377 21.882 24.9632 21.0408 25.9683 21.0408H53.9155C54.9206 21.0408 55.7462 21.882 55.7462 22.9243V54.3435C55.7462 55.3859 54.9206 56.227 53.9155 56.227C53.4519 56.227 53.0845 56.6114 53.0845 57.0756V58.9591H26.7993V57.4474Z" fill="#0A1012" stroke="#0A1012" stroke-width="0.331211"/>
<path d="M45.074 24.1564C45.074 24.9529 45.705 25.606 46.4879 25.606C47.2707 25.606 47.9018 24.953 47.9018 24.1564C47.9018 23.3598 47.2707 22.7067 46.4879 22.7067C45.705 22.7067 45.074 23.3598 45.074 24.1564Z" fill="#0A1012" stroke="#0A1012" stroke-width="0.232662"/>
<path d="M50.2638 24.1564C50.2638 24.9529 50.8948 25.606 51.6777 25.606C52.4605 25.606 53.0916 24.953 53.0916 24.1564C53.0916 23.3598 52.4606 22.7067 51.6777 22.7067C50.8949 22.7067 50.2638 23.3598 50.2638 24.1564Z" fill="#0A1012" stroke="#0A1012" stroke-width="0.232662"/>
<path d="M27.6733 23.3733C27.248 23.3733 26.9083 23.7271 26.9083 24.1563C26.9083 24.5855 27.248 24.9392 27.6733 24.9392H32.8635C33.2888 24.9392 33.6286 24.5855 33.6286 24.1563C33.6286 23.7271 33.2888 23.3733 32.8635 23.3733H27.6733Z" fill="#0A1012" stroke="#0A1012" stroke-width="0.232662"/>
<rect x="28.6265" y="31.4659" width="23.077" height="21.2088" fill="black" fill-opacity="0.075"/>
<path fill-rule="evenodd" clip-rule="evenodd" d="M28.6264 31.8292V47.73L44.9203 31.8292H28.6264Z" fill="black" fill-opacity="0.075"/>
<path d="M50.9511 53.7289C51.491 53.7289 51.9236 53.4998 52.2166 53.129C52.5058 52.763 52.6511 52.2701 52.6511 51.7436V32.7389C52.6511 32.2118 52.5053 31.7437 52.2105 31.4043C51.9126 31.0613 51.4799 30.8699 50.9511 30.8699H29.0491C28.5204 30.8699 28.0876 31.0613 27.7897 31.4043C27.4949 31.7437 27.3491 32.2118 27.3491 32.7389V51.7437C27.3491 52.2701 27.4944 52.7631 27.7837 53.1291C28.0767 53.4999 28.5093 53.729 29.0491 53.729L50.9511 53.7289ZM28.6763 51.7436V32.7389C28.6763 32.5182 28.8496 32.3486 29.0491 32.3486H50.9511C51.151 32.3486 51.3239 32.5181 51.3239 32.7389V51.7437C51.3239 51.8581 51.2769 51.993 51.1968 52.098C51.1157 52.2042 51.0252 52.2503 50.9511 52.2503H29.0491C28.9754 52.2503 28.8849 52.2043 28.8036 52.0979C28.7234 51.9929 28.6763 51.858 28.6763 51.7436Z" fill="#0A1012" stroke="#0A1012" stroke-width="0.407159"/>
</svg>
