<svg width="80" height="80" viewBox="0 0 80 80" fill="none" xmlns="http://www.w3.org/2000/svg">
<rect width="80" height="80" rx="40" fill="white"/>
<rect x="0.25" y="0.25" width="79.5" height="79.5" rx="39.75" stroke="#0A1012" stroke-opacity="0.5" stroke-width="0.5"/>
<g clip-path="url(#clip0_403_107)">
<path d="M43.5238 54.2727L43.5234 54.2728L43.8104 56.0096L43.8059 56.1389C43.8067 56.139 43.8074 56.139 43.8081 56.139C43.9138 56.1424 44.0194 56.1273 44.12 56.0943C44.1203 56.0942 44.1206 56.0941 44.1209 56.094L53.1668 53.2586L53.1668 53.2587L53.171 53.2572C53.4048 53.1749 53.5975 53.005 53.7083 52.7833C53.8192 52.5617 53.8396 52.3057 53.7651 52.0693C53.6907 51.833 53.5273 51.6348 53.3095 51.5166C53.0916 51.3983 52.8364 51.3693 52.5975 51.4356L52.5975 51.4355L52.5935 51.4368L43.5238 54.2727Z" fill="#0A1012" stroke="#0A1012" stroke-width="0.258824"/>
<path d="M43.5239 50.6776L43.5239 50.6776L43.5234 50.6777C43.306 50.7465 43.1204 50.8908 43 51.0844C42.8796 51.278 42.8325 51.5083 42.8671 51.7336C42.9018 51.9589 43.0159 52.1644 43.1888 52.313C43.3612 52.4612 43.5808 52.543 43.8081 52.544C43.9138 52.5474 44.0194 52.5322 44.1199 52.4992L49.9102 50.6878L49.9102 50.6878L49.9112 50.6875C50.1528 50.6099 50.3537 50.4394 50.4696 50.2137C50.5855 49.988 50.607 49.7255 50.5292 49.4839C50.4515 49.2424 50.2809 49.0416 50.0551 48.9258C49.8294 48.8101 49.567 48.7886 49.3256 48.8661C49.3254 48.8661 49.3252 48.8662 49.325 48.8662L43.5239 50.6776Z" fill="#0A1012" stroke="#0A1012" stroke-width="0.258824"/>
<path d="M25.2323 28.8256L25.3452 28.5927C25.3035 28.5721 25.2604 28.5549 25.2161 28.5411L25.1973 28.5353H25.1776H25.1446L25.1248 28.7926C25.1621 28.7983 25.1983 28.8095 25.2323 28.8256Z" fill="#0A1012" stroke="#0A1012" stroke-width="0.258824"/>
<path d="M33.3611 31.7706L33.1923 31.5762L33.1372 31.6148L33.1193 31.6273L33.1065 31.645C33.0465 31.728 32.9996 31.8196 32.9674 31.9168L32.9674 31.9168L32.9672 31.9171C32.9456 31.983 32.9341 32.0518 32.9332 32.1212L33.1912 32.1377C33.2071 32.0003 33.2666 31.8717 33.3611 31.7706Z" fill="#0A1012" stroke="#0A1012" stroke-width="0.258824"/>
<mask id="path-7-outside-1_403_107" maskUnits="userSpaceOnUse" x="17.3395" y="17.1042" width="45" height="45" fill="black">
<rect fill="white" x="17.3395" y="17.1042" width="45" height="45"/>
<path d="M61.7153 27.5633C61.7206 27.5323 61.7206 27.5007 61.7153 27.4697C61.7185 27.4385 61.7185 27.4072 61.7153 27.3761C61.7048 27.3457 61.6919 27.3163 61.6768 27.288C61.6369 27.1996 61.5787 27.1208 61.5059 27.0567L61.3847 27.0126C61.336 26.9742 61.2823 26.9427 61.2249 26.919H61.1808L46.8214 20.8617L40.5013 18.169H40.4517C40.4056 18.1493 40.3576 18.1346 40.3085 18.125C40.1925 18.0973 40.0717 18.0973 39.9558 18.125C39.9066 18.1346 39.8586 18.1493 39.8125 18.169H39.7795L18.841 26.8694C18.7904 26.8896 18.7424 26.9155 18.6977 26.9465C18.6663 26.9678 18.6384 26.9938 18.6151 27.0236C18.5916 27.036 18.5724 27.0552 18.56 27.0787C18.4715 27.1719 18.4071 27.2853 18.3726 27.4091C18.3505 27.4804 18.3394 27.5547 18.3395 27.6294V54.4741C18.3388 54.65 18.3946 54.8214 18.4988 54.9632C18.6029 55.105 18.75 55.2096 18.9181 55.2615L39.5591 61.7042L40.3415 61.7978L51.0422 58.4608L61.1092 55.3111C61.2727 55.2551 61.4142 55.1487 61.5132 55.0071C61.6122 54.8656 61.6637 54.6963 61.6602 54.5236V27.6679C61.682 27.6349 61.7005 27.5999 61.7153 27.5633ZM39.2174 59.8705L19.9871 53.8683V28.7417L23.9985 29.9972V41.1426C23.9986 41.3137 24.0516 41.4807 24.1502 41.6206C24.2488 41.7606 24.3883 41.8667 24.5495 41.9245L24.6762 41.9686H24.7423H24.7974C24.845 41.9743 24.8931 41.9743 24.9407 41.9686H25.0013C25.0193 41.9738 25.0384 41.9738 25.0564 41.9686C25.0837 41.9738 25.1117 41.9738 25.1391 41.9686L25.2658 41.93C25.2956 41.9176 25.3235 41.9009 25.3484 41.8805C25.3813 41.8634 25.4111 41.8411 25.4366 41.8144L25.4807 41.7758L29.2386 38.4719L33.0957 44.4851L33.1453 44.5677C33.2063 44.6647 33.2868 44.748 33.3816 44.8124C33.4765 44.8769 33.5836 44.921 33.6963 44.9421H33.9387C33.9623 44.9477 33.9868 44.9477 34.0104 44.9421C34.0284 44.947 34.0474 44.947 34.0655 44.9421H34.1316C34.1765 44.9257 34.2191 44.9035 34.2583 44.876C34.3024 44.8478 34.3431 44.8145 34.3795 44.7769L34.5118 44.6338C34.5387 44.605 34.5627 44.5736 34.5834 44.5401C34.6165 44.4968 34.6426 44.4485 34.6606 44.397C34.6828 44.3476 34.6995 44.2959 34.7102 44.2428C34.7156 44.1879 34.7156 44.1325 34.7102 44.0776V33.3452L39.2174 34.7494V59.8705ZM33.6136 31.4179L33.5585 31.4565L33.2665 31.6767C33.1532 31.798 33.0817 31.9524 33.0626 32.1172C33.0599 32.1502 33.0599 32.1834 33.0626 32.2164V41.2637L30.1974 36.7813C30.1997 36.7668 30.1997 36.7519 30.1974 36.7373C30.1772 36.7017 30.1532 36.6684 30.1257 36.6382C30.09 36.6003 30.0513 36.5653 30.01 36.5335C29.9725 36.5008 29.9296 36.4747 29.8833 36.4565L29.8061 36.4179C29.7749 36.402 29.7415 36.3909 29.707 36.3849L29.5527 36.3739C29.4815 36.3628 29.409 36.3628 29.3378 36.3739H29.2221C29.1538 36.3909 29.0886 36.4188 29.0292 36.4565L28.919 36.5335L28.8529 36.5941L25.6405 39.4355V30.212C25.692 30.205 25.7422 30.1901 25.7892 30.1679L34.9195 26.3739L40.9336 28.7197L33.6136 31.4179ZM40.1156 33.2957L36.2916 32.0952L43.3415 29.5071L43.4738 29.4355C43.5179 29.4072 43.5585 29.374 43.595 29.3364C43.6724 29.2653 43.7343 29.1791 43.7768 29.0831C43.7964 29.0408 43.8112 28.9965 43.8209 28.9509C43.824 28.9383 43.824 28.9251 43.8209 28.9124C43.8266 28.8648 43.8266 28.8168 43.8209 28.7692C43.8216 28.6833 43.8086 28.5978 43.7824 28.5159C43.7824 28.5159 43.7824 28.4664 43.7548 28.4443C43.7387 28.4048 43.7203 28.3661 43.6997 28.3287L43.6281 28.2296C43.5956 28.1889 43.5586 28.1519 43.5179 28.1194H43.4793C43.4371 28.0819 43.3886 28.052 43.336 28.0313L35.3438 24.7494H35.3052C35.1994 24.699 35.0836 24.6729 34.9664 24.6729C34.8491 24.6729 34.7334 24.699 34.6275 24.7494L25.1776 28.6646C25.2164 28.6852 25.2532 28.7092 25.2878 28.7362C25.2441 28.705 25.1957 28.6809 25.1446 28.6646C25.1236 28.6482 25.0991 28.6368 25.0729 28.6316L21.585 27.5302L40.1321 19.821L46.1933 22.3706L58.4919 27.5633L40.1156 33.2957ZM60.0678 53.9124L50.5793 56.8804L40.8705 59.9146V34.7935L60.0678 28.7913V53.9124Z"/>
</mask>
<path d="M61.7153 27.5633C61.7206 27.5323 61.7206 27.5007 61.7153 27.4697C61.7185 27.4385 61.7185 27.4072 61.7153 27.3761C61.7048 27.3457 61.6919 27.3163 61.6768 27.288C61.6369 27.1996 61.5787 27.1208 61.5059 27.0567L61.3847 27.0126C61.336 26.9742 61.2823 26.9427 61.2249 26.919H61.1808L46.8214 20.8617L40.5013 18.169H40.4517C40.4056 18.1493 40.3576 18.1346 40.3085 18.125C40.1925 18.0973 40.0717 18.0973 39.9558 18.125C39.9066 18.1346 39.8586 18.1493 39.8125 18.169H39.7795L18.841 26.8694C18.7904 26.8896 18.7424 26.9155 18.6977 26.9465C18.6663 26.9678 18.6384 26.9938 18.6151 27.0236C18.5916 27.036 18.5724 27.0552 18.56 27.0787C18.4715 27.1719 18.4071 27.2853 18.3726 27.4091C18.3505 27.4804 18.3394 27.5547 18.3395 27.6294V54.4741C18.3388 54.65 18.3946 54.8214 18.4988 54.9632C18.6029 55.105 18.75 55.2096 18.9181 55.2615L39.5591 61.7042L40.3415 61.7978L51.0422 58.4608L61.1092 55.3111C61.2727 55.2551 61.4142 55.1487 61.5132 55.0071C61.6122 54.8656 61.6637 54.6963 61.6602 54.5236V27.6679C61.682 27.6349 61.7005 27.5999 61.7153 27.5633ZM39.2174 59.8705L19.9871 53.8683V28.7417L23.9985 29.9972V41.1426C23.9986 41.3137 24.0516 41.4807 24.1502 41.6206C24.2488 41.7606 24.3883 41.8667 24.5495 41.9245L24.6762 41.9686H24.7423H24.7974C24.845 41.9743 24.8931 41.9743 24.9407 41.9686H25.0013C25.0193 41.9738 25.0384 41.9738 25.0564 41.9686C25.0837 41.9738 25.1117 41.9738 25.1391 41.9686L25.2658 41.93C25.2956 41.9176 25.3235 41.9009 25.3484 41.8805C25.3813 41.8634 25.4111 41.8411 25.4366 41.8144L25.4807 41.7758L29.2386 38.4719L33.0957 44.4851L33.1453 44.5677C33.2063 44.6647 33.2868 44.748 33.3816 44.8124C33.4765 44.8769 33.5836 44.921 33.6963 44.9421H33.9387C33.9623 44.9477 33.9868 44.9477 34.0104 44.9421C34.0284 44.947 34.0474 44.947 34.0655 44.9421H34.1316C34.1765 44.9257 34.2191 44.9035 34.2583 44.876C34.3024 44.8478 34.3431 44.8145 34.3795 44.7769L34.5118 44.6338C34.5387 44.605 34.5627 44.5736 34.5834 44.5401C34.6165 44.4968 34.6426 44.4485 34.6606 44.397C34.6828 44.3476 34.6995 44.2959 34.7102 44.2428C34.7156 44.1879 34.7156 44.1325 34.7102 44.0776V33.3452L39.2174 34.7494V59.8705ZM33.6136 31.4179L33.5585 31.4565L33.2665 31.6767C33.1532 31.798 33.0817 31.9524 33.0626 32.1172C33.0599 32.1502 33.0599 32.1834 33.0626 32.2164V41.2637L30.1974 36.7813C30.1997 36.7668 30.1997 36.7519 30.1974 36.7373C30.1772 36.7017 30.1532 36.6684 30.1257 36.6382C30.09 36.6003 30.0513 36.5653 30.01 36.5335C29.9725 36.5008 29.9296 36.4747 29.8833 36.4565L29.8061 36.4179C29.7749 36.402 29.7415 36.3909 29.707 36.3849L29.5527 36.3739C29.4815 36.3628 29.409 36.3628 29.3378 36.3739H29.2221C29.1538 36.3909 29.0886 36.4188 29.0292 36.4565L28.919 36.5335L28.8529 36.5941L25.6405 39.4355V30.212C25.692 30.205 25.7422 30.1901 25.7892 30.1679L34.9195 26.3739L40.9336 28.7197L33.6136 31.4179ZM40.1156 33.2957L36.2916 32.0952L43.3415 29.5071L43.4738 29.4355C43.5179 29.4072 43.5585 29.374 43.595 29.3364C43.6724 29.2653 43.7343 29.1791 43.7768 29.0831C43.7964 29.0408 43.8112 28.9965 43.8209 28.9509C43.824 28.9383 43.824 28.9251 43.8209 28.9124C43.8266 28.8648 43.8266 28.8168 43.8209 28.7692C43.8216 28.6833 43.8086 28.5978 43.7824 28.5159C43.7824 28.5159 43.7824 28.4664 43.7548 28.4443C43.7387 28.4048 43.7203 28.3661 43.6997 28.3287L43.6281 28.2296C43.5956 28.1889 43.5586 28.1519 43.5179 28.1194H43.4793C43.4371 28.0819 43.3886 28.052 43.336 28.0313L35.3438 24.7494H35.3052C35.1994 24.699 35.0836 24.6729 34.9664 24.6729C34.8491 24.6729 34.7334 24.699 34.6275 24.7494L25.1776 28.6646C25.2164 28.6852 25.2532 28.7092 25.2878 28.7362C25.2441 28.705 25.1957 28.6809 25.1446 28.6646C25.1236 28.6482 25.0991 28.6368 25.0729 28.6316L21.585 27.5302L40.1321 19.821L46.1933 22.3706L58.4919 27.5633L40.1156 33.2957ZM60.0678 53.9124L50.5793 56.8804L40.8705 59.9146V34.7935L60.0678 28.7913V53.9124Z" fill="#0A1012"/>
<path d="M61.7153 27.5633C61.7206 27.5323 61.7206 27.5007 61.7153 27.4697C61.7185 27.4385 61.7185 27.4072 61.7153 27.3761C61.7048 27.3457 61.6919 27.3163 61.6768 27.288C61.6369 27.1996 61.5787 27.1208 61.5059 27.0567L61.3847 27.0126C61.336 26.9742 61.2823 26.9427 61.2249 26.919H61.1808L46.8214 20.8617L40.5013 18.169H40.4517C40.4056 18.1493 40.3576 18.1346 40.3085 18.125C40.1925 18.0973 40.0717 18.0973 39.9558 18.125C39.9066 18.1346 39.8586 18.1493 39.8125 18.169H39.7795L18.841 26.8694C18.7904 26.8896 18.7424 26.9155 18.6977 26.9465C18.6663 26.9678 18.6384 26.9938 18.6151 27.0236C18.5916 27.036 18.5724 27.0552 18.56 27.0787C18.4715 27.1719 18.4071 27.2853 18.3726 27.4091C18.3505 27.4804 18.3394 27.5547 18.3395 27.6294V54.4741C18.3388 54.65 18.3946 54.8214 18.4988 54.9632C18.6029 55.105 18.75 55.2096 18.9181 55.2615L39.5591 61.7042L40.3415 61.7978L51.0422 58.4608L61.1092 55.3111C61.2727 55.2551 61.4142 55.1487 61.5132 55.0071C61.6122 54.8656 61.6637 54.6963 61.6602 54.5236V27.6679C61.682 27.6349 61.7005 27.5999 61.7153 27.5633ZM39.2174 59.8705L19.9871 53.8683V28.7417L23.9985 29.9972V41.1426C23.9986 41.3137 24.0516 41.4807 24.1502 41.6206C24.2488 41.7606 24.3883 41.8667 24.5495 41.9245L24.6762 41.9686H24.7423H24.7974C24.845 41.9743 24.8931 41.9743 24.9407 41.9686H25.0013C25.0193 41.9738 25.0384 41.9738 25.0564 41.9686C25.0837 41.9738 25.1117 41.9738 25.1391 41.9686L25.2658 41.93C25.2956 41.9176 25.3235 41.9009 25.3484 41.8805C25.3813 41.8634 25.4111 41.8411 25.4366 41.8144L25.4807 41.7758L29.2386 38.4719L33.0957 44.4851L33.1453 44.5677C33.2063 44.6647 33.2868 44.748 33.3816 44.8124C33.4765 44.8769 33.5836 44.921 33.6963 44.9421H33.9387C33.9623 44.9477 33.9868 44.9477 34.0104 44.9421C34.0284 44.947 34.0474 44.947 34.0655 44.9421H34.1316C34.1765 44.9257 34.2191 44.9035 34.2583 44.876C34.3024 44.8478 34.3431 44.8145 34.3795 44.7769L34.5118 44.6338C34.5387 44.605 34.5627 44.5736 34.5834 44.5401C34.6165 44.4968 34.6426 44.4485 34.6606 44.397C34.6828 44.3476 34.6995 44.2959 34.7102 44.2428C34.7156 44.1879 34.7156 44.1325 34.7102 44.0776V33.3452L39.2174 34.7494V59.8705ZM33.6136 31.4179L33.5585 31.4565L33.2665 31.6767C33.1532 31.798 33.0817 31.9524 33.0626 32.1172C33.0599 32.1502 33.0599 32.1834 33.0626 32.2164V41.2637L30.1974 36.7813C30.1997 36.7668 30.1997 36.7519 30.1974 36.7373C30.1772 36.7017 30.1532 36.6684 30.1257 36.6382C30.09 36.6003 30.0513 36.5653 30.01 36.5335C29.9725 36.5008 29.9296 36.4747 29.8833 36.4565L29.8061 36.4179C29.7749 36.402 29.7415 36.3909 29.707 36.3849L29.5527 36.3739C29.4815 36.3628 29.409 36.3628 29.3378 36.3739H29.2221C29.1538 36.3909 29.0886 36.4188 29.0292 36.4565L28.919 36.5335L28.8529 36.5941L25.6405 39.4355V30.212C25.692 30.205 25.7422 30.1901 25.7892 30.1679L34.9195 26.3739L40.9336 28.7197L33.6136 31.4179ZM40.1156 33.2957L36.2916 32.0952L43.3415 29.5071L43.4738 29.4355C43.5179 29.4072 43.5585 29.374 43.595 29.3364C43.6724 29.2653 43.7343 29.1791 43.7768 29.0831C43.7964 29.0408 43.8112 28.9965 43.8209 28.9509C43.824 28.9383 43.824 28.9251 43.8209 28.9124C43.8266 28.8648 43.8266 28.8168 43.8209 28.7692C43.8216 28.6833 43.8086 28.5978 43.7824 28.5159C43.7824 28.5159 43.7824 28.4664 43.7548 28.4443C43.7387 28.4048 43.7203 28.3661 43.6997 28.3287L43.6281 28.2296C43.5956 28.1889 43.5586 28.1519 43.5179 28.1194H43.4793C43.4371 28.0819 43.3886 28.052 43.336 28.0313L35.3438 24.7494H35.3052C35.1994 24.699 35.0836 24.6729 34.9664 24.6729C34.8491 24.6729 34.7334 24.699 34.6275 24.7494L25.1776 28.6646C25.2164 28.6852 25.2532 28.7092 25.2878 28.7362C25.2441 28.705 25.1957 28.6809 25.1446 28.6646C25.1236 28.6482 25.0991 28.6368 25.0729 28.6316L21.585 27.5302L40.1321 19.821L46.1933 22.3706L58.4919 27.5633L40.1156 33.2957ZM60.0678 53.9124L50.5793 56.8804L40.8705 59.9146V34.7935L60.0678 28.7913V53.9124Z" stroke="#0A1012" stroke-width="0.517648" mask="url(#path-7-outside-1_403_107)"/>
<path d="M25.2377 28.828L25.3434 28.5918C25.2867 28.5649 25.2263 28.5464 25.1643 28.5368L25.119 28.7915C25.1597 28.7997 25.1994 28.812 25.2377 28.828Z" fill="#0A1012" stroke="#0A1012" stroke-width="0.258824"/>
<path d="M33.3611 31.7706L33.1871 31.5801L33.1375 31.6186L33.1247 31.6285L33.1148 31.6413C33.0326 31.7469 32.9741 31.8689 32.9432 31.999C32.9123 32.1292 32.9097 32.2645 32.9357 32.3957L33.192 32.3706V32.2219H33.1925L33.1916 32.2112C33.1895 32.186 33.1895 32.1607 33.1914 32.1355C33.2077 31.999 33.2671 31.8712 33.3611 31.7706Z" fill="#0A1012" stroke="#0A1012" stroke-width="0.258824"/>
</g>
<defs>
<clipPath id="clip0_403_107">
<rect width="44" height="44.3531" fill="white" transform="translate(18 17.8234)"/>
</clipPath>
</defs>
</svg>
