<svg width="80" height="80" viewBox="0 0 80 80" fill="none" xmlns="http://www.w3.org/2000/svg">
<rect width="80" height="80" rx="40" fill="white"/>
<rect x="0.25" y="0.25" width="79.5" height="79.5" rx="39.75" stroke="#0A1012" stroke-opacity="0.5" stroke-width="0.5"/>
<g clip-path="url(#clip0_403_109)">
<path d="M25.8955 22.7803H25.7588V22.917V57.083V57.2197H25.8955H41.1841V60.3633H22.6041V19.6367H56.6094V36.4468H53.4551V22.917V22.7803H53.3184H25.8955Z" fill="#0A1012" stroke="white" stroke-width="0.273446"/>
<path d="M50.6859 56.8022L50.7469 56.8326L50.8079 56.8022L51.1584 56.6275C54.6886 54.8682 56.8824 51.3306 56.8824 47.3959V45.3858V45.3012L56.8066 45.2635L50.8079 42.2739L50.7469 42.2435L50.6859 42.2739L44.6871 45.2635L44.6114 45.3012V45.3858V47.3959C44.6114 51.3301 46.8051 54.8682 50.3353 56.6275L50.6859 56.8022ZM41.4571 43.3591L50.7469 38.7289L60.0367 43.3591V47.3963C60.0367 52.4962 57.146 57.1583 52.5694 59.4391C52.5694 59.4391 52.5694 59.4391 52.5694 59.4391L50.7469 60.3472L48.9243 59.4391C44.3478 57.1584 41.4571 52.4962 41.4571 47.3963V43.3591Z" fill="#0A1012" stroke="white" stroke-width="0.273446"/>
<path d="M29.3228 36.5835H43.8542V40H29.3228V36.5835Z" fill="#0A1012"/>
<path fill-rule="evenodd" clip-rule="evenodd" d="M48.1566 47.9976L46.454 49.9179L50.8242 53.7683L56.1636 47.6449L54.2238 45.9632L50.5852 50.1365L48.1566 47.9976ZM29.3228 28.0417H49.8902V31.4583H29.3228V28.0417Z" fill="#0A1012"/>
<path d="M29.3228 45.1248H37.8188V48.5413H29.3228V45.1248Z" fill="#0A1012"/>
<path d="M50.6882 50.2263L54.2373 46.1559L55.9704 47.6584L50.8114 53.5749L46.6473 49.906L48.1685 48.1902L50.4948 50.2391L50.5979 50.3299L50.6882 50.2263ZM29.4595 28.1785H49.7534V31.3215H29.4595V28.1785ZM29.4595 36.7202H43.7175V39.8633H29.4595V36.7202ZM29.4595 45.2615H37.682V48.4046H29.4595V45.2615Z" stroke="white" stroke-width="0.273446"/>
</g>
<defs>
<clipPath id="clip0_403_109">
<rect width="38.13" height="41" fill="white" transform="translate(22.3752 19.5)"/>
</clipPath>
</defs>
</svg>
