<svg width="37" height="36" viewBox="0 0 37 36" fill="none" xmlns="http://www.w3.org/2000/svg">
<path d="M20.4502 1.54552L24.578 9.9095C24.865 10.4912 25.42 10.8943 26.0621 10.9874L35.2925 12.3288C36.9094 12.5639 37.5545 14.5503 36.385 15.6901L29.7058 22.2005C29.2417 22.6532 29.0295 23.3059 29.1394 23.9449L30.7158 33.1379C30.9922 34.748 29.302 35.9756 27.8561 35.216L19.6005 30.8759C19.0264 30.5744 18.3401 30.5744 17.766 30.8759L9.51045 35.216C8.06454 35.9763 6.37433 34.748 6.65069 33.1379L8.22714 23.9449C8.33708 23.3059 8.12485 22.6532 7.66069 22.2005L0.981567 15.6901C-0.187986 14.5495 0.4571 12.5631 2.07401 12.3288L11.3045 10.9874C11.9465 10.8943 12.5015 10.4912 12.7886 9.9095L16.9163 1.54552C17.6385 0.0805287 19.7272 0.0805287 20.4502 1.54552Z" fill="#B5B5B5"/>
</svg>
