<svg width="38" height="36" viewBox="0 0 38 36" fill="none" xmlns="http://www.w3.org/2000/svg">
<path d="M20.6558 1.54552L24.7835 9.9095C25.0706 10.4912 25.6256 10.8943 26.2676 10.9874L35.4981 12.3288C37.115 12.5639 37.7601 14.5503 36.5905 15.6901L29.9114 22.2005C29.4473 22.6532 29.235 23.3059 29.345 23.9449L30.9214 33.1379C31.1978 34.748 29.5076 35.9756 28.0617 35.216L19.8061 30.8759C19.232 30.5744 18.5457 30.5744 17.9716 30.8759L9.71601 35.216C8.2701 35.9763 6.5799 34.748 6.85626 33.1379L8.43271 23.9449C8.54264 23.3059 8.33041 22.6532 7.86626 22.2005L1.18713 15.6901C0.0175804 14.5495 0.662666 12.5631 2.27958 12.3288L11.51 10.9874C12.1521 10.8943 12.7071 10.4912 12.9941 9.9095L17.1219 1.54552C17.8441 0.0805287 19.9328 0.0805287 20.6558 1.54552Z" fill="#ED8A19"/>
</svg>
