<svg xmlns="http://www.w3.org/2000/svg" viewBox="0 0 101.29 100.26"><defs><style>.a{fill:#303030;}</style></defs><title>gears</title><path class="a" d="M6.65,36.6a24.59,24.59,0,0,0,2.21,5.24L6.19,45.19a2.75,2.75,0,0,0,.21,3.65L11,53.43a2.74,2.74,0,0,0,3.65.21L18,51a24.63,24.63,0,0,0,5.45,2.3l.5,4.29A2.75,2.75,0,0,0,26.64,60h6.49a2.76,2.76,0,0,0,2.73-2.44l.48-4.14a24,24,0,0,0,5.83-2.36l3.23,2.56a2.75,2.75,0,0,0,3.65-.21l4.59-4.59a2.75,2.75,0,0,0,.2-3.65L51.33,42a23.5,23.5,0,0,0,2.4-5.74l3.87-.44A2.76,2.76,0,0,0,60,33.11V26.62a2.76,2.76,0,0,0-2.44-2.73l-3.81-.44a24,24,0,0,0-2.31-5.67l2.35-3a2.76,2.76,0,0,0-.2-3.65L49.05,6.58a2.75,2.75,0,0,0-3.65-.2L42.52,8.66a24.28,24.28,0,0,0-6-2.5l-.43-3.73A2.75,2.75,0,0,0,33.39,0H26.9a2.74,2.74,0,0,0-2.72,2.43l-.44,3.73a24.21,24.21,0,0,0-6.11,2.59l-3-2.37a2.76,2.76,0,0,0-3.65.2L6.4,11.17a2.74,2.74,0,0,0-.21,3.65L8.69,18a23.75,23.75,0,0,0-2.26,5.73l-4,.46A2.74,2.74,0,0,0,0,26.89v6.49a2.75,2.75,0,0,0,2.43,2.73Zm23.5-17.55A10.73,10.73,0,1,1,19.43,29.77,10.74,10.74,0,0,1,30.15,19.05Z"/><path class="a" d="M94.29,38.2l-3.43-2.9a2.7,2.7,0,0,0-3.6.1l-1.89,1.77a19.88,19.88,0,0,0-5.05-1.63l-.53-2.6a2.73,2.73,0,0,0-2.89-2.18l-4.47.38A2.72,2.72,0,0,0,70,33.76l-.09,2.65a19.56,19.56,0,0,0-4.81,2.53l-2.26-1.49a2.7,2.7,0,0,0-3.58.51L56.32,41.4a2.71,2.71,0,0,0,.1,3.61l2,2.11a19.87,19.87,0,0,0-1.46,4.82l-2.83.58a2.73,2.73,0,0,0-2.17,2.89l.38,4.46a2.72,2.72,0,0,0,2.62,2.49l3.05.1a20.09,20.09,0,0,0,2.17,4.13l-1.71,2.57A2.73,2.73,0,0,0,59,72.74l3.42,2.89a2.71,2.71,0,0,0,3.61-.1l2.24-2.1a19.2,19.2,0,0,0,4.6,1.5L73.45,78a2.72,2.72,0,0,0,2.89,2.17l4.46-.38a2.72,2.72,0,0,0,2.49-2.62l.1-3A20,20,0,0,0,88,71.85l2.47,1.63A2.73,2.73,0,0,0,94,73l2.89-3.43a2.7,2.7,0,0,0-.1-3.6l-2-2.11A19.22,19.22,0,0,0,96.39,59l2.72-.55a2.72,2.72,0,0,0,2.17-2.89l-.38-4.47a2.72,2.72,0,0,0-2.61-2.49l-2.73-.08A20.08,20.08,0,0,0,93.29,44l1.49-2.24A2.7,2.7,0,0,0,94.29,38.2ZM77.45,64a8.78,8.78,0,1,1,8-9.48A8.77,8.77,0,0,1,77.45,64Z"/><path class="a" d="M22.28,76a2.71,2.71,0,0,0-2.44,2.67l0,2.75a2.71,2.71,0,0,0,2.37,2.73l2,.26A15.78,15.78,0,0,0,25.63,88l-1.3,1.61a2.72,2.72,0,0,0,.16,3.61l1.93,2a2.7,2.7,0,0,0,3.6.25l1.62-1.25a15.65,15.65,0,0,0,3.61,1.58l.22,2.09a2.71,2.71,0,0,0,2.67,2.43l2.75,0a2.71,2.71,0,0,0,2.73-2.37l.25-2a16.61,16.61,0,0,0,3.91-1.52l1.52,1.22a2.71,2.71,0,0,0,3.61-.16l2-1.92a2.71,2.71,0,0,0,.25-3.61L54,88.42a15.8,15.8,0,0,0,1.65-3.8l1.81-.19a2.71,2.71,0,0,0,2.43-2.67l0-2.75a2.71,2.71,0,0,0-2.36-2.73l-1.77-.23a16.29,16.29,0,0,0-1.48-3.8l1.09-1.35a2.71,2.71,0,0,0-.16-3.61l-1.92-2a2.71,2.71,0,0,0-3.61-.25l-1.32,1a15.78,15.78,0,0,0-4-1.72l-.17-1.7a2.73,2.73,0,0,0-2.68-2.44l-2.75,0a2.7,2.7,0,0,0-2.72,2.37l-.22,1.69a16.31,16.31,0,0,0-4.1,1.68L30.4,64.83a2.7,2.7,0,0,0-3.6.16l-2,1.94a2.7,2.7,0,0,0-.25,3.6L25.73,72a15.8,15.8,0,0,0-1.55,3.81ZM40,72.92A7.15,7.15,0,1,1,32.78,80,7.16,7.16,0,0,1,40,72.92Z"/></svg>