<svg xmlns="http://www.w3.org/2000/svg" viewBox="0 0 100 100"><defs><style>.a{fill:#303030;}</style></defs><title>ruler</title><path class="a" d="M99.63,96.79,32.28.87A2,2,0,0,0,28.57,2V98a2,2,0,0,0,2,2H98a2,2,0,0,0,1.67-3.21Zm-67-.87V89.8h6.13V85.71H32.65V75.51h6.13V71.43H32.65V61.22h6.13V57.14H32.65V46.94h6.13V42.86H32.65V32.65h6.13V28.57H32.65V8.5L94,95.92Z"/><path class="a" d="M45.92,81.63H67.35A2,2,0,0,0,69,78.37L47.55,49.8A2,2,0,0,0,43.88,51V79.59A2,2,0,0,0,45.92,81.63Zm2-24.49L63.27,77.55H48Z"/><path class="a" d="M22.45,0H2A2,2,0,0,0,0,2V98a2,2,0,0,0,2,2H22.45a2,2,0,0,0,2-2V2A2,2,0,0,0,22.45,0Zm-2,95.92H4.08V86.73h8.16V82.65H4.08V70.41h8.16V66.33H4.08V52h8.16V48H4.08V33.67h8.16V29.59H4.08V17.35h8.16V13.27H4.08V4.08H20.41Z"/></svg>