<svg width="84" height="88" viewBox="0 0 84 88" fill="none" xmlns="http://www.w3.org/2000/svg">
<path d="M29.6403 44L1.64025 14.64C-3.11975 10.16 5.80025 0.76002 10.8403 5.12002L46.0002 40.88C46.8356 41.7195 47.3046 42.8557 47.3046 44.04C47.3046 45.2244 46.8356 46.3605 46.0002 47.2L10.8403 82.96C5.80025 87.32 -3.11975 77.92 1.56025 73.44L29.6403 44Z" fill="#3B3983"/>
<path d="M63.0402 44.6799L35.0402 15.2799C30.2802 10.7999 39.2002 1.39991 44.2402 5.75991L79.4402 41.5199C80.2566 42.3693 80.7126 43.5018 80.7126 44.6799C80.7126 45.8581 80.2566 46.9905 79.4402 47.8399L44.2402 83.5999C39.2002 87.9999 30.2802 78.5599 34.9602 74.0799L63.0402 44.6799Z" fill="#3B3983"/>
</svg>
