<svg width="101" height="121" viewBox="0 0 101 121" fill="none" xmlns="http://www.w3.org/2000/svg">
<path d="M90.63 78.7199C82.5478 76.5137 74.9647 72.9848 67.91 69.3599L59.91 94.5199L58.41 99.2599V99.1799L57.1 103.18L52.94 87.5067C63.25 73.1267 50.85 73.2767 50.16 73.2967C49.47 73.3167 37.08 73.1267 47.39 87.5067L43.16 103.21L41.86 99.2099V99.2899L40.36 94.5499L32.36 69.3899C23.9368 73.0005 17.7391 76.5177 9.67001 78.7199C0.320004 81.0999 -0.119996 92.8999 0.240004 98.2199C0.240004 98.2199 -0.300003 112.33 0.240001 115.53C0.240001 115.53 19.58 115.51 50.16 115.53C80.74 115.55 100.08 115.53 100.08 115.53C100.62 112.33 100.08 98.2199 100.08 98.2199C100.43 92.8999 99.99 81.0999 90.63 78.7199Z" fill="#303030"/>
<ellipse cx="50" cy="38.5" rx="27.5" ry="32.5" fill="#303030"/>
</svg>
