<svg width="88" height="150" viewBox="0 0 88 150" fill="none" xmlns="http://www.w3.org/2000/svg">
<path fill-rule="evenodd" clip-rule="evenodd" d="M87.59 0H0V150H87.59V0ZM78.8737 17.2686H8.71655V123.976H78.8737V17.2686Z" fill="#303030"/>
<rect x="8.71655" y="17.2686" width="70.1571" height="106.708" fill="#303030" fill-opacity="0.5"/>
<path d="M35.6837 10.01H54.2537C54.4652 10.0345 54.6796 10.0139 54.8826 9.9497C55.0856 9.88549 55.2728 9.77906 55.4317 9.6374C55.5907 9.49575 55.7179 9.32207 55.8051 9.12777C55.8922 8.93347 55.9372 8.72294 55.9372 8.51C55.9372 8.29706 55.8922 8.08653 55.8051 7.89223C55.7179 7.69793 55.5907 7.52425 55.4317 7.3826C55.2728 7.24094 55.0856 7.13451 54.8826 7.0703C54.6796 7.00608 54.4652 6.98553 54.2537 7.01H35.6837C35.4722 6.98553 35.2579 7.00608 35.0549 7.0703C34.8518 7.13451 34.6647 7.24094 34.5057 7.3826C34.3467 7.52425 34.2195 7.69793 34.1324 7.89223C34.0453 8.08653 34.0002 8.29706 34.0002 8.51C34.0002 8.72294 34.0453 8.93347 34.1324 9.12777C34.2195 9.32207 34.3467 9.49575 34.5057 9.6374C34.6647 9.77906 34.8518 9.88549 35.0549 9.9497C35.2579 10.0139 35.4722 10.0345 35.6837 10.01ZM35.6837 7.64H54.2537C54.3751 7.62693 54.4979 7.63956 54.6141 7.67707C54.7303 7.71458 54.8373 7.77613 54.9282 7.85772C55.019 7.93931 55.0917 8.03911 55.1414 8.15063C55.1912 8.26215 55.2169 8.38289 55.2169 8.505C55.2169 8.62711 55.1912 8.74785 55.1414 8.85937C55.0917 8.97088 55.019 9.07068 54.9282 9.15227C54.8373 9.23387 54.7303 9.29542 54.6141 9.33293C54.4979 9.37044 54.3751 9.38307 54.2537 9.37H35.6837C35.5623 9.38307 35.4395 9.37044 35.3233 9.33293C35.2071 9.29542 35.1001 9.23387 35.0093 9.15227C34.9184 9.07068 34.8458 8.97088 34.796 8.85937C34.7463 8.74785 34.7206 8.62711 34.7206 8.505C34.7206 8.38289 34.7463 8.26215 34.796 8.15063C34.8458 8.03911 34.9184 7.93931 35.0093 7.85772C35.1001 7.77613 35.2071 7.71458 35.3233 7.67707C35.4395 7.63956 35.5623 7.62693 35.6837 7.64Z" fill="white"/>
<path d="M37.4302 8.86C37.6677 8.86 37.8602 8.66748 37.8602 8.43C37.8602 8.19251 37.6677 8 37.4302 8C37.1927 8 37.0002 8.19251 37.0002 8.43C37.0002 8.66748 37.1927 8.86 37.4302 8.86Z" fill="white"/>
<path d="M38.4302 8.86C38.6677 8.86 38.8602 8.66748 38.8602 8.43C38.8602 8.19251 38.6677 8 38.4302 8C38.1927 8 38.0002 8.19251 38.0002 8.43C38.0002 8.66748 38.1927 8.86 38.4302 8.86Z" fill="white"/>
<path d="M40.4302 8.86C40.6677 8.86 40.8602 8.66748 40.8602 8.43C40.8602 8.19251 40.6677 8 40.4302 8C40.1927 8 40.0002 8.19251 40.0002 8.43C40.0002 8.66748 40.1927 8.86 40.4302 8.86Z" fill="white"/>
<path d="M41.4302 8.86C41.6677 8.86 41.8602 8.66748 41.8602 8.43C41.8602 8.19251 41.6677 8 41.4302 8C41.1927 8 41.0002 8.19251 41.0002 8.43C41.0002 8.66748 41.1927 8.86 41.4302 8.86Z" fill="white"/>
<path d="M42.4302 8.86C42.6677 8.86 42.8602 8.66748 42.8602 8.43C42.8602 8.19251 42.6677 8 42.4302 8C42.1927 8 42.0002 8.19251 42.0002 8.43C42.0002 8.66748 42.1927 8.86 42.4302 8.86Z" fill="white"/>
<path d="M43.4302 8.86C43.6677 8.86 43.8602 8.66748 43.8602 8.43C43.8602 8.19251 43.6677 8 43.4302 8C43.1927 8 43.0002 8.19251 43.0002 8.43C43.0002 8.66748 43.1927 8.86 43.4302 8.86Z" fill="white"/>
<path d="M45.4302 8.86C45.6677 8.86 45.8602 8.66748 45.8602 8.43C45.8602 8.19251 45.6677 8 45.4302 8C45.1927 8 45.0002 8.19251 45.0002 8.43C45.0002 8.66748 45.1927 8.86 45.4302 8.86Z" fill="white"/>
<path d="M46.4302 8.86C46.6677 8.86 46.8602 8.66748 46.8602 8.43C46.8602 8.19251 46.6677 8 46.4302 8C46.1927 8 46.0002 8.19251 46.0002 8.43C46.0002 8.66748 46.1927 8.86 46.4302 8.86Z" fill="white"/>
<path d="M47.4302 8.86C47.6677 8.86 47.8602 8.66748 47.8602 8.43C47.8602 8.19251 47.6677 8 47.4302 8C47.1927 8 47.0002 8.19251 47.0002 8.43C47.0002 8.66748 47.1927 8.86 47.4302 8.86Z" fill="white"/>
<path d="M48.4302 8.86C48.6677 8.86 48.8602 8.66748 48.8602 8.43C48.8602 8.19251 48.6677 8 48.4302 8C48.1927 8 48.0002 8.19251 48.0002 8.43C48.0002 8.66748 48.1927 8.86 48.4302 8.86Z" fill="white"/>
<path d="M50.4302 8.86C50.6677 8.86 50.8602 8.66748 50.8602 8.43C50.8602 8.19251 50.6677 8 50.4302 8C50.1927 8 50.0002 8.19251 50.0002 8.43C50.0002 8.66748 50.1927 8.86 50.4302 8.86Z" fill="white"/>
<path d="M51.4302 8.86C51.6677 8.86 51.8602 8.66748 51.8602 8.43C51.8602 8.19251 51.6677 8 51.4302 8C51.1927 8 51.0002 8.19251 51.0002 8.43C51.0002 8.66748 51.1927 8.86 51.4302 8.86Z" fill="white"/>
<path d="M52.4302 8.86C52.6677 8.86 52.8602 8.66748 52.8602 8.43C52.8602 8.19251 52.6677 8 52.4302 8C52.1927 8 52.0002 8.19251 52.0002 8.43C52.0002 8.66748 52.1927 8.86 52.4302 8.86Z" fill="white"/>
<path d="M53.4302 8.86C53.6677 8.86 53.8602 8.66748 53.8602 8.43C53.8602 8.19251 53.6677 8 53.4302 8C53.1927 8 53.0002 8.19251 53.0002 8.43C53.0002 8.66748 53.1927 8.86 53.4302 8.86Z" fill="white"/>
<path d="M71.0502 10.1C71.6301 10.1 72.1002 9.6299 72.1002 9.05C72.1002 8.4701 71.6301 8 71.0502 8C70.4703 8 70.0002 8.4701 70.0002 9.05C70.0002 9.6299 70.4703 10.1 71.0502 10.1Z" fill="white"/>
<path d="M50.7452 132.218H40.3752C39.4911 132.221 38.6441 132.574 38.0199 133.2C37.3957 133.826 37.0452 134.674 37.0452 135.558V137.628C37.0452 138.511 37.396 139.358 38.0205 139.983C38.645 140.607 39.492 140.958 40.3752 140.958H50.7452C51.6284 140.958 52.4753 140.607 53.0998 139.983C53.7243 139.358 54.0752 138.511 54.0752 137.628V135.558C54.0752 134.674 53.7247 133.826 53.1005 133.2C52.4762 132.574 51.6293 132.221 50.7452 132.218ZM52.1552 137.628C52.1552 138.002 52.0066 138.361 51.7422 138.625C51.4778 138.889 51.1191 139.038 50.7452 139.038H40.3752C40.0012 139.038 39.6426 138.889 39.3782 138.625C39.1137 138.361 38.9652 138.002 38.9652 137.628V135.558C38.9652 135.184 39.1137 134.825 39.3782 134.561C39.6426 134.297 40.0012 134.148 40.3752 134.148H50.7452C51.1191 134.148 51.4778 134.297 51.7422 134.561C52.0066 134.825 52.1552 135.184 52.1552 135.558V137.628Z" fill="white"/>
<path d="M26.3254 135.218H21.3254C21.2882 135.217 21.2512 135.223 21.2166 135.236C21.182 135.25 21.1506 135.271 21.1243 135.297C21.098 135.323 21.0774 135.355 21.0638 135.389C21.0503 135.424 21.044 135.461 21.0454 135.498V138.068C21.0454 138.142 21.0749 138.213 21.1274 138.266C21.1799 138.318 21.2511 138.348 21.3254 138.348C21.3617 138.348 21.3976 138.341 21.4311 138.327C21.4645 138.312 21.4947 138.292 21.5199 138.265C21.5451 138.239 21.5648 138.208 21.5778 138.174C21.5907 138.14 21.5967 138.104 21.5954 138.068V135.768H26.0354V138.068C26.0354 138.142 26.0649 138.213 26.1174 138.266C26.1699 138.318 26.2411 138.348 26.3154 138.348C26.3896 138.348 26.4609 138.318 26.5134 138.266C26.5659 138.213 26.5954 138.142 26.5954 138.068V135.498C26.5954 135.425 26.5673 135.356 26.5169 135.303C26.4666 135.251 26.3979 135.221 26.3254 135.218Z" fill="white"/>
<path d="M24.6779 136.223H22.3779C22.3374 136.215 22.2957 136.217 22.2557 136.227C22.2158 136.237 22.1786 136.256 22.1468 136.282C22.115 136.308 22.0894 136.341 22.0719 136.379C22.0543 136.416 22.0452 136.457 22.0452 136.498C22.0452 136.539 22.0543 136.58 22.0719 136.617C22.0894 136.655 22.115 136.688 22.1468 136.714C22.1786 136.74 22.2158 136.759 22.2557 136.769C22.2957 136.779 22.3374 136.781 22.3779 136.773H24.6779C24.7184 136.781 24.7601 136.779 24.8 136.769C24.84 136.759 24.8772 136.74 24.909 136.714C24.9407 136.688 24.9663 136.655 24.9839 136.617C25.0015 136.58 25.0106 136.539 25.0106 136.498C25.0106 136.457 25.0015 136.416 24.9839 136.379C24.9663 136.341 24.9407 136.308 24.909 136.282C24.8772 136.256 24.84 136.237 24.8 136.227C24.7601 136.217 24.7184 136.215 24.6779 136.223Z" fill="white"/>
<path d="M24.6252 137.218H22.3252C22.2509 137.218 22.1797 137.248 22.1272 137.3C22.0747 137.353 22.0452 137.424 22.0452 137.498C22.0452 137.572 22.0747 137.643 22.1272 137.696C22.1797 137.749 22.2509 137.778 22.3252 137.778H24.6252C24.6994 137.778 24.7707 137.749 24.8232 137.696C24.8757 137.643 24.9052 137.572 24.9052 137.498C24.9052 137.424 24.8757 137.353 24.8232 137.3C24.7707 137.248 24.6994 137.218 24.6252 137.218Z" fill="white"/>
<path d="M68.9652 135.358H67.0452V135.218L66.0452 135.638L67.0452 136.048V135.918H68.9652C69.2304 135.918 69.4848 136.023 69.6723 136.211C69.8599 136.398 69.9652 136.653 69.9652 136.918C69.9652 137.183 69.8599 137.438 69.6723 137.625C69.4848 137.813 69.2304 137.918 68.9652 137.918H67.0852C67.011 137.918 66.9397 137.948 66.8872 138C66.8347 138.053 66.8052 138.124 66.8052 138.198C66.8052 138.272 66.8347 138.343 66.8872 138.396C66.9397 138.449 67.011 138.478 67.0852 138.478H68.9652C69.3843 138.478 69.7861 138.312 70.0824 138.015C70.3787 137.719 70.5452 137.317 70.5452 136.898C70.5452 136.479 70.3787 136.077 70.0824 135.781C69.7861 135.484 69.3843 135.318 68.9652 135.318V135.358Z" fill="white"/>
</svg>
