<svg xmlns="http://www.w3.org/2000/svg" viewBox="0 0 256.47 132.9"><defs><style>.a{fill:#fff;}</style></defs><title>Cart</title><path class="a" d="M55.1,66.29V77.94H201.36V66.31A31,31,0,0,1,221.8,37.86,52,52,0,0,0,171.77,0H84.7a52,52,0,0,0-50,37.86A31,31,0,0,1,55.1,66.29Z"/><path class="a" d="M232.52,44.23a23.94,23.94,0,0,0-23.93,23.28V86.17H47.89V67.51A23.94,23.94,0,1,0,24,92.13c.42,0,.81,0,1.23,0,0,0,0,13.31,0,13.55a19.47,19.47,0,0,0,19.47,19.47H49v5.62a2.16,2.16,0,0,0,2.17,2.16h14.4a2.16,2.16,0,0,0,2.17-2.16v-5.62H188.78v5.62A2.16,2.16,0,0,0,191,132.9h14.4a2.16,2.16,0,0,0,2.17-2.16v-5.62h4.28a19.47,19.47,0,0,0,19.47-19.47c0-.1,0-.2,0-.29V92.1q.63,0,1.26,0a24,24,0,1,0,0-47.9Z"/></svg>