<svg width="257" height="133" viewBox="0 0 257 133" fill="none" xmlns="http://www.w3.org/2000/svg">
<g clip-path="url(#clip0_3_180)">
<path d="M55.0999 66.29V77.94H201.36V66.31C201.501 60.0598 203.528 53.9983 207.176 48.921C210.824 43.8438 215.922 39.9881 221.8 37.86C218.721 26.9625 212.168 17.3681 203.138 10.5347C194.108 3.70121 183.094 0.00230574 171.77 0L84.6999 0C73.3809 0.00883584 62.3738 3.71074 53.3498 10.5437C44.3259 17.3766 37.7779 26.9674 34.7 37.86C40.5678 39.9933 45.6547 43.8487 49.2947 48.9215C52.9347 53.9943 54.9581 60.048 55.0999 66.29V66.29Z" fill="#303030"/>
<path d="M232.52 44.23C226.285 44.2302 220.296 46.6628 215.827 51.0104C211.358 55.358 208.762 61.2775 208.59 67.51V86.17H47.8899V67.51C47.7562 62.8043 46.238 58.2424 43.5253 54.3949C40.8126 50.5474 37.0257 47.5851 32.6383 45.8785C28.2509 44.1719 23.4577 43.7967 18.8581 44.7999C14.2586 45.803 10.057 48.14 6.77861 51.5185C3.50027 54.897 1.29078 59.1671 0.426478 63.7948C-0.437824 68.4224 0.0814259 73.2021 1.91929 77.5362C3.75715 81.8703 6.83204 85.5663 10.7594 88.162C14.6868 90.7577 19.2922 92.1379 23.9999 92.13C24.4199 92.13 24.8099 92.13 25.2299 92.13C25.2299 92.13 25.2299 105.44 25.2299 105.68C25.2299 110.844 27.2812 115.796 30.9325 119.447C34.5838 123.099 39.5361 125.15 44.6999 125.15H48.9999V130.77C48.9999 131.054 49.0561 131.336 49.1653 131.599C49.2744 131.862 49.4344 132.1 49.6361 132.301C49.8377 132.502 50.077 132.66 50.3402 132.768C50.6034 132.876 50.8854 132.931 51.1699 132.93H65.5699C65.8544 132.931 66.1363 132.876 66.3996 132.768C66.6628 132.66 66.9021 132.502 67.1037 132.301C67.3053 132.1 67.4653 131.862 67.5745 131.599C67.6837 131.336 67.7399 131.054 67.7399 130.77V125.15H188.78V130.77C188.784 131.056 188.844 131.339 188.959 131.601C189.073 131.864 189.238 132.101 189.444 132.299C189.651 132.498 189.895 132.653 190.162 132.756C190.429 132.859 190.714 132.908 191 132.9H205.4C205.684 132.901 205.966 132.846 206.23 132.738C206.493 132.63 206.732 132.472 206.934 132.271C207.135 132.07 207.295 131.832 207.405 131.569C207.514 131.306 207.57 131.024 207.57 130.74V125.12H211.85C217.014 125.12 221.966 123.069 225.617 119.417C229.269 115.766 231.32 110.814 231.32 105.65C231.32 105.55 231.32 105.45 231.32 105.36V92.1C231.74 92.1 232.16 92.1 232.58 92.1C235.855 92.3117 239.139 91.8494 242.229 90.7417C245.318 89.6339 248.148 87.9042 250.542 85.6594C252.937 83.4147 254.845 80.7027 256.15 77.6911C257.455 74.6794 258.128 71.4321 258.128 68.15C258.128 64.8678 257.455 61.6206 256.15 58.6089C254.845 55.5973 252.937 52.8853 250.542 50.6406C248.148 48.3958 245.318 46.6661 242.229 45.5583C239.139 44.4505 235.855 43.9882 232.58 44.2L232.52 44.23Z" fill="#303030"/>
</g>
<defs>
<clipPath id="clip0_3_180">
<rect width="256.47" height="132.9" fill="white"/>
</clipPath>
</defs>
</svg>
