<svg width="297" height="188" viewBox="0 0 297 188" fill="none" xmlns="http://www.w3.org/2000/svg">
<g clip-path="url(#clip0_3_102)">
<path d="M95.5 150.23C91.8086 150.228 88.1995 151.321 85.1293 153.371C82.0592 155.42 79.6659 158.334 78.2523 161.744C76.8388 165.155 76.4684 168.907 77.1881 172.528C77.9078 176.149 79.6852 179.474 82.2954 182.085C84.9057 184.695 88.2315 186.472 91.8521 187.192C95.4727 187.912 99.2254 187.541 102.636 186.128C106.046 184.714 108.96 182.321 111.009 179.251C113.059 176.181 114.152 172.571 114.15 168.88C114.145 163.935 112.178 159.195 108.682 155.698C105.185 152.202 100.445 150.235 95.5 150.23V150.23Z" fill="#303030"/>
<path d="M234.12 150.23C230.429 150.228 226.819 151.321 223.749 153.371C220.679 155.42 218.286 158.334 216.872 161.744C215.459 165.155 215.088 168.907 215.808 172.528C216.528 176.149 218.305 179.474 220.915 182.085C223.526 184.695 226.851 186.472 230.472 187.192C234.093 187.912 237.845 187.541 241.256 186.128C244.666 184.714 247.58 182.321 249.629 179.251C251.679 176.181 252.772 172.571 252.77 168.88C252.762 163.936 250.795 159.197 247.299 155.701C243.803 152.205 239.064 150.238 234.12 150.23V150.23Z" fill="#303030"/>
<path d="M280.77 82L280.69 58.25C280.682 55.6349 279.638 53.1295 277.786 51.2832C275.934 49.4368 273.425 48.4 270.81 48.4H256L247.58 82H280.77Z" fill="#303030"/>
<path d="M247.84 12C248.155 10.5571 248.143 9.06196 247.805 7.62434C247.466 6.18671 246.81 4.84312 245.885 3.6922C244.959 2.54128 243.788 1.61225 242.456 0.973337C241.125 0.334422 239.667 0.00183622 238.19 0L83.27 0C81.0212 0.000790431 78.8398 0.767966 77.0855 2.17501C75.3312 3.58206 74.1089 5.54495 73.62 7.74L71.72 16.31H50.65C48.0828 16.3917 45.648 17.4689 43.8609 19.3138C42.0737 21.1587 41.0744 23.6265 41.0744 26.195C41.0744 28.7635 42.0737 31.2313 43.8609 33.0762C45.648 34.9211 48.0828 35.9983 50.65 36.08H67.32L62.66 57.08H26.19C23.6228 57.1617 21.188 58.2389 19.4009 60.0838C17.6137 61.9287 16.6144 64.3965 16.6144 66.965C16.6144 69.5335 17.6137 72.0013 19.4009 73.8462C21.188 75.6911 23.6228 76.7683 26.19 76.85H58.26L53.6 97.85H9.88C7.31275 97.9317 4.87798 99.0089 3.09085 100.854C1.30373 102.699 0.304443 105.166 0.304443 107.735C0.304443 110.304 1.30373 112.771 3.09085 114.616C4.87798 116.461 7.31275 117.538 9.88 117.62H49.2L41 154.51C40.6849 155.953 40.697 157.448 41.0353 158.886C41.3736 160.323 42.0297 161.667 42.9552 162.818C43.8807 163.969 45.0523 164.898 46.3838 165.537C47.7154 166.176 49.1731 166.508 50.65 166.51H57.16C57.7505 156.742 62.047 147.568 69.1723 140.86C76.2975 134.153 85.7143 130.418 95.5 130.418C105.286 130.418 114.702 134.153 121.828 140.86C128.953 147.568 133.249 156.742 133.84 166.51H195.77C196.206 159.53 198.535 152.8 202.508 147.044C206.481 141.288 211.948 136.723 218.32 133.84L247.84 12Z" fill="#303030"/>
<path d="M295.13 101.7C293.715 99.7414 291.629 98.3711 289.27 97.85H243.63L235.46 130.49C244.979 130.833 254.031 134.695 260.866 141.329C267.701 147.963 271.832 156.896 272.46 166.4C274.232 166.103 275.89 165.327 277.254 164.157C278.618 162.987 279.637 161.467 280.2 159.76L296.51 110.59C297.002 109.105 297.133 107.524 296.893 105.978C296.653 104.433 296.049 102.966 295.13 101.7Z" fill="#303030"/>
</g>
<defs>
<clipPath id="clip0_3_102">
<rect width="297" height="187.54" fill="white"/>
</clipPath>
</defs>
</svg>
