<svg width="39" height="28" viewBox="0 0 39 28" fill="none" xmlns="http://www.w3.org/2000/svg">
<g clip-path="url(#clip0_42_29)">
<rect x="4.51172" width="30.2108" height="28" fill="#FFDE6F"/>
<path d="M3.3897 27.9998H9.36823V13.5756L0.827469 7.21191V25.4543C0.827469 26.8628 1.9762 27.9998 3.3897 27.9998Z" fill="#EAC443"/>
<path d="M29.8661 27.9998H35.8446C37.2623 27.9998 38.4068 26.8586 38.4068 25.4543V7.21191L29.8661 13.5756" fill="#EAC443"/>
<path d="M29.8661 2.54535V13.5757L38.4068 7.21202V3.81808C38.4068 0.6702 34.7898 -1.12435 32.2575 0.763533" fill="#D7B33D"/>
<path d="M9.36823 13.5757V2.54541L19.6171 10.1818L29.866 2.54541V13.5757L19.6171 21.2121" fill="#EAC443"/>
<path d="M0.827454 3.81808V7.21202L9.36821 13.5757V2.54535L6.9768 0.763533C4.4402 -1.12435 0.827454 0.6702 0.827454 3.81808Z" fill="#D7B33D"/>
</g>
<defs>
<clipPath id="clip0_42_29">
<rect width="37.5793" height="28" fill="white" transform="translate(0.82753)"/>
</clipPath>
</defs>
</svg>
