<svg width="39" height="28" viewBox="0 0 39 28" fill="none" xmlns="http://www.w3.org/2000/svg">
<g clip-path="url(#clip0_369_321)">
<rect x="4.51171" width="30.2108" height="28" fill="#F3CF88"/>
<path d="M3.38969 28H9.36822V13.5758L0.827465 7.21216V25.4546C0.827465 26.8631 1.9762 28 3.38969 28Z" fill="#DFBB74"/>
<path d="M29.8661 28H35.8446C37.2623 28 38.4068 26.8588 38.4068 25.4546V7.21216L29.8661 13.5758" fill="#DFBB74"/>
<path d="M29.8661 2.54535V13.5757L38.4068 7.21202V3.81808C38.4068 0.6702 34.7898 -1.12435 32.2575 0.763533" fill="#D1AD66"/>
<path d="M9.36822 13.5757V2.54541L19.6171 10.1818L29.866 2.54541V13.5757L19.6171 21.2121" fill="#DFBB74"/>
<path d="M0.827457 3.81808V7.21202L9.36822 13.5757V2.54535L6.9768 0.763533C4.4402 -1.12435 0.827457 0.6702 0.827457 3.81808Z" fill="#D1AD66"/>
</g>
<defs>
<clipPath id="clip0_369_321">
<rect width="37.5793" height="28" fill="white" transform="translate(0.82753)"/>
</clipPath>
</defs>
</svg>
