<svg width="38" height="31" viewBox="0 0 38 31" fill="none" xmlns="http://www.w3.org/2000/svg">
<g clip-path="url(#clip0_42_36)">
<path d="M9.81992 17.286L13.8744 28.1127C13.8744 28.1127 14.3813 29.1257 14.9241 29.1257C15.4669 29.1257 23.5403 21.0228 23.5403 21.0228L32.5182 4.29346L9.96459 14.4913L9.81992 17.286Z" fill="#D7B33D"/>
<path d="M15.1958 20.0625L14.4175 28.0428C14.4175 28.0428 14.0917 30.4881 16.6257 28.0428C19.1597 25.5976 21.5853 23.712 21.5853 23.712" fill="#EAC443"/>
<path d="M9.89311 17.6722L1.55289 15.0506C1.55289 15.0506 0.556138 14.6604 0.877091 13.7758C0.943161 13.5933 1.07644 13.4381 1.47514 13.1713C3.32311 11.9286 35.6796 0.708761 35.6796 0.708761C35.6796 0.708761 36.5932 0.411759 37.132 0.609302C37.2653 0.64911 37.3852 0.722362 37.4795 0.821565C37.5739 0.920768 37.6392 1.04236 37.6688 1.17391C37.727 1.40625 37.7514 1.6453 37.7411 1.88413C37.7386 2.09074 37.7127 2.28224 37.693 2.58254C37.4959 5.65009 31.5986 28.5442 31.5986 28.5442C31.5986 28.5442 31.2458 29.8839 29.9816 29.9298C29.6709 29.9395 29.3614 29.8887 29.0715 29.7805C28.7816 29.6723 28.5173 29.5089 28.2942 29.3001C25.8135 27.2414 17.2392 21.6822 15.3445 20.4595C15.3017 20.4314 15.2657 20.3948 15.2389 20.3522C15.2121 20.3095 15.1951 20.2618 15.189 20.2123C15.1625 20.0834 15.3077 19.9238 15.3077 19.9238C15.3077 19.9238 30.2379 7.12054 30.6352 5.77648C30.6659 5.67235 30.5497 5.62097 30.3937 5.66658C29.4021 6.01853 12.2118 16.4916 10.3146 17.6475C10.178 17.6874 10.0337 17.6958 9.89311 17.6722Z" fill="#FFDE6F"/>
</g>
<defs>
<clipPath id="clip0_42_36">
<rect width="37.0221" height="30.2222" fill="white" transform="translate(0.725281)"/>
</clipPath>
</defs>
</svg>
