<svg width="43" height="25" viewBox="0 0 43 25" fill="none" xmlns="http://www.w3.org/2000/svg">
<path fill-rule="evenodd" clip-rule="evenodd" d="M25.0036 18.7398V10.63V1.64781C25.0036 0.484649 24.6793 0 23.7065 0H16.5723C15.8589 0 15.4049 0.549268 15.4049 1.03392C15.4049 1.45719 15.6456 1.75575 15.9527 2.1366C16.4425 2.74417 17.1012 3.56117 17.2208 5.42807V12.0839C17.2208 13.5379 16.9614 13.7963 16.3777 13.7963C14.8536 13.7963 11.0919 8.17442 8.88682 1.71243C8.43283 0.51696 8.01127 0 6.84385 0H2.30392C1.0068 0 0.747375 0.613889 0.747375 1.2924C0.747375 2.48787 2.2715 8.43289 7.91398 16.2842C11.6756 21.6477 16.9614 24.5556 21.7608 24.5556C24.6469 24.5556 25.0036 23.9094 25.0036 22.8108V18.7398Z" fill="#FFDE6F"/>
<path d="M41.2825 1.64781C41.5743 0.678508 41.2825 0 39.9205 0H35.3806C34.2132 0 33.6943 0.613889 33.4025 1.2924C33.4025 1.2924 31.1001 6.91433 27.8248 10.533C26.7547 11.5993 26.3007 11.9224 25.717 11.9224C25.4251 11.9224 25.0036 11.5993 25.0036 10.63V18.7398C25.0036 17.4474 25.263 17.1889 26.2034 17.1889C26.8844 17.1889 28.0194 17.512 30.7109 20.0968C33.7916 23.1662 34.3104 24.5556 36.0291 24.5556H40.5691C41.8662 24.5556 42.5147 23.9094 42.1256 22.6493C41.704 21.3892 40.2448 19.5475 38.2991 17.3504C37.229 16.0903 35.64 14.7656 35.186 14.0871C34.505 13.2148 34.6996 12.827 35.186 12.0839C35.186 12.0516 40.7312 4.29722 41.2825 1.64781Z" fill="#FFDE6F"/>
</svg>
