<svg width="34" height="34" viewBox="0 0 34 34" fill="none" xmlns="http://www.w3.org/2000/svg">
<path d="M16.0382 0.0196626C7.05884 0.447209 -0.0271618 7.92528 7.82734e-05 16.9148C0.00837227 19.6528 0.669371 22.2371 1.83541 24.5205L0.045126 33.2107C-0.0517185 33.6808 0.372251 34.0924 0.839235 33.9818L9.35464 31.9644C11.5424 33.0541 13.9997 33.6836 16.6003 33.7233C25.7781 33.8634 33.4308 26.5761 33.7169 17.4017C34.0235 7.56742 25.9069 -0.450329 16.0382 0.0196626ZM26.1989 26.1989C23.7051 28.6927 20.3894 30.0661 16.8627 30.0661C14.7976 30.0661 12.8206 29.6028 10.9862 28.6891L9.80032 28.0983L4.5795 29.3353L5.67845 24.0005L5.09422 22.8565C4.14195 20.9915 3.65911 18.9749 3.65911 16.8626C3.65911 13.3358 5.0325 10.0202 7.52631 7.52627C9.99784 5.05475 13.3676 3.65901 16.8629 3.65901C20.3896 3.65909 23.7052 5.03247 26.199 7.52619C28.6928 10.02 30.0662 13.3356 30.0663 16.8624C30.0662 20.3577 28.6705 23.7275 26.1989 26.1989Z" fill="#FFDE6F"/>
<path d="M25.046 20.5194L21.7797 19.5816C21.3503 19.4583 20.8879 19.5801 20.575 19.8989L19.7762 20.7127C19.4394 21.0559 18.9284 21.1661 18.4826 20.9858C16.9375 20.3605 13.6872 17.4706 12.8572 16.0251C12.6177 15.6081 12.6573 15.0868 12.9513 14.7063L13.6487 13.8042C13.9219 13.4507 13.9795 12.976 13.7989 12.5674L12.4247 9.45936C12.0955 8.71493 11.1442 8.49823 10.5227 9.02384C9.61112 9.79486 8.52949 10.9665 8.398 12.2645C8.16618 14.553 9.14763 17.4378 12.859 20.9018C17.1467 24.9036 20.5802 25.4323 22.8158 24.8908C24.0838 24.5837 25.0971 23.3524 25.7367 22.3443C26.1727 21.6569 25.8284 20.7441 25.046 20.5194Z" fill="#FFDE6F"/>
</svg>
