<svg width="44" height="44" viewBox="0 0 44 44" fill="none" xmlns="http://www.w3.org/2000/svg">
<g clip-path="url(#clip0_405_183)">
<path d="M25.4663 35.8818L25.4659 35.882C25.2497 35.9495 25.0647 36.0911 24.9446 36.2818C24.8244 36.4725 24.7773 36.6995 24.8119 36.9218C24.8465 37.1441 24.9605 37.3464 25.1329 37.4925C25.3046 37.6381 25.5231 37.7184 25.749 37.7193C25.8542 37.7226 25.9591 37.7078 26.0591 37.6754C26.0595 37.6753 26.0598 37.6752 26.0601 37.6751L35.0856 34.8839L35.0856 34.884L35.0898 34.8825C35.3223 34.8017 35.5144 34.6348 35.6251 34.4164C35.7358 34.198 35.7562 33.9455 35.6818 33.7125C35.6075 33.4794 35.4444 33.2845 35.2275 33.1684C35.0108 33.0523 34.757 33.0239 34.5195 33.0889L34.5195 33.0888L34.5156 33.09L25.4663 35.8818Z" fill="#474C4D" stroke="#474C4D" stroke-width="0.254798"/>
<path d="M25.4664 32.2009L25.4664 32.2009L25.4659 32.201C25.2497 32.2685 25.0647 32.4102 24.9446 32.6008C24.8244 32.7916 24.7773 33.0186 24.8119 33.2408C24.8465 33.4631 24.9605 33.6655 25.1329 33.8116C25.3046 33.9572 25.5231 34.0374 25.749 34.0383C25.8542 34.0417 25.9591 34.0268 26.0591 33.9945L31.8364 32.2112L31.8364 32.2112L31.8373 32.2109C32.0776 32.1347 32.2779 31.9673 32.3937 31.745C32.5094 31.5225 32.5309 31.2636 32.4532 31.0254C32.3755 30.7873 32.2053 30.5899 31.9805 30.4762C31.756 30.3626 31.4951 30.3415 31.255 30.4175C31.2549 30.4176 31.2547 30.4176 31.2545 30.4177L25.4664 32.2009Z" fill="#474C4D" stroke="#474C4D" stroke-width="0.254798"/>
<path d="M7.21568 10.831L7.32606 10.6013C7.28483 10.5811 7.24208 10.5642 7.19819 10.5506L7.17983 10.545H7.16062H7.12781L7.10852 10.7983C7.14568 10.804 7.18177 10.815 7.21568 10.831Z" fill="#636363" stroke="#636363" stroke-width="0.254798"/>
<path d="M15.3235 13.7305L15.1583 13.5383L15.1035 13.5763L15.0858 13.5885L15.0731 13.6059C15.0135 13.6876 14.9667 13.7778 14.9346 13.8736L14.9346 13.8736L14.9345 13.8739C14.9129 13.9388 14.9014 14.0067 14.9006 14.0751L15.1545 14.0916C15.1703 13.9567 15.2294 13.8301 15.3235 13.7305Z" fill="#636363" stroke="#636363" stroke-width="0.254798"/>
<mask id="path-5-outside-1_405_183" maskUnits="userSpaceOnUse" x="-0.333252" y="-0.396973" width="44" height="44" fill="black">
<rect fill="white" x="-0.333252" y="-0.396973" width="44" height="44"/>
<path d="M43.2871 9.77338C43.2923 9.74334 43.2923 9.71266 43.2871 9.68262C43.2903 9.65245 43.2903 9.62204 43.2871 9.59187C43.2768 9.56246 43.2641 9.5339 43.2493 9.50645C43.2101 9.42081 43.1529 9.34438 43.0814 9.28223L42.9623 9.23952C42.9145 9.20227 42.8616 9.17173 42.8053 9.14877H42.762L28.6526 3.27637L22.4426 0.665816H22.3938C22.3486 0.646728 22.3014 0.632412 22.2531 0.623108C22.1392 0.596334 22.0205 0.596334 21.9066 0.623108C21.8582 0.632412 21.8111 0.646728 21.7658 0.665816H21.7333L1.15945 9.10072C1.1098 9.12028 1.06257 9.14535 1.01868 9.17546C0.987821 9.19605 0.960418 9.22126 0.937464 9.2502C0.914389 9.26223 0.895523 9.28083 0.883323 9.30359C0.79638 9.39395 0.733181 9.50392 0.699241 9.6239C0.677517 9.69305 0.666564 9.76505 0.666756 9.83744V35.8629C0.666008 36.0334 0.720857 36.1996 0.823213 36.3371C0.925569 36.4745 1.07001 36.5759 1.23524 36.6263L21.5167 42.8724L22.2856 42.9631L32.7999 39.728L42.6916 36.6743C42.8522 36.62 42.9912 36.5169 43.0885 36.3797C43.1859 36.2424 43.2364 36.0783 43.233 35.9109V9.87481C43.2544 9.84284 43.2725 9.80886 43.2871 9.77338ZM21.1811 41.0946L2.28559 35.2756V10.9158L6.22711 12.133V22.9382C6.22726 23.1042 6.27933 23.266 6.37623 23.4017C6.47313 23.5374 6.61013 23.6403 6.76853 23.6963L6.89306 23.739H6.95803H7.01217C7.05893 23.7446 7.10618 23.7446 7.15294 23.739H7.21249C7.23018 23.7441 7.24895 23.7441 7.26664 23.739C7.29347 23.7441 7.32102 23.7441 7.34785 23.739L7.47237 23.7016C7.50168 23.6896 7.52904 23.6734 7.55359 23.6536C7.58584 23.6371 7.61511 23.6154 7.64022 23.5895L7.68353 23.5522L11.376 20.349L15.1659 26.1787L15.2146 26.2588C15.2747 26.3528 15.3537 26.4336 15.4469 26.4961C15.5401 26.5586 15.6453 26.6014 15.7561 26.6218H15.9943C16.0174 26.6273 16.0415 26.6273 16.0647 26.6218C16.0824 26.6266 16.1011 26.6266 16.1188 26.6218H16.1838C16.2279 26.6059 16.2698 26.5844 16.3083 26.5578C16.3516 26.5303 16.3916 26.4981 16.4274 26.4617L16.5574 26.3229C16.5838 26.295 16.6074 26.2646 16.6277 26.2321C16.6603 26.1901 16.6859 26.1432 16.7035 26.0933C16.7254 26.0455 16.7418 25.9953 16.7523 25.9438C16.7576 25.8906 16.7576 25.8369 16.7523 25.7837V15.3789L21.1811 16.7402V41.0946ZM15.6748 13.5104L15.6207 13.5477L15.3338 13.7613C15.2224 13.8789 15.1522 14.0285 15.1334 14.1884C15.1307 14.2203 15.1307 14.2525 15.1334 14.2844V23.0557L12.3181 18.7101C12.3204 18.696 12.3204 18.6815 12.3181 18.6674C12.2983 18.6329 12.2747 18.6007 12.2477 18.5713C12.2125 18.5346 12.1745 18.5007 12.134 18.4699C12.0971 18.4381 12.055 18.4128 12.0095 18.3951L11.9337 18.3578C11.903 18.3424 11.8701 18.3316 11.8362 18.3257L11.6846 18.3151C11.6146 18.3043 11.5434 18.3043 11.4735 18.3151H11.3598C11.2926 18.3315 11.2287 18.3586 11.1703 18.3951L11.062 18.4699L10.997 18.5286L7.84054 21.2833V12.3412C7.8912 12.3345 7.94051 12.3201 7.98672 12.2985L16.958 8.62025L22.8674 10.8945L15.6748 13.5104ZM22.0636 15.3308L18.3061 14.167L25.2333 11.6579L25.3633 11.5885C25.4066 11.5611 25.4466 11.5288 25.4824 11.4924C25.5584 11.4235 25.6192 11.3399 25.6611 11.2468C25.6803 11.2058 25.6949 11.1629 25.7044 11.1187C25.7074 11.1064 25.7074 11.0936 25.7044 11.0813C25.71 11.0352 25.71 10.9886 25.7044 10.9425C25.7051 10.8592 25.6923 10.7763 25.6665 10.6969C25.6665 10.6969 25.6665 10.6489 25.6394 10.6275C25.6236 10.5892 25.6055 10.5517 25.5853 10.5154L25.5149 10.4193C25.483 10.3799 25.4466 10.344 25.4066 10.3126H25.3687C25.3273 10.2761 25.2796 10.2472 25.2279 10.2272L17.3749 7.04538H17.337C17.233 6.99652 17.1192 6.97117 17.004 6.97117C16.8888 6.97117 16.7751 6.99652 16.6711 7.04538L7.38575 10.8411C7.42382 10.8611 7.46005 10.8843 7.49403 10.9105C7.45104 10.8803 7.40355 10.8569 7.35326 10.8411C7.33266 10.8251 7.30855 10.8142 7.28288 10.8091L3.85571 9.74135L22.0798 2.26738L28.0354 4.73913L40.1199 9.77338L22.0636 15.3308ZM41.6683 35.3183L32.3451 38.1958L22.8053 41.1373V16.7829L41.6683 10.9639V35.3183Z"/>
</mask>
<path d="M43.2871 9.77338C43.2923 9.74334 43.2923 9.71266 43.2871 9.68262C43.2903 9.65245 43.2903 9.62204 43.2871 9.59187C43.2768 9.56246 43.2641 9.5339 43.2493 9.50645C43.2101 9.42081 43.1529 9.34438 43.0814 9.28223L42.9623 9.23952C42.9145 9.20227 42.8616 9.17173 42.8053 9.14877H42.762L28.6526 3.27637L22.4426 0.665816H22.3938C22.3486 0.646728 22.3014 0.632412 22.2531 0.623108C22.1392 0.596334 22.0205 0.596334 21.9066 0.623108C21.8582 0.632412 21.8111 0.646728 21.7658 0.665816H21.7333L1.15945 9.10072C1.1098 9.12028 1.06257 9.14535 1.01868 9.17546C0.987821 9.19605 0.960418 9.22126 0.937464 9.2502C0.914389 9.26223 0.895523 9.28083 0.883323 9.30359C0.79638 9.39395 0.733181 9.50392 0.699241 9.6239C0.677517 9.69305 0.666564 9.76505 0.666756 9.83744V35.8629C0.666008 36.0334 0.720857 36.1996 0.823213 36.3371C0.925569 36.4745 1.07001 36.5759 1.23524 36.6263L21.5167 42.8724L22.2856 42.9631L32.7999 39.728L42.6916 36.6743C42.8522 36.62 42.9912 36.5169 43.0885 36.3797C43.1859 36.2424 43.2364 36.0783 43.233 35.9109V9.87481C43.2544 9.84284 43.2725 9.80886 43.2871 9.77338ZM21.1811 41.0946L2.28559 35.2756V10.9158L6.22711 12.133V22.9382C6.22726 23.1042 6.27933 23.266 6.37623 23.4017C6.47313 23.5374 6.61013 23.6403 6.76853 23.6963L6.89306 23.739H6.95803H7.01217C7.05893 23.7446 7.10618 23.7446 7.15294 23.739H7.21249C7.23018 23.7441 7.24895 23.7441 7.26664 23.739C7.29347 23.7441 7.32102 23.7441 7.34785 23.739L7.47237 23.7016C7.50168 23.6896 7.52904 23.6734 7.55359 23.6536C7.58584 23.6371 7.61511 23.6154 7.64022 23.5895L7.68353 23.5522L11.376 20.349L15.1659 26.1787L15.2146 26.2588C15.2747 26.3528 15.3537 26.4336 15.4469 26.4961C15.5401 26.5586 15.6453 26.6014 15.7561 26.6218H15.9943C16.0174 26.6273 16.0415 26.6273 16.0647 26.6218C16.0824 26.6266 16.1011 26.6266 16.1188 26.6218H16.1838C16.2279 26.6059 16.2698 26.5844 16.3083 26.5578C16.3516 26.5303 16.3916 26.4981 16.4274 26.4617L16.5574 26.3229C16.5838 26.295 16.6074 26.2646 16.6277 26.2321C16.6603 26.1901 16.6859 26.1432 16.7035 26.0933C16.7254 26.0455 16.7418 25.9953 16.7523 25.9438C16.7576 25.8906 16.7576 25.8369 16.7523 25.7837V15.3789L21.1811 16.7402V41.0946ZM15.6748 13.5104L15.6207 13.5477L15.3338 13.7613C15.2224 13.8789 15.1522 14.0285 15.1334 14.1884C15.1307 14.2203 15.1307 14.2525 15.1334 14.2844V23.0557L12.3181 18.7101C12.3204 18.696 12.3204 18.6815 12.3181 18.6674C12.2983 18.6329 12.2747 18.6007 12.2477 18.5713C12.2125 18.5346 12.1745 18.5007 12.134 18.4699C12.0971 18.4381 12.055 18.4128 12.0095 18.3951L11.9337 18.3578C11.903 18.3424 11.8701 18.3316 11.8362 18.3257L11.6846 18.3151C11.6146 18.3043 11.5434 18.3043 11.4735 18.3151H11.3598C11.2926 18.3315 11.2287 18.3586 11.1703 18.3951L11.062 18.4699L10.997 18.5286L7.84054 21.2833V12.3412C7.8912 12.3345 7.94051 12.3201 7.98672 12.2985L16.958 8.62025L22.8674 10.8945L15.6748 13.5104ZM22.0636 15.3308L18.3061 14.167L25.2333 11.6579L25.3633 11.5885C25.4066 11.5611 25.4466 11.5288 25.4824 11.4924C25.5584 11.4235 25.6192 11.3399 25.6611 11.2468C25.6803 11.2058 25.6949 11.1629 25.7044 11.1187C25.7074 11.1064 25.7074 11.0936 25.7044 11.0813C25.71 11.0352 25.71 10.9886 25.7044 10.9425C25.7051 10.8592 25.6923 10.7763 25.6665 10.6969C25.6665 10.6969 25.6665 10.6489 25.6394 10.6275C25.6236 10.5892 25.6055 10.5517 25.5853 10.5154L25.5149 10.4193C25.483 10.3799 25.4466 10.344 25.4066 10.3126H25.3687C25.3273 10.2761 25.2796 10.2472 25.2279 10.2272L17.3749 7.04538H17.337C17.233 6.99652 17.1192 6.97117 17.004 6.97117C16.8888 6.97117 16.7751 6.99652 16.6711 7.04538L7.38575 10.8411C7.42382 10.8611 7.46005 10.8843 7.49403 10.9105C7.45104 10.8803 7.40355 10.8569 7.35326 10.8411C7.33266 10.8251 7.30855 10.8142 7.28288 10.8091L3.85571 9.74135L22.0798 2.26738L28.0354 4.73913L40.1199 9.77338L22.0636 15.3308ZM41.6683 35.3183L32.3451 38.1958L22.8053 41.1373V16.7829L41.6683 10.9639V35.3183Z" fill="#636363"/>
<path d="M43.2871 9.77338C43.2923 9.74334 43.2923 9.71266 43.2871 9.68262C43.2903 9.65245 43.2903 9.62204 43.2871 9.59187C43.2768 9.56246 43.2641 9.5339 43.2493 9.50645C43.2101 9.42081 43.1529 9.34438 43.0814 9.28223L42.9623 9.23952C42.9145 9.20227 42.8616 9.17173 42.8053 9.14877H42.762L28.6526 3.27637L22.4426 0.665816H22.3938C22.3486 0.646728 22.3014 0.632412 22.2531 0.623108C22.1392 0.596334 22.0205 0.596334 21.9066 0.623108C21.8582 0.632412 21.8111 0.646728 21.7658 0.665816H21.7333L1.15945 9.10072C1.1098 9.12028 1.06257 9.14535 1.01868 9.17546C0.987821 9.19605 0.960418 9.22126 0.937464 9.2502C0.914389 9.26223 0.895523 9.28083 0.883323 9.30359C0.79638 9.39395 0.733181 9.50392 0.699241 9.6239C0.677517 9.69305 0.666564 9.76505 0.666756 9.83744V35.8629C0.666008 36.0334 0.720857 36.1996 0.823213 36.3371C0.925569 36.4745 1.07001 36.5759 1.23524 36.6263L21.5167 42.8724L22.2856 42.9631L32.7999 39.728L42.6916 36.6743C42.8522 36.62 42.9912 36.5169 43.0885 36.3797C43.1859 36.2424 43.2364 36.0783 43.233 35.9109V9.87481C43.2544 9.84284 43.2725 9.80886 43.2871 9.77338ZM21.1811 41.0946L2.28559 35.2756V10.9158L6.22711 12.133V22.9382C6.22726 23.1042 6.27933 23.266 6.37623 23.4017C6.47313 23.5374 6.61013 23.6403 6.76853 23.6963L6.89306 23.739H6.95803H7.01217C7.05893 23.7446 7.10618 23.7446 7.15294 23.739H7.21249C7.23018 23.7441 7.24895 23.7441 7.26664 23.739C7.29347 23.7441 7.32102 23.7441 7.34785 23.739L7.47237 23.7016C7.50168 23.6896 7.52904 23.6734 7.55359 23.6536C7.58584 23.6371 7.61511 23.6154 7.64022 23.5895L7.68353 23.5522L11.376 20.349L15.1659 26.1787L15.2146 26.2588C15.2747 26.3528 15.3537 26.4336 15.4469 26.4961C15.5401 26.5586 15.6453 26.6014 15.7561 26.6218H15.9943C16.0174 26.6273 16.0415 26.6273 16.0647 26.6218C16.0824 26.6266 16.1011 26.6266 16.1188 26.6218H16.1838C16.2279 26.6059 16.2698 26.5844 16.3083 26.5578C16.3516 26.5303 16.3916 26.4981 16.4274 26.4617L16.5574 26.3229C16.5838 26.295 16.6074 26.2646 16.6277 26.2321C16.6603 26.1901 16.6859 26.1432 16.7035 26.0933C16.7254 26.0455 16.7418 25.9953 16.7523 25.9438C16.7576 25.8906 16.7576 25.8369 16.7523 25.7837V15.3789L21.1811 16.7402V41.0946ZM15.6748 13.5104L15.6207 13.5477L15.3338 13.7613C15.2224 13.8789 15.1522 14.0285 15.1334 14.1884C15.1307 14.2203 15.1307 14.2525 15.1334 14.2844V23.0557L12.3181 18.7101C12.3204 18.696 12.3204 18.6815 12.3181 18.6674C12.2983 18.6329 12.2747 18.6007 12.2477 18.5713C12.2125 18.5346 12.1745 18.5007 12.134 18.4699C12.0971 18.4381 12.055 18.4128 12.0095 18.3951L11.9337 18.3578C11.903 18.3424 11.8701 18.3316 11.8362 18.3257L11.6846 18.3151C11.6146 18.3043 11.5434 18.3043 11.4735 18.3151H11.3598C11.2926 18.3315 11.2287 18.3586 11.1703 18.3951L11.062 18.4699L10.997 18.5286L7.84054 21.2833V12.3412C7.8912 12.3345 7.94051 12.3201 7.98672 12.2985L16.958 8.62025L22.8674 10.8945L15.6748 13.5104ZM22.0636 15.3308L18.3061 14.167L25.2333 11.6579L25.3633 11.5885C25.4066 11.5611 25.4466 11.5288 25.4824 11.4924C25.5584 11.4235 25.6192 11.3399 25.6611 11.2468C25.6803 11.2058 25.6949 11.1629 25.7044 11.1187C25.7074 11.1064 25.7074 11.0936 25.7044 11.0813C25.71 11.0352 25.71 10.9886 25.7044 10.9425C25.7051 10.8592 25.6923 10.7763 25.6665 10.6969C25.6665 10.6969 25.6665 10.6489 25.6394 10.6275C25.6236 10.5892 25.6055 10.5517 25.5853 10.5154L25.5149 10.4193C25.483 10.3799 25.4466 10.344 25.4066 10.3126H25.3687C25.3273 10.2761 25.2796 10.2472 25.2279 10.2272L17.3749 7.04538H17.337C17.233 6.99652 17.1192 6.97117 17.004 6.97117C16.8888 6.97117 16.7751 6.99652 16.6711 7.04538L7.38575 10.8411C7.42382 10.8611 7.46005 10.8843 7.49403 10.9105C7.45104 10.8803 7.40355 10.8569 7.35326 10.8411C7.33266 10.8251 7.30855 10.8142 7.28288 10.8091L3.85571 9.74135L22.0798 2.26738L28.0354 4.73913L40.1199 9.77338L22.0636 15.3308ZM41.6683 35.3183L32.3451 38.1958L22.8053 41.1373V16.7829L41.6683 10.9639V35.3183Z" stroke="#636363" stroke-width="0.50185" mask="url(#path-5-outside-1_405_183)"/>
<path d="M7.22098 10.8333L7.32429 10.6005C7.26816 10.574 7.20847 10.5558 7.1471 10.5464L7.10283 10.7973C7.14333 10.8054 7.18291 10.8175 7.22098 10.8333Z" fill="#636363" stroke="#636363" stroke-width="0.254798"/>
<path d="M15.3231 13.7305L15.1528 13.5421L15.1034 13.58L15.0908 13.5897L15.081 13.6022C14.9992 13.7061 14.9409 13.8263 14.9101 13.9546C14.8793 14.0829 14.8767 14.2163 14.9026 14.3457L15.155 14.3207V14.1743H15.1554L15.1545 14.1637C15.1524 14.139 15.1524 14.1142 15.1543 14.0894C15.1705 13.9553 15.2295 13.8296 15.3231 13.7305Z" fill="#636363" stroke="#636363" stroke-width="0.254798"/>
</g>
<defs>
<clipPath id="clip0_405_183">
<rect width="43.901" height="43.6631" fill="white"/>
</clipPath>
</defs>
</svg>
